<svg version="1.1" xmlns="http://www.w3.org/2000/svg" xmlns:xlink="http://www.w3.org/1999/xlink" width="53.3331" height="8.23263" viewBox="0,0,53.3331,8.23263"><g transform="translate(-212.03898,-227.08823)"><g data-paper-data="{&quot;isPaintingLayer&quot;:true}" fill="#ff6262" fill-rule="nonzero" stroke="none" stroke-width="1" stroke-linecap="butt" stroke-linejoin="miter" stroke-miterlimit="10" stroke-dasharray="" stroke-dashoffset="0" style="mix-blend-mode: normal"><g><path d="M212.03898,227.08823l2.50559,0.42952l-1.64653,1.64653zM212.46851,235.10608l-0.28635,-5.65546h1.78969l-0.28635,5.65546z"/><path d="M219.41254,235.10608l-0.14317,-3.50782c0,-0.42952 -0.07159,-0.71588 -0.14317,-0.85906c-0.07159,-0.14317 -0.28635,-0.21476 -0.42952,-0.21476c-0.14317,0 -0.35795,0.07159 -0.71588,0.14317c-0.28635,0.07159 -0.57271,0.21476 -0.85906,0.35795l-0.21476,4.08052h-1.21699l-0.28635,-5.65546h1.78969l-0.07159,1.07382c0.21476,-0.21476 0.42952,-0.42952 0.71588,-0.6443c0.28635,-0.21476 0.57271,-0.35795 0.85906,-0.42952c0.28635,-0.07159 0.57271,-0.14317 0.85906,-0.14317c0.50111,0 0.85906,0.14317 1.00223,0.42952c0.14317,0.28635 0.28635,0.6443 0.28635,1.21699c0,0.07159 0,0.07159 0,0.14317c0,0.07159 0,0.07159 0,0.14317l-0.14317,3.93733h-1.28858z"/><path d="M231.72566,233.03004c-0.07159,0.57271 -0.21476,1.07382 -0.50111,1.36018c-0.28635,0.35795 -0.6443,0.57271 -1.07382,0.71588c-0.42952,0.14317 -0.85906,0.21476 -1.36018,0.21476c-0.35795,0 -0.71588,-0.07159 -1.14541,-0.28635c-0.42952,-0.21476 -0.78746,-0.42952 -1.21699,-0.78746c-0.35795,-0.35795 -0.71588,-0.85906 -1.00223,-1.36018l0.07159,-0.07159c0.28635,0.21476 0.57271,0.42952 0.85906,0.57271c0.28635,0.14317 0.6443,0.28635 0.93065,0.42952c0.28635,0.14317 0.57271,0.21476 0.85906,0.28635c0.28635,0.07159 0.50111,0.07159 0.6443,0.07159c0.28635,0 0.57271,-0.07159 0.78746,-0.21476c0.21476,-0.14317 0.35795,-0.42952 0.35795,-0.71588v0c0,-0.14317 -0.07159,-0.28635 -0.28635,-0.50111c-0.21476,-0.14317 -0.42952,-0.35795 -0.78746,-0.50111c-0.28635,-0.21476 -0.6443,-0.35795 -1.00223,-0.57271c-0.35795,-0.21476 -0.6443,-0.42952 -1.00223,-0.6443c-0.35795,-0.21476 -0.57271,-0.42952 -0.78746,-0.71588c-0.21476,-0.28635 -0.28635,-0.50111 -0.28635,-0.78746v-0.07159v-0.07159c0.07159,-0.42952 0.28635,-0.85906 0.57271,-1.21699c0.28635,-0.35795 0.6443,-0.57271 1.00223,-0.78746c0.35795,-0.21476 0.78746,-0.28635 1.21699,-0.28635c0.42952,0 0.93065,0.07159 1.43176,0.21476c0.50111,0.14317 1.00223,0.28635 1.50334,0.57271l-0.57271,1.64653c-0.50111,-0.50111 -1.00223,-0.93065 -1.36018,-1.14541c-0.35795,-0.21476 -0.71588,-0.35795 -1.07382,-0.35795c-0.35795,0 -0.6443,0.07159 -0.85906,0.28635c-0.21476,0.21476 -0.28635,0.50111 -0.35795,0.93065v0c0,0.14317 0.07159,0.28635 0.21476,0.50111c0.14317,0.14317 0.35795,0.28635 0.6443,0.50111c0.28635,0.14317 0.57271,0.28635 0.85906,0.50111c0.28635,0.14317 0.6443,0.35795 0.93065,0.50111c0.28635,0.21476 0.57271,0.35795 0.85906,0.57271c0.28635,0.21476 0.42952,0.42952 0.6443,0.6443c0.21476,0.21476 0.21476,0.42952 0.21476,0.71588v-0.14317z"/><path d="M238.16861,235.24926c-1.07382,0 -1.93288,-0.07159 -2.57716,-0.14317c-0.6443,-0.07159 -1.21699,-0.28635 -1.64653,-0.50111c-0.42952,-0.21476 -0.71588,-0.50111 -0.85906,-0.85906c-0.14317,-0.35795 -0.28635,-0.78746 -0.28635,-1.28858c0,-0.6443 0.07159,-1.21699 0.28635,-1.71812c0.21476,-0.50111 0.50111,-0.85906 0.85906,-1.07382c0.35795,-0.28635 0.78746,-0.35795 1.21699,-0.35795c0.6443,0 1.14541,0.07159 1.64653,0.21476c0.50111,0.14317 0.93065,0.28635 1.21699,0.50111l-0.6443,1.36018c-0.42952,-0.42952 -0.78746,-0.71588 -1.07382,-0.93065c-0.35795,-0.21476 -0.6443,-0.35795 -1.00223,-0.35795c-0.21476,0 -0.35795,0.07159 -0.57271,0.21476c-0.14317,0.14317 -0.28635,0.42952 -0.35795,0.78746c-0.07159,0.35795 -0.14317,0.85906 -0.14317,1.50334c0,0.42952 0.14317,0.85906 0.42952,1.14541c0.28635,0.28635 0.71588,0.57271 1.28858,0.78746c0.57271,0.21476 1.36018,0.42952 2.29081,0.6443z"/><path d="M239.31402,235.10608l-0.35795,-5.65546h1.78969v1.00223c0.14317,-0.21476 0.35795,-0.35795 0.57271,-0.57271c0.21476,-0.14317 0.50111,-0.28635 0.71588,-0.42952c0.21476,-0.14317 0.50111,-0.14317 0.78746,-0.14317v1.50334c-0.14317,-0.07159 -0.28635,-0.14317 -0.42952,-0.14317c-0.14317,-0.07159 -0.35795,-0.07159 -0.50111,-0.07159c-0.21476,0 -0.42952,0 -0.6443,0.07159c-0.21476,0.07159 -0.35795,0.14317 -0.50111,0.21476l-0.14317,4.22369z"/><path d="M249.12157,234.31862c-0.28635,0.28635 -0.57271,0.50111 -0.85906,0.71588c-0.28635,0.21476 -0.42952,0.28635 -0.6443,0.28635c-0.14317,0 -0.28635,-0.07159 -0.42952,-0.14317c-0.14317,-0.14317 -0.21476,-0.28635 -0.35795,-0.57271c-0.21476,0.21476 -0.50111,0.35795 -0.78746,0.42952c-0.28635,0.14317 -0.6443,0.21476 -1.00223,0.21476c-0.14317,0 -0.21476,0 -0.28635,0c-0.07159,0 -0.21476,0 -0.28635,0c-0.93065,0 -1.43176,-0.35795 -1.43176,-1.00223c0,-0.07159 0,-0.14317 0,-0.28635c0,-0.07159 0,-0.21476 0.07159,-0.28635c0.07159,-0.21476 0.21476,-0.42952 0.35795,-0.57271c0.21476,-0.21476 0.42952,-0.35795 0.6443,-0.50111c0.28635,-0.14317 0.50111,-0.28635 0.78746,-0.42952c0.28635,-0.14317 0.57271,-0.21476 0.78746,-0.35795c0.21476,-0.14317 0.42952,-0.21476 0.57271,-0.35795c0.14317,-0.14317 0.21476,-0.21476 0.21476,-0.35795c0,-0.28635 -0.07159,-0.50111 -0.14317,-0.57271c-0.07159,-0.07159 -0.21476,-0.14317 -0.42952,-0.14317c-0.14317,0 -0.35795,0 -0.71588,0.07159c-0.28635,0 -0.6443,0.07159 -1.00223,0.14317c-0.35795,0.07159 -0.71588,0.14317 -1.07382,0.21476l-0.07159,-0.07159c0.21476,-0.14317 0.42952,-0.35795 0.71588,-0.50111c0.28635,-0.14317 0.57271,-0.28635 0.93065,-0.42952c0.35795,-0.14317 0.6443,-0.21476 1.00223,-0.28635c0.35795,-0.07159 0.6443,-0.14317 0.85906,-0.14317c0.42952,0 0.71588,0.07159 0.93065,0.14317c0.21476,0.07159 0.35795,0.28635 0.42952,0.50111c0.07159,0.21476 0.07159,0.6443 0.07159,1.14541v2.57716c0,0.21476 0,0.42952 0.07159,0.50111c0.07159,0.07159 0.14317,0.14317 0.28635,0.14317c0.07159,0 0.14317,0 0.21476,0c0.35795,-0.07159 0.42952,-0.14317 0.57271,-0.07159zM246.75917,232.09937c-0.14317,0.14317 -0.35795,0.28635 -0.57271,0.42952c-0.21476,0.14317 -0.50111,0.28635 -0.71588,0.50111c-0.21476,0.14317 -0.42952,0.35795 -0.50111,0.57271c-0.07159,0.21476 -0.14317,0.35795 -0.14317,0.50111c0,0.14317 0.07159,0.21476 0.14317,0.35795c0.07159,0.14317 0.21476,0.14317 0.35795,0.14317h0.07159c0.07159,0 0.07159,0 0.07159,0c0.14317,0 0.28635,-0.07159 0.50111,-0.14317c0.21476,-0.07159 0.35795,-0.14317 0.50111,-0.21476c0.14317,-0.07159 0.28635,-0.14317 0.35795,-0.21476z"/><path d="M253.05892,234.03227c-0.35795,0.42952 -0.6443,0.71588 -0.93065,0.93065c-0.28635,0.21476 -0.57271,0.28635 -0.78746,0.28635c-0.28635,0 -0.50111,-0.14317 -0.71588,-0.50111c-0.14317,-0.28635 -0.28635,-0.78746 -0.28635,-1.36018l-0.07159,-2.79194h-1.07382v-0.14317l2.57716,-2.79194h0.14317l-0.07159,1.93288l1.14541,-0.35795v1.36018h-1.21699l-0.14317,2.57716c0,0.07159 0,0.07159 0,0.14317c0,0.07159 0,0.07159 0,0.14317c0,0.28635 0,0.50111 0.07159,0.6443c0.07159,0.14317 0.21476,0.21476 0.35795,0.21476c0.21476,0 0.57271,-0.14317 1.00223,-0.35795z"/><path d="M259.14389,235.24926c-1.07382,0 -1.93288,-0.07159 -2.57716,-0.14317c-0.6443,-0.07159 -1.21699,-0.28635 -1.64653,-0.50111c-0.42952,-0.21476 -0.71588,-0.50111 -0.85906,-0.85906c-0.14317,-0.35795 -0.28635,-0.78746 -0.28635,-1.28858c0,-0.6443 0.07159,-1.21699 0.28635,-1.71812c0.21476,-0.50111 0.50111,-0.85906 0.85906,-1.07382c0.35795,-0.28635 0.78746,-0.35795 1.21699,-0.35795c0.6443,0 1.14541,0.07159 1.64653,0.21476c0.50111,0.14317 0.93065,0.28635 1.21699,0.50111l-0.6443,1.36018c-0.42952,-0.42952 -0.78746,-0.71588 -1.07382,-0.93065c-0.35795,-0.21476 -0.6443,-0.35795 -1.00223,-0.35795c-0.21476,0 -0.35795,0.07159 -0.57271,0.21476c-0.14317,0.14317 -0.28635,0.42952 -0.35795,0.78746c-0.07159,0.35795 -0.14317,0.85906 -0.14317,1.50334c0,0.42952 0.14317,0.85906 0.42952,1.14541c0.28635,0.28635 0.71588,0.57271 1.28858,0.78746c0.57271,0.21476 1.36018,0.42952 2.29081,0.6443z"/><path d="M263.94029,235.10608l-0.14317,-3.50782c0,-0.42952 -0.07159,-0.71588 -0.14317,-0.85906c-0.07159,-0.14317 -0.28635,-0.21476 -0.42952,-0.21476c-0.14317,0 -0.42952,0.07159 -0.71588,0.14317c-0.28635,0.07159 -0.57271,0.21476 -0.85906,0.42952l-0.14317,4.08052h-1.21699l-0.28635,-7.94626h1.78969l-0.14317,3.43622c0.21476,-0.28635 0.42952,-0.50111 0.71588,-0.6443c0.28635,-0.21476 0.57271,-0.35795 0.85906,-0.42952c0.28635,-0.14317 0.57271,-0.14317 0.85906,-0.14317c0.50111,0 0.85906,0.14317 1.00223,0.42952c0.14317,0.28635 0.28635,0.6443 0.28635,1.21699c0,0.07159 0,0.07159 0,0.14317c0,0.07159 0,0.07159 0,0.14317l-0.14317,3.93733h-1.28858z"/></g></g></g></svg>