<svg version="1.1" xmlns="http://www.w3.org/2000/svg" xmlns:xlink="http://www.w3.org/1999/xlink" width="61.94611" height="76.97199" viewBox="0,0,61.94611,76.97199"><g transform="translate(-209.02703,-141.51406)"><g data-paper-data="{&quot;isPaintingLayer&quot;:true}" fill-rule="nonzero" stroke-linecap="butt" stroke-linejoin="miter" stroke-miterlimit="10" stroke-dasharray="" stroke-dashoffset="0" style="mix-blend-mode: normal"><path d="M270.22313,149.0274v61.9466c0,3.72889 -3.03179,6.76205 -6.76332,6.76205h-46.92073c-3.7276,0 -6.76204,-3.03313 -6.76204,-6.76205v-61.94789c0,-3.72889 3.03445,-6.76205 6.76205,-6.76205h46.92074c3.73154,0 6.76332,3.03447 6.76332,6.76334z" fill="#ff6666" stroke="#d25454" stroke-width="1.5"/><text transform="translate(222.39998,207.92461) scale(0.27778,0.27778)" font-size="40" xml:space="preserve" fill="#933b3b" fill-rule="nonzero" stroke="none" stroke-width="1" stroke-linecap="butt" stroke-linejoin="miter" stroke-miterlimit="10" stroke-dasharray="" stroke-dashoffset="0" font-family="Sans Serif" font-weight="normal" text-anchor="start" style="mix-blend-mode: normal"><tspan x="0" dy="0">飞弹卡</tspan></text><g stroke="none" stroke-width="1"><path d="M236.1006,183.03579c-2.90805,2.81092 -6.66947,3.74267 -6.66947,3.74267c0,0 -0.01536,-3.87508 1.99999,-7.3817z" fill="#fd6513"/><path d="M235.63911,182.56576c-2.26184,1.76928 -4.72873,2.3854 -4.72873,2.3854c0,0 -0.03952,-2.56942 1.15794,-5.16819z" fill="#fd9c13"/><path d="M229.25453,179.8528l-9.01985,2.29728l6.23452,-7.99993l7.20033,0.03746z" fill="#f12a3f"/><path d="M232.65275,175.49232l-3.39821,4.36048l-6.01071,1.55188l4.60231,-5.90553z" fill="#c92334"/><path d="M240.60509,179.59265l1.7953,6.97303l-6.23452,7.99993l0.02422,-9.30777z" fill="#f12a3f"/><path d="M240.79023,185.58677l-4.60231,5.90553l0.00218,-6.23446l3.39821,-4.36048z" fill="#c92334"/><path d="M247.54418,157.51717c0.23679,-0.0914 0.41249,-0.17522 0.64928,-0.26662c-0.20246,0.11816 -0.41249,0.17522 -0.64928,0.26662zM244.15237,159.17847c0.58061,-0.32014 1.16123,-0.64027 1.74942,-0.89932c-0.58819,0.25904 -1.1688,0.57918 -1.74942,0.89932z" fill="#fdb813"/><path d="M249.41175,156.82031c-0.29788,0.09898 -0.62252,0.23229 -0.92041,0.33126c0.32464,-0.13331 0.62252,-0.23229 0.92041,-0.33126z" fill="#f12a3f"/><path d="M242.73518,160.00557z" fill="#fdb813"/><path d="M253.60056,160.08474c0.08525,-1.31324 0.13215,-2.43563 0.12907,-3.21064c0.03741,0.80177 0.01727,1.88983 -0.12907,3.21064zM253.53851,161.08494c0.04997,-0.34737 0.07317,-0.66041 0.09638,-0.97345c-0.05754,0.28628 -0.08075,0.59932 -0.09638,0.97345z" fill="#db2639"/><path d="M245.3369,177.98227c-0.60382,0.63317 -1.21522,1.20526 -1.79986,1.743c0.58464,-0.53775 1.19604,-1.10983 1.79986,-1.743zM242.04752,160.46305l0.68764,-0.45748zM230.93815,175.92209l0.27563,-0.77857c-0.11863,0.29386 -0.21051,0.55338 -0.27563,0.77857zM253.07768,163.87149c-0.14184,0.60689 -0.27611,1.27488 -0.44471,1.91611c0.1686,-0.64123 0.30286,-1.30921 0.44471,-1.91611zM241.00005,181.77681c-0.22921,0.15249 -0.48519,0.33932 -0.7144,0.49181c0.25597,-0.18683 0.48519,-0.33932 0.7144,-0.49181zM232.85902,171.40366c0.37863,-0.69829 0.78402,-1.43092 1.25051,-2.17113c-0.46648,0.7402 -0.87187,1.47283 -1.25051,2.17113zM232.26231,172.59424c0.12621,-0.23276 0.24485,-0.52662 0.37106,-0.75939c-0.12621,0.23276 -0.24485,0.52662 -0.37106,0.75939zM231.21378,175.14352zM249.41175,156.82031zM247.54418,157.51717c-0.1757,0.08382 -0.41249,0.17522 -0.58819,0.25904c0.1757,-0.08382 0.41249,-0.17522 0.58819,-0.25904zM253.72963,156.87409c-0.00307,-0.77502 -0.02935,-1.237 -0.02935,-1.237c0,0 -0.4544,0.08737 -1.20669,0.27372c0.75229,-0.18635 1.20669,-0.27372 1.20669,-0.27372c0,0 0.02628,0.46198 0.02935,1.237zM252.63299,165.7876c-0.12266,0.51147 -0.30642,1.03051 -0.45583,1.57631c0.14942,-0.5458 0.33317,-1.06485 0.45583,-1.57631zM246.95599,157.77622l-1.0542,0.50294zM242.04752,160.46305c-1.86047,1.25427 -3.70982,2.84833 -5.235,4.80539c-1.01679,1.30471 -1.93815,2.6286 -2.76409,3.97167c0.79918,-1.30874 1.72054,-2.63263 2.76409,-3.97167c1.52518,-1.95706 3.37453,-3.55113 5.235,-4.80539zM252.14282,167.33715l-0.27563,0.77857c0.12621,-0.23276 0.21809,-0.49229 0.27563,-0.77857zM233.76587,181.21627l-3.43345,-2.67576c0.06915,-0.4428 0.19181,-0.95427 0.28771,-1.4314c-0.12266,0.51147 -0.21856,0.9886 -0.28771,1.4314l6.93556,5.40503c0.41249,-0.17522 0.8785,-0.41911 1.31775,-0.62867c-0.46601,0.24389 -0.90525,0.45345 -1.31775,0.62867zM253.07768,163.87149l0.23017,-1.14512zM248.48625,174.36602c1.52518,-1.95706 2.59241,-4.10546 3.38094,-6.2503c-0.72744,2.13727 -1.85576,4.29324 -3.38094,6.2503zM253.30786,162.72637l0.20744,-1.32839c-0.10348,0.41604 -0.13829,0.8856 -0.20744,1.32839zM231.65397,173.94134c0.11863,-0.29386 0.21051,-0.55338 0.36348,-0.82048c-0.11863,0.29386 -0.24485,0.52662 -0.36348,0.82048zM232.01746,173.12086c0.0727,-0.1641 0.14539,-0.32819 0.24485,-0.52662c-0.0727,0.1641 -0.17215,0.36252 -0.24485,0.52662z" fill="#fdb813"/><path d="M233.73911,181.25061l-3.50211,-2.72927c0.06915,-0.4428 0.16505,-0.91993 0.28771,-1.4314c0.11106,-0.35495 0.18778,-0.73665 0.3256,-1.12594l0.27563,-0.77857c0.09188,-0.25952 0.21051,-0.55338 0.30239,-0.8129c0.04594,-0.12976 0.11863,-0.29386 0.16457,-0.42362c0.09188,-0.25952 0.24485,-0.52662 0.36348,-0.82048c0.09945,-0.19843 0.17215,-0.36252 0.24485,-0.52662c0.12621,-0.23276 0.24485,-0.52662 0.37106,-0.75939c0.0727,-0.1641 0.15297,-0.2671 0.22566,-0.43119c0.37863,-0.69829 0.78402,-1.43092 1.25051,-2.17113c0.82594,-1.34307 1.7473,-2.66696 2.76409,-3.97167c1.52518,-1.95706 3.37453,-3.55113 5.235,-4.80539l0.68764,-0.45748c0.49276,-0.27823 0.95119,-0.58321 1.4172,-0.8271c0.58061,-0.32014 1.19556,-0.61352 1.74942,-0.89932l1.0542,-0.50294l3.15877,2.4617l-16.34889,20.97836z" fill="#fdb813"/><path d="M250.08799,160.27225l-3.15877,-2.4617c0.1757,-0.08382 0.41249,-0.17522 0.58819,-0.25904c0.23679,-0.0914 0.43925,-0.20956 0.64928,-0.26662c0.11461,-0.07625 0.23679,-0.0914 0.32464,-0.13331c0.32464,-0.13331 0.62252,-0.23229 0.92041,-0.33126c1.25263,-0.40348 2.32955,-0.72314 3.08184,-0.90949c0.75229,-0.18635 1.20669,-0.27372 1.20669,-0.27372l-3.58552,4.60082z" fill="#f12a3f"/><path d="M242.07746,180.96084c-0.25597,0.18683 -0.47761,0.40041 -0.70682,0.5529c0.22164,-0.21358 0.45085,-0.36608 0.70682,-0.5529zM243.17403,180.04944c-0.363,0.32416 -0.69925,0.61399 -1.09658,0.9114c0.363,-0.32416 0.69925,-0.61399 1.09658,-0.9114z" fill="#fd9b13"/><path d="M248.54733,174.35845c-1.04355,1.33904 -2.10225,2.5559 -3.1761,3.65058c-0.60382,0.63317 -1.21522,1.20526 -1.79986,1.743c-0.14136,0.11058 -0.22164,0.21358 -0.363,0.32416c-0.363,0.32416 -0.72601,0.64833 -1.09658,0.9114c-0.22164,0.21358 -0.45085,0.36608 -0.70682,0.5529c-0.14136,0.11058 -0.25597,0.18683 -0.37058,0.26307c-0.25597,0.18683 -0.48519,0.33932 -0.7144,0.49181c-0.60737,0.35447 -1.18041,0.7357 -1.73426,1.0215c-0.43925,0.20956 -0.90525,0.45345 -1.31775,0.62867l-3.46778,-2.70252l16.34889,-20.97836l3.15877,2.4617l-0.23017,1.14512c-0.10751,0.63365 -0.27611,1.27488 -0.44471,1.91611c-0.12266,0.51147 -0.27208,1.05727 -0.45583,1.57631l-0.27563,0.77857c-0.76177,2.11051 -1.89009,4.26648 -3.35419,6.21597z" fill="#fd9b13"/><path d="M253.72703,155.60276c0,0 0.02628,0.46198 0.02935,1.237c0.00307,0.77502 -0.01706,1.86307 -0.12907,3.21064c-0.02321,0.31304 -0.07317,0.66041 -0.09638,0.97345c-0.04594,0.12976 -0.03078,0.25194 -0.04997,0.34737l-0.20744,1.32839l-3.15877,-2.4617z" fill="#c92334"/><path d="M234.41561,180.45334l-0.61542,0.78969l-3.46778,-2.70252c0.04997,-0.34737 0.12669,-0.72908 0.20341,-1.11078z" fill="#ffffff"/><path d="M237.23365,183.91879l-3.46778,-2.70252l0.61542,-0.78969l3.87979,3.02361c-0.3514,0.16765 -0.7028,0.33529 -1.02744,0.4686z" fill="#e1edf7"/><path d="M247.59191,171.40637c-1.65897,2.12874 -4.71357,2.50758 -6.84231,0.84861l5.9937,-7.69092c2.12874,1.65897 2.50758,4.71357 0.84861,6.84231z" fill="#e1edf7"/><path d="M246.7433,164.56406l-6.02046,7.72525c-2.12874,-1.65897 -2.50758,-4.71357 -0.84861,-6.84231c1.65897,-2.12874 4.74033,-2.54191 6.86907,-0.88294z" fill="#ffffff"/><path d="M246.94713,170.95907c-1.3914,1.78539 -3.95726,2.10362 -5.74265,0.71223l5.05719,-6.48921c1.78539,1.3914 2.07686,3.9916 0.68547,5.77699z" fill="#1e2d4f"/><path d="M246.26166,165.18208l-5.05719,6.48921c-1.78539,-1.3914 -2.10362,-3.95726 -0.71222,-5.74265c1.41815,-1.81973 3.98402,-2.13795 5.76941,-0.74656z" fill="#2d4375"/></g></g></g></svg>