<svg version="1.1" xmlns="http://www.w3.org/2000/svg" xmlns:xlink="http://www.w3.org/1999/xlink" width="61.94611" height="76.97199" viewBox="0,0,61.94611,76.97199"><g transform="translate(-209.02697,-141.51401)"><g data-paper-data="{&quot;isPaintingLayer&quot;:true}" fill-rule="nonzero" stroke-linejoin="miter" stroke-miterlimit="10" stroke-dasharray="" stroke-dashoffset="0" style="mix-blend-mode: normal"><path d="M270.22306,149.02736v61.9466c0,3.72889 -3.03179,6.76205 -6.76332,6.76205h-46.92073c-3.7276,0 -6.76204,-3.03313 -6.76204,-6.76205v-61.94789c0,-3.72889 3.03445,-6.76205 6.76205,-6.76205h46.92074c3.73154,0 6.76332,3.03447 6.76332,6.76334z" fill="#fffeb0" stroke="#e4e29e" stroke-width="1.5" stroke-linecap="butt"/><text transform="translate(222.94576,207.92458) scale(0.27778,0.27778)" font-size="40" xml:space="preserve" fill="#a19f6f" fill-rule="nonzero" stroke="none" stroke-width="1" stroke-linecap="butt" stroke-linejoin="miter" stroke-miterlimit="10" stroke-dasharray="" stroke-dashoffset="0" font-family="Sans Serif" font-weight="normal" text-anchor="start" style="mix-blend-mode: normal"><tspan x="0" dy="0">停留卡</tspan></text><g stroke-width="1.5"><g stroke="#723700"><path d="M231.55267,179.11886c0,0 1.90039,-0.97817 2.43096,-2.05472c1.27035,-2.5776 5.16523,-13.35829 5.16523,-13.35829l10.52655,4.62656l-6.67284,14.82403z" fill="#727272" stroke-linecap="butt"/><path d="M246.55105,173.27381l-9.05413,-3.6683" fill="none" stroke-linecap="round"/></g><path d="M224.19939,173.2007c0,-8.93536 7.24354,-16.17891 16.17891,-16.17891c8.93536,0 16.17891,7.24354 16.17891,16.17891c0,8.93536 -7.24354,16.17891 -16.17891,16.17891c-8.93536,0 -16.17891,-7.24354 -16.17891,-16.17891z" fill="none" stroke="#d40000" stroke-linecap="butt"/><path d="M229.59237,185.75746l23.10123,-23.10123" fill="none" stroke="#d40000" stroke-linecap="round"/></g></g></g></svg>