<svg version="1.1" xmlns="http://www.w3.org/2000/svg" xmlns:xlink="http://www.w3.org/1999/xlink" width="25.34215" height="28.85853" viewBox="0,0,25.34215,28.85853"><defs><clipPath id="clip-1"><path d="M204.42077,178.71661c0,0.28635 0,0.71588 0,1.00223c0,0.28635 0,0.71588 0,1.00223c0,0.28636 0,0.71587 0,1.07382c0,0.28636 0,0.71587 0,1.07382c0,0.28636 0,0.71587 0,1.07382c0,0.28635 0,0.71588 0,1.00223c0,0.28635 0,0.71588 0,1.00223c0,-2.72035 0,-5.44069 0,-8.16104c0,0.28635 0,0.6443 0,0.93065z" fill="none"/></clipPath></defs><g transform="translate(-191.86935,-177.78595)"><g data-paper-data="{&quot;isPaintingLayer&quot;:true}" fill-rule="nonzero" stroke="none" stroke-width="1" stroke-linecap="butt" stroke-linejoin="miter" stroke-miterlimit="10" stroke-dasharray="" stroke-dashoffset="0" style="mix-blend-mode: normal"><g><path d="M214.99227,184.23743c1.21699,0.71588 2.21923,2.43399 2.21923,3.86576v9.44962c0,1.43176 -1.00223,3.14987 -2.21923,3.86576l-8.23261,4.7248c-0.57271,0.28635 -1.36018,0.50111 -2.21923,0.50111c-0.85906,0 -1.64653,-0.14317 -2.21923,-0.50111l-8.23261,-4.7248c-1.21699,-0.71588 -2.21923,-2.43399 -2.21923,-3.86576v-9.44962c0,-1.43176 1.00223,-3.14987 2.21923,-3.86576l8.23261,-4.7248c1.21699,-0.71588 3.22146,-0.71588 4.43845,0z" fill="#221f20"/><path d="M214.8491,183.30679c1.14541,0.6443 2.07605,2.29081 2.07605,3.5794v9.44962c0,1.28858 -0.93065,2.93511 -2.07605,3.5794l-8.23261,4.7248c-1.14541,0.6443 -3.0067,0.6443 -4.1521,0l-8.23261,-4.7248c-1.14541,-0.6443 -2.07605,-2.29081 -2.07605,-3.5794v-9.44962c0,-1.28858 0.93065,-2.93511 2.07605,-3.5794l8.23261,-4.7248c1.14541,-0.6443 3.0067,-0.6443 4.1521,0c0,0 8.16104,4.7248 8.23261,4.7248z" fill="#dfded0"/><path d="M204.54042,205.49906c-0.85906,0 -1.64653,-0.21476 -2.21923,-0.50111l-8.23261,-4.7248c-1.21699,-0.71588 -2.21923,-2.43399 -2.21923,-3.86576v-9.44962c0,-1.43176 1.00223,-3.14987 2.21923,-3.86576l8.23261,-4.7248c1.21699,-0.71588 3.22146,-0.71588 4.43845,0l8.23261,4.7248c1.21699,0.71588 2.21923,2.43399 2.21923,3.86576v9.44962c0,1.43176 -1.00223,3.14987 -2.21923,3.86576l-8.23261,4.7248c-0.57271,0.35795 -1.43176,0.50111 -2.21923,0.50111zM204.54042,178.36722c-0.71588,0 -1.43176,0.14317 -1.93288,0.42952l-8.23261,4.7248c-1.07382,0.57271 -1.93288,2.14764 -1.93288,3.36463v9.44962c0,1.21699 0.85906,2.72035 1.93288,3.36463l8.23261,4.7248c1.00223,0.57271 2.86352,0.57271 3.86576,0l8.23261,-4.7248c1.07382,-0.57271 1.93288,-2.14764 1.93288,-3.36463v-9.44962c0,-1.21699 -0.85906,-2.72035 -1.93288,-3.36463l-8.23261,-4.7248c-0.50111,-0.28635 -1.21699,-0.42952 -1.93288,-0.42952z" fill="#dfded0"/><path d="M204.54042,190.32241c-0.6443,0 -1.28858,-0.14317 -1.78969,-0.42952l-8.23261,-4.7248c-0.35795,-0.21476 -0.57271,-0.42952 -0.57271,-0.6443c0,-0.21476 0.21476,-0.50111 0.57271,-0.6443l8.23261,-4.7248c0.42952,-0.28635 1.07382,-0.42952 1.78969,-0.42952c0.71588,0 1.28858,0.14317 1.78969,0.42952l8.23261,4.7248c0.35795,0.21476 0.57271,0.42952 0.57271,0.6443c0,0.21476 -0.21476,0.50111 -0.57271,0.6443l-8.23261,4.7248c-0.50111,0.28635 -1.14541,0.42952 -1.78969,0.42952zM203.25184,204.42525c-0.21476,0 -0.42952,-0.07159 -0.6443,-0.21476l-8.23261,-4.7248c-0.93065,-0.57271 -1.78969,-1.93288 -1.78969,-3.07829v-9.44962c0,-0.28635 0.07159,-0.85906 0.57271,-0.85906c0.21476,0 0.42952,0.07159 0.6443,0.21476l8.23261,4.7248c0.93065,0.57271 1.78969,1.93288 1.78969,3.07829v9.37803c0,0.28635 -0.07159,0.57271 -0.21476,0.71588c-0.07159,0.14317 -0.14317,0.21476 -0.35795,0.21476zM205.68583,204.42525c-0.50111,0 -0.57271,-0.6443 -0.57271,-0.85906v-9.44962c0,-1.14541 0.78746,-2.50559 1.78969,-3.07829l8.23261,-4.7248c0.21476,-0.14317 0.42952,-0.21476 0.6443,-0.21476c0.50111,0 0.57271,0.6443 0.57271,0.85906v9.44962c0,1.14541 -0.78746,2.50559 -1.78969,3.07829l-8.23261,4.7248c-0.28635,0.14317 -0.50111,0.21476 -0.6443,0.21476z" fill="#ffffff"/><path d="M204.54042,185.38283c-0.78746,0 -1.43176,-0.35795 -1.43176,-0.85906c0,-0.50111 0.6443,-0.85906 1.43176,-0.85906c0.78746,0 1.43176,0.35795 1.43176,0.85906c0,0.50111 -0.71588,0.85906 -1.43176,0.85906zM194.44651,197.83916c-0.42952,0 -0.85906,-0.57271 -0.85906,-1.21699c0,-0.6443 0.35795,-1.21699 0.85906,-1.21699c0.50111,0 0.85906,0.57271 0.85906,1.21699c0,0.6443 -0.42952,1.21699 -0.85906,1.21699zM214.34798,197.83916c-0.42952,0 -0.85906,-0.57271 -0.85906,-1.21699c0,-0.6443 0.35795,-1.21699 0.85906,-1.21699c0.42952,0 0.85906,0.57271 0.85906,1.21699c-0.07159,0.6443 -0.42952,1.21699 -0.85906,1.21699zM194.44651,190.68035c-0.42952,0 -0.85906,-0.57271 -0.85906,-1.21699c0,-0.6443 0.35795,-1.21699 0.85906,-1.21699c0.50111,0 0.85906,0.57271 0.85906,1.21699c0,0.6443 -0.42952,1.21699 -0.85906,1.21699zM201.46214,195.33357c-0.42952,0 -0.85906,-0.57271 -0.85906,-1.21699c0,-0.6443 0.35795,-1.21699 0.85906,-1.21699c0.50111,0 0.85906,0.57271 0.85906,1.21699c0,0.6443 -0.35795,1.21699 -0.85906,1.21699zM207.47553,195.33357c-0.42952,0 -0.85906,-0.57271 -0.85906,-1.21699c0,-0.6443 0.35795,-1.21699 0.85906,-1.21699c0.50111,0 0.85906,0.57271 0.85906,1.21699c0,0.6443 -0.35795,1.21699 -0.85906,1.21699zM201.46214,201.91966c-0.42952,0 -0.85906,-0.57271 -0.85906,-1.21699c0,-0.6443 0.35795,-1.21699 0.85906,-1.21699c0.50111,0 0.85906,0.57271 0.85906,1.21699c0,0.6443 -0.35795,1.21699 -0.85906,1.21699z" fill="#c30d23"/></g><g clip-path="url(#clip-1)"><path d="M204.56395,177.49962v9.23486c-0.07159,0.07159 -0.14317,0.21476 -0.21476,0.28635c-0.07159,0.07159 -0.14317,0.14317 -0.14317,0.21476v-9.23486c0.07159,-0.07159 0.14317,-0.14317 0.14317,-0.21476c0.07159,-0.07159 0.14317,-0.14317 0.21476,-0.28635" fill="#aa9e00"/></g></g></g></svg>