<svg version="1.1" xmlns="http://www.w3.org/2000/svg" xmlns:xlink="http://www.w3.org/1999/xlink" width="57.24662" height="64.46642" viewBox="0,0,57.24662,64.46642"><defs><linearGradient x1="362.11348" y1="267.52619" x2="362.11348" y2="271.53198" gradientUnits="userSpaceOnUse" id="color-1"><stop offset="0" stop-color="#0a0a0a" stop-opacity="0"/><stop offset="1" stop-color="#0a0a0a"/></linearGradient><linearGradient x1="365.55128" y1="266.95545" x2="365.55128" y2="271.31732" gradientUnits="userSpaceOnUse" id="color-2"><stop offset="0" stop-color="#0a0a0a" stop-opacity="0"/><stop offset="1" stop-color="#0a0a0a"/></linearGradient><linearGradient x1="368.92789" y1="267.36391" x2="368.92789" y2="271.36971" gradientUnits="userSpaceOnUse" id="color-3"><stop offset="0" stop-color="#0a0a0a" stop-opacity="0"/><stop offset="1" stop-color="#0a0a0a"/></linearGradient><linearGradient x1="372.71297" y1="267.14374" x2="372.71297" y2="271.14953" gradientUnits="userSpaceOnUse" id="color-4"><stop offset="0" stop-color="#0a0a0a" stop-opacity="0"/><stop offset="1" stop-color="#0a0a0a"/></linearGradient><linearGradient x1="376.6917" y1="267.19888" x2="376.6917" y2="271.64975" gradientUnits="userSpaceOnUse" id="color-5"><stop offset="0" stop-color="#0a0a0a" stop-opacity="0"/><stop offset="1" stop-color="#0a0a0a"/></linearGradient></defs><g transform="translate(-340.23921,-254.10729)"><g data-paper-data="{&quot;isPaintingLayer&quot;:true}" fill-rule="nonzero" stroke-linejoin="miter" stroke-miterlimit="10" stroke-dasharray="" stroke-dashoffset="0" style="mix-blend-mode: normal"><path d="M397.23583,256.74884v59.18378c0,1.31855 -1.07207,2.39109 -2.39155,2.39109h-51.96398c-1.31809,0 -2.39109,-1.07253 -2.39109,-2.39109v-59.18424c0,-1.31855 1.073,-2.39109 2.39109,-2.39109h51.96398c1.31948,0 2.39155,1.073 2.39155,2.39155z" fill="#feffde" stroke="#442903" stroke-width="0.5" stroke-linecap="butt"/><g><path d="M378.52361,276.72263c-0.0119,0.08473 0.88394,-0.11463 1.22416,0.26455c0.53573,0.5971 0.38513,1.11679 0.23891,1.49525c-0.01982,0.05131 -0.04031,0.04179 -0.06142,0.09019c-0.81461,1.86778 -2.55384,1.60285 -2.64895,1.78066c-0.35062,0.65546 -0.11565,1.61269 -1.6862,2.87149c-1.61405,1.29367 -2.45337,1.54048 -3.7399,1.72093c-0.13643,0.01914 -0.2404,2.26577 -0.5314,2.72889c-0.51378,0.81765 -3.73594,0.17138 -3.97833,0.17138c-0.6188,0 0.61295,-2.74643 -0.0939,-2.90833c-0.98306,-0.22516 -2.05338,-0.19986 -3.72724,-1.72224c-1.39871,-1.27213 -1.81427,-2.64292 -2.17412,-3.19861c-0.03732,-0.05763 -1.32567,-0.05744 -1.77966,-0.32715c-1.00778,-0.59872 -1.37786,-2.05545 -0.79432,-2.78978c0.75862,-0.95463 1.60197,0.05682 1.54952,-0.48585c-0.06597,-0.68265 -0.76978,-1.33327 -0.76978,-2.08813c0,-6.09176 3.48148,-10.79394 9.79679,-10.79394c6.31533,0 9.7956,4.89937 9.7956,10.99114c0,0 -0.56006,1.77403 -0.61979,2.19955z" fill="#ffce91" stroke="#000000" stroke-width="0.5" stroke-linecap="butt"/><path d="M371.08241,281.90144c0,0 -0.9919,0.49172 -1.47517,0.49172c-0.52417,0 -1.55712,-0.49172 -1.55712,-0.49172" fill="none" stroke="#000000" stroke-width="0.5" stroke-linecap="round"/><path d="M370.09762,273.52155c-0.95611,0.07745 -3.19152,0.50443 -3.19152,0.50443c0,0 -1.04932,0.05665 -1.67335,-0.16539c-0.501,-0.17826 -1.07125,-0.48264 -1.88733,-0.44001c-1.22154,0.06381 -2.23687,0.479 -3.02602,0.90815c-1.97304,1.07295 -1.9515,-3.52906 -0.18934,-6.49254c1.02186,-1.45141 3.91899,-5.43579 8.88066,-5.32342c4.96166,0.11237 7.44181,1.47939 9.72788,5.11564c2.09332,3.32965 0.65998,6.72429 0.44815,6.80656c-0.94093,0.36543 -1.72818,-0.35706 -2.53964,-0.11989c0,0 -2.34249,-0.42192 -3.21964,-0.52266c-0.95848,-0.11007 -1.58737,0.04325 -1.58737,0.04325c0,0 -1.02564,-0.37219 -1.74248,-0.31412z" fill="#1f1f1f" stroke="#000000" stroke-width="0.5" stroke-linecap="butt"/><path d="M363.90386,275.93382c0,0 0.71249,-0.32871 1.19611,-0.42307c0.43267,-0.08442 1.49947,0.16484 1.49947,0.16484" data-paper-data="{&quot;index&quot;:null}" fill="none" stroke="#000000" stroke-width="0.5" stroke-linecap="round"/><path d="M371.93962,275.9847c0,0 0.93487,-0.47212 1.42993,-0.45232c0.4429,0.01771 1.4014,0.56554 1.4014,0.56554" fill="none" stroke="#000000" stroke-width="0.5" stroke-linecap="round"/><path d="M363.43989,267.93312c-0.23872,0.5705 -0.68223,0.92838 -0.99061,0.79934c-0.30838,-0.12903 -0.36485,-0.69613 -0.12613,-1.26662c0.23872,-0.5705 0.68223,-0.92838 0.9906,-0.79935c0.30838,0.12904 0.36485,0.69613 0.12613,1.26663z" fill="#393939" stroke="#000000" stroke-width="0" stroke-linecap="butt"/><path d="M364.98191,266.44196c-0.12303,0.31957 -0.42294,0.50155 -0.66987,0.4065c-0.24693,-0.09507 -0.34738,-0.43118 -0.22436,-0.75075c0.12303,-0.31957 0.42293,-0.50155 0.66987,-0.40649c0.24693,0.09507 0.34738,0.43118 0.22436,0.75075z" fill="#393939" stroke="none" stroke-width="0" stroke-linecap="butt"/><path d="M378.57245,278.28528c0,0 -0.08146,0.3842 -0.22818,0.53847c-0.11058,0.11628 -0.57478,0.30587 -0.57478,0.30587" fill="none" stroke="#d5ac79" stroke-width="0.5" stroke-linecap="round"/><path d="M360.39357,278.80194c0,0 -0.4642,-0.18958 -0.57478,-0.30587c-0.14671,-0.15427 -0.22818,-0.53847 -0.22818,-0.53847" data-paper-data="{&quot;index&quot;:null}" fill="none" stroke="#d5ac79" stroke-width="0.5" stroke-linecap="round"/><path d="M361.2233,273.91589c0,0 0.01216,-1.45311 0.41988,-2.19015c0.357,-0.64536 1.36048,-1.81565 1.36048,-1.81565" fill="none" stroke="url(#color-1)" stroke-width="0.5" stroke-linecap="round"/><path d="M366.26343,269.33934c0,0 -0.29133,1.79342 -0.64833,2.43877c-0.40772,0.73704 -0.77594,1.92309 -0.77594,1.92309" fill="none" stroke="url(#color-2)" stroke-width="0.5" stroke-linecap="round"/><path d="M368.27695,273.75359c0,0 -0.16588,-0.919 0.24185,-1.65604c0.35701,-0.64536 1.09342,-2.34976 1.09342,-2.34976" fill="none" stroke="url(#color-3)" stroke-width="0.5" stroke-linecap="round"/><path d="M371.82279,273.53342c0,0 0.1902,-1.09703 0.59792,-1.83407c0.35701,-0.64536 1.18244,-2.17173 1.18244,-2.17173" fill="none" stroke="url(#color-4)" stroke-width="0.5" stroke-linecap="round"/><path d="M377.14098,269.58275c0,0 0.24278,1.79342 -0.11423,2.43877c-0.40772,0.73704 -0.86496,2.01211 -0.86496,2.01211" fill="none" stroke="url(#color-5)" stroke-width="0.5" stroke-linecap="round"/><path d="M365.46196,279.57064v-1.7884" fill="none" stroke="#000000" stroke-width="0.5" stroke-linecap="round"/><path d="M372.9345,279.70214v-1.7884" fill="none" stroke="#000000" stroke-width="0.5" stroke-linecap="round"/><path d="M370.37663,307.73647c0,0 -0.18194,-2.37538 -0.18194,-4.05837c0,-0.3656 0.089,-0.64228 -0.39301,-1.09865c-0.33575,-0.3179 -0.92809,-0.46635 -0.94268,-0.79596c-0.07188,-1.62331 -0.11983,-3.22771 -0.11983,-3.22771l6.00401,0.24259c0,0 -0.406,4.1848 -0.50981,5.43856c-0.14498,1.75093 -0.09665,3.43889 -0.09665,3.43889z" fill="#1c1c1c" stroke="#000000" stroke-width="0.5" stroke-linecap="butt"/><path d="M363.72858,307.63826c0,0 -0.12129,-1.64762 0,-4.05837c0.0942,-1.87212 -0.36389,-5.18295 -0.36389,-5.18295c0,0 4.52465,0.50084 6.12567,1.04943c0.55964,0.19177 -0.65522,2.41967 -0.65522,2.41967c0,0 -1.14601,0.89763 -1.24983,2.15139c-0.14498,1.75093 -0.21794,3.56018 -0.21794,3.56018z" fill="#1c1c1c" stroke="#000000" stroke-width="0.5" stroke-linecap="butt"/><path d="M363.58218,310.24159c0,-0.86452 0.14065,-2.35651 0.14065,-2.35651l3.57369,-0.07033c0,0 0.42344,2.18443 0.07193,2.50388c-0.71888,0.65331 -3.78627,0.33783 -3.78627,-0.07703z" data-paper-data="{&quot;index&quot;:null}" fill="#ffffff" stroke="#000000" stroke-width="0.5" stroke-linecap="butt"/><path d="M370.47317,307.63757l3.57369,-0.07033c0,0 0.42344,2.18443 0.07194,2.50387c-0.71888,0.65331 -3.78627,0.33783 -3.78627,-0.07704z" data-paper-data="{&quot;index&quot;:null}" fill="#ffffff" stroke="#000000" stroke-width="0.5" stroke-linecap="butt"/><path d="M362.00521,294.12912c-0.24752,0.23456 -0.45582,0.3605 -0.60085,0.32737c-1.79222,-0.40942 -2.86805,-1.84764 -2.82599,-2.13727c0.02701,-0.18602 2.66545,-4.0639 2.78372,-4.41275c0.53587,-1.58048 4.47364,-2.51047 4.47364,-2.51047c0,0 2.17931,1.31123 3.38319,1.31123c1.37566,0 3.91541,-1.24761 3.91541,-1.24761c0,0 1.42498,0.63231 2.81212,2.05443c2.41605,2.477 3.09056,3.60773 3.32876,4.46192c0.59939,1.17526 -2.96337,2.06886 -3.78297,2.31428c-0.20004,0.0599 -1.34361,-2.51276 -1.32005,-2.30129c0.42522,3.81804 0.75369,7.31454 0.75369,7.31454c0,0 -0.23797,0.94966 -2.15215,1.18875c-1.63484,0.2042 -3.73399,0.22558 -5.75231,0.16171c-1.30163,-0.04119 -2.72269,-0.16705 -3.291,-0.60376c-0.32414,-0.24909 -0.74317,-1.16647 -0.74317,-1.16647c0,0 -0.61674,-2.87014 0.70796,-6.59175c0.68106,-1.91338 -0.39329,0.60831 -1.68998,1.83711z" fill="#dedede" stroke="#000000" stroke-width="0.5" stroke-linecap="butt"/><path d="M379.05461,292.26365l0.41249,1.81956c0,0 0.46308,0.58434 0.43475,1.16668c-0.02834,0.58234 -0.18945,0.92169 -0.55896,1.38543c-0.36951,0.46376 -0.68627,0.75359 -1.24216,0.87501c-0.55587,0.12143 -1.42847,-0.29168 -1.42847,-0.29168l-0.49686,-0.94792l0.43475,-0.51044l-0.68317,-1.75003z" data-paper-data="{&quot;index&quot;:null}" fill="#fed497" stroke="#000000" stroke-width="0.5" stroke-linecap="round"/><path d="M361.18309,294.43768c0,0 -0.00627,0.34199 -0.09321,0.56474c-0.12598,0.32269 -0.58995,1.1853 -0.58995,1.1853l0.43474,0.51042l-0.49686,0.94793c0,0 -0.8726,0.41309 -1.42847,0.29167c-0.55588,-0.12143 -0.87263,-0.41126 -1.24215,-0.87501c-0.36952,-0.46376 -0.53063,-0.8031 -0.55898,-1.38544c-0.02835,-0.58234 0.43475,-1.16669 0.43475,-1.16669l1.01677,-1.90588z" data-paper-data="{&quot;index&quot;:null}" fill="#fed497" stroke="#000000" stroke-width="0.5" stroke-linecap="round"/><text transform="translate(366.17988,293.98406) scale(0.07014,0.07014)" font-size="40" xml:space="preserve" fill="#000000" fill-rule="nonzero" stroke="none" stroke-width="1" stroke-linecap="butt" stroke-linejoin="miter" stroke-miterlimit="10" stroke-dasharray="" stroke-dashoffset="0" font-family="Pixel" font-weight="normal" text-anchor="start" style="mix-blend-mode: normal"><tspan x="0" dy="0">Rich</tspan></text></g></g></g></svg>