<svg version="1.1" xmlns="http://www.w3.org/2000/svg" xmlns:xlink="http://www.w3.org/1999/xlink" width="114.92629" height="54.06408" viewBox="0,0,114.92629,54.06408"><g transform="translate(-182.48282,-152.96796)"><g data-paper-data="{&quot;isPaintingLayer&quot;:true}" fill-rule="nonzero" stroke-linecap="butt" stroke-linejoin="miter" stroke-miterlimit="10" stroke-dasharray="" stroke-dashoffset="0" style="mix-blend-mode: normal"><path d="M292.54811,205.53204h-105.09687c-1.85305,0 -3.36035,-1.50664 -3.36035,-3.36099v-44.34274c0,-1.85239 1.50729,-3.36035 3.36035,-3.36035h105.09752c1.85305,0 3.36035,1.50796 3.36035,3.36035v44.34274c0,1.85435 -1.50796,3.36099 -3.36099,3.36099z" fill="none" stroke="#ffffff" stroke-width="3"/><path d="M192.28604,155.87936l-3,-2.89811h7.5l3,2.89811z" fill="#ff4444" stroke="none" stroke-width="0"/><path d="M210.16104,155.87936l-3,-2.89811h7.5l3,2.89811z" fill="#ff4444" stroke="none" stroke-width="0"/><path d="M227.71104,155.92936l-3,-2.89811h7.5l3,2.89811z" fill="#ff4444" stroke="none" stroke-width="0"/><path d="M245.58604,155.92936l-3,-2.89811h7.5l3,2.89811z" fill="#ff4444" stroke="none" stroke-width="0"/><path d="M263.91104,155.87936l-3,-2.89811h7.5l3,2.89811z" fill="#ff4444" stroke="none" stroke-width="0"/><path d="M281.46104,155.92936l-3,-2.89811h7.5l3,2.89811z" fill="#ff4444" stroke="none" stroke-width="0"/><path d="M278.29437,206.87936l3,-2.89811h7.5l-3,2.89811z" data-paper-data="{&quot;index&quot;:null}" fill="#ff4444" stroke="none" stroke-width="0"/><path d="M260.41937,206.87936l3,-2.89811h7.5l-3,2.89811z" data-paper-data="{&quot;index&quot;:null}" fill="#ff4444" stroke="none" stroke-width="0"/><path d="M242.86937,206.92936l3,-2.89811h7.5l-3,2.89811z" data-paper-data="{&quot;index&quot;:null}" fill="#ff4444" stroke="none" stroke-width="0"/><path d="M224.99437,206.92936l3,-2.89811h7.5l-3,2.89811z" data-paper-data="{&quot;index&quot;:null}" fill="#ff4444" stroke="none" stroke-width="0"/><path d="M206.66937,206.87936l3,-2.89811h7.5l-3,2.89811z" data-paper-data="{&quot;index&quot;:null}" fill="#ff4444" stroke="none" stroke-width="0"/><path d="M189.11937,206.92936l3,-2.89811h7.5l-3,2.89811z" data-paper-data="{&quot;index&quot;:null}" fill="#ff4444" stroke="none" stroke-width="0"/><path d="M294.19949,160.28447l2.89811,-3v7.5l-2.89811,3z" data-paper-data="{&quot;index&quot;:null}" fill="#ff4444" stroke="none" stroke-width="0"/><path d="M294.19949,178.15947l2.89811,-3v7.5l-2.89811,3z" data-paper-data="{&quot;index&quot;:null}" fill="#ff4444" stroke="none" stroke-width="0"/><path d="M294.14949,195.70947l2.89811,-3l0,7.5l-2.89811,3z" data-paper-data="{&quot;index&quot;:null}" fill="#ff4444" stroke="none" stroke-width="0"/><path d="M185.43093,167.75114l-2.89811,-3l0,-7.5l2.89811,3z" data-paper-data="{&quot;index&quot;:null}" fill="#ff4444" stroke="none" stroke-width="0"/><path d="M185.38093,186.07614l-2.89811,-3v-7.5l2.89811,3z" data-paper-data="{&quot;index&quot;:null}" fill="#ff4444" stroke="none" stroke-width="0"/><path d="M185.43093,203.62614l-2.89811,-3l0,-7.5l2.89811,3z" data-paper-data="{&quot;index&quot;:null}" fill="#ff4444" stroke="none" stroke-width="0"/></g></g></svg>