<svg version="1.1" xmlns="http://www.w3.org/2000/svg" xmlns:xlink="http://www.w3.org/1999/xlink" width="61.94611" height="76.97199" viewBox="0,0,61.94611,76.97199"><g transform="translate(-209.02697,-141.51402)"><g data-paper-data="{&quot;isPaintingLayer&quot;:true}" fill-rule="nonzero" stroke-linecap="butt" stroke-linejoin="miter" stroke-miterlimit="10" stroke-dasharray="" stroke-dashoffset="0" style="mix-blend-mode: normal"><path d="M270.22307,149.02737v61.9466c0,3.72889 -3.03179,6.76205 -6.76332,6.76205h-46.92073c-3.7276,0 -6.76204,-3.03313 -6.76204,-6.76205v-61.94789c0,-3.72889 3.03445,-6.76205 6.76205,-6.76205h46.92074c3.73154,0 6.76332,3.03447 6.76332,6.76334z" fill="#99ffb2" stroke="#89e4a0" stroke-width="1.5"/><text transform="translate(222.94571,207.92458) scale(0.27778,0.27778)" font-size="40" xml:space="preserve" fill="#327f49" fill-rule="nonzero" stroke="none" stroke-width="1" stroke-linecap="butt" stroke-linejoin="miter" stroke-miterlimit="10" stroke-dasharray="" stroke-dashoffset="0" font-family="Sans Serif" font-weight="normal" text-anchor="start" style="mix-blend-mode: normal"><tspan x="0" dy="0">查税卡</tspan></text><path d="M255.05996,182.76127c-0.19413,1.80093 -1.40969,3.572 -3.70341,5.01752l-0.00597,0.00597c-2.92988,1.84275 -6.99467,2.78054 -11.09231,2.78054c-3.54811,0 -7.11712,-0.70484 -9.98428,-2.13842c-3.1031,-1.54408 -4.79054,-3.64666 -5.01753,-5.79405c1.01844,1.17673 2.41319,2.22802 4.12453,3.08817c3.03142,1.51123 6.89312,2.3445 10.87727,2.3445c4.6651,0 8.96883,-1.09012 12.12569,-3.07025l0.02987,-0.01792c0.98281,-0.6069 1.87387,-1.35113 2.64614,-2.2101zM252.4168,180.59896v-0.00299c0.98154,-0.60743 1.87154,-1.35161 2.64316,-2.2101c-0.19413,1.79795 -1.40969,3.56901 -3.70341,5.01752l-0.00597,0.00299c-2.92988,1.84275 -6.99467,2.78353 -11.09231,2.78353c-3.54811,0 -7.11712,-0.70484 -9.98428,-2.13842c-3.1031,-1.54707 -4.79054,-3.64666 -5.01753,-5.79703c1.01844,1.17971 2.41319,2.23399 4.12453,3.08817c3.03142,1.51123 6.89312,2.34748 10.87727,2.34748c4.6651,0 8.96883,-1.0931 12.12569,-3.07323l0.02987,-0.01792zM252.4168,176.22057c0.98154,-0.60743 1.87154,-1.35161 2.64316,-2.2101c-0.19413,1.79795 -1.40969,3.56901 -3.70341,5.01752l-0.00597,0.00299c-2.92988,1.84275 -6.99467,2.78353 -11.09231,2.78353c-3.54811,0 -7.11712,-0.70484 -9.98428,-2.13842c-3.1031,-1.54707 -4.79054,-3.64965 -5.01753,-5.79703c1.01844,1.17673 2.41319,2.23101 4.12453,3.08817c3.03142,1.51123 6.89312,2.3445 10.87727,2.3445c4.6651,0 8.96883,-1.09012 12.12569,-3.07025l0.02987,-0.01792zM225.23257,168.73311h0.00597c0.10752,-1.8756 1.34398,-3.73925 3.73328,-5.2475l0.00597,-0.00299c1.69939,-1.06921 3.79002,-1.82781 6.04492,-2.27879l0.03285,-0.00896c0.90581,-0.17531 1.81988,-0.3049 2.73873,-0.38826l0.05973,-0.00299c0.45714,-0.03917 0.91526,-0.06607 1.37385,-0.08064h0.04779c0.26282,-0.00896 0.52863,-0.02389 0.79743,-0.02389c3.55109,0 7.11712,0.70484 9.98726,2.13544c3.09414,1.54408 4.78457,3.64368 5.01454,5.78509c0.01493,0.14635 0.00896,0.2897 0.00896,0.43903c0.00299,0.11648 0.01792,0.23296 0.00896,0.35242c-0.11349,1.8756 -1.34398,3.74224 -3.73925,5.25048l-0.00597,0.00597c-5.46253,3.44059 -14.90025,3.7273 -21.07659,0.64511c-3.47941,-1.73523 -5.18179,-4.16932 -5.03545,-6.57952zM249.75273,173.85218c4.68302,-2.94779 4.18725,-7.4785 -1.11102,-10.12465c-5.29827,-2.64316 -13.38305,-2.39228 -18.06906,0.5585c-4.68004,2.94779 -4.18426,7.48447 1.11102,10.12465c5.29229,2.64316 13.38604,2.39527 18.06906,-0.55551zM231.19386,164.59365c4.39033,-2.75068 11.94051,-2.98662 16.90129,-0.51967c4.94286,2.4789 5.40578,6.71094 1.03636,9.47356c-4.39033,2.75367 -11.93155,2.98364 -16.89831,0.51967c-4.93987,-2.48188 -5.40877,-6.70795 -1.03934,-9.47058zM241.51861,172.25732c1.94429,-1.22452 0.70783,-2.57745 0.07467,-3.44357l2.8134,-1.77107c0.74068,0.37034 1.24243,1.31113 1.34995,1.36489c0.06869,0.03584 0.16725,0.02987 0.27477,0l1.56499,-0.38528c0.07803,-0.01297 0.15296,-0.04031 0.22101,-0.08064c0.51669,-0.32554 -1.34398,-1.6307 -1.81885,-1.89949l0.74666,-0.4689c0.25685,-0.16128 0.25087,-0.22101 -0.05077,-0.37034l-0.34943,-0.17322c-0.30762,-0.15531 -0.40618,-0.15232 -0.66303,0.01195l-0.74665,0.4689c-0.82132,-0.37632 -3.68848,-1.08713 -5.92247,0.31957c-2.00402,1.26334 -0.56447,2.58343 0.07467,3.36293l-2.97468,1.8756c-0.94377,-0.59135 -1.4963,-1.53811 -1.60083,-1.58888c-0.06869,-0.03584 -0.23296,-0.01195 -0.27776,0l-1.77405,0.55551c-0.12245,0.03883 -0.12245,0.03883 -0.17322,0.06869c-0.45397,0.2897 1.60083,1.70835 2.18023,1.99805l-0.68095,0.43007c-0.25984,0.16427 -0.25087,0.21802 0.05973,0.37034l0.24789,0.12544l0.09557,0.04778c0.30762,0.15232 0.40021,0.15232 0.66004,-0.01195l0.68095,-0.43007c1.30814,0.45994 3.87664,0.95572 5.98818,-0.37632zM237.05959,171.54053l2.62226,-1.65459c0.21205,0.31061 0.65108,0.893 -0.22698,1.44553c-0.83625,0.52565 -1.77704,0.38228 -2.39527,0.20906zM241.10945,166.73805c0.893,-0.56447 1.93234,-0.28672 2.35346,-0.16426l-2.4789,1.562c-0.224,-0.28672 -0.69887,-0.87807 0.12544,-1.39774z" fill="#ff8d47" stroke="none" stroke-width="1"/></g></g></svg>