<svg version="1.1" xmlns="http://www.w3.org/2000/svg" xmlns:xlink="http://www.w3.org/1999/xlink" width="61.94611" height="76.97199" viewBox="0,0,61.94611,76.97199"><g transform="translate(-209.02699,-141.51405)"><g data-paper-data="{&quot;isPaintingLayer&quot;:true}" fill-rule="nonzero" stroke-linejoin="miter" stroke-miterlimit="10" stroke-dasharray="" stroke-dashoffset="0" style="mix-blend-mode: normal"><path d="M270.22309,149.02739v61.9466c0,3.72889 -3.03179,6.76205 -6.76332,6.76205h-46.92073c-3.7276,0 -6.76204,-3.03313 -6.76204,-6.76205v-61.94789c0,-3.72889 3.03445,-6.76205 6.76205,-6.76205h46.92074c3.73154,0 6.76332,3.03447 6.76332,6.76334z" fill="#ff6666" stroke="#d25454" stroke-width="1.5" stroke-linecap="butt"/><text transform="translate(222.94576,207.9246) scale(0.27778,0.27778)" font-size="40" xml:space="preserve" fill="#933b3b" fill-rule="nonzero" stroke="none" stroke-width="1" stroke-linecap="butt" stroke-linejoin="miter" stroke-miterlimit="10" stroke-dasharray="" stroke-dashoffset="0" font-family="Sans Serif" font-weight="normal" text-anchor="start" style="mix-blend-mode: normal"><tspan x="0" dy="0">地雷卡</tspan></text><path d="M240.10562,165.5638c0,0 -0.19411,-1.7971 0.25953,-2.6212c0.53317,-0.96857 2.73963,-2.82711 2.73963,-2.82711" fill="none" stroke="#ffc87b" stroke-width="1.5" stroke-linecap="round"/><path d="M227.07725,177.0428c0,-6.62496 5.37059,-11.99555 11.99555,-11.99555c6.62496,0 11.99555,5.37059 11.99555,11.99555c0,6.62496 -5.37059,11.99555 -11.99555,11.99555c-6.62496,0 -11.99555,-5.37059 -11.99555,-11.99555z" fill="#252525" stroke="none" stroke-width="0" stroke-linecap="butt"/><path d="M234.08664,174.30058c-0.3185,1.59248 -1.28671,2.74143 -2.16257,2.56625c-0.87586,-0.17517 -1.3277,-1.60813 -1.0092,-3.20061c0.3185,-1.59248 1.28671,-2.74143 2.16257,-2.56625c0.87586,0.17517 1.3277,1.60813 1.0092,3.20061z" fill="#3d3d3d" stroke="none" stroke-width="0" stroke-linecap="butt"/></g></g></svg>