<svg version="1.1" xmlns="http://www.w3.org/2000/svg" xmlns:xlink="http://www.w3.org/1999/xlink" width="127.25671" height="59.60618" viewBox="0,0,127.25671,59.60618"><defs><linearGradient x1="169.62109" y1="163.9212" x2="169.05785" y2="163.9212" gradientUnits="userSpaceOnUse" id="color-1"><stop offset="0" stop-color="#000000"/><stop offset="1" stop-color="#0a0a0a"/></linearGradient><linearGradient x1="173.36366" y1="163.94829" x2="173.92693" y2="163.94829" gradientUnits="userSpaceOnUse" id="color-2"><stop offset="0" stop-color="#000000"/><stop offset="1" stop-color="#0a0a0a"/></linearGradient><linearGradient x1="171.51946" y1="166.53721" x2="171.51946" y2="167.10045" gradientUnits="userSpaceOnUse" id="color-3"><stop offset="0" stop-color="#000000"/><stop offset="1" stop-color="#0a0a0a"/></linearGradient><linearGradient x1="179.09493" y1="173.5429" x2="179.09493" y2="176.84469" gradientUnits="userSpaceOnUse" id="color-4"><stop offset="0" stop-color="#0a0a0a" stop-opacity="0"/><stop offset="1" stop-color="#0a0a0a"/></linearGradient><linearGradient x1="181.92857" y1="173.07246" x2="181.92857" y2="176.66776" gradientUnits="userSpaceOnUse" id="color-5"><stop offset="0" stop-color="#0a0a0a" stop-opacity="0"/><stop offset="1" stop-color="#0a0a0a"/></linearGradient><linearGradient x1="184.71177" y1="173.40913" x2="184.71177" y2="176.71093" gradientUnits="userSpaceOnUse" id="color-6"><stop offset="0" stop-color="#0a0a0a" stop-opacity="0"/><stop offset="1" stop-color="#0a0a0a"/></linearGradient><linearGradient x1="187.83164" y1="173.22765" x2="187.83164" y2="176.52944" gradientUnits="userSpaceOnUse" id="color-7"><stop offset="0" stop-color="#0a0a0a" stop-opacity="0"/><stop offset="1" stop-color="#0a0a0a"/></linearGradient><linearGradient x1="191.11113" y1="173.27311" x2="191.11113" y2="176.94177" gradientUnits="userSpaceOnUse" id="color-8"><stop offset="0" stop-color="#0a0a0a" stop-opacity="0"/><stop offset="1" stop-color="#0a0a0a"/></linearGradient></defs><g transform="translate(-159.3484,-149.76769)"><g data-paper-data="{&quot;isPaintingLayer&quot;:true}" fill-rule="nonzero" stroke-linejoin="miter" stroke-miterlimit="10" stroke-dasharray="" stroke-dashoffset="0" style="mix-blend-mode: normal"><g><g stroke="none" stroke-width="1" stroke-linecap="butt"><path d="M195.04372,178.4106c1.21418,0.71422 2.21411,2.42838 2.21411,3.85685v9.42782c0,1.42846 -0.99991,3.14261 -2.21411,3.85685l-8.21362,4.71391c-0.57139,0.28569 -1.35705,0.49995 -2.21411,0.49995c-0.85708,0 -1.64273,-0.14284 -2.21411,-0.49995l-8.21362,-4.71391c-1.21418,-0.71422 -2.21411,-2.42838 -2.21411,-3.85685v-9.42782c0,-1.42846 0.99992,-3.14261 2.21411,-3.85685l8.21362,-4.7139c1.21418,-0.71422 3.21403,-0.71422 4.42821,0z" fill="#dfded0"/><path d="M194.90087,177.48212c1.14277,0.64282 2.07126,2.28553 2.07126,3.57115v9.42782c0,1.28561 -0.9285,2.92834 -2.07126,3.57115l-8.21362,4.71391c-1.14277,0.64281 -2.99976,0.64281 -4.14252,0l-8.21362,-4.71391c-1.14277,-0.64281 -2.07126,-2.28553 -2.07126,-3.57115v-9.42782c0,-1.28561 0.9285,-2.92834 2.07126,-3.57115l8.21362,-4.71391c1.14277,-0.64282 2.99976,-0.64282 4.14252,0c0,0 8.14221,4.71391 8.21362,4.71391z" fill="#dfded0"/><path d="M184.61597,199.62317c-0.85708,0 -1.64273,-0.21427 -2.21411,-0.49995l-8.21362,-4.71391c-1.21418,-0.71422 -2.21411,-2.42838 -2.21411,-3.85684v-9.42782c0,-1.42846 0.99992,-3.14261 2.21411,-3.85684l8.21362,-4.71391c1.21418,-0.71422 3.21403,-0.71422 4.42822,0l8.21362,4.71391c1.21418,0.71422 2.21411,2.42838 2.21411,3.85684v9.42782c0,1.42846 -0.99991,3.1426 -2.21411,3.85684l-8.21362,4.71391c-0.57139,0.35712 -1.42846,0.49995 -2.21411,0.49995zM184.61597,172.55394c-0.71422,0 -1.42846,0.14284 -1.92842,0.42853l-8.21362,4.71391c-1.07135,0.57138 -1.92842,2.14269 -1.92842,3.35687v9.42782c0,1.21418 0.85707,2.71408 1.92842,3.35687l8.21362,4.71391c0.99992,0.57139 2.85691,0.57139 3.85684,0l8.21362,-4.71391c1.07135,-0.57139 1.92842,-2.14269 1.92842,-3.35687v-9.42782c0,-1.21418 -0.85708,-2.71408 -1.92842,-3.35687l-8.21362,-4.71391c-0.49995,-0.28569 -1.21418,-0.42853 -1.92843,-0.42853z" fill="#dfded0"/><path d="M184.61597,184.48155c-0.64281,0 -1.28561,-0.14284 -1.78556,-0.42853l-8.21362,-4.71391c-0.35712,-0.21427 -0.57139,-0.42853 -0.57139,-0.64281c0,-0.21427 0.21427,-0.49996 0.57139,-0.64282l8.21362,-4.7139c0.42853,-0.28569 1.07134,-0.42853 1.78556,-0.42853c0.71422,0 1.28561,0.14284 1.78556,0.42853l8.21362,4.7139c0.35712,0.21427 0.57139,0.42854 0.57139,0.64282c0,0.21427 -0.21427,0.49995 -0.57139,0.64281l-8.21362,4.71391c-0.49995,0.28569 -1.14277,0.42853 -1.78556,0.42853zM183.33034,198.55184c-0.21427,0 -0.42853,-0.07142 -0.64281,-0.21426l-8.21362,-4.71391c-0.9285,-0.57139 -1.78556,-1.92842 -1.78556,-3.07119v-9.42783c0,-0.28569 0.07142,-0.85708 0.57138,-0.85708c0.21427,0 0.42854,0.07143 0.64282,0.21427l8.21362,4.71391c0.9285,0.57139 1.78556,1.92842 1.78556,3.07119v9.3564c0,0.28569 -0.07142,0.57139 -0.21426,0.71423c-0.07142,0.14284 -0.14285,0.21427 -0.35713,0.21427zM185.75872,198.55184c-0.49995,0 -0.57138,-0.64281 -0.57138,-0.85708v-9.42782c0,-1.14277 0.78564,-2.49981 1.78555,-3.07119l8.21362,-4.71391c0.21427,-0.14284 0.42853,-0.21427 0.64281,-0.21427c0.49995,0 0.57139,0.64281 0.57139,0.85708v9.42783c0,1.14277 -0.78564,2.49981 -1.78556,3.07119l-8.21363,4.71391c-0.28569,0.14284 -0.49995,0.21426 -0.64281,0.21426z" fill="#ffffff"/><path d="M184.61597,179.55338c-0.78564,0 -1.42846,-0.35712 -1.42846,-0.85708c0,-0.49995 0.64281,-0.85708 1.42846,-0.85708c0.78564,0 1.42846,0.35712 1.42846,0.85708c0,0.49995 -0.71423,0.85708 -1.42846,0.85708zM174.54533,191.98097c-0.42853,0 -0.85708,-0.57139 -0.85708,-1.21418c0,-0.64281 0.35712,-1.21418 0.85708,-1.21418c0.49995,0 0.85708,0.57139 0.85708,1.21418c0,0.64281 -0.42853,1.21418 -0.85708,1.21418zM194.4009,191.98097c-0.42853,0 -0.85708,-0.57139 -0.85708,-1.21418c0,-0.64281 0.35712,-1.21418 0.85708,-1.21418c0.42853,0 0.85708,0.57139 0.85708,1.21418c-0.07142,0.64281 -0.42853,1.21418 -0.85708,1.21418zM174.54533,184.83866c-0.42853,0 -0.85708,-0.57139 -0.85708,-1.21418c0,-0.64281 0.35712,-1.21419 0.85708,-1.21419c0.49995,0 0.85708,0.57139 0.85708,1.21419c0,0.64281 -0.42853,1.21418 -0.85708,1.21418zM181.54479,189.48115c-0.42853,0 -0.85708,-0.57139 -0.85708,-1.21418c0,-0.64281 0.35712,-1.21418 0.85708,-1.21418c0.49995,0 0.85708,0.57139 0.85708,1.21418c0,0.64281 -0.35712,1.21418 -0.85708,1.21418zM187.54432,189.48115c-0.42853,0 -0.85708,-0.57139 -0.85708,-1.21418c0,-0.64281 0.35712,-1.21418 0.85708,-1.21418c0.49995,0 0.85708,0.57139 0.85708,1.21418c0,0.64281 -0.35712,1.21418 -0.85708,1.21418zM181.54479,196.05205c-0.42853,0 -0.85708,-0.57139 -0.85708,-1.21418c0,-0.64281 0.35712,-1.21419 0.85708,-1.21419c0.49995,0 0.85708,0.57139 0.85708,1.21419c0,0.64281 -0.35712,1.21418 -0.85708,1.21418z" fill="#c30d23"/></g><g stroke="none" stroke-width="1" stroke-linecap="butt"><path d="M182.41798,185.93468c1.21418,0.71422 2.21411,2.42838 2.21411,3.85685v9.42782c0,1.42846 -0.99992,3.1426 -2.21411,3.85684l-8.21362,4.71391c-0.57139,0.28569 -1.35705,0.49996 -2.21411,0.49996c-0.85708,0 -1.64274,-0.14284 -2.21411,-0.49996l-8.21362,-4.71391c-1.21418,-0.71422 -2.21411,-2.42837 -2.21411,-3.85684v-9.42782c0,-1.42846 0.99991,-3.14261 2.21411,-3.85685l8.21362,-4.71391c1.21418,-0.71422 3.21403,-0.71422 4.42822,0z" fill="#dfded0"/><path d="M182.27513,185.00621c1.14277,0.64281 2.07126,2.28553 2.07126,3.57115v9.42782c0,1.28561 -0.9285,2.92834 -2.07126,3.57115l-8.21362,4.71391c-1.14277,0.64281 -2.99976,0.64281 -4.14252,0l-8.21362,-4.71391c-1.14277,-0.64281 -2.07126,-2.28553 -2.07126,-3.57115v-9.42782c0,-1.28561 0.9285,-2.92834 2.07126,-3.57115l8.21362,-4.71391c1.14277,-0.64281 2.99976,-0.64281 4.14252,0c0,0 8.14222,4.71391 8.21362,4.71391z" fill="#dfded0"/><path d="M171.99024,207.14724c-0.85708,0 -1.64274,-0.21427 -2.21411,-0.49995l-8.21362,-4.71391c-1.21418,-0.71422 -2.21411,-2.42838 -2.21411,-3.85684v-9.42782c0,-1.42846 0.99992,-3.1426 2.21411,-3.85684l8.21362,-4.71391c1.21418,-0.71422 3.21403,-0.71422 4.42821,0l8.21362,4.71391c1.21418,0.71422 2.21411,2.42838 2.21411,3.85684v9.42782c0,1.42846 -0.99991,3.1426 -2.21411,3.85684l-8.21362,4.71391c-0.57139,0.35712 -1.42846,0.49995 -2.21411,0.49995zM171.99024,180.07802c-0.71422,0 -1.42847,0.14285 -1.92843,0.42854l-8.21362,4.71391c-1.07135,0.57139 -1.92842,2.14268 -1.92842,3.35687v9.42783c0,1.21418 0.85708,2.71407 1.92842,3.35687l8.21362,4.71391c0.99992,0.57139 2.85691,0.57139 3.85684,0l8.21362,-4.71391c1.07135,-0.57139 1.92842,-2.14268 1.92842,-3.35687v-9.42783c0,-1.21418 -0.85707,-2.71407 -1.92842,-3.35687l-8.21362,-4.71391c-0.49995,-0.28569 -1.21418,-0.42854 -1.92842,-0.42854z" fill="#dfded0"/><path d="M171.99024,192.00562c-0.64281,0 -1.28561,-0.14284 -1.78556,-0.42853l-8.21362,-4.7139c-0.35712,-0.21427 -0.57139,-0.42854 -0.57139,-0.64282c0,-0.21427 0.21427,-0.49995 0.57139,-0.64281l8.21362,-4.7139c0.42853,-0.28569 1.07135,-0.42853 1.78556,-0.42853c0.71422,0 1.2856,0.14284 1.78555,0.42853l8.21362,4.7139c0.35712,0.21427 0.57139,0.42853 0.57139,0.64281c0,0.21427 -0.21427,0.49996 -0.57139,0.64282l-8.21362,4.7139c-0.49995,0.28569 -1.14276,0.42853 -1.78555,0.42853zM170.70462,206.07592c-0.21427,0 -0.42854,-0.07143 -0.64281,-0.21427l-8.21362,-4.71391c-0.9285,-0.57139 -1.78556,-1.92842 -1.78556,-3.07119v-9.42783c0,-0.28569 0.07143,-0.85708 0.57139,-0.85708c0.21427,0 0.42853,0.07143 0.64281,0.21427l8.21362,4.71391c0.9285,0.57139 1.78556,1.92842 1.78556,3.07119v9.3564c0,0.28569 -0.07142,0.57139 -0.21426,0.71422c-0.07142,0.14284 -0.14284,0.21426 -0.35712,0.21426zM173.133,206.07592c-0.49995,0 -0.57139,-0.64281 -0.57139,-0.85708v-9.42782c0,-1.14277 0.78564,-2.49981 1.78556,-3.07119l8.21362,-4.71391c0.21427,-0.14284 0.42853,-0.21427 0.64281,-0.21427c0.49995,0 0.57139,0.64281 0.57139,0.85708v9.42783c0,1.14277 -0.78564,2.49981 -1.78556,3.07119l-8.21362,4.71391c-0.28569,0.14284 -0.49996,0.21427 -0.64281,0.21427z" fill="#ffffff"/><path d="M171.99024,187.07747c-0.78564,0 -1.42846,-0.35712 -1.42846,-0.85708c0,-0.49995 0.64282,-0.85708 1.42846,-0.85708c0.78564,0 1.42845,0.35712 1.42845,0.85708c0,0.49995 -0.71422,0.85708 -1.42845,0.85708zM161.9196,199.50506c-0.42853,0 -0.85708,-0.57139 -0.85708,-1.21419c0,-0.64281 0.35712,-1.21418 0.85708,-1.21418c0.49995,0 0.85708,0.57139 0.85708,1.21418c0,0.64281 -0.42854,1.21419 -0.85708,1.21419zM181.77518,199.50506c-0.42853,0 -0.85708,-0.57139 -0.85708,-1.21419c0,-0.64281 0.35712,-1.21418 0.85708,-1.21418c0.42853,0 0.85708,0.57139 0.85708,1.21418c-0.07142,0.64281 -0.42854,1.21419 -0.85708,1.21419zM161.9196,192.36274c-0.42853,0 -0.85708,-0.57139 -0.85708,-1.21418c0,-0.64281 0.35712,-1.21418 0.85708,-1.21418c0.49995,0 0.85708,0.57139 0.85708,1.21418c0,0.64281 -0.42854,1.21418 -0.85708,1.21418zM168.91906,197.00524c-0.42853,0 -0.85708,-0.57139 -0.85708,-1.21418c0,-0.64281 0.35712,-1.21419 0.85708,-1.21419c0.49995,0 0.85708,0.57139 0.85708,1.21419c0,0.64281 -0.35712,1.21418 -0.85708,1.21418zM174.91858,197.00524c-0.42853,0 -0.85708,-0.57139 -0.85708,-1.21418c0,-0.64281 0.35712,-1.21419 0.85708,-1.21419c0.49995,0 0.85708,0.57139 0.85708,1.21419c0,0.64281 -0.35712,1.21418 -0.85708,1.21418zM168.91906,203.57613c-0.42853,0 -0.85708,-0.57139 -0.85708,-1.21418c0,-0.64281 0.35712,-1.21418 0.85708,-1.21418c0.49995,0 0.85708,0.57139 0.85708,1.21418c0,0.64281 -0.35712,1.21418 -0.85708,1.21418z" fill="#c30d23"/></g><g stroke="none" stroke-width="1" stroke-linecap="butt"><path d="M194.72335,163.4048c1.21418,0.71422 2.21412,2.42838 2.21412,3.85684v9.42783c0,1.42846 -0.99992,3.1426 -2.21412,3.85684l-8.21362,4.71391c-0.57139,0.28569 -1.35705,0.49995 -2.21411,0.49995c-0.85708,0 -1.64274,-0.14284 -2.21411,-0.49995l-8.21362,-4.71391c-1.21418,-0.71422 -2.21411,-2.42838 -2.21411,-3.85684v-9.42783c0,-1.42846 0.99991,-3.1426 2.21411,-3.85684l8.21362,-4.7139c1.21418,-0.71422 3.21403,-0.71422 4.42822,0z" fill="#dfded0"/><path d="M194.58052,162.47632c1.14277,0.64282 2.07126,2.28553 2.07126,3.57115v9.42783c0,1.28561 -0.9285,2.92834 -2.07126,3.57114l-8.21362,4.71391c-1.14277,0.64281 -2.99976,0.64281 -4.14252,0l-8.21362,-4.71391c-1.14277,-0.64282 -2.07126,-2.28552 -2.07126,-3.57114v-9.42783c0,-1.28561 0.9285,-2.92834 2.07126,-3.57115l8.21362,-4.71391c1.14277,-0.64282 2.99976,-0.64282 4.14252,0c0,0 8.14221,4.71391 8.21362,4.71391z" fill="#dfded0"/><path d="M184.29562,184.61736c-0.85708,0 -1.64274,-0.21427 -2.21411,-0.49995l-8.21362,-4.71391c-1.21418,-0.71422 -2.21411,-2.42838 -2.21411,-3.85684v-9.42783c0,-1.42846 0.99991,-3.14261 2.21411,-3.85684l8.21362,-4.7139c1.21418,-0.71422 3.21403,-0.71422 4.42821,0l8.21362,4.7139c1.21418,0.71422 2.21411,2.42838 2.21411,3.85684v9.42783c0,1.42846 -0.99992,3.14261 -2.21411,3.85684l-8.21362,4.71391c-0.57139,0.35712 -1.42845,0.49995 -2.21411,0.49995zM184.29562,157.54813c-0.71422,0 -1.42847,0.14284 -1.92843,0.42853l-8.21362,4.7139c-1.07135,0.57138 -1.92842,2.14269 -1.92842,3.35687v9.42782c0,1.21418 0.85708,2.71408 1.92842,3.35687l8.21362,4.71391c0.99992,0.57139 2.85692,0.57139 3.85685,0l8.21362,-4.71391c1.07135,-0.57138 1.92842,-2.14269 1.92842,-3.35687v-9.42782c0,-1.21418 -0.85707,-2.71408 -1.92842,-3.35687l-8.21362,-4.7139c-0.49995,-0.28569 -1.21418,-0.42853 -1.92842,-0.42853z" fill="#dfded0"/><path d="M184.29562,169.47575c-0.64281,0 -1.28561,-0.14284 -1.78556,-0.42853l-8.21362,-4.7139c-0.35712,-0.21427 -0.57139,-0.42854 -0.57139,-0.64282c0,-0.21427 0.21427,-0.49996 0.57139,-0.64281l8.21362,-4.7139c0.42853,-0.28569 1.07135,-0.42853 1.78556,-0.42853c0.71422,0 1.28561,0.14284 1.78556,0.42853l8.21362,4.7139c0.35712,0.21427 0.57139,0.42853 0.57139,0.64281c0,0.21427 -0.21427,0.49996 -0.57139,0.64282l-8.21362,4.7139c-0.49995,0.28569 -1.14277,0.42853 -1.78556,0.42853zM183.01001,183.54603c-0.21427,0 -0.42854,-0.07142 -0.64281,-0.21426l-8.21362,-4.71391c-0.9285,-0.57138 -1.78556,-1.92842 -1.78556,-3.07119v-9.42783c0,-0.28569 0.07143,-0.85708 0.57139,-0.85708c0.21427,0 0.42853,0.07143 0.64281,0.21427l8.21362,4.71391c0.9285,0.57138 1.78556,1.92842 1.78556,3.07119v9.3564c0,0.28569 -0.07143,0.57139 -0.21427,0.71422c-0.07142,0.14284 -0.14284,0.21427 -0.35712,0.21427zM185.43839,183.54603c-0.49995,0 -0.57139,-0.64281 -0.57139,-0.85707v-9.42783c0,-1.14277 0.78564,-2.49981 1.78556,-3.07119l8.21362,-4.71391c0.21427,-0.14284 0.42854,-0.21427 0.64281,-0.21427c0.49995,0 0.57139,0.64281 0.57139,0.85708v9.42783c0,1.14277 -0.78564,2.49981 -1.78556,3.07119l-8.21362,4.71391c-0.28569,0.14284 -0.49996,0.21426 -0.64281,0.21426z" fill="#ffffff"/><path d="M184.29562,164.54758c-0.78564,0 -1.42846,-0.35712 -1.42846,-0.85708c0,-0.49995 0.64282,-0.85708 1.42846,-0.85708c0.78564,0 1.42846,0.35713 1.42846,0.85708c0,0.49995 -0.71422,0.85708 -1.42846,0.85708zM174.22499,176.97516c-0.42853,0 -0.85708,-0.57139 -0.85708,-1.21418c0,-0.64282 0.35712,-1.21419 0.85708,-1.21419c0.49995,0 0.85708,0.57139 0.85708,1.21419c0,0.64282 -0.42854,1.21418 -0.85708,1.21418zM194.08057,176.97516c-0.42853,0 -0.85708,-0.57139 -0.85708,-1.21418c0,-0.64282 0.35712,-1.21419 0.85708,-1.21419c0.42853,0 0.85708,0.57139 0.85708,1.21419c-0.07142,0.64282 -0.42854,1.21418 -0.85708,1.21418zM174.22499,169.83286c-0.42853,0 -0.85708,-0.57139 -0.85708,-1.21418c0,-0.64282 0.35712,-1.21419 0.85708,-1.21419c0.49995,0 0.85708,0.57139 0.85708,1.21419c0,0.64282 -0.42854,1.21418 -0.85708,1.21418zM181.22445,174.47536c-0.42853,0 -0.85708,-0.57139 -0.85708,-1.21419c0,-0.64282 0.35712,-1.21418 0.85708,-1.21418c0.49995,0 0.85708,0.57138 0.85708,1.21418c0,0.64282 -0.35712,1.21419 -0.85708,1.21419zM187.22396,174.47536c-0.42853,0 -0.85708,-0.57139 -0.85708,-1.21419c0,-0.64282 0.35712,-1.21418 0.85708,-1.21418c0.49995,0 0.85708,0.57138 0.85708,1.21418c0,0.64282 -0.35712,1.21419 -0.85708,1.21419zM181.22445,181.04624c-0.42853,0 -0.85708,-0.57139 -0.85708,-1.21418c0,-0.64281 0.35712,-1.21418 0.85708,-1.21418c0.49995,0 0.85708,0.57139 0.85708,1.21418c0,0.64281 -0.35712,1.21418 -0.85708,1.21418z" fill="#c30d23"/></g><g stroke="none" stroke-width="1" stroke-linecap="butt"><path d="M207.00758,185.93468c1.21418,0.71422 2.21411,2.42838 2.21411,3.85684v9.42783c0,1.42846 -0.99991,3.1426 -2.21411,3.85684l-8.21362,4.71391c-0.57139,0.28569 -1.35705,0.49995 -2.21411,0.49995c-0.85708,0 -1.64273,-0.14284 -2.21411,-0.49995l-8.21362,-4.71391c-1.21418,-0.71422 -2.21411,-2.42837 -2.21411,-3.85684v-9.42783c0,-1.42846 0.99992,-3.1426 2.21411,-3.85684l8.21362,-4.71391c1.21418,-0.71422 3.21403,-0.71422 4.42821,0z" fill="#dfded0"/><path d="M206.86472,185.0062c1.14277,0.64281 2.07126,2.28553 2.07126,3.57115v9.42783c0,1.28561 -0.9285,2.92834 -2.07126,3.57115l-8.21362,4.7139c-1.14277,0.64281 -2.99976,0.64281 -4.14252,0l-8.21362,-4.7139c-1.14277,-0.64281 -2.07126,-2.28553 -2.07126,-3.57115v-9.42783c0,-1.28561 0.9285,-2.92834 2.07126,-3.57115l8.21362,-4.7139c1.14277,-0.64281 2.99976,-0.64281 4.14252,0c0,0 8.14221,4.7139 8.21362,4.7139z" fill="#dfded0"/><path d="M196.57982,207.14724c-0.85708,0 -1.64273,-0.21427 -2.21411,-0.49995l-8.21362,-4.71391c-1.21418,-0.71422 -2.21411,-2.42838 -2.21411,-3.85684v-9.42783c0,-1.42846 0.99992,-3.1426 2.21411,-3.85684l8.21362,-4.71391c1.21418,-0.71422 3.21403,-0.71422 4.42821,0l8.21362,4.71391c1.21418,0.71422 2.21411,2.42837 2.21411,3.85684v9.42783c0,1.42846 -0.99992,3.1426 -2.21411,3.85684l-8.21362,4.71391c-0.57139,0.35712 -1.42845,0.49995 -2.21411,0.49995zM196.57982,180.07801c-0.71422,0 -1.42846,0.14284 -1.92842,0.42853l-8.21362,4.71391c-1.07135,0.57139 -1.92843,2.14269 -1.92843,3.35687v9.42783c0,1.21418 0.85708,2.71407 1.92843,3.35687l8.21362,4.71391c0.99992,0.57139 2.85691,0.57139 3.85684,0l8.21362,-4.71391c1.07135,-0.57139 1.92843,-2.14268 1.92843,-3.35687v-9.42783c0,-1.21418 -0.85708,-2.71408 -1.92843,-3.35687l-8.21362,-4.71391c-0.49995,-0.28569 -1.21418,-0.42853 -1.92842,-0.42853z" fill="#dfded0"/><path d="M196.57982,192.00562c-0.64281,0 -1.28561,-0.14284 -1.78556,-0.42853l-8.21362,-4.71391c-0.35712,-0.21427 -0.57139,-0.42854 -0.57139,-0.64281c0,-0.21427 0.21427,-0.49995 0.57139,-0.64281l8.21362,-4.71391c0.42853,-0.28569 1.07134,-0.42853 1.78556,-0.42853c0.71422,0 1.28561,0.14284 1.78556,0.42853l8.21362,4.71391c0.35712,0.21427 0.57139,0.42853 0.57139,0.64281c0,0.21427 -0.21427,0.49996 -0.57139,0.64281l-8.21362,4.71391c-0.49995,0.28569 -1.14277,0.42853 -1.78556,0.42853zM195.29422,206.07592c-0.21427,0 -0.42853,-0.07143 -0.64281,-0.21427l-8.21362,-4.7139c-0.9285,-0.57139 -1.78556,-1.92843 -1.78556,-3.07119v-9.42782c0,-0.28569 0.07142,-0.85708 0.57138,-0.85708c0.21427,0 0.42854,0.07143 0.64282,0.21427l8.21362,4.71391c0.9285,0.57139 1.78556,1.92842 1.78556,3.07119v9.3564c0,0.28569 -0.07142,0.57139 -0.21426,0.71422c-0.07142,0.14284 -0.14285,0.21427 -0.35713,0.21427zM197.7226,206.07592c-0.49995,0 -0.57139,-0.64281 -0.57139,-0.85708v-9.42782c0,-1.14277 0.78564,-2.49981 1.78556,-3.07119l8.21362,-4.71391c0.21427,-0.14284 0.42854,-0.21427 0.64281,-0.21427c0.49995,0 0.57139,0.64281 0.57139,0.85708v9.42782c0,1.14277 -0.78564,2.49982 -1.78556,3.07119l-8.21362,4.7139c-0.28569,0.14284 -0.49995,0.21427 -0.64281,0.21427z" fill="#ffffff"/><path d="M196.57982,187.07746c-0.78564,0 -1.42846,-0.35712 -1.42846,-0.85708c0,-0.49995 0.64281,-0.85707 1.42846,-0.85707c0.78564,0 1.42846,0.35712 1.42846,0.85707c0,0.49995 -0.71423,0.85708 -1.42846,0.85708zM186.50921,199.50505c-0.42853,0 -0.85708,-0.57139 -0.85708,-1.21418c0,-0.64281 0.35712,-1.21418 0.85708,-1.21418c0.49995,0 0.85708,0.57139 0.85708,1.21418c0,0.64281 -0.42853,1.21418 -0.85708,1.21418zM206.36478,199.50505c-0.42853,0 -0.85708,-0.57139 -0.85708,-1.21418c0,-0.64281 0.35712,-1.21418 0.85708,-1.21418c0.42853,0 0.85708,0.57139 0.85708,1.21418c-0.07142,0.64281 -0.42854,1.21418 -0.85708,1.21418zM186.50921,192.36274c-0.42853,0 -0.85708,-0.57139 -0.85708,-1.21418c0,-0.64281 0.35712,-1.21418 0.85708,-1.21418c0.49995,0 0.85708,0.57139 0.85708,1.21418c0,0.64281 -0.42853,1.21418 -0.85708,1.21418zM193.50866,197.00524c-0.42853,0 -0.85708,-0.57139 -0.85708,-1.21418c0,-0.64281 0.35712,-1.21419 0.85708,-1.21419c0.49995,0 0.85708,0.57139 0.85708,1.21419c0,0.64281 -0.35712,1.21418 -0.85708,1.21418zM199.50818,197.00524c-0.42853,0 -0.85708,-0.57139 -0.85708,-1.21418c0,-0.64281 0.35712,-1.21419 0.85708,-1.21419c0.49995,0 0.85708,0.57139 0.85708,1.21419c0,0.64281 -0.35712,1.21418 -0.85708,1.21418zM193.50866,203.57613c-0.42853,0 -0.85708,-0.57139 -0.85708,-1.21418c0,-0.64281 0.35712,-1.21418 0.85708,-1.21418c0.49995,0 0.85708,0.57139 0.85708,1.21418c0,0.64281 -0.35712,1.21418 -0.85708,1.21418z" fill="#c30d23"/></g><g stroke="none" stroke-width="1" stroke-linecap="butt"><path d="M207.34911,170.56618c1.21418,0.71422 2.21411,2.42838 2.21411,3.85685v9.42782c0,1.42846 -0.99992,3.1426 -2.21411,3.85684l-8.21362,4.7139c-0.57139,0.28569 -1.35705,0.49996 -2.21411,0.49996c-0.85708,0 -1.64274,-0.14285 -2.21411,-0.49996l-8.21362,-4.7139c-1.21418,-0.71422 -2.21411,-2.42838 -2.21411,-3.85684v-9.42782c0,-1.42846 0.99991,-3.14261 2.21411,-3.85685l8.21362,-4.7139c1.21418,-0.71422 3.21403,-0.71422 4.42822,0z" fill="#dfded0"/><path d="M207.20626,169.63769c1.14277,0.64282 2.07126,2.28553 2.07126,3.57115v9.42782c0,1.28561 -0.9285,2.92834 -2.07126,3.57115l-8.21362,4.71391c-1.14277,0.64281 -2.99977,0.64281 -4.14253,0l-8.21362,-4.71391c-1.14277,-0.64281 -2.07126,-2.28553 -2.07126,-3.57115v-9.42782c0,-1.28561 0.9285,-2.92834 2.07126,-3.57115l8.21362,-4.71391c1.14277,-0.64282 2.99977,-0.64282 4.14253,0c0,0 8.14221,4.71391 8.21362,4.71391z" fill="#dfded0"/><path d="M196.92137,191.77874c-0.85708,0 -1.64274,-0.21427 -2.21411,-0.49995l-8.21362,-4.71391c-1.21418,-0.71422 -2.21411,-2.42838 -2.21411,-3.85685v-9.42782c0,-1.42846 0.99992,-3.1426 2.21411,-3.85684l8.21362,-4.71391c1.21418,-0.71422 3.21403,-0.71422 4.42821,0l8.21362,4.71391c1.21418,0.71422 2.21411,2.42838 2.21411,3.85684v9.42782c0,1.42846 -0.99991,3.14261 -2.21411,3.85685l-8.21362,4.71391c-0.57139,0.35712 -1.42846,0.49995 -2.21411,0.49995zM196.92137,164.70951c-0.71422,0 -1.42847,0.14284 -1.92843,0.42853l-8.21362,4.71391c-1.07135,0.57138 -1.92842,2.14269 -1.92842,3.35687v9.42783c0,1.21418 0.85708,2.71408 1.92842,3.35687l8.21362,4.71391c0.99992,0.57139 2.85691,0.57139 3.85684,0l8.21362,-4.71391c1.07135,-0.57139 1.92842,-2.14269 1.92842,-3.35687v-9.42783c0,-1.21418 -0.85707,-2.71407 -1.92842,-3.35687l-8.21362,-4.71391c-0.49995,-0.28569 -1.21418,-0.42853 -1.92842,-0.42853z" fill="#dfded0"/><path d="M196.92137,176.63712c-0.64281,0 -1.28561,-0.14284 -1.78556,-0.42853l-8.21362,-4.7139c-0.35712,-0.21427 -0.57139,-0.42854 -0.57139,-0.64282c0,-0.21427 0.21427,-0.49995 0.57139,-0.64281l8.21362,-4.7139c0.42853,-0.28569 1.07135,-0.42853 1.78556,-0.42853c0.71422,0 1.2856,0.14284 1.78555,0.42853l8.21362,4.7139c0.35712,0.21427 0.57139,0.42853 0.57139,0.64281c0,0.21427 -0.21427,0.49996 -0.57139,0.64282l-8.21362,4.7139c-0.49995,0.28569 -1.14276,0.42853 -1.78555,0.42853zM195.63575,190.70741c-0.21427,0 -0.42854,-0.07142 -0.64281,-0.21426l-8.21362,-4.71391c-0.9285,-0.57139 -1.78556,-1.92842 -1.78556,-3.07119v-9.42783c0,-0.28569 0.07143,-0.85708 0.57139,-0.85708c0.21427,0 0.42853,0.07142 0.64281,0.21426l8.21362,4.71391c0.9285,0.57138 1.78556,1.92842 1.78556,3.07119v9.3564c0,0.28569 -0.07143,0.57139 -0.21427,0.71423c-0.07142,0.14284 -0.14284,0.21427 -0.35712,0.21427zM198.06413,190.70741c-0.49995,0 -0.57139,-0.64281 -0.57139,-0.85708v-9.42782c0,-1.14277 0.78564,-2.49981 1.78556,-3.07119l8.21362,-4.71391c0.21427,-0.14284 0.42853,-0.21426 0.64281,-0.21426c0.49995,0 0.57139,0.64281 0.57139,0.85708v9.42783c0,1.14277 -0.78564,2.49981 -1.78556,3.07119l-8.21362,4.71391c-0.28569,0.14284 -0.49996,0.21426 -0.64281,0.21426z" fill="#ffffff"/><path d="M196.92137,171.70895c-0.78564,0 -1.42846,-0.35712 -1.42846,-0.85708c0,-0.49995 0.64282,-0.85708 1.42846,-0.85708c0.78564,0 1.42845,0.35712 1.42845,0.85708c0,0.49995 -0.71422,0.85708 -1.42845,0.85708zM186.85073,184.13655c-0.42853,0 -0.85708,-0.57139 -0.85708,-1.21418c0,-0.64281 0.35712,-1.21418 0.85708,-1.21418c0.49995,0 0.85708,0.57139 0.85708,1.21418c0,0.64281 -0.42854,1.21418 -0.85708,1.21418zM206.70631,184.13655c-0.42853,0 -0.85708,-0.57139 -0.85708,-1.21418c0,-0.64281 0.35712,-1.21418 0.85708,-1.21418c0.42853,0 0.85708,0.57139 0.85708,1.21418c-0.07142,0.64281 -0.42854,1.21418 -0.85708,1.21418zM186.85073,176.99423c-0.42853,0 -0.85708,-0.57138 -0.85708,-1.21418c0,-0.64282 0.35712,-1.21418 0.85708,-1.21418c0.49995,0 0.85708,0.57139 0.85708,1.21418c0,0.64282 -0.42854,1.21418 -0.85708,1.21418zM193.85019,181.63673c-0.42853,0 -0.85708,-0.57139 -0.85708,-1.21418c0,-0.64281 0.35712,-1.21418 0.85708,-1.21418c0.49995,0 0.85708,0.57139 0.85708,1.21418c0,0.64281 -0.35712,1.21418 -0.85708,1.21418zM199.8497,181.63673c-0.42853,0 -0.85708,-0.57139 -0.85708,-1.21418c0,-0.64281 0.35712,-1.21418 0.85708,-1.21418c0.49995,0 0.85708,0.57139 0.85708,1.21418c0,0.64281 -0.35712,1.21418 -0.85708,1.21418zM193.85019,188.20762c-0.42853,0 -0.85708,-0.57139 -0.85708,-1.21418c0,-0.64281 0.35712,-1.21419 0.85708,-1.21419c0.49995,0 0.85708,0.57139 0.85708,1.21419c0,0.64281 -0.35712,1.21418 -0.85708,1.21418z" fill="#c30d23"/></g><g stroke-width="0.5"><path d="M175.5162,188.36565c0,0.51788 -0.5427,0.9377 -1.21215,0.9377c-0.66944,0 -2.17272,-0.09964 -2.17272,-0.61751c0,-0.51788 1.50327,-1.25789 2.17272,-1.25789c0.66944,0 1.21215,0.41983 1.21215,0.9377z" fill="#727272" stroke="#000000" stroke-linecap="butt"/><path d="M170.62186,188.36565c0,0.51788 -0.5427,0.9377 -1.21215,0.9377c-0.66944,0 -2.17272,-0.09964 -2.17272,-0.61751c0,-0.51788 1.50327,-1.25789 2.17272,-1.25789c0.66944,0 1.21215,0.41983 1.21215,0.9377z" fill="#727272" stroke="#000000" stroke-linecap="butt"/><path d="M168.42737,170.21862l-0.65674,2.94504l-1.86651,4.7542l-2.10699,-1.15151c0,0 1.36479,-4.15995 2.19285,-5.30041c0.47779,-0.65803 2.43739,-1.24731 2.43739,-1.24731z" fill="#ffffff" stroke="#000000" stroke-linecap="butt"/><path d="M165.8855,177.89195l-0.44513,1.14024l0.28326,0.33258l-0.32373,0.61763c0,0 -0.56855,0.26916 -0.93073,0.19004c-0.36219,-0.07912 -0.56858,-0.26797 -0.80934,-0.57013c-0.24077,-0.30216 -0.34573,-0.52326 -0.3642,-0.90269c-0.01846,-0.37943 0.28326,-0.76017 0.28326,-0.76017l0.26877,-1.18554z" data-paper-data="{&quot;index&quot;:null}" fill="#fed497" stroke="#000000" stroke-linecap="round"/><path d="M176.43386,161.044c0.09121,0.54582 1.25982,1.54682 2.17726,2.44239c0.94178,0.91932 2.10746,1.82121 1.8731,2.44034c-0.47562,1.25647 -2.89395,2.02018 -3.85434,2.09592c-0.88848,0.07007 -2.04095,1.16743 -2.51664,1.46796c-0.70893,0.44789 -0.66106,-0.87499 -2.42673,-0.87499c-0.73406,0 -1.26735,1.29352 -1.93435,0.75107c-1.10734,-0.90057 -1.24678,-0.65655 -2.82568,-1.03637c-1.05647,-0.25413 -2.90223,-1.04806 -3.79293,-1.56211c-1.68718,-0.97373 2.27426,-3.59547 2.93352,-5.78177c0.14236,-0.47208 0.80114,-1.39953 1.3019,-2.38654c0.72371,-1.42643 1.84826,-2.65813 3.87595,-2.64186c1.36159,0.01092 2.4783,0.43816 3.42354,1.70469c1.23479,1.65446 1.63693,3.05665 1.76541,3.38128z" fill="#4c4c4c" stroke="#000000" stroke-linecap="butt"/><g><g stroke="#000000" stroke-linecap="butt"><path d="M178.34502,160.35945c0,0.29336 -0.59295,1.48836 -0.66298,2.01789c-0.06464,0.4887 0.38697,0.3204 0.52458,0.43628c0.95535,0.80454 0.36548,1.90714 -1.28598,2.13522c-0.67019,0.83727 -1.5017,1.9622 -2.15523,2.54442c-0.37203,0.33145 -0.50975,0.59783 -1.13212,0.81067c-0.15358,0.05252 0.42117,1.61388 0.22723,1.78103c-0.65817,0.56723 -4.3553,0.19522 -4.58242,0.19522c-0.19952,0 0.66737,-1.83855 0.20083,-1.97206c-0.7394,-0.21159 -0.66886,-0.37439 -1.08211,-0.6924c-0.72448,-0.55752 -1.75319,-1.25041 -2.1297,-2.29931c-0.00954,-0.71517 -1.75846,0.1265 -2.13619,-1.65618c-0.04668,-0.2203 -0.12254,-0.7647 0.22539,-1.03197c0.26601,-0.20433 1.0235,0.10308 1.04521,-0.03855c0.0642,-0.41888 -0.73207,-1.9408 -0.73207,-2.23026c0,-4.60537 2.80066,-7.12211 6.57707,-7.12211c3.7764,0 7.0985,2.51675 7.0985,7.12211z" fill="#ffce91"/><path d="M170.16693,159.43011c-0.00054,0.00012 -0.28983,0.72929 -0.75276,1.28111c-0.59625,0.71072 -1.40161,1.28516 -1.4185,1.29018c-0.54658,0.16235 0.98891,-0.98782 0.70798,-1.08778c-0.17829,-0.06343 -1.41463,0.84455 -2.1117,1.23323c-0.0096,0.00536 -0.9751,0.1849 -1.16586,0.19486c-0.04008,0.00209 -0.66682,-1.51814 -0.90526,-2.3026c-0.35426,-1.16555 -0.05539,-2.14133 0.65121,-3.32963c0.68552,-0.97369 2.6291,-3.64666 5.95768,-3.57127c3.32858,0.07539 4.99241,0.99246 6.52605,3.43188c1.40432,2.23373 0.42564,5.35558 0.28353,5.41077c-0.45274,-0.07763 -0.82319,-0.07585 -1.22531,-0.04904c-0.31743,0.02117 -0.67719,0.08051 -0.95655,-0.02747c-0.42246,0.0041 -0.76241,-0.00951 -1.01071,-0.0956c-0.19405,-0.06727 -0.32436,-0.21766 -0.44557,-0.18222c0,0 -0.47081,-0.04443 -0.70851,-0.32641c-0.26898,-0.3191 -0.43211,-0.80087 -0.50135,-0.80882c-0.01862,-0.00214 -0.34296,0.50381 -0.3172,0.80772c0.027,0.31853 0.2994,0.65254 0.05334,0.51843c-0.21697,-0.11826 -0.39448,-0.24555 -0.55906,-0.45843c-0.27008,-0.34936 -0.47141,-0.79389 -0.50464,-0.8058c-0.65805,-0.23612 0.19656,1.26093 -0.28434,1.29989c0,0 -0.54764,-0.26126 -0.76159,-0.65588c-0.02522,-0.13706 -0.31293,-0.28064 -0.40305,-0.66751c-0.10377,-0.44545 -0.01715,-1.12884 -0.14785,-1.0996z" fill="#232323"/></g><path d="M169.33948,163.2848v1.27279" fill="none" stroke="url(#color-1)" stroke-linecap="round"/><path d="M173.64531,163.2848v1.32695" fill="none" stroke="url(#color-2)" stroke-linecap="round"/><path d="M172.22357,166.81884c0,0 -0.44636,0.21544 -0.68106,0.21544c-0.2347,0 -0.72714,-0.21544 -0.72714,-0.21544" fill="none" stroke="url(#color-3)" stroke-linecap="round"/></g><path d="M181.66434,164.29244c0.27056,1.78097 -1.23049,2.06485 -1.63158,2.19809c-0.17174,0.05705 1.00775,-0.36915 0.80219,-0.74253c-0.46052,-0.83649 -2.58003,-2.41943 -4.13533,-4.0804c-0.22754,-0.63952 -0.17769,-0.34313 -0.75331,-1.77173c-1.71918,-4.26669 -4.18734,-3.89229 -4.90936,-3.86519c-1.3243,-0.02937 -2.48315,0.1953 -4.04853,3.53264c-0.25561,0.54495 -0.63874,1.20022 -0.89957,1.83951c-0.40479,2.07331 -4.37405,4.42967 -2.94575,5.30702c0.36781,0.4592 -1.40137,-0.93193 -1.29947,-1.85499c0.08433,-0.76388 1.09591,-2.7849 1.83472,-5.15214c0.83976,-2.69066 1.73332,-5.15081 2.02785,-6.19736c0.27027,-0.96031 1.82946,-3.47902 5.62876,-3.48767c4.13464,-0.00942 5.14777,2.39058 5.36024,3.06017c0.6318,1.14759 2.11568,5.02601 2.48899,5.83161c0.53046,1.77552 2.13837,3.13332 2.48014,5.38297z" fill="#ffffff" stroke="#000000" stroke-linecap="butt"/><path d="M165.10187,186.11929c0,0 2.98572,-13.90634 3.45139,-16.07524c0.11816,-0.55033 -4.63076,-2.84712 -4.63076,-2.84712c0,0 5.11182,2.10382 7.70001,2.11993c2.75538,0.01714 8.16741,-2.50674 8.16741,-2.50674l-5.19732,2.86923l3.31127,16.76403c0,0 -0.51884,0.94428 -2.77728,1.22639c-1.25986,0.15737 -3.55969,0.23585 -5.11507,0.18663c-1.5752,-0.04986 -2.58904,-0.0065 -3.19119,-0.16045c-1.64202,-0.41982 -1.71846,-1.57663 -1.71846,-1.57663z" fill="#ffffff" stroke="#000000" stroke-linecap="butt"/><path d="M166.95717,174.57244l0.49056,-3.7098c0,0 0.61334,-0.34202 0.99244,-0.38501c0.54834,-0.06218 1.98154,0.04775 1.98154,0.04775v3.00463l-2.69864,1.65852l0.21522,-2.17973z" fill="#ffffff" stroke="none" stroke-linecap="butt"/><path d="M177.16204,171.60865c0.82807,1.14046 2.19284,5.30041 2.19284,5.30041l-2.10699,1.15152l-1.86651,-4.7542l-0.65674,-2.94503c0,0 1.95961,0.58928 2.43739,1.2473z" data-paper-data="{&quot;index&quot;:null}" fill="#ffffff" stroke="#000000" stroke-linecap="butt"/><path d="M179.30436,176.89663l0.26877,1.18555c0,0 0.30172,0.38074 0.28325,0.76017c-0.01847,0.37943 -0.12343,0.60053 -0.36419,0.90269c-0.24077,0.30216 -0.44715,0.49102 -0.80934,0.57013c-0.36218,0.07912 -0.93073,-0.19004 -0.93073,-0.19004l-0.32373,-0.61764l0.28326,-0.33257l-0.44513,-1.14025z" data-paper-data="{&quot;index&quot;:null}" fill="#fed497" stroke="#000000" stroke-linecap="round"/><path d="M175.21375,173.15153l0.21522,2.17974l-2.69864,-1.65852v-3.00463c0,0 1.43319,-0.10993 1.98153,-0.04776c0.3791,0.04299 0.99244,0.38501 0.99244,0.38501l0.49055,3.7098z" data-paper-data="{&quot;index&quot;:null}" fill="#ffffff" stroke="none" stroke-linecap="butt"/></g><g><path d="M192.62109,181.1231c-0.0098,0.06984 0.7286,-0.09449 1.00902,0.21805c0.44158,0.49216 0.31744,0.92052 0.19693,1.23248c-0.01634,0.0423 -0.03323,0.03445 -0.05063,0.07434c-0.67145,1.53952 -2.10501,1.32115 -2.1834,1.46771c-0.289,0.54026 -0.09532,1.32927 -1.38986,2.36684c-1.33039,1.06631 -2.02221,1.26975 -3.08264,1.41848c-0.11246,0.01578 -0.19814,1.86757 -0.43801,2.2493c-0.42349,0.67395 -3.07938,0.14126 -3.27916,0.14126c-0.51005,0 0.50523,-2.26376 -0.07739,-2.39721c-0.81029,-0.18559 -1.69252,-0.16474 -3.0722,-1.41958c-1.1529,-1.04856 -1.49543,-2.17844 -1.79203,-2.63648c-0.03076,-0.04751 -1.0927,-0.04734 -1.46689,-0.26965c-0.83067,-0.49349 -1.1357,-1.69422 -0.65472,-2.29949c0.62529,-0.78686 1.32042,0.04683 1.27719,-0.40046c-0.05437,-0.56268 -0.63449,-1.09895 -0.63449,-1.72116c0,-5.02116 2.86962,-8.89696 8.07506,-8.89696c5.20544,0 8.07407,4.03833 8.07407,9.05951c0,0 -0.46163,1.46226 -0.51087,1.81299z" fill="#ffce91" stroke="#000000" stroke-width="0.5" stroke-linecap="butt"/><path d="M186.48764,185.39177c0,0 -0.81757,0.4053 -1.21591,0.4053c-0.43205,0 -1.28347,-0.4053 -1.28347,-0.4053" fill="none" stroke="#000000" stroke-width="0.5" stroke-linecap="round"/><path d="M185.67592,178.4846c-0.78807,0.06384 -2.63063,0.41578 -2.63063,0.41578c0,0 -0.8649,0.04669 -1.37926,-0.13632c-0.41295,-0.14694 -0.88298,-0.39782 -1.55565,-0.36268c-1.00686,0.05259 -1.84375,0.39482 -2.49421,0.74855c-1.62628,0.88439 -1.60853,-2.90884 -0.15606,-5.35151c0.84228,-1.19633 3.23025,-4.48049 7.31993,-4.38787c4.08968,0.09261 6.13395,1.21939 8.01826,4.2166c1.72543,2.74448 0.54399,5.54254 0.36939,5.61035c-0.77556,0.3012 -1.42446,-0.29431 -2.09332,-0.09882c0,0 -1.93081,-0.34777 -2.65381,-0.4308c-0.79003,-0.09072 -1.3084,0.03565 -1.3084,0.03565c0,0 -0.84538,-0.30679 -1.43625,-0.25892z" fill="#1f1f1f" stroke="#000000" stroke-width="0.5" stroke-linecap="butt"/><path d="M180.57068,180.47293c0,0 0.58727,-0.27094 0.9859,-0.34872c0.35663,-0.06959 1.23595,0.13587 1.23595,0.13587" data-paper-data="{&quot;index&quot;:null}" fill="none" stroke="#000000" stroke-width="0.5" stroke-linecap="round"/><path d="M187.1942,180.51487c0,0 0.77057,-0.38915 1.17863,-0.37283c0.36507,0.01461 1.15511,0.46615 1.15511,0.46615" fill="none" stroke="#000000" stroke-width="0.5" stroke-linecap="round"/><path d="M180.18825,173.87832c-0.19677,0.47024 -0.56234,0.76523 -0.81652,0.65886c-0.25418,-0.10636 -0.30072,-0.57379 -0.10397,-1.04402c0.19677,-0.47024 0.56233,-0.76522 0.81651,-0.65886c0.25418,0.10636 0.30073,0.57379 0.10396,1.04403z" fill="#393939" stroke="#000000" stroke-width="0.5" stroke-linecap="butt"/><path d="M181.45927,172.64921c-0.1014,0.26341 -0.34861,0.41341 -0.55214,0.33505c-0.20353,-0.07836 -0.28634,-0.3554 -0.18493,-0.6188c0.1014,-0.26341 0.34861,-0.41341 0.55214,-0.33506c0.20353,0.07836 0.28634,0.3554 0.18493,0.61881z" fill="#393939" stroke="none" stroke-width="0.5" stroke-linecap="butt"/><path d="M192.66135,182.41113c0,0 -0.06715,0.31668 -0.18809,0.44384c-0.09114,0.09584 -0.47377,0.25212 -0.47377,0.25212" fill="none" stroke="#d5ac79" stroke-width="0.5" stroke-linecap="round"/><path d="M177.6773,182.83699c0,0 -0.38262,-0.15626 -0.47376,-0.25211c-0.12093,-0.12716 -0.18809,-0.44384 -0.18809,-0.44384" data-paper-data="{&quot;index&quot;:null}" fill="none" stroke="#d5ac79" stroke-width="0.5" stroke-linecap="round"/><path d="M178.36121,178.80965c0,0 0.01003,-1.19773 0.34609,-1.80524c0.29426,-0.53194 1.12138,-1.49656 1.12138,-1.49656" fill="none" stroke="url(#color-4)" stroke-width="0.5" stroke-linecap="round"/><path d="M182.51556,175.03739c0,0 -0.24013,1.47824 -0.53439,2.01018c-0.33606,0.60751 -0.63957,1.58512 -0.63957,1.58512" fill="none" stroke="url(#color-5)" stroke-width="0.5" stroke-linecap="round"/><path d="M184.17522,178.67587c0,0 -0.13673,-0.75749 0.19934,-1.365c0.29427,-0.53194 0.90125,-1.9368 0.90125,-1.9368" fill="none" stroke="url(#color-6)" stroke-width="0.5" stroke-linecap="round"/><path d="M187.0979,178.49439c0,0 0.15677,-0.90423 0.49284,-1.51174c0.29427,-0.53194 0.97463,-1.79006 0.97463,-1.79006" fill="none" stroke="url(#color-7)" stroke-width="0.5" stroke-linecap="round"/><path d="M191.48145,175.23804c0,0 0.20011,1.47824 -0.09415,2.01018c-0.33607,0.60751 -0.71295,1.65849 -0.71295,1.65849" fill="none" stroke="url(#color-8)" stroke-width="0.5" stroke-linecap="round"/><path d="M181.85495,183.47059v-1.4741" fill="none" stroke="#000000" stroke-width="0.5" stroke-linecap="round"/><path d="M188.01424,183.57899v-1.4741" fill="none" stroke="#000000" stroke-width="0.5" stroke-linecap="round"/><path d="M185.9059,206.68644c0,0 -0.14997,-1.95792 -0.14997,-3.34514c0,-0.30135 0.07336,-0.5294 -0.32394,-0.90557c-0.27674,-0.26203 -0.76498,-0.38439 -0.77701,-0.65607c-0.05924,-1.33802 -0.09877,-2.66046 -0.09877,-2.66046l4.94884,0.19996c0,0 -0.33465,3.44935 -0.42021,4.48276c-0.1195,1.44322 -0.07966,2.83452 -0.07966,2.83452z" fill="#1c1c1c" stroke="#000000" stroke-width="0.5" stroke-linecap="butt"/><path d="M180.42621,206.60549c0,0 -0.09997,-1.35806 0,-3.34513c0.07764,-1.54311 -0.29994,-4.27207 -0.29994,-4.27207c0,0 3.72948,0.41282 5.04912,0.865c0.46129,0.15807 -0.54008,1.99443 -0.54008,1.99443c0,0 -0.94461,0.73988 -1.03018,1.7733c-0.1195,1.44322 -0.17964,2.9345 -0.17964,2.9345z" fill="#1c1c1c" stroke="#000000" stroke-width="0.5" stroke-linecap="butt"/><path d="M180.30553,208.7513c0,-0.71259 0.11593,-1.94236 0.11593,-1.94236l2.94563,-0.05797c0,0 0.34902,1.80053 0.05929,2.06383c-0.59254,0.5385 -3.12086,0.27846 -3.12086,-0.06349z" data-paper-data="{&quot;index&quot;:null}" fill="#ffffff" stroke="#000000" stroke-width="0.5" stroke-linecap="butt"/><path d="M185.98547,206.60494l2.94563,-0.05797c0,0 0.34903,1.80053 0.05929,2.06383c-0.59254,0.5385 -3.12086,0.27845 -3.12086,-0.06351z" data-paper-data="{&quot;index&quot;:null}" fill="#ffffff" stroke="#000000" stroke-width="0.5" stroke-linecap="butt"/><path d="M179.00571,195.4705c-0.20402,0.19334 -0.37572,0.29715 -0.49526,0.26984c-1.47724,-0.33747 -2.36401,-1.52292 -2.32934,-1.76166c0.02227,-0.15333 2.19702,-3.34969 2.2945,-3.63724c0.44169,-1.30271 3.68743,-2.06926 3.68743,-2.06926c0,0 1.7963,1.08079 2.7886,1.08079c1.13389,0 3.2273,-1.02835 3.2273,-1.02835c0,0 1.17455,0.52119 2.31791,1.69338c1.99144,2.04168 2.54741,2.97368 2.74374,3.67776c0.49405,0.96872 -2.44258,1.70528 -3.11814,1.90757c-0.16489,0.04937 -1.10747,-2.07116 -1.08805,-1.89686c0.35049,3.14704 0.62124,6.02905 0.62124,6.02905c0,0 -0.19616,0.78277 -1.77393,0.97984c-1.34753,0.16832 -3.07776,0.18593 -4.74138,0.13329c-1.07288,-0.03395 -2.24419,-0.13769 -2.71263,-0.49766c-0.26718,-0.20531 -0.61256,-0.96146 -0.61256,-0.96146c0,0 -0.50836,-2.36573 0.58354,-5.43329c0.56137,-1.57711 -0.32417,0.5014 -1.39297,1.51425z" fill="#dedede" stroke="#000000" stroke-width="0.5" stroke-linecap="butt"/><path d="M193.05877,193.93288l0.34,1.49978c0,0 0.38169,0.48165 0.35834,0.96165c-0.02335,0.47999 -0.15615,0.7597 -0.46072,1.14194c-0.30457,0.38225 -0.56567,0.62115 -1.02386,0.72124c-0.45818,0.10008 -1.17742,-0.24042 -1.17742,-0.24042l-0.40954,-0.78132l0.35835,-0.42073l-0.56311,-1.44247z" data-paper-data="{&quot;index&quot;:null}" fill="#fed497" stroke="#000000" stroke-width="0.5" stroke-linecap="round"/><path d="M178.32808,195.72484c0,0 -0.00517,0.28188 -0.07684,0.46549c-0.10384,0.26598 -0.48626,0.97699 -0.48626,0.97699l0.35833,0.42072l-0.40954,0.78134c0,0 -0.71924,0.34049 -1.17742,0.24041c-0.45819,-0.10008 -0.71927,-0.33898 -1.02385,-0.72124c-0.30458,-0.38225 -0.43738,-0.66196 -0.46074,-1.14195c-0.02337,-0.47999 0.35834,-0.96164 0.35834,-0.96164l0.83809,-1.57093z" data-paper-data="{&quot;index&quot;:null}" fill="#fed497" stroke="#000000" stroke-width="0.5" stroke-linecap="round"/><text transform="translate(182.44671,195.35095) scale(0.05782,0.05781)" font-size="40" xml:space="preserve" fill="#000000" fill-rule="nonzero" stroke="none" stroke-width="1" stroke-linecap="butt" stroke-linejoin="miter" stroke-miterlimit="10" stroke-dasharray="" stroke-dashoffset="0" font-family="Pixel" font-weight="normal" text-anchor="start" style="mix-blend-mode: normal"><tspan x="0" dy="0">Rich</tspan></text></g></g><text transform="translate(250.07616,187.44884) scale(0.14186,0.14186)" font-size="128" xml:space="preserve" fill="#ffffff" fill-rule="nonzero" stroke="none" stroke-width="1" stroke-linecap="butt" stroke-linejoin="miter" stroke-miterlimit="10" stroke-dasharray="" stroke-dashoffset="0" font-family="Sans Serif" font-weight="400" text-anchor="start" style="mix-blend-mode: normal"><tspan x="0" dy="0">存档</tspan></text></g></g></svg>