<svg version="1.1" xmlns="http://www.w3.org/2000/svg" xmlns:xlink="http://www.w3.org/1999/xlink" width="141.82494" height="46.188" viewBox="0,0,141.82494,46.188"><g transform="translate(-163.26343,-157.75736)"><g data-paper-data="{&quot;isPaintingLayer&quot;:true}" fill-rule="nonzero" stroke="none" stroke-width="1" stroke-linecap="butt" stroke-linejoin="miter" stroke-miterlimit="10" stroke-dasharray="" stroke-dashoffset="0" style="mix-blend-mode: normal"><text transform="translate(232.24326,186.45718) scale(0.14186,0.14186)" font-size="128" xml:space="preserve" fill="#ffffff" fill-rule="nonzero" stroke="none" stroke-width="1" stroke-linecap="butt" stroke-linejoin="miter" stroke-miterlimit="10" stroke-dasharray="" stroke-dashoffset="0" font-family="Sans Serif" font-weight="400" text-anchor="start" style="mix-blend-mode: normal"><tspan x="0" dy="0">经典游戏</tspan></text><g><path d="M205.22057,172.18234c1.65505,1.60357 2.584,4.71427 2.03336,6.98532l-3.63426,14.98884c-0.55065,2.27103 -2.80114,4.61082 -5.00686,5.2783l-14.87556,4.32819c-1.01854,0.23393 -2.35023,0.27174 -3.71283,-0.05863c-1.36262,-0.33039 -2.55664,-0.86033 -3.32739,-1.64835l-11.2413,-10.66062c-1.65505,-1.60357 -2.58401,-4.71427 -2.03336,-6.9853l3.63426,-14.98884c0.55065,-2.27103 2.80114,-4.61082 5.00684,-5.27832l14.87558,-4.32819c2.2057,-0.66748 5.38515,0.10343 7.04021,1.707z" fill="#dfded0"/><path d="M205.35142,170.6511c1.56904,1.46249 2.41196,4.43208 1.91638,6.47603l-3.63426,14.98884c-0.49558,2.04393 -2.60499,4.2977 -4.66959,4.87914l-14.87556,4.32821c-2.06464,0.58146 -5.01698,-0.13438 -6.586,-1.59688l-11.2413,-10.6606c-1.56904,-1.46249 -2.41196,-4.4321 -1.91638,-6.47603l3.63426,-14.98884c0.49558,-2.04393 2.60502,-4.2977 4.66962,-4.87916l14.87556,-4.32819c2.06464,-0.58146 5.01696,0.13437 6.58598,1.59687c0,0 11.1278,10.6331 11.24132,10.66062z" fill="#dfded0"/><path d="M180.46494,201.8875c-1.36262,-0.33039 -2.52912,-0.9739 -3.32739,-1.64835l-11.24132,-10.66062c-1.65505,-1.60357 -2.58401,-4.71427 -2.03336,-6.98532l3.63426,-14.98884c0.55065,-2.27103 2.80114,-4.61082 5.00686,-5.27832l14.87556,-4.32821c2.2057,-0.66748 5.38517,0.10344 7.04021,1.70701l11.2413,10.6606c1.65505,1.60357 2.58401,4.71427 2.03336,6.9853l-3.63426,14.98884c-0.55065,2.27103 -2.80115,4.61082 -5.00686,5.27832l-14.87556,4.32819c-1.04609,0.34751 -2.46378,0.24421 -3.71285,-0.05863zM190.89965,158.85139c-1.13552,-0.27532 -2.3261,-0.32353 -3.23109,-0.06207l-14.87556,4.32821c-1.92354,0.49544 -3.89187,2.66319 -4.35992,4.59355l-3.63426,14.98884c-0.46805,1.93036 0.3164,4.64536 1.77189,6.08029l11.2413,10.66062c1.36946,1.29387 4.32182,2.00971 6.13182,1.48674l14.87558,-4.32821c1.92354,-0.49544 3.89186,-2.66317 4.35991,-4.59355l3.63427,-14.98884c0.46805,-1.93036 -0.3164,-4.64537 -1.7719,-6.08029l-11.24132,-10.6606c-0.68472,-0.64693 -1.76518,-1.14935 -2.90072,-1.42467z" fill="#dfded0"/><path d="M186.30179,177.81452c-1.02198,-0.24781 -1.98887,-0.72267 -2.67358,-1.36959l-11.2413,-10.66062c-0.48518,-0.47832 -0.74323,-0.90155 -0.66064,-1.24224c0.0826,-0.34066 0.53338,-0.71225 1.15622,-0.80171l14.87556,-4.32819c0.79142,-0.28903 1.86847,-0.26834 3.00396,0.00699c1.13552,0.27532 1.98888,0.72267 2.6736,1.36961l11.2413,10.6606c0.48518,0.47832 0.74323,0.90155 0.66064,1.24224c-0.0826,0.34066 -0.53338,0.71225 -1.15622,0.80171l-14.87556,4.32821c-0.90499,0.26148 -1.98202,0.24077 -3.00397,-0.007zM178.834,199.68863c-0.34066,-0.0826 -0.65376,-0.27875 -0.93937,-0.58845l-11.24132,-10.66062c-1.25591,-1.26635 -2.09542,-3.75421 -1.6549,-5.57104l3.63426,-14.98884c0.11013,-0.45421 0.44394,-1.33509 1.2388,-1.14236c0.34066,0.0826 0.65376,0.27875 0.93937,0.58845l11.24132,10.66062c1.25591,1.26634 2.09542,3.75422 1.6549,5.57105l-3.60672,14.87527c-0.11013,0.45421 -0.33381,0.88088 -0.61596,1.05292c-0.16862,0.19957 -0.30969,0.28559 -0.65037,0.20299zM182.69476,200.62468c-0.79486,-0.19271 -0.66062,-1.24223 -0.57802,-1.58288l3.63426,-14.98884c0.44052,-1.81683 2.21269,-3.67147 4.02267,-4.19444l14.87556,-4.32819c0.39572,-0.14451 0.76389,-0.17546 1.10456,-0.09286c0.79486,0.19273 0.66062,1.24224 0.57804,1.5829l-3.63426,14.98884c-0.44052,1.81683 -2.21269,3.67147 -4.02266,4.19444l-14.87556,4.32821c-0.50927,0.11697 -0.87744,0.14793 -1.10456,0.09286z" fill="#ffffff"/><path d="M188.20146,169.97949c-1.24904,-0.30284 -2.13337,-1.11842 -1.94064,-1.91327c0.19271,-0.79486 1.35236,-1.11483 2.60142,-0.81197c1.24904,0.30284 2.13337,1.11841 1.94066,1.91327c-0.19271,0.79486 -1.46589,1.08731 -2.60142,0.81199zM167.40008,185.85542c-0.68129,-0.16519 -1.14236,-1.23882 -0.89457,-2.26077c0.24778,-1.02198 1.03581,-1.79272 1.83066,-1.59999c0.79486,0.19271 1.14238,1.23882 0.89458,2.26077c-0.24778,1.02198 -1.14935,1.76518 -1.83069,1.59999zM198.96747,193.50942c-0.68129,-0.16518 -1.14236,-1.23882 -0.89458,-2.26077c0.24778,-1.02198 1.03581,-1.7927 1.83067,-1.59997c0.68129,0.16518 1.14236,1.2388 0.89458,2.26074c-0.36136,0.99445 -1.14935,1.76518 -1.83067,1.59999zM170.15333,174.50023c-0.68129,-0.16519 -1.14236,-1.23882 -0.89458,-2.26077c0.24778,-1.02197 1.03581,-1.7927 1.83067,-1.59999c0.79486,0.19271 1.14238,1.23882 0.89458,2.26075c-0.24778,1.02198 -1.14935,1.76518 -1.83067,1.59999zM179.49176,184.57921c-0.68129,-0.16519 -1.14238,-1.23882 -0.89458,-2.26075c0.24778,-1.02198 1.03583,-1.7927 1.83069,-1.59999c0.79486,0.19273 1.14236,1.23882 0.89458,2.26077c-0.24778,1.02198 -1.03581,1.7927 -1.83067,1.59999zM189.03013,186.89199c-0.68129,-0.16519 -1.14236,-1.23882 -0.89458,-2.26077c0.24778,-1.02198 1.03581,-1.7927 1.83067,-1.59999c0.79486,0.19273 1.14236,1.23882 0.89458,2.26075c-0.24778,1.02198 -1.03581,1.7927 -1.83067,1.59999zM176.95881,195.02597c-0.68129,-0.16519 -1.14236,-1.23882 -0.89458,-2.26077c0.24778,-1.02198 1.03581,-1.7927 1.83067,-1.59999c0.79486,0.19273 1.14236,1.23882 0.89458,2.26077c-0.24778,1.02198 -1.03581,1.7927 -1.83067,1.59999z" fill="#c30d23"/></g></g></g></svg>