<svg version="1.1" xmlns="http://www.w3.org/2000/svg" xmlns:xlink="http://www.w3.org/1999/xlink" width="26.15324" height="28.55431" viewBox="0,0,26.15324,28.55431"><g transform="translate(-172.33099,-130.92974)"><g data-paper-data="{&quot;isPaintingLayer&quot;:true}" fill-rule="nonzero" stroke="none" stroke-linecap="butt" stroke-linejoin="miter" stroke-miterlimit="10" stroke-dasharray="" stroke-dashoffset="0" style="mix-blend-mode: normal"><g><path d="M196.04623,136.58149c1.18207,0.66492 2.14249,2.36413 2.14249,3.69397v9.75206c0,1.32982 -0.96043,3.02905 -2.14249,3.69396l-8.4961,4.87602c-1.18207,0.66492 -3.10293,0.66492 -4.28499,0l-8.4961,-4.87602c-1.18207,-0.66492 -2.14249,-2.36413 -2.14249,-3.69396v-9.75206c0,-1.32982 0.96044,-3.02906 2.14249,-3.69397l8.49611,-4.87602c1.18207,-0.66492 3.10293,-0.66492 4.28499,0c0,0 8.42223,4.87602 8.4961,4.87602z" fill="#dfded0" stroke-width="1"/><path d="M185.40762,159.48405c-0.88655,0 -1.69923,-0.22163 -2.29027,-0.51715l-8.4961,-4.87602c-1.25594,-0.73879 -2.29026,-2.5119 -2.29026,-3.98948v-9.75205c0,-1.47759 1.03431,-3.25069 2.29026,-3.98949l8.4961,-4.87602c1.25594,-0.73879 3.32457,-0.73879 4.58051,0l8.49611,4.87602c1.25594,0.73879 2.29026,2.5119 2.29026,3.98949v9.75205c0,1.47759 -1.0343,3.25068 -2.29026,3.98948l-8.4961,4.87602c-0.59104,0.36941 -1.47759,0.51715 -2.29027,0.51715zM185.40762,131.48383c-0.73879,0 -1.47759,0.14776 -1.99474,0.44327l-8.4961,4.87602c-1.10819,0.59104 -1.99475,2.21637 -1.99475,3.47231v9.75206c0,1.25594 0.88655,2.80741 1.99475,3.47232l8.49611,4.87602c1.0343,0.59104 2.95516,0.59104 3.98948,0l8.49611,-4.87602c1.10819,-0.59104 1.99474,-2.21637 1.99474,-3.47232v-9.75206c0,-1.25594 -0.88655,-2.80741 -1.99474,-3.47231l-8.4961,-4.87602c-0.51715,-0.29551 -1.25594,-0.44327 -1.99474,-0.44327z" fill="#dfded0" stroke-width="1"/><path d="M185.40762,143.82166c-0.66492,0 -1.32983,-0.14776 -1.84698,-0.44327l-8.4961,-4.87602c-0.36941,-0.22163 -0.59104,-0.44327 -0.59104,-0.66492c0,-0.22163 0.22163,-0.51715 0.59104,-0.66492l8.4961,-4.87602c0.44327,-0.29551 1.1082,-0.44327 1.84698,-0.44327c0.73879,0 1.32982,0.14776 1.84697,0.44327l8.4961,4.87602c0.36941,0.22163 0.59104,0.44327 0.59104,0.66492c0,0.22163 -0.22163,0.51715 -0.59104,0.66492l-8.4961,4.87602c-0.51715,0.29551 -1.18207,0.44327 -1.84697,0.44327zM184.0778,158.37587c-0.22163,0 -0.44327,-0.07389 -0.66492,-0.22163l-8.4961,-4.87602c-0.96044,-0.59104 -1.84697,-1.99474 -1.84697,-3.17682v-9.75205c0,-0.29551 0.07389,-0.88656 0.59104,-0.88656c0.22163,0 0.44327,0.07389 0.66492,0.22163l8.4961,4.87602c0.96044,0.59104 1.84698,1.99474 1.84698,3.17682v9.67818c0,0.29551 -0.07389,0.59103 -0.22163,0.73879c-0.07388,0.14775 -0.14775,0.22163 -0.36941,0.22163zM186.58969,158.37587c-0.51715,0 -0.59103,-0.66492 -0.59103,-0.88655v-9.75206c0,-1.18207 0.81267,-2.58578 1.84697,-3.17682l8.4961,-4.87602c0.22163,-0.14775 0.44327,-0.22163 0.66492,-0.22163c0.51715,0 0.59104,0.66493 0.59104,0.88656v9.75205c0,1.18207 -0.81267,2.58578 -1.84697,3.17682l-8.4961,4.87602c-0.29551,0.14775 -0.51715,0.22163 -0.66492,0.22163z" fill="#ffffff" stroke-width="1"/><path d="M180.09438,136.94278c0.5978,0 1.08242,0.56278 1.08242,1.257c0,0.69422 -0.48461,1.257 -1.08242,1.257c-0.5978,0 -1.08241,-0.56278 -1.08241,-1.257c0,-0.69422 0.4846,-1.257 1.08241,-1.257z" data-paper-data="{&quot;index&quot;:null}" fill="#3d3d3d" stroke-width="0"/><path d="M186.63077,138.08805c0.5978,0 1.08241,0.56278 1.08241,1.257c0,0.69422 -0.4846,1.257 -1.08241,1.257c-0.5978,0 -1.08242,-0.56278 -1.08242,-1.257c0,-0.69422 0.48461,-1.257 1.08242,-1.257z" data-paper-data="{&quot;index&quot;:null}" fill="#3d3d3d" stroke-width="0"/><path d="M183.8165,142.36884c-0.5978,0 -1.08241,-0.56278 -1.08242,-1.257c0,-0.69422 0.48461,-1.25699 1.08242,-1.25699c0.5978,0 1.08241,0.56277 1.08241,1.25699c0,0.69422 -0.4846,1.257 -1.08241,1.257z" data-paper-data="{&quot;index&quot;:null}" fill="#3d3d3d" stroke-width="0"/><path d="M186.21875,135.83244c-0.5978,0 -1.0824,-0.56278 -1.0824,-1.257c0,-0.69422 0.4846,-1.25699 1.08241,-1.25699c0.5978,0 1.08242,0.56277 1.08242,1.25699c0,0.69422 -0.48461,1.257 -1.08242,1.257z" data-paper-data="{&quot;index&quot;:null}" fill="#3d3d3d" stroke-width="0"/><path d="M183.19498,137.62715c-0.5978,0 -1.08241,-0.56278 -1.08241,-1.257c0,-0.69422 0.48461,-1.257 1.08242,-1.257c0.5978,0 1.08241,0.56278 1.08241,1.257c0,0.69422 -0.4846,1.257 -1.08241,1.257z" data-paper-data="{&quot;index&quot;:null}" fill="#3d3d3d" stroke-width="0"/><path d="M182.44776,146.76135c0,0.69422 -0.4846,1.257 -1.08241,1.257c-0.5978,0 -1.08241,-0.56278 -1.08241,-1.257c0,-0.69422 0.48461,-1.257 1.08241,-1.257c0.5978,0 1.08241,0.56278 1.08241,1.257z" fill="#3d3d3d" stroke-width="0"/><path d="M179.49381,148.90523c0,0.69422 -0.4846,1.257 -1.08241,1.257c-0.5978,0 -1.08242,-0.56278 -1.08242,-1.257c0,-0.69422 0.48461,-1.257 1.08242,-1.257c0.5978,0 1.08241,0.56278 1.08241,1.257z" fill="#3d3d3d" stroke-width="0"/><path d="M176.8192,151.04911c0,0.69422 -0.48461,1.257 -1.08242,1.257c-0.5978,0 -1.08241,-0.56278 -1.08241,-1.257c0,-0.69422 0.4846,-1.25699 1.08241,-1.25699c0.5978,0 1.08242,0.56277 1.08242,1.25699z" fill="#3d3d3d" stroke-width="0"/><path d="M189.5498,139.09365c-0.5978,0 -1.08241,-0.56278 -1.08241,-1.257c0,-0.69422 0.4846,-1.25699 1.08241,-1.25699c0.5978,0 1.08242,0.56277 1.08242,1.25699c0,0.69422 -0.48461,1.257 -1.08242,1.257z" data-paper-data="{&quot;index&quot;:null}" fill="#3d3d3d" stroke-width="0"/><path d="M189.61266,145.83256c0.5978,0 1.08242,0.56278 1.08242,1.257c0,0.69422 -0.48461,1.257 -1.08242,1.257c-0.5978,0 -1.08241,-0.56278 -1.08241,-1.257c0,-0.69422 0.4846,-1.257 1.08241,-1.257z" data-paper-data="{&quot;index&quot;:null}" fill="#3d3d3d" stroke-width="0"/><path d="M192.42694,148.04629c0.5978,0 1.08242,0.56278 1.08242,1.257c0,0.69422 -0.48461,1.257 -1.08242,1.257c-0.5978,0 -1.08241,-0.56278 -1.08241,-1.257c0,-0.69422 0.4846,-1.257 1.08241,-1.257z" data-paper-data="{&quot;index&quot;:null}" fill="#3d3d3d" stroke-width="0"/><path d="M195.17138,150.12033c0.5978,0 1.08242,0.56278 1.08242,1.257c0,0.69422 -0.48461,1.257 -1.08242,1.257c-0.5978,0 -1.08241,-0.56278 -1.08241,-1.257c0,-0.69422 0.4846,-1.257 1.08241,-1.257z" data-paper-data="{&quot;index&quot;:null}" fill="#3d3d3d" stroke-width="0"/><path d="M190.12244,154.26144c-0.5978,0 -1.08241,-0.56277 -1.08242,-1.25699c0,-0.69422 0.48461,-1.257 1.08242,-1.257c0.5978,0 1.08241,0.56278 1.08241,1.257c0,0.69422 -0.4846,1.25699 -1.08241,1.25699z" data-paper-data="{&quot;index&quot;:null}" fill="#3d3d3d" stroke-width="0"/><path d="M194.8292,146.74738c-0.5978,0 -1.08241,-0.56277 -1.08241,-1.25699c0,-0.69422 0.48461,-1.257 1.08242,-1.257c0.5978,0 1.08241,0.56278 1.08241,1.257c0,0.69422 -0.4846,1.25699 -1.08241,1.25699z" data-paper-data="{&quot;index&quot;:null}" fill="#3d3d3d" stroke-width="0"/></g></g></g></svg>