<svg version="1.1" xmlns="http://www.w3.org/2000/svg" xmlns:xlink="http://www.w3.org/1999/xlink" width="92.84173" height="150.21187" viewBox="0,0,92.84173,150.21187"><g transform="translate(-191.12885,-102.60544)"><g data-paper-data="{&quot;isPaintingLayer&quot;:true}" fill-rule="nonzero" stroke-linejoin="miter" stroke-miterlimit="10" stroke-dasharray="" stroke-dashoffset="0" style="mix-blend-mode: normal"><g stroke="none" stroke-width="1" stroke-linecap="butt"><path d="M249.7166,146.32799c2.23065,1.31215 4.06768,4.46132 4.06768,7.08564v17.32043c0,2.62431 -1.83701,5.77347 -4.06768,7.08564l-15.08974,8.6602c-1.04973,0.52486 -2.49311,0.9185 -4.06768,0.9185c-1.57459,0 -3.01796,-0.26242 -4.06768,-0.9185l-15.08974,-8.6602c-2.23065,-1.31215 -4.06768,-4.46132 -4.06768,-7.08564v-17.32043c0,-2.62431 1.83701,-5.77347 4.06768,-7.08564l15.08974,-8.6602c2.23065,-1.31215 5.90469,-1.31215 8.13534,0z" fill="#dfded0"/><path d="M249.45419,144.62223c2.09945,1.18095 3.80524,4.19888 3.80524,6.56077v17.32043c0,2.36187 -1.70581,5.37983 -3.80524,6.56077l-15.08974,8.6602c-2.09945,1.18095 -5.51105,1.18095 -7.61048,0l-15.08974,-8.6602c-2.09945,-1.18095 -3.80524,-4.19888 -3.80524,-6.56077v-17.32043c0,-2.36187 1.70581,-5.37983 3.80524,-6.56077l15.08974,-8.6602c2.09945,-1.18095 5.51105,-1.18095 7.61048,0c0,0 14.95856,8.6602 15.08974,8.6602z" fill="#dfded0"/><path d="M230.55917,185.29894c-1.57459,0 -3.01796,-0.39364 -4.06768,-0.9185l-15.08974,-8.6602c-2.23065,-1.31215 -4.06768,-4.46132 -4.06768,-7.08564v-17.32043c0,-2.62431 1.83701,-5.77347 4.06768,-7.08564l15.08974,-8.6602c2.23065,-1.31215 5.90469,-1.31215 8.13534,0l15.08974,8.6602c2.23065,1.31215 4.06768,4.46132 4.06768,7.08564v17.32043c0,2.62431 -1.83701,5.77347 -4.06768,7.08564l-15.08974,8.6602c-1.04973,0.65609 -2.62431,0.9185 -4.06768,0.9185zM230.55917,135.56838c-1.31215,0 -2.62431,0.26242 -3.54282,0.78728l-15.08974,8.6602c-1.96823,1.04973 -3.54282,3.93646 -3.54282,6.16711v17.32043c0,2.23065 1.57459,4.98619 3.54282,6.16711l15.08974,8.6602c1.83701,1.04973 5.24861,1.04973 7.08564,0l15.08974,-8.6602c1.96823,-1.04973 3.54282,-3.93646 3.54282,-6.16711v-17.32043c0,-2.23065 -1.57459,-4.98619 -3.54282,-6.16711l-15.08974,-8.6602c-0.9185,-0.52486 -2.23065,-0.78728 -3.54282,-0.78728z" fill="#dfded0"/><path d="M230.55917,157.48129c-1.18095,0 -2.36187,-0.26242 -3.28036,-0.78728l-15.08974,-8.6602c-0.65609,-0.39364 -1.04973,-0.78728 -1.04973,-1.18095c0,-0.39364 0.39364,-0.9185 1.04973,-1.18095l15.08974,-8.6602c0.78728,-0.52486 1.96823,-0.78728 3.28036,-0.78728c1.31215,0 2.36187,0.26242 3.28036,0.78728l15.08974,8.6602c0.65609,0.39364 1.04973,0.78728 1.04973,1.18095c0,0.39364 -0.39364,0.9185 -1.04973,1.18095l-15.08974,8.6602c-0.9185,0.52486 -2.09945,0.78728 -3.28036,0.78728zM228.19731,183.33073c-0.39364,0 -0.78728,-0.13122 -1.18095,-0.39364l-15.08974,-8.6602c-1.70581,-1.04973 -3.28036,-3.54282 -3.28036,-5.64227v-17.32043c0,-0.52486 0.13122,-1.57459 1.04973,-1.57459c0.39364,0 0.78728,0.13122 1.18095,0.39364l15.08974,8.6602c1.70581,1.04973 3.28036,3.54282 3.28036,5.64227v17.18921c0,0.52486 -0.13122,1.04973 -0.39364,1.31215c-0.13122,0.26242 -0.26242,0.39364 -0.65609,0.39364zM232.65862,183.33073c-0.9185,0 -1.04973,-1.18095 -1.04973,-1.57459v-17.32043c0,-2.09945 1.44335,-4.59255 3.28036,-5.64227l15.08974,-8.6602c0.39364,-0.26242 0.78728,-0.39364 1.18095,-0.39364c0.9185,0 1.04973,1.18095 1.04973,1.57459v17.32043c0,2.09945 -1.44335,4.59255 -3.28036,5.64227l-15.08974,8.6602c-0.52486,0.26242 -0.9185,0.39364 -1.18095,0.39364z" fill="#ffffff"/><path d="M230.55917,148.42746c-1.44335,0 -2.62431,-0.65609 -2.62431,-1.57459c0,-0.9185 1.18095,-1.57459 2.62431,-1.57459c1.44335,0 2.62431,0.65609 2.62431,1.57459c0,0.9185 -1.31215,1.57459 -2.62431,1.57459zM212.05781,171.25897c-0.78728,0 -1.57459,-1.04973 -1.57459,-2.23065c0,-1.18095 0.65609,-2.23065 1.57459,-2.23065c0.9185,0 1.57459,1.04973 1.57459,2.23065c0,1.18095 -0.78728,2.23065 -1.57459,2.23065zM248.53568,171.25897c-0.78728,0 -1.57459,-1.04973 -1.57459,-2.23065c0,-1.18095 0.65609,-2.23065 1.57459,-2.23065c0.78728,0 1.57459,1.04973 1.57459,2.23065c-0.13122,1.18095 -0.78728,2.23065 -1.57459,2.23065zM212.05781,158.13736c-0.78728,0 -1.57459,-1.04973 -1.57459,-2.23065c0,-1.18095 0.65609,-2.23065 1.57459,-2.23065c0.9185,0 1.57459,1.04973 1.57459,2.23065c0,1.18095 -0.78728,2.23065 -1.57459,2.23065zM224.91692,166.66641c-0.78728,0 -1.57459,-1.04973 -1.57459,-2.23065c0,-1.18095 0.65609,-2.23065 1.57459,-2.23065c0.9185,0 1.57459,1.04973 1.57459,2.23065c0,1.18095 -0.65609,2.23065 -1.57459,2.23065zM235.939,166.66641c-0.78728,0 -1.57459,-1.04973 -1.57459,-2.23065c0,-1.18095 0.65609,-2.23065 1.57459,-2.23065c0.9185,0 1.57459,1.04973 1.57459,2.23065c0,1.18095 -0.65609,2.23065 -1.57459,2.23065zM224.91692,178.73821c-0.78728,0 -1.57459,-1.04973 -1.57459,-2.23065c0,-1.18095 0.65609,-2.23065 1.57459,-2.23065c0.9185,0 1.57459,1.04973 1.57459,2.23065c0,1.18095 -0.65609,2.23065 -1.57459,2.23065z" fill="#c30d23"/></g><g stroke="none" stroke-width="1" stroke-linecap="butt"><path d="M279.9029,170.22346c2.23065,1.31215 4.06768,4.46132 4.06768,7.08564v17.32043c0,2.62431 -1.83701,5.77347 -4.06768,7.08564l-15.08974,8.6602c-1.04973,0.52486 -2.49311,0.9185 -4.06768,0.9185c-1.57459,0 -3.01796,-0.26242 -4.06768,-0.9185l-15.08974,-8.6602c-2.23065,-1.31215 -4.06768,-4.46132 -4.06768,-7.08564v-17.32043c0,-2.62431 1.83701,-5.77347 4.06768,-7.08564l15.08974,-8.6602c2.23065,-1.31215 5.90469,-1.31215 8.13534,0z" fill="#dfded0"/><path d="M279.64045,168.51769c2.09945,1.18095 3.80524,4.19888 3.80524,6.56077v17.32043c0,2.36187 -1.70581,5.37983 -3.80524,6.56077l-15.08974,8.6602c-2.09945,1.18095 -5.51105,1.18095 -7.61048,0l-15.08974,-8.6602c-2.09945,-1.18095 -3.80524,-4.19888 -3.80524,-6.56077v-17.32043c0,-2.36187 1.70581,-5.37983 3.80524,-6.56077l15.08974,-8.6602c2.09945,-1.18095 5.51105,-1.18095 7.61048,0c0,0 14.95856,8.6602 15.08974,8.6602z" fill="#dfded0"/><path d="M260.74546,209.19435c-1.57459,0 -3.01796,-0.39364 -4.06768,-0.9185l-15.08974,-8.6602c-2.23065,-1.31215 -4.06768,-4.46132 -4.06768,-7.08564v-17.32043c0,-2.62431 1.83701,-5.77347 4.06768,-7.08564l15.08974,-8.6602c2.23065,-1.31215 5.90469,-1.31215 8.13534,0l15.08974,8.6602c2.23065,1.31215 4.06768,4.46132 4.06768,7.08564v17.32043c0,2.62431 -1.83701,5.77347 -4.06768,7.08564l-15.08974,8.6602c-1.04973,0.65609 -2.62431,0.9185 -4.06768,0.9185zM260.74546,159.4638c-1.31215,0 -2.62431,0.26242 -3.54282,0.78728l-15.08974,8.6602c-1.96823,1.04973 -3.54282,3.93646 -3.54282,6.16711v17.32043c0,2.23065 1.57459,4.98619 3.54282,6.16711l15.08974,8.6602c1.83701,1.04973 5.24861,1.04973 7.08564,0l15.08974,-8.6602c1.96823,-1.04973 3.54282,-3.93646 3.54282,-6.16711v-17.32043c0,-2.23065 -1.57459,-4.98619 -3.54282,-6.16711l-15.08974,-8.6602c-0.9185,-0.52486 -2.23065,-0.78728 -3.54282,-0.78728z" fill="#dfded0"/><path d="M260.74546,181.37675c-1.18095,0 -2.36187,-0.26242 -3.28036,-0.78728l-15.08974,-8.6602c-0.65609,-0.39364 -1.04973,-0.78728 -1.04973,-1.18095c0,-0.39364 0.39364,-0.9185 1.04973,-1.18095l15.08974,-8.6602c0.78728,-0.52486 1.96823,-0.78728 3.28036,-0.78728c1.31215,0 2.36187,0.26242 3.28036,0.78728l15.08974,8.6602c0.65609,0.39364 1.04973,0.78728 1.04973,1.18095c0,0.39364 -0.39364,0.9185 -1.04973,1.18095l-15.08974,8.6602c-0.9185,0.52486 -2.09945,0.78728 -3.28036,0.78728zM258.38356,207.22614c-0.39364,0 -0.78728,-0.13122 -1.18095,-0.39364l-15.08974,-8.6602c-1.70581,-1.04973 -3.28036,-3.54282 -3.28036,-5.64227v-17.32043c0,-0.52486 0.13122,-1.57459 1.04973,-1.57459c0.39364,0 0.78728,0.13122 1.18095,0.39364l15.08974,8.6602c1.70581,1.04973 3.28036,3.54282 3.28036,5.64227v17.18921c0,0.52486 -0.13122,1.04973 -0.39364,1.31215c-0.13122,0.26242 -0.26242,0.39364 -0.65609,0.39364zM262.84488,207.22614c-0.9185,0 -1.04973,-1.18095 -1.04973,-1.57459v-17.32043c0,-2.09945 1.44335,-4.59255 3.28036,-5.64227l15.08974,-8.6602c0.39364,-0.26242 0.78728,-0.39364 1.18095,-0.39364c0.9185,0 1.04973,1.18095 1.04973,1.57459v17.32043c0,2.09945 -1.44335,4.59255 -3.28036,5.64227l-15.08974,8.6602c-0.52486,0.26242 -0.9185,0.39364 -1.18095,0.39364z" fill="#ffffff"/><path d="M260.74546,172.32294c-1.44335,0 -2.62431,-0.65609 -2.62431,-1.57459c0,-0.9185 1.18095,-1.57459 2.62431,-1.57459c1.44335,0 2.62431,0.65609 2.62431,1.57459c0,0.9185 -1.31215,1.57459 -2.62431,1.57459zM242.24409,195.15442c-0.78728,0 -1.57459,-1.04973 -1.57459,-2.23065c0,-1.18095 0.65609,-2.23065 1.57459,-2.23065c0.9185,0 1.57459,1.04973 1.57459,2.23065c0,1.18095 -0.78728,2.23065 -1.57459,2.23065zM278.72195,195.15442c-0.78728,0 -1.57459,-1.04973 -1.57459,-2.23065c0,-1.18095 0.65609,-2.23065 1.57459,-2.23065c0.78728,0 1.57459,1.04973 1.57459,2.23065c-0.13122,1.18095 -0.78728,2.23065 -1.57459,2.23065zM242.24409,182.03282c-0.78728,0 -1.57459,-1.04973 -1.57459,-2.23065c0,-1.18095 0.65609,-2.23065 1.57459,-2.23065c0.9185,0 1.57459,1.04973 1.57459,2.23065c0,1.18095 -0.78728,2.23065 -1.57459,2.23065zM255.10322,190.56183c-0.78728,0 -1.57459,-1.04973 -1.57459,-2.23065c0,-1.18095 0.65609,-2.23065 1.57459,-2.23065c0.9185,0 1.57459,1.04973 1.57459,2.23065c0,1.18095 -0.65609,2.23065 -1.57459,2.23065zM266.1253,190.56183c-0.78728,0 -1.57459,-1.04973 -1.57459,-2.23065c0,-1.18095 0.65609,-2.23065 1.57459,-2.23065c0.9185,0 1.57459,1.04973 1.57459,2.23065c0,1.18095 -0.65609,2.23065 -1.57459,2.23065zM255.10322,202.63364c-0.78728,0 -1.57459,-1.04973 -1.57459,-2.23065c0,-1.18095 0.65609,-2.23065 1.57459,-2.23065c0.9185,0 1.57459,1.04973 1.57459,2.23065c0,1.18095 -0.65609,2.23065 -1.57459,2.23065z" fill="#c30d23"/></g><g data-paper-data="{&quot;index&quot;:null}"><path d="M224.70332,213.40765c0,0 2.28257,-22.96126 2.28257,-28.31732c0,-0.23881 -2.148,-2.71058 -3.72498,-1.73819c-0.02887,0.0178 -2.0258,3.46066 -2.0258,3.46066c0,0 -3.5706,0.77727 -3.38836,-0.61036c0.20702,-1.57632 2.56272,-5.5238 3.44037,-6.36543c0.85222,-0.81724 5.72729,-0.19047 6.88995,1.2861c0.51638,0.6558 1.66501,1.51605 2.01586,3.06108c0.52151,2.2966 0.11367,5.60625 -0.01651,7.96435c-0.3193,5.78382 -1.5946,21.32802 -1.5946,21.32802z" fill="#825738" stroke="#723700" stroke-width="1.5" stroke-linecap="butt"/><path d="M220.42257,179.42564c1.34014,0.2838 2.19648,1.60025 1.91269,2.94039c-0.2838,1.34014 -1.60025,2.19648 -2.94039,1.91269c-1.34014,-0.2838 -2.19648,-1.60025 -1.91269,-2.94039c0.2838,-1.34014 1.60025,-2.19648 2.94039,-1.91269z" fill="#ffce91" stroke="#723700" stroke-width="1.5" stroke-linecap="butt"/><path d="M197.58555,193.84049l3.44493,-14.81321l15.2955,-0.13779l3.92723,14.8821z" fill="#c78556" stroke="#723700" stroke-width="1.5" stroke-linecap="butt"/><path d="M193.81086,165.09604c0,-6.26438 0.41708,-10.99428 4.72512,-14.14623c2.42328,-1.77298 7.74355,-3.57672 10.83782,-3.57672c4.20577,0 9.12957,1.89985 11.93037,4.98704c2.92309,3.22199 3.63258,7.73727 3.63258,12.73589c0,9.7881 -6.96777,17.72293 -15.56295,17.72293c-8.59518,0 -15.56295,-7.93483 -15.56295,-17.72293z" fill="#ffce91" stroke="#723700" stroke-width="1.5" stroke-linecap="butt"/><path d="M216.88505,155.66969c-0.60295,-1.43874 -0.56576,-2.82551 0.08308,-3.09744c0.64885,-0.27192 1.66363,0.67397 2.26659,2.11271c0.60295,1.43874 0.56576,2.8255 -0.08309,3.09743c-0.64885,0.27192 -1.66363,-0.67397 -2.26658,-2.11271z" fill="#ffdaad" stroke="none" stroke-width="0" stroke-linecap="butt"/><path d="M224.75021,166.82441c0,0 -7.29896,-1.0744 -7.90981,-1.27874c-0.96178,-0.32174 -1.78947,-2.0737 -1.68029,-2.84801c0.10665,-0.75636 1.19108,-2.07313 2.01568,-2.11012c5.09625,-0.22861 11.14351,1.48 11.14351,1.48l-4.00733,1.35172l5.12754,1.64506l-3.84196,0.56273l1.93594,2.41716z" fill="#dfdfdf" stroke="#723700" stroke-width="1.5" stroke-linecap="butt"/><path d="M211.59399,165.7181c-0.78116,0.26131 -8.27749,1.21636 -8.27749,1.21636l-2.75696,1.28216l2.27732,-2.41716l-3.84196,-0.56273l5.1958,-2.80575l-4.07561,-0.19101c0,0 6.04726,-1.70861 11.1435,-1.48c0.82461,0.03699 1.90903,1.35376 2.01568,2.11012c0.10918,0.77432 -0.71851,2.52627 -1.68029,2.84801z" data-paper-data="{&quot;index&quot;:null}" fill="#dfdfdf" stroke="#723700" stroke-width="1.5" stroke-linecap="butt"/><path d="M216.80827,193.84047l-2.89374,-12.53955" fill="none" stroke="#723700" stroke-width="1.5" stroke-linecap="round"/><path d="M192.15244,169.04455c-0.63074,-1.56119 -0.13386,-3.2341 1.1098,-3.73655c1.00366,-0.40549 2.18697,0.07524 2.93781,1.09644c-0.19654,0.04206 -0.30786,0.22636 -0.30786,0.22636c-0.69893,1.17849 -0.44706,2.52878 0.47564,3.51638l0.10184,0.05764c-0.23003,0.33785 -0.54148,0.60246 -0.92334,0.75674c-1.24366,0.50245 -2.76315,-0.35582 -3.39389,-1.91701z" fill="#ffce91" stroke="#723700" stroke-width="1.5" stroke-linecap="butt"/><path d="M197.03182,160.75707c0,0 -1.99697,-0.46074 -2.61254,-0.60276c-0.33648,-0.07763 -0.81241,0.07429 -0.81241,0.07429l0.80782,-5.0111c0,0 0.42402,0.26416 0.76626,0.34313c0.61716,0.14239 2.59509,0.59874 2.59509,0.59874l-0.7442,4.59771z" fill="#dfdfdf" stroke="#723700" stroke-width="1.5" stroke-linecap="butt"/><path d="M195.89755,193.84049c-1.6933,0 -3.06599,-1.37269 -3.06599,-3.06599c0,-1.69329 1.37269,-3.06598 3.06599,-3.06598c1.6933,0 3.06599,1.37268 3.06599,3.06598c0,1.6933 -1.37269,3.06599 -3.06599,3.06599z" fill="#ffce91" stroke="#723700" stroke-width="1.5" stroke-linecap="butt"/><path d="M194.00282,187.98411l2.82484,-8.95681l4.20282,0.2067l-2.27365,9.43912z" fill="#c78556" stroke="#723700" stroke-width="1.5" stroke-linecap="butt"/><path d="M228.85425,172.79454l-4.54743,-0.24484l4.66896,6.48043l-5.84381,-2.39211l1.04658,5.96026l-5.01821,-2.35799l-5.35585,4.80701l-5.9033,-3.9192l-3.94946,1.72771l-3.65661,-4.03023c0,0 -3.45773,0.20929 -4.16357,0.13816c-0.10895,-0.01098 3.20599,-5.7946 3.20599,-5.7946l-3.50237,0.66388c0,0 -1.62513,-4.86889 -0.5543,-6.77949c0.47964,-0.8558 4.1438,0.3965 4.17212,0.33036c0.11846,-0.27676 5.30298,1.69704 5.30298,1.69704l3.48721,-1.30778l4.09474,1.67435l4.85609,-2.10165l4.69389,2.59065l2.93665,-2.22077z" data-paper-data="{&quot;index&quot;:null}" fill="#dfdfdf" stroke="#723700" stroke-width="1.5" stroke-linecap="butt"/><path d="M209.43613,203.4174c0,0 -2.15286,-2.40716 -1.54701,-4.30663c0.36209,-1.13521 -5.20506,-4.92579 -5.20506,-4.92579l13.77973,0.1378l-0.41339,9.16351z" fill="#825738" stroke="#723700" stroke-width="1.5" stroke-linecap="butt"/><path d="M210.4696,195.97639l-2.34255,2.41145" fill="none" stroke="#723700" stroke-width="1.5" stroke-linecap="round"/><path d="M204.09588,203.15389l-6.57922,-0.14992l-0.62009,-8.61232l6.68317,-0.0689l3.37603,3.99612z" fill="#825738" stroke="#723700" stroke-width="1.5" stroke-linecap="butt"/><path d="M209.09165,212.64985l0.2067,-9.64581l6.82096,0.2067c0,0 -0.66361,6.77046 -0.64056,8.47575c0.00962,0.71223 0.77835,1.72124 0.77835,1.72124z" fill="#727272" stroke="#723700" stroke-width="1.5" stroke-linecap="butt"/><path d="M197.24108,212.71871l0.2067,-9.64581l6.82096,0.2067c0,0 -0.80197,6.43298 -0.84937,8.12749c-0.02131,0.7617 0.57376,1.72502 0.57376,1.72502z" fill="#727272" stroke="#723700" stroke-width="1.5" stroke-linecap="butt"/><path d="M215.49922,206.79346l-5.78749,-0.34449" fill="none" stroke="#723700" stroke-width="1.5" stroke-linecap="round"/><path d="M197.86115,205.96666l6.20088,0.1378" fill="none" stroke="#723700" stroke-width="1.5" stroke-linecap="round"/></g><g><path d="M274.03344,151.96688l0.45795,2.02009l0.48267,1.29527c0,0 -0.2172,1.03188 -0.62057,1.53812c-0.40337,0.50624 -0.73589,0.83096 -1.37904,0.97145c-0.64315,0.14048 -1.05477,0.01814 -1.58589,-0.32382c-0.53112,-0.34196 -0.55162,-1.0524 -0.55162,-1.0524l0.48267,-0.56668l-0.75847,-1.9429z" data-paper-data="{&quot;index&quot;:null}" fill="#fed497" stroke="#000000" stroke-width="1.5" stroke-linecap="round"/><path d="M251.40684,154.21285l-0.75847,1.9429l0.48267,0.56668l-0.55162,1.0524c0,0 -0.96876,0.45862 -1.58589,0.32382c-0.61714,-0.1348 -0.96881,-0.45658 -1.37904,-0.97145c-0.41024,-0.51486 -0.5891,-0.8916 -0.62057,-1.53812c-0.03147,-0.64652 0.48267,-1.29527 0.48267,-1.29527l0.45795,-2.02009z" fill="#fed497" stroke="#000000" stroke-width="1.5" stroke-linecap="round"/><path d="M255.41286,172.63685c0,0 -0.58973,-4.26567 -0.58973,-6.59728c0,-2.14772 0.18865,-7.38232 0.18865,-7.38232l4.20717,-0.23589c0,0 0.02496,5.53779 0.02496,7.7663c0,2.26535 0.25817,6.44919 0.25817,6.44919z" data-paper-data="{&quot;index&quot;:null}" fill="#cfac7a" stroke="#000000" stroke-width="1.5" stroke-linecap="butt"/><path d="M254.7163,172.07018c0,-1.01034 0.16437,-5.65985 0.16437,-5.65985h4.42299c0,0 0.41267,5.37656 0.00188,5.74988c-0.84013,0.7635 -4.58924,0.39481 -4.58924,-0.09003z" data-paper-data="{&quot;index&quot;:null}" fill="#a56637" stroke="#000000" stroke-width="1.5" stroke-linecap="butt"/><path d="M263.23892,172.80073c0,0 -0.58951,-4.85451 -0.58951,-7.00224c0,-2.33162 -0.28335,-6.85942 -0.28335,-6.85942l3.97127,0.23589c0,0 0.65925,6.18287 0.65925,8.39207c0,2.28285 -0.07937,5.06933 -0.07937,5.06933z" data-paper-data="{&quot;index&quot;:null}" fill="#cfac7a" stroke="#000000" stroke-width="1.5" stroke-linecap="butt"/><path d="M249.01619,146.70065c0,0 1.46152,-4.85766 2.78176,-6.20336c1.39272,-1.41958 5.36873,-2.10433 5.36873,-2.10433l7.35363,0.14142l5.45974,1.37956l5.06495,13.31664l-5.27098,1.27924l-2.67802,-7.67913l-1.09083,-1.36693l3.0791,10.35032l1.3755,5.8418v1.83841l-19.23256,-0.21212l0.55078,-3.31707l3.69169,-13.65284c0,0 -1.443,2.91597 -2.06628,4.40846c-0.47279,1.13213 -1.34829,3.76799 -1.34829,3.76799l-4.45308,-2.32471z" data-paper-data="{&quot;index&quot;:null}" fill="#a56ad4" stroke="#a56ad4" stroke-width="0.5" stroke-linecap="round"/><path d="M257.07749,138.637l7.34185,-0.06384c0,0 4.83542,0.60833 6.34961,2.18425c1.33092,1.38519 2.25687,6.77312 2.25687,6.77312l-4.79244,1.01701l-2.09031,-3.07942l3.4162,11.48752l-16.94774,-0.32821l2.67837,-10.13784l-1.3677,1.79572l-4.28877,-2.98452l2.13719,-4.95375z" data-paper-data="{&quot;index&quot;:null}" fill="#ad89d4" stroke="#ad89d4" stroke-width="0.5" stroke-linecap="round"/><path d="M274.3035,124.764c-0.88459,9.64992 -4.90595,9.85261 -10.91136,10.9906c-0.28155,-0.06758 0.60084,1.07767 0.34925,2.66251c-1.2306,0.11241 -2.09154,1.52655 -2.91868,1.40194c-0.4794,-0.07222 -1.85805,-1.57661 -2.57394,-1.59789c0.08416,-2.23679 -0.20179,-1.36818 0.20158,-2.10805c-2.89085,-0.4649 -6.69676,-0.79082 -8.61219,-2.51296c-2.20116,-1.97904 -2.30393,-5.52088 -2.30393,-8.54127c0,-6.37615 1.28978,-10.79575 13.38465,-11.54504c13.87425,-0.85954 13.96669,4.90066 13.38464,11.25019z" data-paper-data="{&quot;index&quot;:null}" fill="#fed497" stroke="#000000" stroke-width="1.5" stroke-linecap="butt"/><path d="M280.64986,134.38508c-1.08722,0.33843 -9.24314,3.74204 -15.66746,1.23173c1.49778,-0.21182 2.57537,-1.01826 3.63616,-1.62501c3.62973,-2.07613 4.10228,-5.71838 4.17736,-9.56377c0.08773,-4.49376 -1.84387,-7.44071 -4.78813,-8.68681c-1.31381,0.84454 -1.29095,0.13977 -2.17352,1.37623c-0.04364,0.02732 -0.41382,-0.43985 -1.01267,-1.55021c-0.93693,0.57949 -0.99919,0.18648 -2.76732,1.61555c-1.23626,-1.15852 -1.80872,-1.39096 -2.20742,-0.151c-1.23283,-1.32944 -1.91433,-1.44193 -2.61539,-1.55509c-1.17972,2.66916 -2.36926,0.94233 -3.83296,1.07962c-1.46369,0.13728 -0.31366,1.50467 -1.82612,-0.54884c-1.63483,0.83935 -1.90275,0.58621 -2.42769,2.46148c-0.57402,2.05057 0.33193,6.18229 0.37039,8.21196c0.04433,2.33897 -0.98481,2.73841 0.27918,4.72408c1.67036,2.62405 4.83261,4.00563 8.19701,4.50775c-3.80246,2.65251 -12.72651,1.03578 -16.80716,-2.63419c-2.50111,-2.24938 2.96214,-3.82625 2.96214,-7.0736c0,-4.81876 1.49512,-13.27232 5.92281,-18.29455c2.03443,-2.3076 7.38715,-4.55497 10.15479,-4.55497c3.93376,0 9.10647,2.60316 11.88427,4.49478c3.42997,2.33575 5.04928,14.76462 5.04928,18.65048c0,0 4.57968,7.54596 3.49246,7.88439z" data-paper-data="{&quot;index&quot;:null}" fill="#4f412e" stroke="#000000" stroke-width="1.5" stroke-linecap="butt"/><path d="M253.30207,153.25878c0.21793,-0.66667 0.67061,-2.16131 0.90603,-3.69421c0.08194,-0.53356 0.08399,-1.86131 0.29196,-2.60736c0.17132,-0.61461 0.66801,-1.00414 0.70853,-1.29827c-1.00079,1.10451 -1.01891,3.05369 -1.45051,4.35218c-0.46415,1.39641 -1.31584,2.17341 -1.69184,4.28817c-0.05467,-0.07034 -5.12021,-2.34894 -5.12021,-2.34894c0,0 3.26313,-10.54036 5.08824,-11.75619c1.66812,-1.11125 2.16267,-0.81634 5.34877,-1.9494c0.87837,-0.09311 2.27969,1.63879 3.30859,1.6482c1.37223,0.01256 2.42337,-1.67337 3.9857,-1.6482c6.2987,1.87433 5.57393,0.51138 6.68251,3.47698c1.22354,3.27315 3.62507,11.32941 3.62507,11.32941l-5.21954,0.98981c0,0 -1.20633,-2.73742 -2.073,-5.09066c-0.54385,-1.47669 -0.58602,-2.74079 -1.25827,-3.27323c-0.02884,-0.02284 -0.07182,-0.0175 -0.10835,-0.026c0.62201,1.25676 0.59621,1.86517 0.74709,2.33516c0.32058,0.99856 0.28051,1.00551 0.8057,2.70056c0.41175,1.32894 1.82172,6.63234 2.16619,8.15084c0.62053,2.73544 0.87424,2.80316 0.69461,4.13513c-0.16037,1.18919 -1.45241,0.06923 -1.78789,0.08892c-0.76351,0.04481 -1.44749,0.26215 -1.81986,0.26859c-0.88193,0.01525 -1.27691,-0.26048 -1.67382,-0.28279c-1.22288,-0.06875 -1.53993,0.45791 -1.87322,0.44232c-1.0756,-0.05032 -1.89389,-0.4448 -2.26772,-0.47443c-1.33944,-0.10616 -1.92912,0.33367 -2.27092,0.33506c-0.72095,0.00293 -1.22762,-0.31494 -1.39934,-0.32983c-1.62654,-0.14107 -1.347,0.34315 -2.38282,0.32745c-1.50121,-0.02276 -1.24357,-0.37027 -2.09397,-0.36579c-0.46625,0.00245 -1.29624,0.36444 -1.62375,0.40424c-0.60029,0.07295 -0.89673,0.29227 0.12826,-3.76518c0.35388,-1.40083 0.81652,-3.88077 1.6278,-6.36254z" data-paper-data="{&quot;index&quot;:null}" fill="none" stroke="#000000" stroke-width="1.5" stroke-linecap="butt"/><path d="M262.23428,147.5963c1.61377,0.48061 1.4897,1.96081 0.61852,3.55455c-0.68395,1.25123 -2.33895,2.11693 -2.33895,2.11693c0,0 -1.71487,-1.08223 -2.29327,-2.3283c-0.79297,-1.70832 -0.4145,-2.84551 0.88711,-3.4181c1.52953,-0.04867 1.5284,1.53702 1.5284,1.53702c0,0 0.18899,-1.38873 1.59818,-1.4621z" data-paper-data="{&quot;index&quot;:null}" fill="#ff6b6b" stroke="#000000" stroke-width="0" stroke-linecap="butt"/><path d="M252.5714,119.0572c0,0 1.01729,-0.79291 1.64574,-0.91554c0.56224,-0.1097 1.94851,0.21422 1.94851,0.21422" data-paper-data="{&quot;index&quot;:null}" fill="none" stroke="#000000" stroke-width="1.5" stroke-linecap="round"/><path d="M265.05503,118.52394c0,0 1.21482,-0.6135 1.85813,-0.58777c0.57552,0.02302 1.82106,0.7349 1.82106,0.7349" data-paper-data="{&quot;index&quot;:null}" fill="none" stroke="#000000" stroke-width="1.5" stroke-linecap="round"/><path d="M252.52603,110.13389c-0.32774,0.62817 -0.97535,0.93813 -1.44648,0.69233c-0.47112,-0.2458 -0.58736,-0.9543 -0.25962,-1.58247c0.32774,-0.62817 0.97535,-0.93813 1.44648,-0.69233c0.47112,0.2458 0.58736,0.9543 0.25962,1.58247z" data-paper-data="{&quot;index&quot;:null}" fill="#6e5b41" stroke="none" stroke-width="0" stroke-linecap="butt"/><path d="M256.1368,108.78658c-0.32774,0.62817 -0.97535,0.93813 -1.44648,0.69233c-0.47112,-0.2458 -0.58736,-0.9543 -0.25962,-1.58247c0.32774,-0.62817 0.97535,-0.93813 1.44648,-0.69233c0.47112,0.2458 0.58736,0.9543 0.25962,1.58247z" data-paper-data="{&quot;index&quot;:null}" fill="#6e5b41" stroke="none" stroke-width="0" stroke-linecap="butt"/><path d="M252.35603,117.93207h-1.03203" data-paper-data="{&quot;index&quot;:null}" fill="none" stroke="none" stroke-width="0" stroke-linecap="round"/><path d="M263.07433,130.42654c0,0 -1.32628,0.65749 -1.97246,0.65749c-0.70087,0 -2.08203,-0.65749 -2.08203,-0.65749" fill="none" stroke="#000000" stroke-width="1.5" stroke-linecap="round"/><path d="M255.44146,126.09957v-2.62994" fill="none" stroke="#000000" stroke-width="1.5" stroke-linecap="round"/><path d="M266.07082,125.8804v-2.08203" fill="none" stroke="#000000" stroke-width="1.5" stroke-linecap="round"/><path d="M262.60613,172.23456c0,-1.01034 0.16437,-5.65985 0.16437,-5.65985l4.17643,-0.08219c0,0 0.49486,5.45875 0.08407,5.83207c-0.84013,0.7635 -4.42487,0.39481 -4.42487,-0.09003z" data-paper-data="{&quot;index&quot;:null}" fill="#a56637" stroke="#000000" stroke-width="1.5" stroke-linecap="butt"/></g><text transform="translate(203.04514,247.45027) scale(0.14186,0.14186)" font-size="128" xml:space="preserve" fill="#ffffff" fill-rule="nonzero" stroke="none" stroke-width="1" stroke-linecap="butt" stroke-linejoin="miter" stroke-miterlimit="10" stroke-dasharray="" stroke-dashoffset="0" font-family="Sans Serif" font-weight="400" text-anchor="start" style="mix-blend-mode: normal"><tspan x="0" dy="0">热斗模式</tspan></text></g></g></svg>