<svg version="1.1" xmlns="http://www.w3.org/2000/svg" xmlns:xlink="http://www.w3.org/1999/xlink" width="61.94611" height="76.97199" viewBox="0,0,61.94611,76.97199"><g transform="translate(-209.74506,-141.2064)"><g data-paper-data="{&quot;isPaintingLayer&quot;:true}" fill-rule="nonzero" stroke-linecap="butt" stroke-linejoin="miter" stroke-miterlimit="10" stroke-dasharray="" stroke-dashoffset="0" style="mix-blend-mode: normal"><path d="M270.94115,148.71974v61.9466c0,3.72889 -3.03179,6.76205 -6.76332,6.76205h-46.92073c-3.7276,0 -6.76204,-3.03313 -6.76204,-6.76205v-61.94789c0,-3.72889 3.03445,-6.76205 6.76205,-6.76205h46.92074c3.73154,0 6.76332,3.03447 6.76332,6.76334z" fill="#9abdff" stroke="#669bff" stroke-width="1.5"/><text transform="translate(223.66393,207.61703) scale(0.27778,0.27778)" font-size="40" xml:space="preserve" fill="#355184" fill-rule="nonzero" stroke="none" stroke-width="1" stroke-linecap="butt" stroke-linejoin="miter" stroke-miterlimit="10" stroke-dasharray="" stroke-dashoffset="0" font-family="Sans Serif" font-weight="normal" text-anchor="start" style="mix-blend-mode: normal"><tspan x="0" dy="0">梦游卡</tspan></text><path d="M254.50482,174.13188c0,6.26218 -5.0765,11.33867 -11.33867,11.33867c-2.55303,0 -16.75447,0.04634 -16.75447,0.04634c0,0 5.18439,-7.67588 5.18439,-11.38503c0,-6.26218 5.3079,-11.33867 11.57008,-11.33867c6.26218,0 11.33867,5.0765 11.33867,11.33867z" fill="#edf4ff" stroke="none" stroke-width="0"/></g></g></svg>