<svg version="1.1" xmlns="http://www.w3.org/2000/svg" xmlns:xlink="http://www.w3.org/1999/xlink" width="61.94611" height="76.97199" viewBox="0,0,61.94611,76.97199"><g transform="translate(-209.02699,-141.51405)"><g data-paper-data="{&quot;isPaintingLayer&quot;:true}" fill-rule="nonzero" stroke-linecap="butt" stroke-linejoin="miter" stroke-miterlimit="10" stroke-dasharray="" stroke-dashoffset="0" style="mix-blend-mode: normal"><path d="M270.22308,149.02739v61.9466c0,3.72889 -3.03179,6.76205 -6.76332,6.76205h-46.92073c-3.7276,0 -6.76204,-3.03313 -6.76204,-6.76205v-61.94789c0,-3.72889 3.03445,-6.76205 6.76205,-6.76205h46.92074c3.73154,0 6.76332,3.03447 6.76332,6.76334z" fill="#fffeb0" stroke="#e4e29e" stroke-width="1.5"/><text transform="translate(222.94576,207.9246) scale(0.27778,0.27778)" font-size="40" xml:space="preserve" fill="#a19f6f" fill-rule="nonzero" stroke="none" stroke-width="1" stroke-linecap="butt" stroke-linejoin="miter" stroke-miterlimit="10" stroke-dasharray="" stroke-dashoffset="0" font-family="Sans Serif" font-weight="normal" text-anchor="start" style="mix-blend-mode: normal"><tspan x="0" dy="0">转向卡</tspan></text><g fill="#d40000" stroke="none" stroke-width="0"><path d="M230.57755,172.64185l14.02498,-9.40929l4.08561,6.08979c0,0 -10.43798,4.82972 -12.76816,7.96846c-2.33018,3.13874 7.4639,5.60327 7.4639,5.60327c0,0 -2.46098,9.64141 -3.12381,6.67005c-0.18265,-0.81878 -9.51701,-3.93929 -11.07213,-7.92934c-1.75094,-4.49248 1.38961,-8.99296 1.38961,-8.99296z"/><path d="M238.06837,160.72974l13.85386,1.90291l-3.33032,13.78292z"/></g></g></g></svg>