<svg version="1.1" xmlns="http://www.w3.org/2000/svg" xmlns:xlink="http://www.w3.org/1999/xlink" width="61.94611" height="76.97199" viewBox="0,0,61.94611,76.97199"><g transform="translate(-209.02697,-141.51402)"><g data-paper-data="{&quot;isPaintingLayer&quot;:true}" stroke-linecap="butt" stroke-linejoin="miter" stroke-miterlimit="10" stroke-dasharray="" stroke-dashoffset="0" style="mix-blend-mode: normal"><path d="M270.22306,149.02736v61.9466c0,3.72889 -3.03179,6.76205 -6.76332,6.76205h-46.92073c-3.7276,0 -6.76204,-3.03313 -6.76204,-6.76205v-61.94789c0,-3.72889 3.03445,-6.76205 6.76205,-6.76205h46.92074c3.73154,0 6.76332,3.03447 6.76332,6.76334z" fill="#fffeb0" fill-rule="nonzero" stroke="#e4e29e" stroke-width="1.5"/><text transform="translate(222.94574,207.92457) scale(0.27778,0.27778)" font-size="40" xml:space="preserve" fill="#a19f6f" fill-rule="nonzero" stroke="none" stroke-width="1" stroke-linecap="butt" stroke-linejoin="miter" stroke-miterlimit="10" stroke-dasharray="" stroke-dashoffset="0" font-family="Sans Serif" font-weight="normal" text-anchor="start" style="mix-blend-mode: normal"><tspan x="0" dy="0">暴走卡</tspan></text><g fill-rule="evenodd" stroke="none" stroke-width="1"><g><path d="M251.50101,187.13034c-0.57124,0.16303 -10.77214,2.11936 -10.77214,2.11936c-0.40798,-0.48908 -0.73438,-1.30422 -0.97921,-1.87488l6.20202,-1.63027c0.89776,0.16303 4.40674,0.48909 5.38607,0.48909c0,0.16303 0.24483,0.81514 0.16326,0.89671z" fill="#000000"/><path d="M239.66794,187.37487c-0.57124,-0.97816 -7.18135,-14.75415 -9.87439,-21.92736c-0.32641,-0.81513 -1.71371,-3.8312 -3.26427,-7.01029h14.19956l5.22281,27.30738z" fill="#f01446"/></g><path d="M226.93735,160.06749l14.28117,0.16303l0.57125,2.60846l-13.62831,0.08151z" fill="#f5cfcf"/><path d="M228.89591,164.55082l13.30189,-0.24454l0.57125,2.36392l-12.56743,0.73362z" fill="#f5cfcf"/></g></g></g></svg>