<svg version="1.1" xmlns="http://www.w3.org/2000/svg" xmlns:xlink="http://www.w3.org/1999/xlink" width="92.25271" height="155.37507" viewBox="0,0,92.25271,155.37507"><defs><linearGradient x1="214.29541" y1="133.03156" x2="213.26062" y2="133.03156" gradientUnits="userSpaceOnUse" id="color-1"><stop offset="0" stop-color="#000000"/><stop offset="1" stop-color="#0a0a0a"/></linearGradient><linearGradient x1="221.17111" y1="133.08132" x2="222.2059" y2="133.08132" gradientUnits="userSpaceOnUse" id="color-2"><stop offset="0" stop-color="#000000"/><stop offset="1" stop-color="#0a0a0a"/></linearGradient><linearGradient x1="217.78301" y1="137.83759" x2="217.78301" y2="138.87237" gradientUnits="userSpaceOnUse" id="color-3"><stop offset="0" stop-color="#000000"/><stop offset="1" stop-color="#0a0a0a"/></linearGradient><linearGradient x1="231.70038" y1="150.70817" x2="231.70038" y2="156.7741" gradientUnits="userSpaceOnUse" id="color-4"><stop offset="0" stop-color="#0a0a0a" stop-opacity="0"/><stop offset="1" stop-color="#0a0a0a"/></linearGradient><linearGradient x1="236.90621" y1="149.8439" x2="236.90621" y2="156.44903" gradientUnits="userSpaceOnUse" id="color-5"><stop offset="0" stop-color="#0a0a0a" stop-opacity="0"/><stop offset="1" stop-color="#0a0a0a"/></linearGradient><linearGradient x1="242.01938" y1="150.46241" x2="242.01938" y2="156.52835" gradientUnits="userSpaceOnUse" id="color-6"><stop offset="0" stop-color="#0a0a0a" stop-opacity="0"/><stop offset="1" stop-color="#0a0a0a"/></linearGradient><linearGradient x1="247.75109" y1="150.12901" x2="247.75109" y2="156.19494" gradientUnits="userSpaceOnUse" id="color-7"><stop offset="0" stop-color="#0a0a0a" stop-opacity="0"/><stop offset="1" stop-color="#0a0a0a"/></linearGradient><linearGradient x1="253.77603" y1="150.21251" x2="253.77603" y2="156.95244" gradientUnits="userSpaceOnUse" id="color-8"><stop offset="0" stop-color="#0a0a0a" stop-opacity="0"/><stop offset="1" stop-color="#0a0a0a"/></linearGradient></defs><g transform="translate(-195.42278,-106.73857)"><g data-paper-data="{&quot;isPaintingLayer&quot;:true}" fill-rule="nonzero" stroke-linejoin="miter" stroke-miterlimit="10" stroke-dasharray="" stroke-dashoffset="0" style="mix-blend-mode: normal"><g stroke="none" stroke-width="1" stroke-linecap="butt"><path d="M261.00083,159.65092c2.23065,1.31215 4.06768,4.46132 4.06768,7.08564v17.32043c0,2.62431 -1.83701,5.77347 -4.06768,7.08564l-15.08974,8.6602c-1.04973,0.52486 -2.49311,0.9185 -4.06768,0.9185c-1.57459,0 -3.01796,-0.26242 -4.06768,-0.9185l-15.08974,-8.6602c-2.23065,-1.31215 -4.06768,-4.46132 -4.06768,-7.08564v-17.32043c0,-2.62431 1.83701,-5.77347 4.06768,-7.08564l15.08974,-8.6602c2.23065,-1.31215 5.90469,-1.31215 8.13534,0z" fill="#dfded0"/><path d="M260.7384,157.94515c2.09945,1.18095 3.80524,4.19888 3.80524,6.56077v17.32043c0,2.36187 -1.70581,5.37983 -3.80524,6.56077l-15.08974,8.6602c-2.09945,1.18095 -5.51105,1.18095 -7.61048,0l-15.08974,-8.6602c-2.09945,-1.18095 -3.80524,-4.19888 -3.80524,-6.56077v-17.32043c0,-2.36187 1.70581,-5.37983 3.80524,-6.56077l15.08974,-8.6602c2.09945,-1.18095 5.51105,-1.18095 7.61048,0c0,0 14.95856,8.6602 15.08974,8.6602z" fill="#dfded0"/><path d="M241.84339,198.62181c-1.57459,0 -3.01796,-0.39364 -4.06768,-0.9185l-15.08974,-8.6602c-2.23065,-1.31215 -4.06768,-4.46132 -4.06768,-7.08564v-17.32043c0,-2.62431 1.83701,-5.77347 4.06768,-7.08564l15.08974,-8.6602c2.23065,-1.31215 5.90469,-1.31215 8.13534,0l15.08974,8.6602c2.23065,1.31215 4.06768,4.46132 4.06768,7.08564v17.32043c0,2.62431 -1.83701,5.77347 -4.06768,7.08564l-15.08974,8.6602c-1.04973,0.65609 -2.62431,0.9185 -4.06768,0.9185zM241.84339,148.89128c-1.31215,0 -2.62431,0.26242 -3.54282,0.78728l-15.08974,8.6602c-1.96823,1.04973 -3.54282,3.93646 -3.54282,6.16711v17.32043c0,2.23065 1.57459,4.98619 3.54282,6.16711l15.08974,8.6602c1.83701,1.04973 5.24861,1.04973 7.08564,0l15.08974,-8.6602c1.96823,-1.04973 3.54282,-3.93646 3.54282,-6.16711v-17.32043c0,-2.23065 -1.57459,-4.98619 -3.54282,-6.16711l-15.08974,-8.6602c-0.9185,-0.52486 -2.23065,-0.78728 -3.54282,-0.78728z" fill="#dfded0"/><path d="M241.84339,170.80422c-1.18095,0 -2.36187,-0.26242 -3.28036,-0.78728l-15.08974,-8.6602c-0.65609,-0.39364 -1.04973,-0.78728 -1.04973,-1.18095c0,-0.39364 0.39364,-0.9185 1.04973,-1.18095l15.08974,-8.6602c0.78728,-0.52486 1.96823,-0.78728 3.28036,-0.78728c1.31215,0 2.36187,0.26242 3.28036,0.78728l15.08974,8.6602c0.65609,0.39364 1.04973,0.78728 1.04973,1.18095c0,0.39364 -0.39364,0.9185 -1.04973,1.18095l-15.08974,8.6602c-0.9185,0.52486 -2.09945,0.78728 -3.28036,0.78728zM239.48151,196.6536c-0.39364,0 -0.78728,-0.13122 -1.18095,-0.39364l-15.08974,-8.6602c-1.70581,-1.04973 -3.28036,-3.54282 -3.28036,-5.64227v-17.32043c0,-0.52486 0.13122,-1.57459 1.04973,-1.57459c0.39364,0 0.78728,0.13122 1.18095,0.39364l15.08974,8.6602c1.70581,1.04973 3.28036,3.54282 3.28036,5.64227v17.18921c0,0.52486 -0.13122,1.04973 -0.39364,1.31215c-0.13122,0.26242 -0.26242,0.39364 -0.65609,0.39364zM243.94283,196.6536c-0.9185,0 -1.04973,-1.18095 -1.04973,-1.57459v-17.32043c0,-2.09945 1.44335,-4.59255 3.28036,-5.64227l15.08974,-8.6602c0.39364,-0.26242 0.78728,-0.39364 1.18095,-0.39364c0.9185,0 1.04973,1.18095 1.04973,1.57459v17.32043c0,2.09945 -1.44335,4.59255 -3.28036,5.64227l-15.08974,8.6602c-0.52486,0.26242 -0.9185,0.39364 -1.18095,0.39364z" fill="#ffffff"/><path d="M241.84339,161.75039c-1.44335,0 -2.62431,-0.65609 -2.62431,-1.57459c0,-0.9185 1.18095,-1.57459 2.62431,-1.57459c1.44335,0 2.62431,0.65609 2.62431,1.57459c0,0.9185 -1.31215,1.57459 -2.62431,1.57459zM223.34202,184.58187c-0.78728,0 -1.57459,-1.04973 -1.57459,-2.23065c0,-1.18095 0.65609,-2.23065 1.57459,-2.23065c0.9185,0 1.57459,1.04973 1.57459,2.23065c0,1.18095 -0.78728,2.23065 -1.57459,2.23065zM259.81989,184.58187c-0.78728,0 -1.57459,-1.04973 -1.57459,-2.23065c0,-1.18095 0.65609,-2.23065 1.57459,-2.23065c0.78728,0 1.57459,1.04973 1.57459,2.23065c-0.13122,1.18095 -0.78728,2.23065 -1.57459,2.23065zM223.34202,171.46029c-0.78728,0 -1.57459,-1.04973 -1.57459,-2.23065c0,-1.18095 0.65609,-2.23065 1.57459,-2.23065c0.9185,0 1.57459,1.04973 1.57459,2.23065c0,1.18095 -0.78728,2.23065 -1.57459,2.23065zM236.20115,179.98931c-0.78728,0 -1.57459,-1.04973 -1.57459,-2.23065c0,-1.18095 0.65609,-2.23065 1.57459,-2.23065c0.9185,0 1.57459,1.04973 1.57459,2.23065c0,1.18095 -0.65609,2.23065 -1.57459,2.23065zM247.22323,179.98931c-0.78728,0 -1.57459,-1.04973 -1.57459,-2.23065c0,-1.18095 0.65609,-2.23065 1.57459,-2.23065c0.9185,0 1.57459,1.04973 1.57459,2.23065c0,1.18095 -0.65609,2.23065 -1.57459,2.23065zM236.20115,192.06109c-0.78728,0 -1.57459,-1.04973 -1.57459,-2.23065c0,-1.18095 0.65609,-2.23065 1.57459,-2.23065c0.9185,0 1.57459,1.04973 1.57459,2.23065c0,1.18095 -0.65609,2.23065 -1.57459,2.23065z" fill="#c30d23"/></g><g stroke="none" stroke-width="1" stroke-linecap="butt"><path d="M237.80532,173.47387c2.23065,1.31215 4.06768,4.46132 4.06768,7.08564v17.32043c0,2.62431 -1.83701,5.77347 -4.06768,7.08564l-15.08974,8.6602c-1.04973,0.52486 -2.49311,0.9185 -4.06768,0.9185c-1.57459,0 -3.01796,-0.26242 -4.06768,-0.9185l-15.08974,-8.6602c-2.23065,-1.31215 -4.06768,-4.46132 -4.06768,-7.08564v-17.32043c0,-2.62431 1.83701,-5.77347 4.06768,-7.08564l15.08974,-8.6602c2.23065,-1.31215 5.90469,-1.31215 8.13534,0z" fill="#dfded0"/><path d="M237.54289,171.7681c2.09945,1.18095 3.80524,4.19888 3.80524,6.56077v17.32043c0,2.36187 -1.70581,5.37983 -3.80524,6.56077l-15.08974,8.6602c-2.09945,1.18095 -5.51105,1.18095 -7.61048,0l-15.08974,-8.6602c-2.09945,-1.18095 -3.80524,-4.19888 -3.80524,-6.56077v-17.32043c0,-2.36187 1.70581,-5.37983 3.80524,-6.56077l15.08974,-8.6602c2.09945,-1.18095 5.51105,-1.18095 7.61048,0c0,0 14.95856,8.6602 15.08974,8.6602z" fill="#dfded0"/><path d="M218.64788,212.44476c-1.57459,0 -3.01796,-0.39364 -4.06768,-0.9185l-15.08974,-8.6602c-2.23065,-1.31215 -4.06768,-4.46132 -4.06768,-7.08564v-17.32043c0,-2.62431 1.83701,-5.77347 4.06768,-7.08564l15.08974,-8.6602c2.23065,-1.31215 5.90469,-1.31215 8.13534,0l15.08974,8.6602c2.23065,1.31215 4.06768,4.46132 4.06768,7.08564v17.32043c0,2.62431 -1.83701,5.77347 -4.06768,7.08564l-15.08974,8.6602c-1.04973,0.65609 -2.62431,0.9185 -4.06768,0.9185zM218.64788,162.71423c-1.31215,0 -2.62431,0.26242 -3.54282,0.78728l-15.08974,8.6602c-1.96823,1.04973 -3.54282,3.93646 -3.54282,6.16711v17.32043c0,2.23065 1.57459,4.98619 3.54282,6.16711l15.08974,8.6602c1.83701,1.04973 5.24861,1.04973 7.08564,0l15.08974,-8.6602c1.96823,-1.04973 3.54282,-3.93646 3.54282,-6.16711v-17.32043c0,-2.23065 -1.57459,-4.98619 -3.54282,-6.16711l-15.08974,-8.6602c-0.9185,-0.52486 -2.23065,-0.78728 -3.54282,-0.78728z" fill="#dfded0"/><path d="M218.64788,184.62717c-1.18095,0 -2.36187,-0.26242 -3.28036,-0.78728l-15.08974,-8.6602c-0.65609,-0.39364 -1.04973,-0.78728 -1.04973,-1.18095c0,-0.39364 0.39364,-0.9185 1.04973,-1.18095l15.08974,-8.6602c0.78728,-0.52486 1.96823,-0.78728 3.28036,-0.78728c1.31215,0 2.36187,0.26242 3.28036,0.78728l15.08974,8.6602c0.65609,0.39364 1.04973,0.78728 1.04973,1.18095c0,0.39364 -0.39364,0.9185 -1.04973,1.18095l-15.08974,8.6602c-0.9185,0.52486 -2.09945,0.78728 -3.28036,0.78728zM216.286,210.47655c-0.39364,0 -0.78728,-0.13122 -1.18095,-0.39364l-15.08974,-8.6602c-1.70581,-1.04973 -3.28036,-3.54282 -3.28036,-5.64227v-17.32043c0,-0.52486 0.13122,-1.57459 1.04973,-1.57459c0.39364,0 0.78728,0.13122 1.18095,0.39364l15.08974,8.6602c1.70581,1.04973 3.28036,3.54282 3.28036,5.64227v17.18921c0,0.52486 -0.13122,1.04973 -0.39364,1.31215c-0.13122,0.26242 -0.26242,0.39364 -0.65609,0.39364zM220.74732,210.47655c-0.9185,0 -1.04973,-1.18095 -1.04973,-1.57459v-17.32043c0,-2.09945 1.44335,-4.59255 3.28036,-5.64227l15.08974,-8.6602c0.39364,-0.26242 0.78728,-0.39364 1.18095,-0.39364c0.9185,0 1.04973,1.18095 1.04973,1.57459v17.32043c0,2.09945 -1.44335,4.59255 -3.28036,5.64227l-15.08974,8.6602c-0.52486,0.26242 -0.9185,0.39364 -1.18095,0.39364z" fill="#ffffff"/><path d="M218.64788,175.57334c-1.44335,0 -2.62431,-0.65609 -2.62431,-1.57459c0,-0.9185 1.18095,-1.57459 2.62431,-1.57459c1.44335,0 2.62431,0.65609 2.62431,1.57459c0,0.9185 -1.31215,1.57459 -2.62431,1.57459zM200.14651,198.40482c-0.78728,0 -1.57459,-1.04973 -1.57459,-2.23065c0,-1.18095 0.65609,-2.23065 1.57459,-2.23065c0.9185,0 1.57459,1.04973 1.57459,2.23065c0,1.18095 -0.78728,2.23065 -1.57459,2.23065zM236.62439,198.40482c-0.78728,0 -1.57459,-1.04973 -1.57459,-2.23065c0,-1.18095 0.65609,-2.23065 1.57459,-2.23065c0.78728,0 1.57459,1.04973 1.57459,2.23065c-0.13122,1.18095 -0.78728,2.23065 -1.57459,2.23065zM200.14651,185.28324c-0.78728,0 -1.57459,-1.04973 -1.57459,-2.23065c0,-1.18095 0.65609,-2.23065 1.57459,-2.23065c0.9185,0 1.57459,1.04973 1.57459,2.23065c0,1.18095 -0.78728,2.23065 -1.57459,2.23065zM213.00564,193.81226c-0.78728,0 -1.57459,-1.04973 -1.57459,-2.23065c0,-1.18095 0.65609,-2.23065 1.57459,-2.23065c0.9185,0 1.57459,1.04973 1.57459,2.23065c0,1.18095 -0.65609,2.23065 -1.57459,2.23065zM224.02772,193.81226c-0.78728,0 -1.57459,-1.04973 -1.57459,-2.23065c0,-1.18095 0.65609,-2.23065 1.57459,-2.23065c0.9185,0 1.57459,1.04973 1.57459,2.23065c0,1.18095 -0.65609,2.23065 -1.57459,2.23065zM213.00564,205.88404c-0.78728,0 -1.57459,-1.04973 -1.57459,-2.23065c0,-1.18095 0.65609,-2.23065 1.57459,-2.23065c0.9185,0 1.57459,1.04973 1.57459,2.23065c0,1.18095 -0.65609,2.23065 -1.57459,2.23065z" fill="#c30d23"/></g><text transform="translate(202.11355,247.45023) scale(0.14186,0.14186)" font-size="128" xml:space="preserve" fill="#ffffff" fill-rule="nonzero" stroke="none" stroke-width="1" stroke-linecap="butt" stroke-linejoin="miter" stroke-miterlimit="10" stroke-dasharray="" stroke-dashoffset="0" font-family="Sans Serif" font-weight="400" text-anchor="start" style="mix-blend-mode: normal"><tspan x="0" dy="0">联机游戏</tspan></text><g stroke="none" stroke-width="1" stroke-linecap="butt"><path d="M260.4123,132.08285c2.23065,1.31215 4.06768,4.46132 4.06768,7.08564v17.32043c0,2.62431 -1.83701,5.77347 -4.06768,7.08564l-15.08974,8.6602c-1.04973,0.52486 -2.49311,0.9185 -4.06768,0.9185c-1.57459,0 -3.01796,-0.26242 -4.06768,-0.9185l-15.08974,-8.6602c-2.23065,-1.31215 -4.06768,-4.46132 -4.06768,-7.08564v-17.32043c0,-2.62431 1.83701,-5.77347 4.06768,-7.08564l15.08974,-8.6602c2.23065,-1.31215 5.90469,-1.31215 8.13534,0z" fill="#dfded0"/><path d="M260.14987,130.37708c2.09945,1.18095 3.80524,4.19888 3.80524,6.56077v17.32043c0,2.36187 -1.70581,5.37983 -3.80524,6.56077l-15.08974,8.6602c-2.09945,1.18095 -5.51105,1.18095 -7.61048,0l-15.08974,-8.6602c-2.09945,-1.18095 -3.80524,-4.19888 -3.80524,-6.56077v-17.32043c0,-2.36187 1.70581,-5.37983 3.80524,-6.56077l15.08974,-8.6602c2.09945,-1.18095 5.51105,-1.18095 7.61048,0c0,0 14.95856,8.6602 15.08974,8.6602z" fill="#dfded0"/><path d="M241.25486,171.05374c-1.57459,0 -3.01796,-0.39364 -4.06768,-0.9185l-15.08974,-8.6602c-2.23065,-1.31215 -4.06768,-4.46132 -4.06768,-7.08564v-17.32043c0,-2.62431 1.83701,-5.77347 4.06768,-7.08564l15.08974,-8.6602c2.23065,-1.31215 5.90469,-1.31215 8.13534,0l15.08974,8.6602c2.23065,1.31215 4.06768,4.46132 4.06768,7.08564v17.32043c0,2.62431 -1.83701,5.77347 -4.06768,7.08564l-15.08974,8.6602c-1.04973,0.65609 -2.62431,0.9185 -4.06768,0.9185zM241.25486,121.32321c-1.31215,0 -2.62431,0.26242 -3.54282,0.78728l-15.08974,8.6602c-1.96823,1.04973 -3.54282,3.93646 -3.54282,6.16711v17.32043c0,2.23065 1.57459,4.98619 3.54282,6.16711l15.08974,8.6602c1.83701,1.04973 5.24861,1.04973 7.08564,0l15.08974,-8.6602c1.96823,-1.04973 3.54282,-3.93646 3.54282,-6.16711v-17.32043c0,-2.23065 -1.57459,-4.98619 -3.54282,-6.16711l-15.08974,-8.6602c-0.9185,-0.52486 -2.23065,-0.78728 -3.54282,-0.78728z" fill="#dfded0"/><path d="M241.25486,143.23615c-1.18095,0 -2.36187,-0.26242 -3.28036,-0.78728l-15.08974,-8.6602c-0.65609,-0.39364 -1.04973,-0.78728 -1.04973,-1.18095c0,-0.39364 0.39364,-0.9185 1.04973,-1.18095l15.08974,-8.6602c0.78728,-0.52486 1.96823,-0.78728 3.28036,-0.78728c1.31215,0 2.36187,0.26242 3.28036,0.78728l15.08974,8.6602c0.65609,0.39364 1.04973,0.78728 1.04973,1.18095c0,0.39364 -0.39364,0.9185 -1.04973,1.18095l-15.08974,8.6602c-0.9185,0.52486 -2.09945,0.78728 -3.28036,0.78728zM238.89298,169.08553c-0.39364,0 -0.78728,-0.13122 -1.18095,-0.39364l-15.08974,-8.6602c-1.70581,-1.04973 -3.28036,-3.54282 -3.28036,-5.64227v-17.32043c0,-0.52486 0.13122,-1.57459 1.04973,-1.57459c0.39364,0 0.78728,0.13122 1.18095,0.39364l15.08974,8.6602c1.70581,1.04973 3.28036,3.54282 3.28036,5.64227v17.18921c0,0.52486 -0.13122,1.04973 -0.39364,1.31215c-0.13122,0.26242 -0.26242,0.39364 -0.65609,0.39364zM243.3543,169.08553c-0.9185,0 -1.04973,-1.18095 -1.04973,-1.57459v-17.32043c0,-2.09945 1.44335,-4.59255 3.28036,-5.64227l15.08974,-8.6602c0.39364,-0.26242 0.78728,-0.39364 1.18095,-0.39364c0.9185,0 1.04973,1.18095 1.04973,1.57459v17.32043c0,2.09945 -1.44335,4.59255 -3.28036,5.64227l-15.08974,8.6602c-0.52486,0.26242 -0.9185,0.39364 -1.18095,0.39364z" fill="#ffffff"/><path d="M241.25486,134.18232c-1.44335,0 -2.62431,-0.65609 -2.62431,-1.57459c0,-0.9185 1.18095,-1.57459 2.62431,-1.57459c1.44335,0 2.62431,0.65609 2.62431,1.57459c0,0.9185 -1.31215,1.57459 -2.62431,1.57459zM222.75349,157.0138c-0.78728,0 -1.57459,-1.04973 -1.57459,-2.23065c0,-1.18095 0.65609,-2.23065 1.57459,-2.23065c0.9185,0 1.57459,1.04973 1.57459,2.23065c0,1.18095 -0.78728,2.23065 -1.57459,2.23065zM259.23137,157.0138c-0.78728,0 -1.57459,-1.04973 -1.57459,-2.23065c0,-1.18095 0.65609,-2.23065 1.57459,-2.23065c0.78728,0 1.57459,1.04973 1.57459,2.23065c-0.13122,1.18095 -0.78728,2.23065 -1.57459,2.23065zM222.75349,143.89222c-0.78728,0 -1.57459,-1.04973 -1.57459,-2.23065c0,-1.18095 0.65609,-2.23065 1.57459,-2.23065c0.9185,0 1.57459,1.04973 1.57459,2.23065c0,1.18095 -0.78728,2.23065 -1.57459,2.23065zM235.61262,152.42124c-0.78728,0 -1.57459,-1.04973 -1.57459,-2.23065c0,-1.18095 0.65609,-2.23065 1.57459,-2.23065c0.9185,0 1.57459,1.04973 1.57459,2.23065c0,1.18095 -0.65609,2.23065 -1.57459,2.23065zM246.6347,152.42124c-0.78728,0 -1.57459,-1.04973 -1.57459,-2.23065c0,-1.18095 0.65609,-2.23065 1.57459,-2.23065c0.9185,0 1.57459,1.04973 1.57459,2.23065c0,1.18095 -0.65609,2.23065 -1.57459,2.23065zM235.61262,164.49302c-0.78728,0 -1.57459,-1.04973 -1.57459,-2.23065c0,-1.18095 0.65609,-2.23065 1.57459,-2.23065c0.9185,0 1.57459,1.04973 1.57459,2.23065c0,1.18095 -0.65609,2.23065 -1.57459,2.23065z" fill="#c30d23"/></g><g stroke="none" stroke-width="1" stroke-linecap="butt"><path d="M282.98037,173.47386c2.23065,1.31215 4.06768,4.46132 4.06768,7.08564v17.32043c0,2.62431 -1.83701,5.77347 -4.06768,7.08564l-15.08974,8.6602c-1.04973,0.52486 -2.49311,0.9185 -4.06768,0.9185c-1.57459,0 -3.01796,-0.26242 -4.06768,-0.9185l-15.08974,-8.6602c-2.23065,-1.31215 -4.06768,-4.46132 -4.06768,-7.08564v-17.32043c0,-2.62431 1.83701,-5.77347 4.06768,-7.08564l15.08974,-8.6602c2.23065,-1.31215 5.90469,-1.31215 8.13534,0z" fill="#dfded0"/><path d="M282.71794,171.76809c2.09945,1.18095 3.80524,4.19888 3.80524,6.56077v17.32043c0,2.36187 -1.70581,5.37983 -3.80524,6.56077l-15.08974,8.6602c-2.09945,1.18095 -5.51105,1.18095 -7.61048,0l-15.08974,-8.6602c-2.09945,-1.18095 -3.80524,-4.19888 -3.80524,-6.56077v-17.32043c0,-2.36187 1.70581,-5.37983 3.80524,-6.56077l15.08974,-8.6602c2.09945,-1.18095 5.51105,-1.18095 7.61048,0c0,0 14.95856,8.6602 15.08974,8.6602z" fill="#dfded0"/><path d="M263.82293,212.44475c-1.57459,0 -3.01796,-0.39364 -4.06768,-0.9185l-15.08974,-8.6602c-2.23065,-1.31215 -4.06768,-4.46132 -4.06768,-7.08564v-17.32043c0,-2.62431 1.83701,-5.77347 4.06768,-7.08564l15.08974,-8.6602c2.23065,-1.31215 5.90469,-1.31215 8.13534,0l15.08974,8.6602c2.23065,1.31215 4.06768,4.46132 4.06768,7.08564v17.32043c0,2.62431 -1.83701,5.77347 -4.06768,7.08564l-15.08974,8.6602c-1.04973,0.65609 -2.62431,0.9185 -4.06768,0.9185zM263.82293,162.71422c-1.31215,0 -2.62431,0.26242 -3.54282,0.78728l-15.08974,8.6602c-1.96823,1.04973 -3.54282,3.93646 -3.54282,6.16711v17.32043c0,2.23065 1.57459,4.98619 3.54282,6.16711l15.08974,8.6602c1.83701,1.04973 5.24861,1.04973 7.08564,0l15.08974,-8.6602c1.96823,-1.04973 3.54282,-3.93646 3.54282,-6.16711v-17.32043c0,-2.23065 -1.57459,-4.98619 -3.54282,-6.16711l-15.08974,-8.6602c-0.9185,-0.52486 -2.23065,-0.78728 -3.54282,-0.78728z" fill="#dfded0"/><path d="M263.82293,184.62716c-1.18095,0 -2.36187,-0.26242 -3.28036,-0.78728l-15.08974,-8.6602c-0.65609,-0.39364 -1.04973,-0.78728 -1.04973,-1.18095c0,-0.39364 0.39364,-0.9185 1.04973,-1.18095l15.08974,-8.6602c0.78728,-0.52486 1.96823,-0.78728 3.28036,-0.78728c1.31215,0 2.36187,0.26242 3.28036,0.78728l15.08974,8.6602c0.65609,0.39364 1.04973,0.78728 1.04973,1.18095c0,0.39364 -0.39364,0.9185 -1.04973,1.18095l-15.08974,8.6602c-0.9185,0.52486 -2.09945,0.78728 -3.28036,0.78728zM261.46105,210.47654c-0.39364,0 -0.78728,-0.13122 -1.18095,-0.39364l-15.08974,-8.6602c-1.70581,-1.04973 -3.28036,-3.54282 -3.28036,-5.64227v-17.32043c0,-0.52486 0.13122,-1.57459 1.04973,-1.57459c0.39364,0 0.78728,0.13122 1.18095,0.39364l15.08974,8.6602c1.70581,1.04973 3.28036,3.54282 3.28036,5.64227v17.18921c0,0.52486 -0.13122,1.04973 -0.39364,1.31215c-0.13122,0.26242 -0.26242,0.39364 -0.65609,0.39364zM265.92237,210.47654c-0.9185,0 -1.04973,-1.18095 -1.04973,-1.57459v-17.32043c0,-2.09945 1.44335,-4.59255 3.28036,-5.64227l15.08974,-8.6602c0.39364,-0.26242 0.78728,-0.39364 1.18095,-0.39364c0.9185,0 1.04973,1.18095 1.04973,1.57459v17.32043c0,2.09945 -1.44335,4.59255 -3.28036,5.64227l-15.08974,8.6602c-0.52486,0.26242 -0.9185,0.39364 -1.18095,0.39364z" fill="#ffffff"/><path d="M263.82293,175.57333c-1.44335,0 -2.62431,-0.65609 -2.62431,-1.57459c0,-0.9185 1.18095,-1.57459 2.62431,-1.57459c1.44335,0 2.62431,0.65609 2.62431,1.57459c0,0.9185 -1.31215,1.57459 -2.62431,1.57459zM245.32156,198.40481c-0.78728,0 -1.57459,-1.04973 -1.57459,-2.23065c0,-1.18095 0.65609,-2.23065 1.57459,-2.23065c0.9185,0 1.57459,1.04973 1.57459,2.23065c0,1.18095 -0.78728,2.23065 -1.57459,2.23065zM281.79944,198.40481c-0.78728,0 -1.57459,-1.04973 -1.57459,-2.23065c0,-1.18095 0.65609,-2.23065 1.57459,-2.23065c0.78728,0 1.57459,1.04973 1.57459,2.23065c-0.13122,1.18095 -0.78728,2.23065 -1.57459,2.23065zM245.32156,185.28323c-0.78728,0 -1.57459,-1.04973 -1.57459,-2.23065c0,-1.18095 0.65609,-2.23065 1.57459,-2.23065c0.9185,0 1.57459,1.04973 1.57459,2.23065c0,1.18095 -0.78728,2.23065 -1.57459,2.23065zM258.18069,193.81225c-0.78728,0 -1.57459,-1.04973 -1.57459,-2.23065c0,-1.18095 0.65609,-2.23065 1.57459,-2.23065c0.9185,0 1.57459,1.04973 1.57459,2.23065c0,1.18095 -0.65609,2.23065 -1.57459,2.23065zM269.20277,193.81225c-0.78728,0 -1.57459,-1.04973 -1.57459,-2.23065c0,-1.18095 0.65609,-2.23065 1.57459,-2.23065c0.9185,0 1.57459,1.04973 1.57459,2.23065c0,1.18095 -0.65609,2.23065 -1.57459,2.23065zM258.18069,205.88403c-0.78728,0 -1.57459,-1.04973 -1.57459,-2.23065c0,-1.18095 0.65609,-2.23065 1.57459,-2.23065c0.9185,0 1.57459,1.04973 1.57459,2.23065c0,1.18095 -0.65609,2.23065 -1.57459,2.23065z" fill="#c30d23"/></g><g stroke="none" stroke-width="1" stroke-linecap="butt"><path d="M283.60781,145.23945c2.23065,1.31215 4.06768,4.46132 4.06768,7.08564v17.32043c0,2.62431 -1.83701,5.77347 -4.06768,7.08564l-15.08974,8.6602c-1.04973,0.52486 -2.49311,0.9185 -4.06768,0.9185c-1.57459,0 -3.01796,-0.26242 -4.06768,-0.9185l-15.08974,-8.6602c-2.23065,-1.31215 -4.06768,-4.46132 -4.06768,-7.08564v-17.32043c0,-2.62431 1.83701,-5.77347 4.06768,-7.08564l15.08974,-8.6602c2.23065,-1.31215 5.90469,-1.31215 8.13534,0z" fill="#dfded0"/><path d="M283.34538,143.53368c2.09945,1.18095 3.80524,4.19888 3.80524,6.56077v17.32043c0,2.36187 -1.70581,5.37983 -3.80524,6.56077l-15.08974,8.6602c-2.09945,1.18095 -5.51105,1.18095 -7.61048,0l-15.08974,-8.6602c-2.09945,-1.18095 -3.80524,-4.19888 -3.80524,-6.56077v-17.32043c0,-2.36187 1.70581,-5.37983 3.80524,-6.56077l15.08974,-8.6602c2.09945,-1.18095 5.51105,-1.18095 7.61048,0c0,0 14.95856,8.6602 15.08974,8.6602z" fill="#dfded0"/><path d="M264.45037,184.21034c-1.57459,0 -3.01796,-0.39364 -4.06768,-0.9185l-15.08974,-8.6602c-2.23065,-1.31215 -4.06768,-4.46132 -4.06768,-7.08564v-17.32043c0,-2.62431 1.83701,-5.77347 4.06768,-7.08564l15.08974,-8.6602c2.23065,-1.31215 5.90469,-1.31215 8.13534,0l15.08974,8.6602c2.23065,1.31215 4.06768,4.46132 4.06768,7.08564v17.32043c0,2.62431 -1.83701,5.77347 -4.06768,7.08564l-15.08974,8.6602c-1.04973,0.65609 -2.62431,0.9185 -4.06768,0.9185zM264.45037,134.47981c-1.31215,0 -2.62431,0.26242 -3.54282,0.78728l-15.08974,8.6602c-1.96823,1.04973 -3.54282,3.93646 -3.54282,6.16711v17.32043c0,2.23065 1.57459,4.98619 3.54282,6.16711l15.08974,8.6602c1.83701,1.04973 5.24861,1.04973 7.08564,0l15.08974,-8.6602c1.96823,-1.04973 3.54282,-3.93646 3.54282,-6.16711v-17.32043c0,-2.23065 -1.57459,-4.98619 -3.54282,-6.16711l-15.08974,-8.6602c-0.9185,-0.52486 -2.23065,-0.78728 -3.54282,-0.78728z" fill="#dfded0"/><path d="M264.45037,156.39275c-1.18095,0 -2.36187,-0.26242 -3.28036,-0.78728l-15.08974,-8.6602c-0.65609,-0.39364 -1.04973,-0.78728 -1.04973,-1.18095c0,-0.39364 0.39364,-0.9185 1.04973,-1.18095l15.08974,-8.6602c0.78728,-0.52486 1.96823,-0.78728 3.28036,-0.78728c1.31215,0 2.36187,0.26242 3.28036,0.78728l15.08974,8.6602c0.65609,0.39364 1.04973,0.78728 1.04973,1.18095c0,0.39364 -0.39364,0.9185 -1.04973,1.18095l-15.08974,8.6602c-0.9185,0.52486 -2.09945,0.78728 -3.28036,0.78728zM262.08849,182.24213c-0.39364,0 -0.78728,-0.13122 -1.18095,-0.39364l-15.08974,-8.6602c-1.70581,-1.04973 -3.28036,-3.54282 -3.28036,-5.64227v-17.32043c0,-0.52486 0.13122,-1.57459 1.04973,-1.57459c0.39364,0 0.78728,0.13122 1.18095,0.39364l15.08974,8.6602c1.70581,1.04973 3.28036,3.54282 3.28036,5.64227v17.18921c0,0.52486 -0.13122,1.04973 -0.39364,1.31215c-0.13122,0.26242 -0.26242,0.39364 -0.65609,0.39364zM266.54981,182.24213c-0.9185,0 -1.04973,-1.18095 -1.04973,-1.57459v-17.32043c0,-2.09945 1.44335,-4.59255 3.28036,-5.64227l15.08974,-8.6602c0.39364,-0.26242 0.78728,-0.39364 1.18095,-0.39364c0.9185,0 1.04973,1.18095 1.04973,1.57459v17.32043c0,2.09945 -1.44335,4.59255 -3.28036,5.64227l-15.08974,8.6602c-0.52486,0.26242 -0.9185,0.39364 -1.18095,0.39364z" fill="#ffffff"/><path d="M264.45037,147.33892c-1.44335,0 -2.62431,-0.65609 -2.62431,-1.57459c0,-0.9185 1.18095,-1.57459 2.62431,-1.57459c1.44335,0 2.62431,0.65609 2.62431,1.57459c0,0.9185 -1.31215,1.57459 -2.62431,1.57459zM245.949,170.1704c-0.78728,0 -1.57459,-1.04973 -1.57459,-2.23065c0,-1.18095 0.65609,-2.23065 1.57459,-2.23065c0.9185,0 1.57459,1.04973 1.57459,2.23065c0,1.18095 -0.78728,2.23065 -1.57459,2.23065zM282.42688,170.1704c-0.78728,0 -1.57459,-1.04973 -1.57459,-2.23065c0,-1.18095 0.65609,-2.23065 1.57459,-2.23065c0.78728,0 1.57459,1.04973 1.57459,2.23065c-0.13122,1.18095 -0.78728,2.23065 -1.57459,2.23065zM245.949,157.04882c-0.78728,0 -1.57459,-1.04973 -1.57459,-2.23065c0,-1.18095 0.65609,-2.23065 1.57459,-2.23065c0.9185,0 1.57459,1.04973 1.57459,2.23065c0,1.18095 -0.78728,2.23065 -1.57459,2.23065zM258.80813,165.57784c-0.78728,0 -1.57459,-1.04973 -1.57459,-2.23065c0,-1.18095 0.65609,-2.23065 1.57459,-2.23065c0.9185,0 1.57459,1.04973 1.57459,2.23065c0,1.18095 -0.65609,2.23065 -1.57459,2.23065zM269.83021,165.57784c-0.78728,0 -1.57459,-1.04973 -1.57459,-2.23065c0,-1.18095 0.65609,-2.23065 1.57459,-2.23065c0.9185,0 1.57459,1.04973 1.57459,2.23065c0,1.18095 -0.65609,2.23065 -1.57459,2.23065zM258.80813,177.64962c-0.78728,0 -1.57459,-1.04973 -1.57459,-2.23065c0,-1.18095 0.65609,-2.23065 1.57459,-2.23065c0.9185,0 1.57459,1.04973 1.57459,2.23065c0,1.18095 -0.65609,2.23065 -1.57459,2.23065z" fill="#c30d23"/></g><g><path d="M225.12564,177.93996c0,0.95142 -0.99702,1.72272 -2.22692,1.72272c-1.22988,0 -3.99164,-0.18306 -3.99164,-1.13448c0,-0.95142 2.76175,-2.31094 3.99164,-2.31094c1.22988,0 2.22692,0.77129 2.22692,1.7227z" fill="#727272" stroke="#000000" stroke-width="1.5" stroke-linecap="butt"/><path d="M216.13396,177.93996c0,0.95142 -0.99702,1.72272 -2.22692,1.72272c-1.22988,0 -3.99164,-0.18306 -3.99164,-1.13448c0,-0.95142 2.76175,-2.31094 3.99164,-2.31094c1.22988,0 2.22692,0.77129 2.22692,1.7227z" fill="#727272" stroke="#000000" stroke-width="1.5" stroke-linecap="butt"/><path d="M212.10233,144.60093l-1.20654,5.41051l-3.42907,8.73423l-3.87087,-2.11552c0,0 2.50733,-7.6425 4.02861,-9.73771c0.87778,-1.20891 4.47788,-2.2915 4.47788,-2.2915z" fill="#ffffff" stroke="#000000" stroke-width="1.5" stroke-linecap="butt"/><path d="M207.43251,158.69807l-0.81777,2.09482l0.52039,0.61099l-0.59475,1.13469c0,0 -1.04452,0.49449 -1.70991,0.34914c-0.6654,-0.14535 -1.04457,-0.49229 -1.48688,-1.04742c-0.44233,-0.55512 -0.63517,-0.96132 -0.6691,-1.6584c-0.03392,-0.69707 0.5204,-1.39655 0.5204,-1.39655l0.49377,-2.17804z" data-paper-data="{&quot;index&quot;:null}" fill="#fed497" stroke="#000000" stroke-width="1.5" stroke-linecap="round"/><path d="M226.81154,127.74568c0.16758,1.00275 2.31448,2.84176 3.99998,4.48707c1.73019,1.68893 3.87174,3.34586 3.44118,4.48328c-0.87379,2.30835 -5.31665,3.7114 -7.08104,3.85055c-1.63228,0.12873 -3.74955,2.14475 -4.62348,2.69687c-1.30241,0.82284 -1.21447,-1.6075 -4.45829,-1.6075c-1.34859,0 -2.32832,2.3764 -3.55371,1.37983c-2.03436,-1.65448 -2.29055,-1.20619 -5.19124,-1.90397c-1.9409,-0.46689 -5.33185,-1.92546 -6.96821,-2.86985c-3.09961,-1.78889 4.17818,-6.60546 5.38935,-10.62203c0.26154,-0.8673 1.47182,-2.57117 2.3918,-4.38446c1.32957,-2.62058 3.39555,-4.88341 7.12073,-4.85352c2.50146,0.02007 4.55302,0.80497 6.2896,3.13179c2.26851,3.03952 3.00732,5.61555 3.24335,6.21195z" fill="#4c4c4c" stroke="#000000" stroke-width="1.5" stroke-linecap="butt"/><g stroke-width="1.5"><g stroke="#000000" stroke-linecap="butt"><path d="M230.32265,126.48806c0,0.53896 -1.08933,2.73435 -1.21799,3.70718c-0.11875,0.89781 0.71092,0.58862 0.96373,0.80152c1.75512,1.47808 0.67146,3.50372 -2.36255,3.92275c-1.23124,1.5382 -2.75885,3.60487 -3.9595,4.67451c-0.68349,0.60892 -0.93651,1.09831 -2.0799,1.48932c-0.28215,0.09649 0.77376,2.96497 0.41747,3.27204c-1.20916,1.04208 -8.00138,0.35864 -8.41864,0.35864c-0.36656,0 1.22606,-3.37771 0.36896,-3.62298c-1.35839,-0.38873 -1.22881,-0.68781 -1.98801,-1.27204c-1.33099,-1.02426 -3.22088,-2.29719 -3.91259,-4.22419c-0.01752,-1.31388 -3.23056,0.23239 -3.92452,-3.04267c-0.08576,-0.40473 -0.22513,-1.40489 0.41407,-1.8959c0.48869,-0.3754 1.88033,0.18938 1.92021,-0.07081c0.11795,-0.76954 -1.34493,-3.56557 -1.34493,-4.09736c0,-8.4608 5.14528,-13.08445 12.08314,-13.08445c6.93785,0 13.04108,4.62366 13.04108,13.08445z" fill="#ffce91"/><path d="M215.29821,124.7807c-0.001,0.00023 -0.53246,1.33982 -1.38295,2.3536c-1.09541,1.30572 -2.57499,2.36104 -2.60601,2.37027c-1.00415,0.29827 1.81678,-1.81479 1.30068,-1.99843c-0.32754,-0.11654 -2.59891,1.55157 -3.87953,2.26563c-0.01764,0.00985 -1.79141,0.3397 -2.14188,0.358c-0.07364,0.00384 -1.22505,-2.78906 -1.6631,-4.23025c-0.65083,-2.1413 -0.10176,-3.93397 1.19637,-6.11707c1.25942,-1.78883 4.83008,-6.6995 10.94522,-6.56101c6.11514,0.13849 9.17187,1.82332 11.9894,6.30492c2.57996,4.10372 0.78197,9.83905 0.52089,9.94045c-0.83176,-0.14261 -1.51233,-0.13936 -2.25109,-0.09009c-0.58318,0.03889 -1.24411,0.14792 -1.75733,-0.05046c-0.77612,0.00753 -1.40066,-0.01749 -1.85683,-0.17563c-0.3565,-0.12359 -0.59591,-0.39987 -0.81859,-0.33477c0,0 -0.86496,-0.08164 -1.30164,-0.59968c-0.49415,-0.58623 -0.79385,-1.47132 -0.92105,-1.48592c-0.0342,-0.00393 -0.63007,0.92558 -0.58274,1.48391c0.04961,0.5852 0.55004,1.19881 0.09798,0.95243c-0.3986,-0.21726 -0.72473,-0.45112 -1.02707,-0.8422c-0.49617,-0.64183 -0.86607,-1.45851 -0.92711,-1.48039c-1.20894,-0.43378 0.3611,2.31653 -0.52239,2.3881c0,0 -1.00609,-0.47997 -1.39916,-1.20495c-0.04632,-0.25179 -0.5749,-0.51559 -0.74047,-1.22631c-0.19065,-0.81836 -0.0315,-2.07387 -0.27161,-2.02015z" fill="#232323"/></g><path d="M213.77803,131.86241v2.33832" fill="none" stroke="url(#color-1)" stroke-linecap="round"/><path d="M221.68851,131.86241v2.43782" fill="none" stroke="url(#color-2)" stroke-linecap="round"/><path d="M219.07656,138.35498c0,0 -0.82003,0.39581 -1.25121,0.39581c-0.43118,0 -1.33587,-0.39581 -1.33587,-0.39581" fill="none" stroke="url(#color-3)" stroke-linecap="round"/></g><path d="M236.42079,133.71358c0.49707,3.27193 -2.26062,3.79347 -2.99749,4.03825c-0.31551,0.10482 1.85142,-0.67818 1.47376,-1.36414c-0.84605,-1.53676 -4.73993,-4.44489 -7.59726,-7.49636c-0.41803,-1.1749 -0.32644,-0.6304 -1.38396,-3.25495c-3.1584,-7.8386 -7.69281,-7.15076 -9.01929,-7.10098c-2.43294,-0.05396 -4.56194,0.3588 -7.43779,6.49003c-0.46959,1.00117 -1.17348,2.20499 -1.65266,3.37947c-0.74367,3.80899 -8.03584,8.13802 -5.41181,9.74986c0.67573,0.84362 -2.57455,-1.7121 -2.38734,-3.40791c0.15493,-1.40336 2.01336,-5.11631 3.37068,-9.46531c1.54277,-4.94318 3.18437,-9.46288 3.72548,-11.38555c0.49653,-1.76424 3.36102,-6.39151 10.34094,-6.40742c7.59601,-0.01731 9.45727,4.39188 9.84762,5.62203c1.16072,2.10831 3.88685,9.23358 4.57268,10.7136c0.97455,3.26192 3.92853,5.75642 4.55641,9.88939z" fill="#ffffff" stroke="#000000" stroke-width="1.5" stroke-linecap="butt"/><path d="M205.99285,173.81302c0,0 5.48525,-25.54818 6.34075,-29.53281c0.21707,-1.01105 -8.50744,-5.23061 -8.50744,-5.23061c0,0 9.39123,3.86507 14.14615,3.89466c5.06207,0.0315 15.00484,-4.6053 15.00484,-4.6053l-9.54831,5.27123l6.08333,30.79821c0,0 -0.95319,1.7348 -5.10232,2.25307c-2.31457,0.28911 -6.53971,0.4333 -9.39719,0.34287c-2.8939,-0.0916 -4.75649,-0.01194 -5.86273,-0.29477c-3.01666,-0.77127 -3.1571,-2.89651 -3.1571,-2.89651z" fill="#ffffff" stroke="#000000" stroke-width="1.5" stroke-linecap="butt"/><path d="M209.40133,152.5996l0.90123,-6.8155c0,0 1.1268,-0.62834 1.82327,-0.70732c1.00738,-0.11424 3.6404,0.08773 3.6404,0.08773v5.51999l-4.95783,3.04697l0.39539,-4.00453z" fill="#ffffff" stroke="none" stroke-width="0" stroke-linecap="butt"/><path d="M228.14932,147.15464c1.5213,2.0952 4.02861,9.73771 4.02861,9.73771l-3.87087,2.11552l-3.42907,-8.73423l-1.20654,-5.41051c0,0 3.60011,1.0826 4.47788,2.2915z" data-paper-data="{&quot;index&quot;:null}" fill="#ffffff" stroke="#000000" stroke-width="1.5" stroke-linecap="butt"/><path d="M232.08511,156.86953l0.49377,2.17804c0,0 0.55432,0.69948 0.52039,1.39655c-0.03393,0.69707 -0.22677,1.10328 -0.66909,1.6584c-0.44232,0.55512 -0.82149,0.90207 -1.48688,1.04742c-0.66538,0.14535 -1.70991,-0.34914 -1.70991,-0.34914l-0.59475,-1.13469l0.52039,-0.61099l-0.81777,-2.09482z" data-paper-data="{&quot;index&quot;:null}" fill="#fed497" stroke="#000000" stroke-width="1.5" stroke-linecap="round"/><path d="M224.56999,149.98915l0.39539,4.00453l-4.95783,-3.04697v-5.51999c0,0 2.63301,-0.20196 3.64039,-0.08773c0.69646,0.07898 1.82327,0.70732 1.82327,0.70732l0.90122,6.8155z" data-paper-data="{&quot;index&quot;:null}" fill="#ffffff" stroke="none" stroke-width="0" stroke-linecap="butt"/></g><g><path d="M256.55009,164.63423c-0.01801,0.12831 1.33854,-0.17359 1.85373,0.40061c0.81126,0.90418 0.5832,1.69114 0.36179,2.26425c-0.03002,0.0777 -0.06104,0.06329 -0.09301,0.13658c-1.23356,2.82835 -3.86725,2.42718 -4.01127,2.69643c-0.53095,0.99255 -0.17512,2.44208 -2.55339,4.34827c-2.44414,1.95899 -3.71512,2.33274 -5.6633,2.60598c-0.2066,0.02899 -0.36403,3.43104 -0.8047,4.13234c-0.77801,1.23816 -5.6573,0.25952 -6.02434,0.25952c-0.93704,0 0.92819,-4.15889 -0.14219,-4.40406c-1.48864,-0.34096 -3.10942,-0.30264 -5.64412,-2.60798c-2.11805,-1.92638 -2.74734,-4.00215 -3.29225,-4.84363c-0.05652,-0.08727 -2.00746,-0.08698 -2.69492,-0.4954c-1.52608,-0.90663 -2.08648,-3.11255 -1.20283,-4.22453c1.14876,-1.44558 2.42584,0.08604 2.34642,-0.73572c-0.0999,-1.03373 -1.16567,-2.01896 -1.16567,-3.16204c0,-9.22469 5.27196,-16.34515 14.83519,-16.34515c9.56324,0 14.83337,7.41906 14.83337,16.64377c0,0 -0.84809,2.6864 -0.93854,3.33075z" fill="#ffce91" stroke="#000000" stroke-width="1.5" stroke-linecap="butt"/><path d="M245.28195,172.47645c0,0 -1.50202,0.74461 -2.23383,0.74461c-0.79375,0 -2.35793,-0.74461 -2.35793,-0.74461" fill="none" stroke="#000000" stroke-width="1.5" stroke-linecap="round"/><path d="M243.79068,159.78687c-1.44782,0.11729 -4.83288,0.76385 -4.83288,0.76385c0,0 -1.58897,0.08578 -2.53393,-0.25045c-0.75866,-0.26994 -1.62218,-0.73086 -2.85797,-0.6663c-1.84976,0.09662 -3.38727,0.72535 -4.58226,1.37521c-2.98775,1.62476 -2.95514,-5.34402 -0.28671,-9.83159c1.5474,-2.19785 5.93449,-8.23137 13.44789,-8.06121c7.51339,0.17015 11.26905,2.24022 14.73083,7.74657c3.16989,5.04205 0.9994,10.18253 0.67862,10.30711c-1.42484,0.55336 -2.61696,-0.5407 -3.84576,-0.18155c0,0 -3.5472,-0.63892 -4.87547,-0.79146c-1.45142,-0.16667 -2.40374,0.0655 -2.40374,0.0655c0,0 -1.55311,-0.56361 -2.63862,-0.47567z" fill="#1f1f1f" stroke="#000000" stroke-width="1.5" stroke-linecap="butt"/><path d="M234.41154,163.43975c0,0 1.07891,-0.49776 1.81126,-0.64065c0.65519,-0.12784 2.27064,0.24962 2.27064,0.24962" data-paper-data="{&quot;index&quot;:null}" fill="none" stroke="#000000" stroke-width="1.5" stroke-linecap="round"/><path d="M246.58001,163.51679c0,0 1.41566,-0.71493 2.16532,-0.68495c0.67068,0.02683 2.12213,0.8564 2.12213,0.8564" fill="none" stroke="#000000" stroke-width="1.5" stroke-linecap="round"/><path d="M233.70895,151.32439c-0.36149,0.8639 -1.0331,1.40584 -1.50007,1.21043c-0.46697,-0.19539 -0.55248,-1.05414 -0.191,-1.91803c0.36149,-0.8639 1.03309,-1.40583 1.50006,-1.21044c0.46697,0.1954 0.55249,1.05414 0.191,1.91805z" fill="#393939" stroke="#000000" stroke-width="0" stroke-linecap="butt"/><path d="M236.04401,149.06632c-0.1863,0.48392 -0.64045,0.7595 -1.01438,0.61555c-0.37393,-0.14396 -0.52604,-0.65293 -0.33974,-1.13685c0.1863,-0.48392 0.64044,-0.75949 1.01437,-0.61555c0.37393,0.14396 0.52604,0.65293 0.33975,1.13685z" fill="#393939" stroke="none" stroke-width="0" stroke-linecap="butt"/><path d="M256.62404,167.00054c0,0 -0.12336,0.5818 -0.34554,0.81541c-0.16745,0.17608 -0.87038,0.46317 -0.87038,0.46317" fill="none" stroke="#d5ac79" stroke-width="1" stroke-linecap="round"/><path d="M229.09593,167.78292c0,0 -0.70294,-0.28708 -0.87038,-0.46317c-0.22217,-0.23361 -0.34554,-0.81541 -0.34554,-0.81541" data-paper-data="{&quot;index&quot;:null}" fill="none" stroke="#d5ac79" stroke-width="1" stroke-linecap="round"/><path d="M230.35239,160.38403c0,0 0.01841,-2.20043 0.63581,-3.31652c0.54061,-0.97726 2.06016,-2.74942 2.06016,-2.74942" fill="none" stroke="url(#color-4)" stroke-width="1.5" stroke-linecap="round"/><path d="M237.9846,153.4538c0,0 -0.44116,2.71575 -0.98176,3.69301c-0.6174,1.11609 -1.175,2.91212 -1.175,2.91212" fill="none" stroke="url(#color-5)" stroke-width="1.5" stroke-linecap="round"/><path d="M241.03366,160.13826c0,0 -0.25118,-1.39163 0.36623,-2.50772c0.54062,-0.97726 1.65575,-3.55822 1.65575,-3.55822" fill="none" stroke="url(#color-6)" stroke-width="1.5" stroke-linecap="round"/><path d="M246.4031,159.80485c0,0 0.28801,-1.66122 0.90542,-2.77731c0.54062,-0.97726 1.79055,-3.28862 1.79055,-3.28862" fill="none" stroke="url(#color-7)" stroke-width="1.5" stroke-linecap="round"/><path d="M254.45637,153.82241c0,0 0.36763,2.71575 -0.17297,3.69301c-0.61741,1.11609 -1.3098,3.04692 -1.3098,3.04692" fill="none" stroke="url(#color-8)" stroke-width="1.5" stroke-linecap="round"/><path d="M236.77095,166.23879v2.70816" fill="none" stroke="#000000" stroke-width="1.5" stroke-linecap="round"/><path d="M248.08655,169.1461v-2.70816" fill="none" stroke="#000000" stroke-width="1.5" stroke-linecap="round"/><path d="M244.21319,211.59817c0,0 -0.27551,-3.59701 -0.27551,-6.14555c0,-0.55363 0.13477,-0.9726 -0.59513,-1.66368c-0.50842,-0.48139 -1.4054,-0.70619 -1.42749,-1.20531c-0.10884,-2.45816 -0.18146,-4.88769 -0.18146,-4.88769l9.09181,0.36736c0,0 -0.6148,6.33701 -0.77199,8.23556c-0.21954,2.65142 -0.14635,5.20747 -0.14635,5.20747z" fill="#1c1c1c" stroke="#000000" stroke-width="1.5" stroke-linecap="butt"/><path d="M234.14612,211.44946c0,0 -0.18367,-2.49498 0,-6.14555c0.14264,-2.83493 -0.55103,-7.84848 -0.55103,-7.84848c0,0 6.85164,0.75842 9.27604,1.58915c0.84746,0.29039 -0.9922,3.66409 -0.9922,3.66409c0,0 -1.7354,1.35928 -1.8926,3.25783c-0.21954,2.65142 -0.33003,5.39114 -0.33003,5.39114z" fill="#1c1c1c" stroke="#000000" stroke-width="1.5" stroke-linecap="butt"/><path d="M233.92441,215.39166c0,-1.30914 0.21299,-3.56844 0.21299,-3.56844l5.4116,-0.1065c0,0 0.64121,3.30787 0.10892,3.79159c-1.0886,0.9893 -5.73351,0.51158 -5.73351,-0.11665z" data-paper-data="{&quot;index&quot;:null}" fill="#ffffff" stroke="#000000" stroke-width="1.5" stroke-linecap="butt"/><path d="M244.35938,211.44844l5.4116,-0.1065c0,0 0.64122,3.30787 0.10893,3.79159c-1.0886,0.9893 -5.73351,0.51157 -5.73351,-0.11667z" data-paper-data="{&quot;index&quot;:null}" fill="#ffffff" stroke="#000000" stroke-width="1.5" stroke-linecap="butt"/><path d="M231.53643,190.99271c-0.37482,0.3552 -0.69025,0.5459 -0.90987,0.49574c-2.71394,-0.61998 -4.34306,-2.79786 -4.27937,-3.23645c0.0409,-0.28169 4.03626,-6.15392 4.21536,-6.68219c0.81146,-2.3933 6.77439,-3.80157 6.77439,-3.80157c0,0 3.3001,1.98559 5.12312,1.98559c2.08314,0 5.92907,-1.88925 5.92907,-1.88925c0,0 2.15783,0.9575 4.25837,3.11101c3.6586,3.7509 4.68,5.46314 5.0407,6.75664c0.90765,1.77969 -4.48741,3.13286 -5.72852,3.5045c-0.30292,0.09071 -2.03461,-3.80505 -1.99894,-3.48482c0.64391,5.78162 1.14131,11.07633 1.14131,11.07633c0,0 -0.36036,1.43806 -3.25898,1.80012c-2.47562,0.30922 -5.65434,0.34159 -8.71067,0.24487c-1.97105,-0.06237 -4.12295,-0.25296 -4.98353,-0.91427c-0.49085,-0.3772 -1.12537,-1.76637 -1.12537,-1.76637c0,0 -0.93393,-4.34623 1.07206,-9.98182c1.03133,-2.89741 -0.59556,0.92116 -2.55911,2.78192z" fill="#dedede" stroke="#000000" stroke-width="1.5" stroke-linecap="butt"/><path d="M257.35417,188.16784l0.62463,2.75534c0,0 0.70124,0.88487 0.65834,1.7667c-0.04291,0.88183 -0.28688,1.3957 -0.84643,2.09794c-0.55954,0.70226 -1.03921,1.14115 -1.88098,1.32503c-0.84175,0.18387 -2.16312,-0.44169 -2.16312,-0.44169l-0.75238,-1.43542l0.65834,-0.77295l-1.03452,-2.65005z" data-paper-data="{&quot;index&quot;:null}" fill="#fed497" stroke="#000000" stroke-width="1.5" stroke-linecap="round"/><path d="M230.29151,191.45995c0,0 -0.00949,0.51787 -0.14115,0.85517c-0.19077,0.48865 -0.89335,1.79489 -0.89335,1.79489l0.65832,0.77292l-0.75238,1.43544c0,0 -1.32137,0.62554 -2.16312,0.44167c-0.84177,-0.18387 -1.32142,-0.62277 -1.88098,-1.32503c-0.55956,-0.70226 -0.80353,-1.21612 -0.84645,-2.09795c-0.04293,-0.88183 0.65833,-1.7667 0.65833,-1.7667l1.53969,-2.88605z" data-paper-data="{&quot;index&quot;:null}" fill="#fed497" stroke="#000000" stroke-width="1.5" stroke-linecap="round"/><text transform="translate(237.8581,190.77305) scale(0.10622,0.10622)" font-size="40" xml:space="preserve" fill="#000000" fill-rule="nonzero" stroke="none" stroke-width="1" stroke-linecap="butt" stroke-linejoin="miter" stroke-miterlimit="10" stroke-dasharray="" stroke-dashoffset="0" font-family="Pixel" font-weight="normal" text-anchor="start" style="mix-blend-mode: normal"><tspan x="0" dy="0">Rich</tspan></text></g><text transform="translate(221.25001,259.36251) scale(0.22009,0.22009)" font-size="40" xml:space="preserve" fill="#ffffff" fill-rule="nonzero" stroke="none" stroke-width="1" stroke-linecap="butt" stroke-linejoin="miter" stroke-miterlimit="10" stroke-dasharray="" stroke-dashoffset="0" font-family="Sans Serif" font-weight="normal" text-anchor="start" style="mix-blend-mode: normal"><tspan x="0" dy="0">敬请期待</tspan></text></g></g></svg>