<svg version="1.1" xmlns="http://www.w3.org/2000/svg" xmlns:xlink="http://www.w3.org/1999/xlink" width="425.94725" height="62.06006" viewBox="0,0,425.94725,62.06006"><g transform="translate(-20.50044,-26.25568)"><g data-paper-data="{&quot;isPaintingLayer&quot;:true}" fill-rule="nonzero" stroke-linejoin="miter" stroke-miterlimit="10" stroke-dasharray="" stroke-dashoffset="0" style="mix-blend-mode: normal"><path d="M182.54325,77.47808h-107.47811c-2.95955,0 3.53964,-2.40629 3.53964,-5.36793c0,0 3.1503,-10.9754 2.92585,-16.052c-0.17306,-3.91446 -2.51484,-11.83779 -2.51484,-11.83779c0,-2.9585 -5.81298,-5.36691 -2.8534,-5.36691h106.3819c2.95956,0 5.36691,2.40841 5.36691,5.36691v27.8898c0,2.96164 -2.4084,5.36793 -5.36793,5.36793z" fill="#fcdab3" stroke-opacity="0.98039" stroke="#cdac86" stroke-width="2" stroke-linecap="butt"/><path d="M21.50044,57.28571c0,-16.58513 13.4449,-30.03003 30.03003,-30.03003c16.58513,0 30.03003,13.4449 30.03003,30.03003c0,16.58513 -13.4449,30.03003 -30.03003,30.03003c-16.58513,0 -30.03003,-13.4449 -30.03003,-30.03003z" fill-opacity="0.3451" fill="#ffffff" stroke-opacity="0.98039" stroke="#cdac86" stroke-width="2" stroke-linecap="butt"/><path d="M445.69769,50.79284v14.12945c0,2.87574 -2.33817,5.21492 -5.21592,5.21492h-83.42606c-2.87474,0 -5.21492,-2.33918 -5.21492,-5.21492v-14.13046c0,-2.87574 2.34018,-5.21492 5.21492,-5.21492h83.42606c2.87775,0 5.21592,2.34018 5.21592,5.21592z" fill="#fcdab3" stroke="#cdac86" stroke-width="1.5" stroke-linecap="butt"/><path d="" fill="none" stroke="#723700" stroke-width="0.5" stroke-linecap="round"/><text transform="translate(357.94531,64.86164) scale(0.5,0.5)" font-size="40" xml:space="preserve" fill="#8c755b" fill-rule="nonzero" stroke="none" stroke-width="1" stroke-linecap="butt" stroke-linejoin="miter" stroke-miterlimit="10" stroke-dasharray="" stroke-dashoffset="0" font-family="Sans Serif" font-weight="normal" text-anchor="start" style="mix-blend-mode: normal"><tspan x="0" dy="0">$</tspan></text></g></g></svg>