<svg version="1.1" xmlns="http://www.w3.org/2000/svg" xmlns:xlink="http://www.w3.org/1999/xlink" width="61.94611" height="76.97199" viewBox="0,0,61.94611,76.97199"><defs><linearGradient x1="240.00004" y1="142.26405" x2="240.00004" y2="217.73604" gradientUnits="userSpaceOnUse" id="color-1"><stop offset="0" stop-color="#ffbd2d"/><stop offset="1" stop-color="#ffd878"/></linearGradient></defs><g transform="translate(-209.02699,-141.51405)"><g data-paper-data="{&quot;isPaintingLayer&quot;:true}" fill-rule="nonzero" stroke-linecap="butt" stroke-linejoin="miter" stroke-miterlimit="10" stroke-dasharray="" stroke-dashoffset="0" style="mix-blend-mode: normal"><path d="M270.22308,149.02739v61.9466c0,3.72889 -3.03179,6.76205 -6.76332,6.76205h-46.92073c-3.7276,0 -6.76204,-3.03313 -6.76204,-6.76205v-61.94789c0,-3.72889 3.03445,-6.76205 6.76205,-6.76205h46.92074c3.73154,0 6.76332,3.03447 6.76332,6.76334z" fill="url(#color-1)" stroke="#ffbe31" stroke-width="1.5"/><text transform="translate(222.94575,207.9246) scale(0.27778,0.27778)" font-size="40" xml:space="preserve" fill="#c2774e" fill-rule="nonzero" stroke="none" stroke-width="1" stroke-linecap="butt" stroke-linejoin="miter" stroke-miterlimit="10" stroke-dasharray="" stroke-dashoffset="0" font-family="Sans Serif" font-weight="normal" text-anchor="start" style="mix-blend-mode: normal"><tspan x="0" dy="0">均富卡</tspan></text><g stroke="none" stroke-width="1"><g><path d="M252.16067,182.29512c0,0.37712 -0.28284,0.75424 -0.84851,0.75424h-23.09834c-0.37712,0 -0.84851,-0.28284 -0.84851,-0.75424v0c0,-0.37712 0.28284,-0.75424 0.84851,-0.75424h23.09834c0.56567,0.09427 0.84851,0.37712 0.84851,0.75424z" fill="#fee247"/><g fill="#fee247"><path d="M251.02934,182.95506v0c0,3.20548 -2.92265,5.84529 -6.59953,5.84529h-9.14506c-3.67687,0 -6.59953,-2.63981 -6.59953,-5.84529v0"/><path d="M250.84077,184.46353h-18.66723c0.75424,2.45126 3.29975,4.33683 6.41096,4.33683h-3.39405c-3.1112,0 -5.65674,-1.7913 -6.41096,-4.33683v0v0c-0.09427,-0.28284 -0.18855,-0.37712 -0.18855,-0.65994v-0.09427c-0.09427,-0.28284 -0.09427,-0.47139 -0.09427,-0.75424h3.39405h19.13862c0,0.56567 0,1.03706 -0.18855,1.50846z" opacity="0.5"/></g><path d="M247.54102,189.64886h-15.55602c0,-0.47139 0.47139,-0.84851 0.94279,-0.84851h13.76472c0.47139,0 0.84851,0.37712 0.84851,0.84851z" fill="#fee247"/><path d="M248.67235,190.12025c0,0.28284 -0.28284,0.47139 -0.56567,0.47139h-16.59308c-0.28284,0 -0.56567,-0.28284 -0.56567,-0.47139v0c0,-0.28284 0.28284,-0.47139 0.56567,-0.47139h16.49881c0.37712,0 0.65994,0.18855 0.65994,0.47139z" fill="#fee247"/><path d="M248.57808,190.12025h-17.63016c0,-0.18855 0.28284,-0.47139 0.56567,-0.47139h16.59308c0.28284,0 0.56567,0.18855 0.47139,0.47139z" fill="#e2a62d" opacity="0.5"/></g><path d="M239.81015,161.55375c-1.31991,0 -2.35697,-0.94279 -2.35697,-2.07414c0,-1.13136 1.03706,-2.07414 2.35697,-2.07414c1.31991,0 2.35697,0.94279 2.35697,2.07414c0,1.03706 -1.03706,2.07414 -2.35697,2.07414zM239.81015,157.7826c-1.03706,0 -1.88557,0.75424 -1.88557,1.69702c0,0.94279 0.84851,1.69702 1.88557,1.69702c1.03706,0 1.88557,-0.75424 1.88557,-1.69702c0.09427,-1.03706 -0.84851,-1.69702 -1.88557,-1.69702z" fill="#e2a62d"/><path d="M229.62803,182.48367c-0.28284,-0.09427 -0.28284,-0.18855 -0.28284,-0.28284l10.18213,-22.3441c0.09427,-0.09427 0.28284,-0.18855 0.28284,-0.18855c0.18855,0.09427 0.18855,0.18855 0.18855,0.28284l-10.08785,22.43839c-0.09427,0.09427 -0.18855,0.09427 -0.28284,0.09427z" fill="#5f3a14"/><path d="M249.57646,182.38939l-10.08785,-22.3441c0,-0.09427 0,-0.18855 0.18855,-0.28284c0,0 0.18855,0.09427 0.28284,0.18855l10.18213,22.24982c0,0.09427 0,0.18855 -0.28284,0.28284c-0.09427,0 -0.18855,0 -0.28284,-0.09427z" fill="#5f3a14"/></g></g></g></svg>