<svg version="1.1" xmlns="http://www.w3.org/2000/svg" xmlns:xlink="http://www.w3.org/1999/xlink" width="467.69236" height="54.79401" viewBox="0,0,467.69236,54.79401"><defs><linearGradient x1="201.28135" y1="302.33619" x2="201.28135" y2="345.31956" gradientUnits="userSpaceOnUse" id="color-1"><stop offset="0" stop-color="#e1d8d9"/><stop offset="1" stop-color="#c2bdc3"/></linearGradient><linearGradient x1="41.76568" y1="302.31618" x2="41.76568" y2="356.47339" gradientUnits="userSpaceOnUse" id="color-2"><stop offset="0" stop-color="#f1f7fc"/><stop offset="1" stop-color="#d0cdd0"/></linearGradient><linearGradient x1="129.93235" y1="302.31618" x2="129.93235" y2="356.47339" gradientUnits="userSpaceOnUse" id="color-3"><stop offset="0" stop-color="#f1f7fc"/><stop offset="1" stop-color="#d0cdd0"/></linearGradient><linearGradient x1="208.71012" y1="301.7606" x2="208.71012" y2="355.91783" gradientUnits="userSpaceOnUse" id="color-4"><stop offset="0" stop-color="#f1f7fc"/><stop offset="1" stop-color="#d0cdd0"/></linearGradient><linearGradient x1="289.91283" y1="302.22578" x2="289.91283" y2="356.38302" gradientUnits="userSpaceOnUse" id="color-5"><stop offset="0" stop-color="#f1f7fc"/><stop offset="1" stop-color="#d0cdd0"/></linearGradient><linearGradient x1="370.52397" y1="302.17025" x2="370.52397" y2="356.32746" gradientUnits="userSpaceOnUse" id="color-6"><stop offset="0" stop-color="#f1f7fc"/><stop offset="1" stop-color="#d0cdd0"/></linearGradient><linearGradient x1="440.48742" y1="301.73372" x2="440.48742" y2="356.40039" gradientUnits="userSpaceOnUse" id="color-7"><stop offset="0" stop-color="#f1f7fc"/><stop offset="1" stop-color="#d0cdd0"/></linearGradient></defs><g transform="translate(-6.78801,-301.67938)"><g data-paper-data="{&quot;isPaintingLayer&quot;:true}" fill-rule="nonzero" stroke="none" stroke-linecap="butt" stroke-linejoin="miter" stroke-miterlimit="10" stroke-dasharray="" stroke-dashoffset="0" style="mix-blend-mode: normal"><path d="M13.84507,345.31956v-42.98334h392.90001v42.98334z" fill="url(#color-1)" stroke-width="NaN"/><path d="M8.95735,354.87338c0,0 -2,-0.42473 -2,-3.6604c0,-11.25295 0,-37.15217 0,-43.46667c0,-2.71406 -0.62748,-1.38233 0.53334,-3.1553c1.16082,-1.77296 1.79989,-2.02065 3.1721,-1.98836c1.95728,0.04606 11.40936,-0.03647 11.40936,-0.03647c0,0 -5.21461,15.8187 -5.74036,17.08686c-0.43563,1.05081 -0.22565,2.07113 0.51937,3.07274c0.74502,1.0016 0.48507,0.5942 2.83068,1.43104c6.52173,2.32678 37.59761,13.41383 49.09797,17.51686c2.6762,0.95479 2.90152,0.50858 4.38759,-0.4686c1.48607,-0.97718 0.99868,-1.1415 1.87108,-3.64685c1.73573,-4.98465 11.78369,-35.24205 11.78369,-35.24205h3.59536v54.15721c0,0 -77.55972,-0.26668 -77.5623,-0.26668c-3.42316,0 -3.89789,-1.33333 -3.89789,-1.33333z" fill="url(#color-2)" stroke-width="0"/><path d="M90.11381,356.47338v-54.1572l11.2917,0.25c0,0 -5.21461,15.8187 -5.74036,17.08686c-0.43563,1.05081 -0.22565,2.07113 0.51937,3.07274c0.74502,1.0016 0.48507,0.5942 2.83068,1.43104c6.52173,2.32678 37.59761,13.41383 49.09797,17.51686c2.6762,0.95479 2.90152,0.50858 4.38759,-0.4686c1.48607,-0.97718 0.99868,-1.1415 1.87108,-3.64685c1.73573,-4.98465 11.78369,-35.24205 11.78369,-35.24205h3.59536v54.15721z" fill="url(#color-3)" stroke-width="0"/><path d="M168.89158,355.91782v-54.1572l11.29169,0.25c0,0 -5.21461,15.8187 -5.74036,17.08686c-0.43563,1.05081 -0.22565,2.07113 0.51937,3.07274c0.74502,1.0016 0.48507,0.5942 2.83068,1.43104c6.52173,2.32678 37.59761,13.41383 49.09797,17.51686c2.6762,0.95479 2.90152,0.50858 4.38759,-0.4686c1.48607,-0.97718 0.99868,-1.1415 1.87108,-3.64685c1.73573,-4.98465 11.78369,-35.24205 11.78369,-35.24205h3.59536v54.15721z" fill="url(#color-4)" stroke-width="0"/><path d="M247.76096,356.38301v-54.1572l13.62503,0.25c0,0 -5.21461,15.8187 -5.74036,17.08686c-0.43563,1.05081 -0.22565,2.07113 0.51937,3.07274c0.74502,1.0016 0.48507,0.5942 2.83068,1.43104c6.52173,2.32678 37.59761,13.41383 49.09797,17.51686c2.6762,0.95479 2.90152,0.50858 4.38759,-0.4686c1.48607,-0.97718 0.99868,-1.1415 1.87108,-3.64685c1.73573,-4.98465 11.78369,-35.24205 11.78369,-35.24205h6.59536v54.15721z" fill="url(#color-5)" stroke-width="0"/><path d="M330.70543,356.32745v-54.1572l11.2917,0.25c0,0 -5.21461,15.8187 -5.74036,17.08686c-0.43563,1.05081 -0.22565,2.07113 0.51937,3.07274c0.74502,1.0016 0.48507,0.5942 2.83068,1.43104c6.52173,2.32678 37.59761,13.41383 49.09797,17.51686c2.6762,0.95479 2.90152,0.50858 4.38759,-0.4686c1.48607,-0.97718 0.99868,-1.1415 1.87108,-3.64685c1.73573,-4.98465 11.78369,-35.24205 11.78369,-35.24205h3.59536v54.15721z" fill="url(#color-6)" stroke-width="0"/><path d="M409.29251,356.40039c0,0 0,-1.6248 0,-3.45163c0,-7.03696 0,-51.21504 0,-51.21504c0,0 47.13315,0 58.64399,0c3.37365,0 3.06308,-0.47223 4.8342,1.36752c1.77112,1.83974 1.70941,2.13841 1.70941,5.42965c0,6.35781 0,28.82407 0,40.57872c0,4.39366 -0.45139,3.84645 -2.5641,5.75232c-2.11271,1.90586 -1.46394,1.53846 -5.51797,1.53846c-12.32003,0 -57.10553,0 -57.10553,0z" fill="url(#color-7)" stroke-width="0"/><text transform="translate(16.99999,350.46052) scale(0.275,0.275)" font-size="40" xml:space="preserve" fill="#696969" fill-rule="nonzero" stroke="none" stroke-width="1" stroke-linecap="butt" stroke-linejoin="miter" stroke-miterlimit="10" stroke-dasharray="" stroke-dashoffset="0" font-family="Sans Serif" font-weight="normal" text-anchor="start" style="mix-blend-mode: normal"><tspan x="0" dy="0">滚轮翻页</tspan></text></g></g></svg>