<svg version="1.1" xmlns="http://www.w3.org/2000/svg" xmlns:xlink="http://www.w3.org/1999/xlink" width="61.94611" height="76.97199" viewBox="0,0,61.94611,76.97199"><defs><radialGradient cx="238.66205" cy="173.93176" r="11.92535" gradientUnits="userSpaceOnUse" id="color-1"><stop offset="0" stop-color="#ffd587"/><stop offset="1" stop-color="#d98b4f"/></radialGradient></defs><g transform="translate(-209.02702,-141.51406)"><g data-paper-data="{&quot;isPaintingLayer&quot;:true}" fill-rule="nonzero" stroke-linejoin="miter" stroke-miterlimit="10" stroke-dasharray="" stroke-dashoffset="0" style="mix-blend-mode: normal"><path d="M270.22312,149.0274v61.9466c0,3.72889 -3.03179,6.76205 -6.76332,6.76205h-46.92073c-3.7276,0 -6.76204,-3.03313 -6.76204,-6.76205v-61.94789c0,-3.72889 3.03445,-6.76205 6.76205,-6.76205h46.92074c3.73154,0 6.76332,3.03447 6.76332,6.76334z" fill="#ff6666" stroke="#d25454" stroke-width="1.5" stroke-linecap="butt"/><text transform="translate(223.20885,207.92461) scale(0.27778,0.27778)" font-size="40" xml:space="preserve" fill="#933b3b" fill-rule="nonzero" stroke="none" stroke-width="1" stroke-linecap="butt" stroke-linejoin="miter" stroke-miterlimit="10" stroke-dasharray="" stroke-dashoffset="0" font-family="Sans Serif" font-weight="normal" text-anchor="start" style="mix-blend-mode: normal"><tspan x="0" dy="0">炸药卡</tspan></text><g><path d="M232.57029,158.65495c0,0 2.82469,1.70864 3.58963,2.8145c0.89979,1.30084 1.47052,4.50098 1.47052,4.50098" fill="none" stroke="#a86941" stroke-width="1.5" stroke-linecap="round"/><path d="M247.54937,163.27814c0,0 1.44015,4.4396 2.28068,7.03068c1.03904,3.20306 3.48522,10.74397 3.48522,10.74397c0.43932,1.3543 -0.30445,2.81308 -1.6597,3.25272l-17.0411,5.52795c-1.35382,0.43917 -2.81325,-0.30494 -3.25258,-1.65923l-5.76604,-17.77512c-0.43932,-1.3543 0.30542,-2.81339 1.65925,-3.25258l17.0411,-5.52795c1.35525,-0.43963 2.81387,0.30528 3.25318,1.65956z" fill="url(#color-1)" stroke="#ffc89d" stroke-width="0" stroke-linecap="butt"/><path d="M248.4069,168.34877l-21.3884,6.93815" fill="none" stroke="#a86941" stroke-width="1.5" stroke-linecap="round"/><path d="M251.14164,175.81416l-21.5189,6.98049" fill="none" stroke="#a86941" stroke-width="1.5" stroke-linecap="round"/><path d="M239.4395,163.58598l7.12864,21.97561" fill="none" stroke="#a86941" stroke-width="1.5" stroke-linecap="round"/><path d="M239.26048,187.54716l-7.14979,-22.04086" fill="none" stroke="#a86941" stroke-width="1.5" stroke-linecap="round"/><path d="M247.32854,162.79729c0,0 1.45754,4.49317 2.3082,7.11553c1.05157,3.24173 3.52728,10.87364 3.52728,10.87364c0.44463,1.37065 -0.30811,2.84703 -1.67973,3.29199l-17.24679,5.59467c-1.37016,0.44448 -2.8472,-0.30862 -3.29183,-1.67926l-5.83564,-17.98966c-0.44463,-1.37065 0.30909,-2.84736 1.67926,-3.29183l17.24679,-5.59467c1.3716,-0.44494 2.84783,0.30895 3.29245,1.67959z" fill="none" stroke="#ffd19e" stroke-width="1" stroke-linecap="butt"/></g></g></g></svg>