<svg version="1.1" xmlns="http://www.w3.org/2000/svg" xmlns:xlink="http://www.w3.org/1999/xlink" width="51.56553" height="109.40042" viewBox="0,0,51.56553,109.40042"><defs><linearGradient x1="225.5567" y1="140.01544" x2="225.5567" y2="148.98593" gradientUnits="userSpaceOnUse" id="color-1"><stop offset="0" stop-color="#0a0a0a" stop-opacity="0"/><stop offset="1" stop-color="#0a0a0a"/></linearGradient><linearGradient x1="233.25525" y1="138.73733" x2="233.25525" y2="148.50522" gradientUnits="userSpaceOnUse" id="color-2"><stop offset="0" stop-color="#0a0a0a" stop-opacity="0"/><stop offset="1" stop-color="#0a0a0a"/></linearGradient><linearGradient x1="240.81676" y1="139.65201" x2="240.81676" y2="148.62252" gradientUnits="userSpaceOnUse" id="color-3"><stop offset="0" stop-color="#0a0a0a" stop-opacity="0"/><stop offset="1" stop-color="#0a0a0a"/></linearGradient><linearGradient x1="249.293" y1="139.15897" x2="249.293" y2="148.12946" gradientUnits="userSpaceOnUse" id="color-4"><stop offset="0" stop-color="#0a0a0a" stop-opacity="0"/><stop offset="1" stop-color="#0a0a0a"/></linearGradient><linearGradient x1="258.20288" y1="139.28245" x2="258.20288" y2="149.24967" gradientUnits="userSpaceOnUse" id="color-5"><stop offset="0" stop-color="#0a0a0a" stop-opacity="0"/><stop offset="1" stop-color="#0a0a0a"/></linearGradient></defs><g transform="translate(-215.07371,-128.03324)"><g data-paper-data="{&quot;isPaintingLayer&quot;:true}" fill-rule="nonzero" stroke-linejoin="miter" stroke-miterlimit="10" stroke-dasharray="" stroke-dashoffset="0" style="mix-blend-mode: normal"><g><path d="M262.30524,160.60975c-0.02664,0.18975 1.97947,-0.25671 2.74136,0.59243c1.19971,1.33713 0.86245,2.50091 0.53502,3.34844c-0.04439,0.1149 -0.09027,0.09359 -0.13755,0.20198c-1.82423,4.18266 -5.71901,3.58939 -5.932,3.98757c-0.78518,1.46782 -0.25898,3.61142 -3.77604,6.43036c-3.61447,2.89702 -5.49404,3.44973 -8.37507,3.85381c-0.30552,0.04287 -0.53834,5.07393 -1.19001,6.11103c-1.15055,1.83103 -8.3662,0.38378 -8.90899,0.38378c-1.38573,0 1.37263,-6.1503 -0.21028,-6.51286c-2.20145,-0.50422 -4.59831,-0.44756 -8.3467,-3.85676c-3.13224,-2.84879 -4.06285,-5.91851 -4.86868,-7.16291c-0.08358,-0.12906 -2.96869,-0.12863 -3.98533,-0.73261c-2.25681,-1.34076 -3.08555,-4.60294 -1.77878,-6.24737c1.69883,-2.13777 3.58741,0.12724 3.46996,-1.088c-0.14774,-1.52872 -1.72383,-2.98571 -1.72383,-4.67612c0,-13.64177 7.79635,-24.17174 21.93875,-24.17174c14.14242,0 21.93607,10.97155 21.93607,24.61334c0,0 -1.25418,3.97273 -1.38794,4.92562z" fill="#ffce91" stroke="#000000" stroke-width="1.5" stroke-linecap="butt"/><path d="M245.64156,172.20708c0,0 -2.22124,1.10115 -3.30346,1.10115c-1.17382,0 -3.48699,-1.10115 -3.48699,-1.10115" fill="none" stroke="#000000" stroke-width="1.5" stroke-linecap="round"/><path d="M243.43622,153.44132c-2.14109,0.17345 -7.14702,1.1296 -7.14702,1.1296c0,0 -2.34982,0.12685 -3.74726,-0.37037c-1.12193,-0.3992 -2.39893,-1.08082 -4.22646,-0.98535c-2.73549,0.14289 -5.00921,1.07267 -6.7764,2.0337c-4.41838,2.40275 -4.37016,-7.90291 -0.424,-14.53927c2.28834,-3.25025 8.77611,-12.17281 19.88717,-11.92117c11.11104,0.25163 16.66504,3.31291 21.78443,11.45587c4.68773,7.45635 1.47795,15.05825 1.00357,15.24248c-2.1071,0.81833 -3.87005,-0.7996 -5.68723,-0.26848c0,0 -5.24572,-0.94485 -7.21,-1.17044c-2.1464,-0.24648 -3.55473,0.09686 -3.55473,0.09686c0,0 -2.29679,-0.83348 -3.90207,-0.70344z" fill="#1f1f1f" stroke="#000000" stroke-width="1.5" stroke-linecap="butt"/><path d="M229.56605,158.8433c0,0 1.59553,-0.7361 2.67855,-0.94741c0.96892,-0.18905 3.35789,0.36915 3.35789,0.36915" data-paper-data="{&quot;index&quot;:null}" fill="none" stroke="#000000" stroke-width="1.5" stroke-linecap="round"/><path d="M247.56117,158.95725c0,0 2.09352,-1.05726 3.20215,-1.01292c0.99182,0.03967 3.13827,1.26647 3.13827,1.26647" fill="none" stroke="#000000" stroke-width="1.5" stroke-linecap="round"/><path d="M228.52704,140.92673c-0.53458,1.27756 -1.52778,2.079 -2.21835,1.79003c-0.69057,-0.28895 -0.81703,-1.55889 -0.28245,-2.83644c0.53458,-1.27756 1.52777,-2.07899 2.21834,-1.79004c0.69057,0.28897 0.81704,1.55889 0.28246,2.83647z" fill="#393939" stroke="#000000" stroke-width="0" stroke-linecap="butt"/><path d="M231.9802,137.58743c-0.27551,0.71564 -0.94712,1.12317 -1.5001,0.9103c-0.55298,-0.21289 -0.77792,-0.96558 -0.50242,-1.68121c0.27551,-0.71564 0.94711,-1.12316 1.50009,-0.91029c0.55298,0.21289 0.77792,0.96558 0.50243,1.68121z" fill="#393939" stroke="none" stroke-width="0" stroke-linecap="butt"/><path d="M262.4146,164.10912c0,0 -0.18243,0.86038 -0.51099,1.20585c-0.24763,0.2604 -1.28715,0.68495 -1.28715,0.68495" fill="none" stroke="#d5ac79" stroke-width="1" stroke-linecap="round"/><path d="M221.70516,165.26612c0,0 -1.03953,-0.42455 -1.28715,-0.68495c-0.32855,-0.34547 -0.51099,-1.20585 -0.51099,-1.20585" data-paper-data="{&quot;index&quot;:null}" fill="none" stroke="#d5ac79" stroke-width="1" stroke-linecap="round"/><path d="M223.56324,154.32441c0,0 0.02723,-3.25407 0.94026,-4.90458c0.79947,-1.4452 3.04663,-4.06593 3.04663,-4.06593" fill="none" stroke="url(#color-1)" stroke-width="1.5" stroke-linecap="round"/><path d="M234.85001,144.07576c0,0 -0.6524,4.01614 -1.45186,5.46134c-0.91303,1.65051 -1.73763,4.30654 -1.73763,4.30654" fill="none" stroke="url(#color-2)" stroke-width="1.5" stroke-linecap="round"/><path d="M239.35905,153.96096c0,0 -0.37146,-2.05799 0.54159,-3.7085c0.79948,-1.44521 2.44858,-5.26201 2.44858,-5.26201" fill="none" stroke="url(#color-3)" stroke-width="1.5" stroke-linecap="round"/><path d="M247.29955,153.4679c0,0 0.42592,-2.45666 1.33897,-4.10717c0.79948,-1.4452 2.64793,-4.86332 2.64793,-4.86332" fill="none" stroke="url(#color-4)" stroke-width="1.5" stroke-linecap="round"/><path d="M259.20899,144.62088c0,0 0.54367,4.01614 -0.2558,5.46134c-0.91304,1.65051 -1.93698,4.50589 -1.93698,4.50589" fill="none" stroke="url(#color-5)" stroke-width="1.5" stroke-linecap="round"/><path d="M233.05522,166.98754v-4.00491" fill="none" stroke="#000000" stroke-width="1.5" stroke-linecap="round"/><path d="M249.78909,163.27713v4.00491" fill="none" stroke="#000000" stroke-width="1.5" stroke-linecap="round"/><path d="M244.06104,230.06154c0,0 -0.40743,-5.31938 -0.40743,-9.08824c0,-0.81872 0.1993,-1.43831 -0.88009,-2.4603c-0.75187,-0.71189 -2.07835,-1.04433 -2.11102,-1.78245c-0.16096,-3.6352 -0.26835,-7.22807 -0.26835,-7.22807l13.44526,0.54326c0,0 -0.90918,9.37137 -1.14165,12.17901c-0.32466,3.921 -0.21643,7.70098 -0.21643,7.70098z" fill="#1c1c1c" stroke="#000000" stroke-width="1.5" stroke-linecap="butt"/><path d="M229.17353,229.84161c0,0 -0.27162,-3.68965 0,-9.08824c0.21094,-4.19239 -0.81488,-11.60659 -0.81488,-11.60659c0,0 10.13242,1.12157 13.7177,2.35008c1.25325,0.42944 -1.46729,5.41857 -1.46729,5.41857c0,0 -2.56636,2.01014 -2.79884,4.81779c-0.32466,3.921 -0.48806,7.97259 -0.48806,7.97259z" fill="#1c1c1c" stroke="#000000" stroke-width="1.5" stroke-linecap="butt"/><path d="M228.84567,235.67147c0,-1.936 0.31497,-5.27713 0.31497,-5.27713l8.00285,-0.15749c0,0 0.94824,4.89178 0.16108,5.60713c-1.60985,1.46301 -8.4789,0.75654 -8.4789,-0.17251z" data-paper-data="{&quot;index&quot;:null}" fill="#ffffff" stroke="#000000" stroke-width="1.5" stroke-linecap="butt"/><path d="M244.27723,229.8401l8.00285,-0.15749c0,0 0.94825,4.89178 0.16109,5.60712c-1.60985,1.46301 -8.4789,0.75653 -8.4789,-0.17253z" data-paper-data="{&quot;index&quot;:null}" fill="#ffffff" stroke="#000000" stroke-width="1.5" stroke-linecap="butt"/><path d="M225.31425,199.58952c-0.55429,0.52528 -1.02076,0.8073 -1.34554,0.73311c-4.01346,-0.91684 -6.42265,-4.13757 -6.32847,-4.78616c0.06048,-0.41657 5.96895,-9.10061 6.23381,-9.88183c1.20002,-3.53929 10.01819,-5.62189 10.01819,-5.62189c0,0 4.8803,2.93635 7.57624,2.93635c3.08062,0 8.7681,-2.79388 8.7681,-2.79388c0,0 3.19107,1.41598 6.29741,4.60066c5.41046,5.54695 6.92094,8.07907 7.45435,9.99194c1.34226,2.63186 -6.63612,4.63297 -8.47152,5.18256c-0.44797,0.13414 -3.00885,-5.62703 -2.95609,-5.15347c0.95224,8.55005 1.6878,16.38004 1.6878,16.38004c0,0 -0.53291,2.12665 -4.81949,2.66207c-3.66103,0.45728 -8.36182,0.50515 -12.88162,0.36212c-2.91485,-0.09224 -6.09715,-0.37408 -7.36981,-1.35205c-0.72588,-0.55781 -1.66423,-2.61217 -1.66423,-2.61217c0,0 -1.38112,-6.42734 1.58539,-14.76144c1.52516,-4.28478 -0.88073,1.36224 -3.7845,4.11399z" fill="#dedede" stroke="#000000" stroke-width="1.5" stroke-linecap="butt"/><path d="M263.49434,195.41201l0.92373,4.07468c0,0 1.03701,1.30857 0.97357,2.61265c-0.06346,1.30408 -0.42424,2.06401 -1.25173,3.1025c-0.82747,1.03853 -1.53682,1.68757 -2.78166,1.95949c-1.2448,0.27192 -3.19889,-0.65319 -3.19889,-0.65319l-1.11265,-2.12275l0.97357,-1.14306l-1.52988,-3.91898z" data-paper-data="{&quot;index&quot;:null}" fill="#fed497" stroke="#000000" stroke-width="1.5" stroke-linecap="round"/><path d="M223.47321,200.28049c0,0 -0.01403,0.76585 -0.20874,1.26466c-0.28211,0.72263 -1.32112,2.65434 -1.32112,2.65434l0.97355,1.14302l-1.11265,2.12278c0,0 -1.95408,0.92507 -3.19889,0.65315c-1.24483,-0.27192 -1.95416,-0.92097 -2.78165,-1.95949c-0.82749,-1.03853 -1.18829,-1.79844 -1.25176,-3.10252c-0.06348,-1.30408 0.97356,-2.61266 0.97356,-2.61266l2.27694,-4.26798z" data-paper-data="{&quot;index&quot;:null}" fill="#fed497" stroke="#000000" stroke-width="1.5" stroke-linecap="round"/><text transform="translate(234.66293,199.26468) scale(0.15708,0.15708)" font-size="40" xml:space="preserve" fill="#000000" fill-rule="nonzero" stroke="none" stroke-width="1" stroke-linecap="butt" stroke-linejoin="miter" stroke-miterlimit="10" stroke-dasharray="" stroke-dashoffset="0" font-family="Pixel" font-weight="normal" text-anchor="start" style="mix-blend-mode: normal"><tspan x="0" dy="0">Rich</tspan></text></g></g></g></svg>