<svg version="1.1" xmlns="http://www.w3.org/2000/svg" xmlns:xlink="http://www.w3.org/1999/xlink" width="90.41875" height="125.10378" viewBox="0,0,90.41875,125.10378"><defs><linearGradient x1="88.99997" y1="109.91671" x2="88.99997" y2="204.25005" gradientUnits="userSpaceOnUse" id="color-1"><stop offset="0" stop-color="#ffcccc" stop-opacity="0"/><stop offset="1" stop-color="#ffcccc"/></linearGradient></defs><g transform="translate(-44.14872,-88.36652)"><g data-paper-data="{&quot;isPaintingLayer&quot;:true}" fill-rule="nonzero" stroke-linecap="butt" stroke-linejoin="miter" stroke-miterlimit="10" stroke-dasharray="" stroke-dashoffset="0" style="mix-blend-mode: normal"><path d="M47.8333,204.25005v-94.33333h82.33334v94.33333z" fill="url(#color-1)" stroke="none" stroke-width="0"/><path d="M47.02831,193.61654c0,0 28.69979,6.19049 42.20371,6.19049c14.69469,0 42.69436,-6.19049 42.69436,-6.19049c1.31855,0 2.39109,1.07207 2.39109,2.39155v14.82112c0,1.31809 -1.07253,2.39109 -2.39109,2.39109h-84.89853c-1.31855,0 -2.39109,-1.073 -2.39109,-2.39109v-14.82112c0,-1.31948 1.073,-2.39155 2.39155,-2.39155z" fill="#ff6262" stroke="#442903" stroke-width="0.5"/><path d="M46.79027,98.61653c0,0 30.05353,-10 43.87034,-10c14.45383,0 41.02773,10 41.02773,10c1.31855,0 2.39109,1.07207 2.39109,2.39155v14.82113c0,1.31809 -1.07253,2.39109 -2.39109,2.39109c0,0 -28.70311,-4.28571 -42.93249,-4.28571c-14.0683,0 -41.96604,4.28571 -41.96604,4.28571c-1.31855,0 -2.39109,-1.073 -2.39109,-2.39109v-14.82113c0,-1.31948 1.073,-2.39155 2.39155,-2.39155z" fill="#ff6262" stroke="#442903" stroke-width="0.5"/></g></g></svg>