<svg version="1.1" xmlns="http://www.w3.org/2000/svg" xmlns:xlink="http://www.w3.org/1999/xlink" width="42.95129" height="44.47342" viewBox="0,0,42.95129,44.47342"><g transform="translate(-219.55612,-124.67914)"><g data-paper-data="{&quot;isPaintingLayer&quot;:true}" fill-rule="nonzero" stroke="none" stroke-linecap="butt" stroke-linejoin="miter" stroke-miterlimit="10" stroke-dasharray="" stroke-dashoffset="0" style="mix-blend-mode: normal"><g data-paper-data="{&quot;index&quot;:null}"><path d="M258.91369,131.16148c-0.94466,2.0536 -4.5107,1.52941 -5.64731,2.0536c-0.40764,9.95569 -1.33948,17.04511 -2.0536,27.20978c0.68486,0.8553 2.9089,0.17147 3.59377,1.02678c0,1.19776 0,2.39601 0,3.59377c-4.16311,-1.28297 -8.76569,-1.33997 -12.83484,-1.54016c-0.56678,-4.20263 1.90473,-3.62302 4.10715,-4.10715c1.05194,-8.70252 3.24,-16.26942 2.56699,-26.6964c-2.14499,0.26231 -3.47825,-0.2865 -4.62054,-1.02683c0.53544,-1.45439 0.53544,-2.13926 0,-3.59371c3.77086,-1.01449 13.70449,-1.64749 14.88839,3.08032z" fill="#ff9400" stroke-width="0.94041"/><path d="M259.42708,126.541c2.01964,-0.30856 -0.13042,3.55314 2.05355,3.08032c0.34246,0 0.68437,0 1.02678,0c0,0.51339 0,1.02678 0,1.54016c-1.24444,1.81175 -0.68486,2.96999 -1.02678,6.16075c-2.11415,0.403 -2.63474,-0.7881 -4.62054,-0.51344c-0.87223,7.86725 -0.23715,14.86786 -1.54016,21.56253c0.40044,1.82459 2.39906,2.05044 3.59377,3.08032c-0.16072,2.74818 -0.34295,5.47535 -1.02683,7.70092c-2.22454,0 -4.44956,0 -6.67409,0c-1.16948,-1.71011 -7.02009,-0.9991 -8.21424,-1.02683c-1.2024,-0.16683 -0.49854,-2.23938 -1.54021,-2.56694c-0.3424,0 -0.68431,0 -1.02677,0c0,-2.22453 0,-4.44956 0,-6.67409c1.23008,-0.31008 2.34212,-0.73826 4.10715,-0.51339c0.57857,-7.46426 2.91966,-13.16698 3.08032,-21.04908c-1.40412,-1.28194 -2.18959,-0.20794 -3.59371,-1.02683c0.10012,-3.13426 -2.87604,-7.23726 -1.02678,-10.78124c1.71108,0 3.42279,0 5.13392,0c3.23897,0.86818 7.14795,1.06636 11.29462,1.02683zM244.02531,128.08116c0.53544,1.45445 0.53544,2.13931 0,3.59371c1.14229,0.74033 2.47555,1.28914 4.62054,1.02683c0.67302,10.42699 -1.51505,17.99388 -2.56699,26.6964c-2.20243,0.48413 -4.67393,-0.09548 -4.10715,4.10715c4.06915,0.20019 8.67172,0.25719 12.83484,1.54016c0,-1.19776 0,-2.39601 0,-3.59377c-0.68486,-0.8553 -2.90891,-0.17147 -3.59377,-1.02678c0.71412,-10.16467 1.64596,-17.25409 2.0536,-27.20978c1.13661,-0.52419 4.70264,0 5.64731,-2.0536c-1.18389,-4.72781 -11.11752,-4.09481 -14.88839,-3.08032z" fill="#4bbb9f" stroke-width="0.94041"/><path d="M258.92714,131.13772c-0.94467,2.05361 -4.53002,1.57982 -5.66663,2.10401c-0.40765,9.95569 -1.33205,17.04571 -2.04617,27.21038c0.68486,0.8553 2.89977,0.118 3.58463,0.9733c0,1.19776 0.01379,2.44881 0.01379,3.64657c-4.16311,-1.28297 -8.78385,-1.34202 -12.85301,-1.5422c-0.56678,-4.20263 1.92518,-3.6735 4.1276,-4.15763c1.05194,-8.70252 3.23503,-16.2164 2.56202,-26.64339c-2.14498,0.26231 -3.47079,-0.28858 -4.61309,-1.0289c0.53544,-1.45439 0.51541,-2.19 -0.02003,-3.64445c3.77086,-1.01449 13.727,-1.64549 14.91089,3.08232z" data-paper-data="{&quot;noHover&quot;:false,&quot;origItem&quot;:[&quot;Path&quot;,{&quot;applyMatrix&quot;:true,&quot;segments&quot;:[[[431.64114,246.70432],[2.83561,-11.32386],[2.26263,4.91871]],[[445.16735,251.62303],[-2.72237,-1.25553],[0.97637,23.84546]],[[450.08606,316.79479],[-1.71044,-24.346],[-1.64035,2.04858]],[[441.47842,319.25408],[1.64035,-2.04858],[0,2.86882]],[[441.47842,327.86172],[0,-2.86882],[9.97131,-3.07293]],[[472.2199,324.17279],[-9.74627,0.47949],[1.35752,-10.06597]],[[462.38262,314.33551],[5.27515,1.15956],[-2.51957,-20.84392]],[[456.23427,250.39338],[-1.61198,24.97429],[5.13759,0.62829]],[[467.3012,247.93396],[-2.73597,1.7732],[-1.28247,-3.48351]],[[467.3012,239.32646],[-1.28247,3.48364],[-9.03181,-2.42987]]],&quot;closed&quot;:true,&quot;fillColor&quot;:[0,0,0,1]}]}" fill="#66ffda" stroke-width="0.5"/></g><g><path d="M238.0382,127.24614c-0.53544,1.45445 -0.53544,2.13931 0,3.59371c-1.1423,0.74033 -2.47555,1.28914 -4.62054,1.02683c-0.67302,10.42699 1.51505,17.99388 2.56699,26.6964c2.20243,0.48413 4.67393,-0.09548 4.10715,4.10715c-4.06916,0.20019 -8.67173,0.25719 -12.83484,1.54016c0,-1.19776 0,-2.39601 0,-3.59377c0.68486,-0.8553 2.9089,-0.17147 3.59377,-1.02677c-0.71412,-10.16467 -1.64596,-17.25409 -2.0536,-27.20978c-1.13662,-0.5242 -4.70264,0 -5.64732,-2.0536c1.18389,-4.72781 11.11752,-4.09481 14.88839,-3.08032z" fill="#ff9400" stroke-width="0.94041"/><path d="M233.93105,124.67914c1.71114,0 3.42284,0 5.13392,0c1.84926,3.54397 -1.1269,7.64697 -1.02677,10.78124c-1.40412,0.81889 -2.18959,-0.25511 -3.59371,1.02683c0.16067,7.88211 2.50175,13.58483 3.08032,21.04909c1.76503,-0.22487 2.87708,0.2033 4.10715,0.51339c0,2.22453 0,4.44956 0,6.67409c-0.34246,0 -0.68437,0 -1.02677,0c-1.04168,0.32755 -0.33781,2.4001 -1.54021,2.56694c-1.19415,0.02773 -7.04477,-0.68328 -8.21424,1.02683c-2.22453,0 -4.44956,0 -6.67409,0c-0.68388,-2.22557 -0.86611,-4.95273 -1.02683,-7.70092c1.1947,-1.02989 3.19332,-1.25573 3.59377,-3.08032c-1.30301,-6.69467 -0.66794,-13.69527 -1.54016,-21.56252c-1.9858,-0.27465 -2.50639,0.91644 -4.62054,0.51344c-0.34191,-3.19076 0.21766,-4.349 -1.02677,-6.16075c0,-0.51339 0,-1.02677 0,-1.54016c0.34241,0 0.68431,0 1.02677,0c2.18397,0.47283 0.0339,-3.38888 2.05355,-3.08032c4.14667,0.03952 8.05566,-0.15864 11.29462,-1.02683zM223.14982,130.32646c0.94466,2.0536 4.5107,1.52941 5.64732,2.0536c0.40764,9.95569 1.33948,17.04511 2.0536,27.20978c-0.68486,0.8553 -2.9089,0.17147 -3.59377,1.02677c0,1.19776 0,2.39601 0,3.59377c4.16311,-1.28298 8.76569,-1.33997 12.83484,-1.54016c0.56678,-4.20263 -1.90473,-3.62302 -4.10715,-4.10715c-1.05194,-8.70252 -3.24,-16.26942 -2.56699,-26.6964c2.14499,0.26231 3.47825,-0.2865 4.62054,-1.02683c-0.53544,-1.4544 -0.53544,-2.13926 0,-3.59371c-3.77086,-1.01449 -13.7045,-1.64749 -14.88839,3.08032z" fill="#4bbb9f" stroke-width="0.94041"/><path d="M238.04726,127.22039c-0.53544,1.45445 -0.55547,2.19006 -0.02003,3.64445c-1.1423,0.74033 -2.46809,1.29122 -4.61309,1.0289c-0.67302,10.42699 1.51007,17.94087 2.56201,26.64339c2.20243,0.48413 4.69439,-0.04501 4.12761,4.15763c-4.06916,0.20019 -8.6899,0.25922 -12.85301,1.5422c0,-1.19776 0.01379,-2.44881 0.01379,-3.64656c0.68486,-0.8553 2.89977,-0.118 3.58463,-0.9733c-0.71412,-10.16467 -1.63853,-17.25469 -2.04617,-27.21038c-1.13662,-0.5242 -4.72197,-0.05041 -5.66663,-2.10402c1.18389,-4.72781 11.14003,-4.0968 14.91089,-3.08232z" data-paper-data="{&quot;noHover&quot;:false,&quot;origItem&quot;:[&quot;Path&quot;,{&quot;applyMatrix&quot;:true,&quot;segments&quot;:[[[219.82057,126.85216],[1.4178,-5.66193],[1.13131,2.45935]],[[226.58368,129.31151],[-1.36119,-0.62777],[0.48818,11.92273]],[[229.04303,161.8974],[-0.85522,-12.173],[-0.82018,1.02429]],[[224.73921,163.12704],[0.82018,-1.02429],[0,1.43441]],[[224.73921,167.43086],[0,-1.43441],[4.98565,-1.53647]],[[240.10995,165.58639],[-4.87314,0.23974],[0.67876,-5.03299]],[[235.19131,160.66775],[2.63758,0.57978],[-1.25978,-10.42196]],[[232.11714,128.69669],[-0.80599,12.48715],[2.5688,0.31414]],[[237.6506,127.46698],[-1.36799,0.8866],[-0.64123,-1.74176]],[[237.6506,123.16323],[-0.64123,1.74182],[-4.51591,-1.21493]]],&quot;closed&quot;:true,&quot;fillColor&quot;:[0,0,0,1]}]}" fill="#66ffda" stroke-width="0.5"/></g></g></g></svg>