<svg version="1.1" xmlns="http://www.w3.org/2000/svg" xmlns:xlink="http://www.w3.org/1999/xlink" width="59.13172" height="67.86543" viewBox="0,0,59.13172,67.86543"><defs><clipPath id="clip-1"><path d="M184.59089,162.1082v9.23486c0,-1.57493 -0.35795,-2.72035 -1.14541,-3.29305c-0.85906,-0.6443 -2.43399,-1.00223 -4.51004,-1.00223c-2.07605,0 -3.65098,0.35795 -4.51004,1.00223c-0.78746,0.57271 -1.14541,1.64653 -1.14541,3.29305v-9.23486c0,-1.57493 0.35795,-2.72035 1.14541,-3.29305c0.85906,-0.6443 2.43399,-1.00223 4.51004,-1.00223c2.07605,0 3.65098,0.35795 4.51004,1.00223c0.71588,0.57271 1.14541,1.71812 1.14541,3.29305z" fill="none"/></clipPath><clipPath id="clip-2"><path d="M173.2084,166.61824v9.23486c0,1.07382 -0.35795,1.71812 -1.00223,2.07605c-0.35795,0.21476 -0.85906,0.28635 -1.57493,0.28635v-9.23486c0.71588,0 1.21699,-0.07159 1.57493,-0.28635c0.6443,-0.35795 1.00223,-1.00223 1.00223,-2.07605z" fill="none"/></clipPath><clipPath id="clip-3"><path d="M187.38282,168.98066v9.23486c-0.93065,0 -1.57493,-0.14317 -2.00447,-0.50111c-0.57271,-0.42952 -0.85906,-1.07382 -0.85906,-1.93288v-9.23486c0,0.85906 0.28635,1.57493 0.85906,1.93288c0.42952,0.28635 1.07382,0.50111 2.00447,0.50111z" fill="none"/></clipPath><clipPath id="clip-4"><path d="M205.35141,173.84863v9.23486c0,-1.78969 -0.35795,-3.14987 -0.93065,-3.93733c-0.50111,-0.6443 -1.57493,-1.00223 -3.07829,-1.00223v-9.23486c1.50334,0 2.57716,0.35795 3.07829,1.00223c0.57271,0.78746 0.93065,2.14764 0.93065,3.93733z" fill="none"/></clipPath><clipPath id="clip-5"><path d="M156.74317,168.98066v9.23486c-1.43176,0 -2.50559,0.35795 -3.07829,1.00223c-0.6443,0.71588 -0.93065,2.07605 -0.93065,3.93733v-9.23486c0,-1.86129 0.35795,-3.22146 1.00223,-3.93733c0.50111,-0.71588 1.57493,-1.00223 3.0067,-1.00223z" fill="none"/></clipPath><clipPath id="clip-6"><path d="M204.42077,178.7166c0,-0.28635 0,-0.6443 0,-0.93065c0,2.72035 0,5.44069 0,8.16104c0,-0.28635 0,-0.71588 0,-1.00223c0,-0.28635 0,-0.71588 0,-1.00223c0,-0.35795 0,-0.78746 0,-1.07382c0,-0.35795 0,-0.78746 0,-1.07382c0,-0.35795 0,-0.78746 0,-1.07382c0,-0.28635 0,-0.71588 0,-1.00223c0,-0.28635 0,-0.71588 0,-1.00223z" fill="none"/></clipPath><clipPath id="clip-7"><path d="M186.3806,188.381c-0.93065,0.28635 -1.50334,0.85906 -1.57493,1.64653c0,-3.07829 0,-6.15657 0,-9.23486c0.07159,-0.78746 0.6443,-1.36018 1.57493,-1.64653c0,0.35795 0,0.78746 0,1.07382c0,0.35795 0,0.78746 0,1.14541c0,0.35795 0,0.85906 0,1.21699c0,0.35795 0,0.85906 0,1.21699c0,0.35795 0,0.85906 0,1.21699c0,0.35795 0,0.85906 0,1.21699c0,0.35795 0,0.78746 0,1.14541c0,0.21476 0,0.6443 0,1.00223z" fill="none"/></clipPath><clipPath id="clip-8"><path d="M169.27106,188.02307v-9.23486c1.86129,0 2.50559,1.14541 2.50559,2.07605v1.07382v8.16104c0,-0.93065 -0.6443,-2.07605 -2.50559,-2.07605z" fill="none"/></clipPath><clipPath id="clip-9"><path d="M184.80566,189.95593c0,0.07159 0,0.21476 0,0.28635v-9.23486c0,-0.07159 0,-0.21476 0,-0.28635c0,1.57493 0,3.07829 0,4.65323c0,0.21476 0,0.42952 0,0.57271c0,0.35795 0,0.85906 0,1.21699c0,0.57271 0,1.14541 0,1.71812c0,0.35795 0.07159,0.78746 0,1.07382z" fill="none"/></clipPath><clipPath id="clip-10"><path d="M180.29561,198.40332c-0.50111,0 -1.43176,0.21476 -1.93288,1.57493c0,-0.35795 0,-0.78746 0,-1.07382c0,-0.35795 0,-0.78746 0,-1.14541c0,-0.35795 0,-0.85906 0,-1.21699c0,-0.35795 0,-0.85906 0,-1.21699c0,-0.35795 0,-0.85906 0,-1.21699c0,-0.35795 0,-0.85906 0,-1.21699c0,-0.35795 0,-0.78746 0,-1.14541c0,-0.35795 0,-0.78746 0,-1.07382c0.50111,-1.36018 1.43176,-1.57493 1.93288,-1.57493c0.42952,0 0.93065,0.14317 1.43176,0.35795c0,0.35795 0,0.78746 0,1.07382c0,0.35795 0,0.78746 0,1.14541c0,0.35795 0,0.85906 0,1.21699c0,0.35795 0,0.85906 0,1.21699c0,0.35795 0,0.85906 0,1.21699c0,0.35795 0,0.85906 0,1.21699c0,0.35795 0,0.78746 0,1.14541c0,0.35795 0,0.78746 0,1.07382c-0.50111,-0.21476 -1.00223,-0.35795 -1.43176,-0.35795z" fill="none"/></clipPath><clipPath id="clip-11"><path d="M183.08754,200.9089c0,-0.93065 -0.50111,-1.71812 -1.28858,-2.14764c0,-0.35795 0,-0.78746 0,-1.07382c0,-0.35795 0,-0.78746 0,-1.14541c0,-0.35795 0,-0.85906 0,-1.21699c0,-0.35795 0,-0.85906 0,-1.21699c0,-0.35795 0,-0.85906 0,-1.21699c0,-0.35795 0,-0.85906 0,-1.21699c0,-0.35795 0,-0.78746 0,-1.14541c0,-0.35795 0,-0.78746 0,-1.07382c0.78746,0.42952 1.28858,1.14541 1.28858,2.14764v4.65323c0,1.43176 0,3.29305 0,4.65323z" fill="none"/></clipPath><clipPath id="clip-12"><path d="M172.70728,208.28247c0,-0.35793 0,-0.71588 0,-1.00223c0,-0.28635 0,-0.71588 0,-1.00223c0,-0.35794 0,-0.78747 0,-1.07382c0,-0.35794 0,-0.78747 0,-1.07382c0,-0.35794 0,-0.78747 0,-1.07382c0,-0.28635 0,-0.71588 0,-1.00223c0,-0.28635 0,-0.71588 0,-1.00223c0,-0.28635 0,-0.6443 0,-0.93065c0,0.14317 0,0.28635 0,0.42952c0,2.57716 0,5.15434 0,7.7315z" fill="none"/></clipPath><clipPath id="clip-13"><path d="M203.56172,218.16161c0,-0.35795 0,-0.78746 0,-1.07382c0,-0.35795 0,-0.78746 0,-1.14541c0,-0.35795 0,-0.85906 0,-1.21699c0,-0.35795 0,-0.85906 0,-1.21699c0,-0.35795 0,-0.85906 0,-1.21699c0,-0.35795 0,-0.85906 0,-1.21699c0,-0.35795 0,-0.78746 0,-1.14541c0,-0.35795 0,-0.78746 0,-1.07382c0,0.35795 0,0.78746 0,1.07382c0,0.35795 0,0.78746 0,1.14541c0,0.35795 0,0.85906 0,1.21699c0,0.35795 0,0.85906 0,1.21699c0,0.35795 0,0.85906 0,1.21699c0,0.35795 0,0.85906 0,1.21699c0,0.35795 0,0.78746 0,1.14541c0,0.28635 0.07159,0.71588 0,1.07382z" fill="none"/></clipPath><linearGradient x1="178.5775" y1="157.88451" x2="178.5775" y2="211.14596" gradientUnits="userSpaceOnUse" id="color-1"><stop offset="0" stop-color="#f6ff7a"/><stop offset="1" stop-color="#ffb4be"/></linearGradient></defs><g transform="translate(-148.94004,-155.09259)"><g data-paper-data="{&quot;isPaintingLayer&quot;:true}" fill-rule="nonzero" stroke="none" stroke-width="1" stroke-linecap="butt" stroke-linejoin="miter" stroke-miterlimit="10" stroke-dasharray="" stroke-dashoffset="0" style="mix-blend-mode: normal"><path d="M187.12346,190.63974v-9.23486h13.98273v9.23486z" data-paper-data="{&quot;index&quot;:null}" fill="#ff6262"/><path d="M200.83735,181.37203c2.29081,0 4.08052,-0.6443 5.22592,-1.93288c1.07382,-1.21699 1.64653,-3.07829 1.64653,-5.72704v9.23486c0,2.57716 -0.50111,4.51004 -1.64653,5.72704c-1.14541,1.28858 -2.93511,1.93288 -5.22592,1.93288v-9.23486" data-paper-data="{&quot;index&quot;:null}" fill="#ff6262"/><path d="M156.40055,190.7434v-9.23486h12.44098v9.23486z" fill="#ff6262"/><g clip-path="url(#clip-1)"><path d="M184.59089,162.1082v9.23486c0,-1.57493 -0.35795,-2.72035 -1.14541,-3.29305c-0.85906,-0.6443 -2.43399,-1.00223 -4.51004,-1.00223c-2.07605,0 -3.65098,0.35795 -4.51004,1.00223c-0.07159,0.07159 -0.14317,0.07159 -0.14317,0.14317v-9.23486c0.07159,-0.07159 0.07159,-0.07159 0.14317,-0.14317c0.85906,-0.6443 2.43399,-1.00223 4.51004,-1.00223c2.07605,0 3.65098,0.35795 4.51004,1.00223c0.71588,0.57271 1.14541,1.71812 1.14541,3.29305" fill="#146d93"/><path d="M174.21064,158.95833v9.23486c-0.14317,0.14317 -0.28635,0.28635 -0.35795,0.42952v-9.23486c0.07159,-0.14317 0.21476,-0.28635 0.35795,-0.42952" fill="#167097"/><path d="M173.85269,159.45945v9.23486c-0.14317,0.21476 -0.28635,0.50111 -0.35795,0.71588v-9.23486c0.07159,-0.28635 0.21476,-0.50111 0.35795,-0.71588" fill="#17739b"/><path d="M173.49475,160.17533v9.23486c-0.14317,0.50111 -0.28635,1.14541 -0.28635,1.93288v-9.23486c0,-0.78746 0.07159,-1.43176 0.28635,-1.93288" fill="#19769e"/></g><g clip-path="url(#clip-2)"><path d="M173.2084,166.61824v9.23486c0,0.35795 -0.07159,0.71588 -0.14317,1.00223v-9.23486c0.14317,-0.28635 0.14317,-0.6443 0.14317,-1.00223" fill="#19769e"/><path d="M173.06523,167.62047v9.23486c-0.07159,0.14317 -0.14317,0.35795 -0.21476,0.50111v-9.23486c0.14317,-0.14317 0.21476,-0.35795 0.21476,-0.50111" fill="#17739b"/><path d="M172.85046,168.05001v9.23486c-0.07159,0.14317 -0.14317,0.21476 -0.28635,0.35795v-9.23486c0.14317,-0.07159 0.21476,-0.21476 0.28635,-0.35795" fill="#167097"/><path d="M172.5641,168.40795v9.23486c-0.14317,0.14317 -0.28635,0.21476 -0.42952,0.28635c-0.35795,0.21476 -0.85906,0.28635 -1.57493,0.28635v-9.23486c0.71588,0 1.21699,-0.07159 1.57493,-0.28635c0.21476,-0.07159 0.35795,-0.14317 0.42952,-0.28635" fill="#146d93"/></g><path d="M156.74317,178.2155v-9.23486h13.88807v9.23486z" fill="#116a8f"/><path d="M187.38282,178.2155v-9.23486h13.88807v9.23486z" fill="#116a8f"/><g clip-path="url(#clip-3)"><path d="M187.38282,168.98066v9.23486c-0.93065,0 -1.57493,-0.14317 -2.00447,-0.50111c-0.57271,-0.42952 -0.85906,-1.07382 -0.85906,-1.93288v-9.23486c0,0.85906 0.28635,1.57493 0.85906,1.93288c0.42952,0.28635 1.07382,0.50111 2.00447,0.50111" fill="#146d93"/></g><g clip-path="url(#clip-4)"><path d="M205.35141,173.84863v9.23486c0,-1.78969 -0.35795,-3.14987 -0.93065,-3.93733c-0.50111,-0.6443 -1.57493,-1.00223 -3.07829,-1.00223v-9.23486c1.50334,0 2.57716,0.35795 3.07829,1.00223c0.57271,0.78746 0.93065,2.14764 0.93065,3.93733" fill="#146d93"/></g><g clip-path="url(#clip-5)"><path d="M156.74317,168.98066v9.23486c-1.36018,0 -2.3624,0.28635 -2.93511,0.85906v-9.30644c0.57271,-0.50111 1.57493,-0.78746 2.93511,-0.78746" fill="#146d93"/><path d="M153.80806,169.76812v9.30644c-0.07159,0.07159 -0.07159,0.07159 -0.14317,0.14317c-0.07159,0.07159 -0.14317,0.21476 -0.21476,0.28635v-9.23486c0.07159,-0.14317 0.14317,-0.21476 0.21476,-0.28635c0.07159,-0.07159 0.07159,-0.14317 0.14317,-0.21476" fill="#167097"/><path d="M153.45012,170.26924v9.23486c-0.14317,0.21476 -0.28635,0.50111 -0.35795,0.85906v-9.23486c0.07159,-0.35795 0.21476,-0.6443 0.35795,-0.85906" fill="#17739b"/><path d="M153.02059,171.1283v9.23486c-0.21476,0.71588 -0.35795,1.64653 -0.35795,2.79194v-9.23486c0.07159,-1.14541 0.14317,-2.07605 0.35795,-2.79194" fill="#19769e"/></g><g clip-path="url(#clip-6)"><path d="M204.56395,177.49962v9.23486c-0.07159,0.07159 -0.14317,0.21476 -0.21476,0.28635c-0.07159,0.07159 -0.14317,0.14317 -0.14317,0.21476v-9.23486c0.07159,-0.07159 0.14317,-0.14317 0.14317,-0.21476c0.07159,-0.07159 0.14317,-0.14317 0.21476,-0.28635" fill="#aa9e00"/></g><g clip-path="url(#clip-7)"><path d="M188.81459,178.78821v9.23486c-1.64653,0 -2.79194,0.28635 -3.43622,0.85906v-9.23486c0.6443,-0.57271 1.78969,-0.85906 3.43622,-0.85906" fill="#a59a00"/><path d="M185.37837,179.64725v9.23486c-0.14317,0.14317 -0.21476,0.21476 -0.28635,0.35795v-9.23486c0.07159,-0.14317 0.14317,-0.28635 0.28635,-0.35795" fill="#aa9e00"/><path d="M185.09201,180.00519v9.23486c-0.07159,0.14317 -0.14317,0.28635 -0.21476,0.42952v-9.23486c0.07159,-0.21476 0.14317,-0.28635 0.21476,-0.42952" fill="#aea200"/><path d="M184.87725,180.36313v9.23486c-0.07159,0.21476 -0.07159,0.42952 -0.07159,0.6443v-9.23486c0,-0.21476 0,-0.42952 0.07159,-0.6443" fill="#b2a600"/></g><g clip-path="url(#clip-8)"><path d="M171.77664,180.86425v9.23486c0,-0.93065 -0.6443,-2.07605 -2.50559,-2.07605v-9.23486c1.78969,0 2.50559,1.14541 2.50559,2.07605" fill="#a59a00"/></g><g clip-path="url(#clip-9)"><path d="M184.87725,180.36313v9.23486c-0.07159,0.21476 -0.07159,0.42952 -0.07159,0.6443v-9.23486c0,-0.21476 0,-0.42952 0.07159,-0.6443" fill="#b2a600"/></g><g clip-path="url(#clip-10)"><path d="M183.08754,191.67405v9.23486c0,-0.93065 -0.50111,-1.71812 -1.28858,-2.14764c-0.50111,-0.28635 -1.00223,-0.35795 -1.43176,-0.35795c-0.28635,0 -0.78746,0.07159 -1.28858,0.50111v-9.23486c0.42952,-0.42952 0.93065,-0.50111 1.28858,-0.50111c0.42952,0 0.93065,0.14317 1.43176,0.35795c0.78746,0.42952 1.28858,1.21699 1.28858,2.14764" fill="#a59a00"/><path d="M179.07862,189.66958v9.23486c-0.14317,0.14317 -0.28635,0.28635 -0.35795,0.42952v-9.23486c0.07159,-0.14317 0.21476,-0.28635 0.35795,-0.42952" fill="#aa9e00"/><path d="M178.64908,190.09911v9.23486c-0.07159,0.14317 -0.21476,0.35795 -0.28635,0.57271c-0.71588,1.71812 -1.64653,3.50782 -2.79194,5.29751v-9.23486c1.14541,-1.78969 2.07605,-3.5794 2.79194,-5.29751c0.07159,-0.21476 0.21476,-0.35795 0.28635,-0.57271" fill="#aea200"/></g><g clip-path="url(#clip-11)"><path d="M183.08754,191.67405v9.23486c0,-0.93065 -0.50111,-1.71812 -1.28858,-2.14764c-0.50111,-0.28635 -1.00223,-0.35795 -1.43176,-0.35795c-0.28635,0 -0.78746,0.07159 -1.28858,0.50111v-9.23486c0.42952,-0.42952 0.93065,-0.50111 1.28858,-0.50111c0.42952,0 0.93065,0.14317 1.43176,0.35795c0.78746,0.42952 1.28858,1.21699 1.28858,2.14764" fill="#a59a00"/></g><g clip-path="url(#clip-12)"><path d="M175.64239,196.04092v9.23486c-0.85906,1.36018 -1.86129,2.72035 -2.93511,4.08052c-1.43176,1.71812 -2.86352,3.29305 -4.43845,4.7248v-9.23486c1.50334,-1.43176 3.0067,-3.0067 4.43845,-4.7248c1.07382,-1.36018 2.07605,-2.72035 2.93511,-4.08052" fill="#aa9e00"/></g><g clip-path="url(#clip-13)"><path d="M204.27759,207.85294v9.23486c-0.21476,0.35795 -0.42952,0.6443 -0.71588,1.00223c-0.28635,0.28635 -0.50111,0.57271 -0.78746,0.85906v-9.23486c0.28635,-0.21476 0.50111,-0.50111 0.78746,-0.85906c0.28635,-0.35795 0.50111,-0.6443 0.71588,-1.00223" fill="#aa9e00"/></g><path d="M202.55949,197.47268c3.72258,2.50559 5.51227,5.01116 5.51227,7.58833c0,1.71812 -0.78746,3.5794 -2.29081,5.51227c-1.64653,2.07605 -3.5794,3.07829 -5.72704,3.07829c-1.21699,0 -2.57716,-0.35795 -3.86576,-1.00223c-1.21699,-0.57271 -3.0067,-1.71812 -5.44069,-3.36463c-2.43399,-1.64653 -4.7964,-3.72258 -7.08722,-6.0134c-3.0067,-3.07829 -3.72258,-4.00893 -4.08052,-4.43845c-0.50111,-0.71588 -0.78746,-1.57493 -0.85906,-2.43399c-1.07382,1.78969 -2.29081,3.5794 -3.79417,5.3691c-2.72035,3.36463 -5.72704,6.22816 -8.94851,8.44738c-3.36463,2.3624 -6.22816,3.50782 -8.73373,3.50782c-2.64875,0 -4.7248,-1.00223 -6.22816,-3.07829c-1.36018,-1.86129 -2.07605,-3.72258 -2.07605,-5.3691c0,-2.50559 1.78969,-5.01116 5.3691,-7.23039c3.07829,-1.93288 5.65546,-4.00893 7.8031,-6.08497c2.07605,-2.07605 3.79417,-4.22369 4.93958,-6.44292c1.07382,-2.00447 1.50334,-3.22146 1.64653,-4.00893h-12.09838c-2.29081,0 -4.08052,-0.6443 -5.22592,-1.93288c-1.14541,-1.21699 -1.64653,-3.14987 -1.64653,-5.72704c0,-2.64875 0.57271,-4.51004 1.64653,-5.72704c1.14541,-1.28858 2.93511,-1.93288 5.22592,-1.93288h13.60172v-4.08052c0,-2.50559 0.78746,-4.29528 2.21923,-5.44069c1.43176,-1.07382 3.43622,-1.57493 6.29974,-1.57493c2.86352,0 4.86799,0.50111 6.29974,1.57493c1.50334,1.14541 2.21923,2.93511 2.21923,5.44069v4.08052h13.88807c2.43399,0 4.29528,0.71588 5.3691,2.07605c1.00223,1.28858 1.50334,3.07829 1.50334,5.65546c0,2.50559 -0.50111,4.36687 -1.57493,5.65546c-1.14541,1.36018 -2.93511,2.00447 -5.29751,2.00447h-12.45631c-0.35795,0 -0.6443,0 -0.85906,0.07159c0.35795,0.71588 1.14541,2.21923 2.93511,5.08275c2.29081,3.36463 6.22816,7.01563 11.81202,10.7382zM203.56172,208.85517c1.14541,-1.43176 1.71812,-2.72035 1.71812,-3.86576c0,-1.57493 -1.50334,-3.36463 -4.29528,-5.29751c-5.94181,-3.93733 -10.1655,-7.87468 -12.5279,-11.66884c-3.36463,-5.3691 -3.5794,-6.37133 -3.5794,-7.01563c0,-1.50334 1.36018,-2.21923 4.00893,-2.21923h12.45631c1.50334,0 2.57716,-0.35795 3.07829,-1.00223c0.6443,-0.71588 0.93065,-2.07605 0.93065,-3.93733c0,-1.78969 -0.35795,-3.14987 -0.93065,-3.93733c-0.50111,-0.6443 -1.57493,-1.00223 -3.07829,-1.00223h-13.88807c-0.93065,0 -1.57493,-0.14317 -2.00447,-0.50111c-0.57271,-0.42952 -0.85906,-1.07382 -0.85906,-1.93288v-4.36687c0,-1.57493 -0.35795,-2.72035 -1.14541,-3.29305c-0.85906,-0.6443 -2.43399,-1.00223 -4.51004,-1.00223c-2.07605,0 -3.65098,0.35795 -4.51004,1.00223c-0.78746,0.57271 -1.14541,1.64653 -1.14541,3.29305v4.51004c0,1.07382 -0.35795,1.71812 -1.00223,2.07605c-0.35795,0.21476 -0.85906,0.28635 -1.57493,0.28635h-13.88807c-1.43176,0 -2.50559,0.35795 -3.07829,1.00223c-0.6443,0.71588 -0.93065,2.07605 -0.93065,3.93733c0,1.86129 0.35795,3.22146 0.93065,3.93733c0.57271,0.6443 1.64653,1.00223 3.07829,1.00223h12.45631c1.86129,0 2.50559,1.14541 2.50559,2.07605c0,1.43176 -0.6443,3.36463 -2.07605,5.94181c-1.36018,2.43399 -3.14987,4.86799 -5.44069,7.1588c-2.29081,2.21923 -5.08275,4.43845 -8.30421,6.44292c-2.72035,1.71812 -4.08052,3.36463 -4.08052,4.93958c0,1.14541 0.50111,2.43399 1.57493,3.79417c0.93065,1.28858 2.21923,1.86129 3.86576,1.86129c1.86129,0 4.22369,-1.00223 7.08722,-3.0067c2.93511,-2.07605 5.79862,-4.7248 8.3758,-7.94626c2.57716,-3.14987 4.51004,-6.29974 5.65546,-9.37803c0.50111,-1.36018 1.43176,-1.57493 1.93288,-1.57493c0.42952,0 0.93065,0.14317 1.43176,0.35795c0.78746,0.42952 1.28858,1.14541 1.28858,2.14764c0,0.71588 -0.28635,1.50334 -0.93065,2.57716c-0.35795,0.6443 -0.57271,1.21699 -0.57271,1.78969c0,0.50111 0.14317,0.93065 0.35795,1.28858c0.21476,0.28635 0.93065,1.21699 3.72258,4.08052c2.14764,2.14764 4.36687,4.08052 6.65769,5.65546c2.29081,1.57493 4.00893,2.64875 5.08275,3.14987c0.93065,0.42952 1.78969,0.6443 2.57716,0.6443c1.28858,0 2.43399,-0.6443 3.5794,-2.00447" fill="#ff7a7a"/><path d="M178.86385,157.88451c2.07605,0 3.65098,0.35795 4.51004,1.00223c0.78746,0.57271 1.14541,1.64653 1.14541,3.29305v4.36687c0,0.85906 0.28635,1.57493 0.85906,1.93288c0.42952,0.35795 1.07382,0.50111 2.00447,0.50111h13.88807c1.50334,0 2.57716,0.35795 3.07829,1.00223c0.57271,0.71588 0.93065,2.07605 0.93065,3.93733c0,1.78969 -0.35795,3.14987 -0.93065,3.93733c-0.57271,0.6443 -1.57493,1.00223 -3.07829,1.00223h-12.45631c-2.64875,0 -4.00893,0.78746 -4.00893,2.21923c0,0.6443 0.28635,1.71812 3.5794,7.01563c2.3624,3.79417 6.58609,7.7315 12.5279,11.66884c2.79194,1.93288 4.29528,3.72258 4.29528,5.29751c0,1.07382 -0.57271,2.3624 -1.71812,3.86576c-1.07382,1.36018 -2.21923,2.00447 -3.50782,2.00447c-0.78746,0 -1.64653,-0.21476 -2.57716,-0.6443c-1.07382,-0.50111 -2.79194,-1.57493 -5.08275,-3.14987c-2.29081,-1.57493 -4.51004,-3.43622 -6.65769,-5.65546c-2.79194,-2.86352 -3.5794,-3.79417 -3.72258,-4.08052c-0.28635,-0.35795 -0.35795,-0.78746 -0.35795,-1.28858c0,-0.50111 0.21476,-1.14541 0.57271,-1.78969c0.6443,-1.07382 0.93065,-1.93288 0.93065,-2.57716c0,-0.93065 -0.50111,-1.71812 -1.28858,-2.14764c-0.50111,-0.28635 -1.00223,-0.35795 -1.43176,-0.35795c-0.50111,0 -1.43176,0.21476 -1.93288,1.57493c-1.21699,3.07829 -3.14987,6.22816 -5.65546,9.37803c-2.57716,3.14987 -5.3691,5.87022 -8.3758,7.94626c-2.86352,2.00447 -5.22592,3.0067 -7.08722,3.0067c-1.71812,0 -2.93511,-0.57271 -3.86576,-1.86129c-1.00223,-1.36018 -1.57493,-2.64875 -1.57493,-3.79417c0,-1.57493 1.36018,-3.22146 4.08052,-4.93958c3.22146,-2.07605 6.0134,-4.22369 8.30421,-6.44292c2.29081,-2.29081 4.1521,-4.65323 5.44069,-7.1588c1.36018,-2.57716 2.07605,-4.51004 2.07605,-5.94181c0,-0.93065 -0.6443,-2.07605 -2.50559,-2.07605h-12.45631c-1.43176,0 -2.50559,-0.35795 -3.07829,-1.00223c-0.6443,-0.71588 -0.93065,-2.07605 -0.93065,-3.93733c0,-1.86129 0.35795,-3.22146 0.93065,-3.93733c0.57271,-0.6443 1.64653,-1.00223 3.07829,-1.00223h13.88807c0.71588,0 1.21699,-0.07159 1.57493,-0.28635c0.71588,-0.35795 1.00223,-1.00223 1.00223,-2.07605v-4.51004c0,-1.57493 0.35795,-2.72035 1.14541,-3.29305c0.78746,-0.71588 2.3624,-1.00223 4.43845,-1.00223z" fill="url(#color-1)"/><path d="M178.7236,196.48639v9.23486c-0.30425,0.35795 -0.6085,0.71588 -0.91275,1.07382v-9.23486c0.30425,-0.35795 0.6085,-0.71588 0.91275,-1.07382" fill="#ff6262"/><path d="M177.90132,197.56021v9.23486c-0.93065,1.43176 -1.93288,2.86352 -3.07829,4.29528c-1.50334,1.86129 -3.07829,3.50782 -4.65323,5.01116v-9.23486c1.64653,-1.50334 3.22146,-3.22146 4.65323,-5.01116c1.14541,-1.43176 2.14764,-2.86352 3.07829,-4.29528" fill="#ff6262"/><path d="M170.27329,206.77912v9.23486c-1.36018,1.28858 -2.79194,2.43399 -4.22369,3.43622c-3.36463,2.3624 -6.22816,3.50782 -8.73373,3.50782c-2.64875,0 -4.7248,-1.00223 -6.22816,-3.07829c-1.36018,-1.86129 -2.07605,-3.72258 -2.07605,-5.3691v-9.23486c0,1.71812 0.71588,3.50782 2.07605,5.3691c1.50334,2.00447 3.5794,3.07829 6.22816,3.07829c2.50559,0 5.3691,-1.14541 8.73373,-3.50782c1.43176,-1.00223 2.86352,-2.14764 4.22369,-3.43622" fill="#ff6262"/><path d="M207.34772,206.55619v9.30644c-0.21476,0.71588 -0.57271,1.50334 -1.07382,2.29081v-9.23486c0.50111,-0.85906 0.85906,-1.57493 1.07382,-2.3624" fill="#ff6262"/><path d="M206.44897,208.75947v9.23486c-0.28635,0.42952 -0.57271,0.85906 -0.93065,1.28858c-0.35795,0.42952 -0.71588,0.85906 -1.07382,1.14541v-9.23486c0.35795,-0.35795 0.71588,-0.71588 1.07382,-1.14541c0.35795,-0.42952 0.6443,-0.85906 0.93065,-1.28858" fill="#ff6262"/><path d="M204.53206,211.19347v9.23486c-1.36018,1.28858 -2.93511,1.93288 -4.65323,1.93288c-1.21699,0 -2.57716,-0.35795 -3.86576,-1.00223c-1.21699,-0.57271 -3.0067,-1.71812 -5.44069,-3.36463c-2.43399,-1.64653 -4.7964,-3.72258 -7.08722,-6.0134c-3.0067,-3.07829 -3.72258,-4.00893 -4.08052,-4.43845c-0.50111,-0.71588 -0.78746,-1.57493 -0.85906,-2.43399v-9.23486c0.07159,0.93065 0.35795,1.71812 0.85906,2.43399c0.28635,0.42952 1.00223,1.36018 4.08052,4.43845c2.21923,2.29081 4.65323,4.36687 7.08722,6.0134c2.43399,1.64653 4.22369,2.79194 5.44069,3.36463c1.36018,0.6443 2.64875,1.00223 3.86576,1.00223c1.71812,0 3.29305,-0.6443 4.65323,-1.93288" fill="#ff6262"/><path d="M156.66938,181.47569v9.23486c-2.29081,0 -4.08052,-0.6443 -5.22592,-1.93288c-1.14541,-1.21699 -1.64653,-3.14987 -1.64653,-5.72704v-9.23486c0,2.64875 0.57271,4.51004 1.64653,5.72704c1.14541,1.28858 2.93511,1.93288 5.22592,1.93288" fill="#ff6262"/></g></g></svg>