<svg version="1.1" xmlns="http://www.w3.org/2000/svg" xmlns:xlink="http://www.w3.org/1999/xlink" width="129.11068" height="64.80242" viewBox="0,0,129.11068,64.80242"><g transform="translate(-156.11373,-143.843)"><g data-paper-data="{&quot;isPaintingLayer&quot;:true}" fill-rule="nonzero" stroke-linejoin="miter" stroke-miterlimit="10" stroke-dasharray="" stroke-dashoffset="0" style="mix-blend-mode: normal"><g stroke="none" stroke-width="1" stroke-linecap="butt"><path d="M190.12644,169.17817c1.30214,0.76597 2.3745,2.60429 2.3745,4.13623v10.11077c0,1.53194 -1.07235,3.37025 -2.3745,4.13623l-8.80861,5.05538c-0.61278,0.30639 -1.45535,0.53617 -2.3745,0.53617c-0.91916,0 -1.76173,-0.15319 -2.3745,-0.53617l-8.80861,-5.05538c-1.30214,-0.76597 -2.3745,-2.60429 -2.3745,-4.13623v-10.11077c0,-1.53194 1.07235,-3.37025 2.3745,-4.13623l8.80861,-5.05538c1.30214,-0.76597 3.44685,-0.76597 4.74899,0z" fill="#dfded0"/><path d="M189.97325,168.18244c1.22555,0.68938 2.2213,2.45109 2.2213,3.82984v10.11077c0,1.37874 -0.99576,3.14047 -2.2213,3.82984l-8.80861,5.05538c-1.22555,0.68938 -3.21707,0.68938 -4.44261,0l-8.80861,-5.05538c-1.22555,-0.68938 -2.2213,-2.45109 -2.2213,-3.82984v-10.11077c0,-1.37874 0.99576,-3.14047 2.2213,-3.82984l8.80861,-5.05538c1.22555,-0.68938 3.21707,-0.68938 4.44261,0c0,0 8.73203,5.05538 8.80861,5.05538z" fill="#dfded0"/><path d="M178.94331,191.92739c-0.91916,0 -1.76173,-0.22979 -2.3745,-0.53617l-8.80861,-5.05538c-1.30214,-0.76597 -2.3745,-2.60429 -2.3745,-4.13623v-10.11077c0,-1.53194 1.07235,-3.37025 2.3745,-4.13623l8.80861,-5.05538c1.30214,-0.76597 3.44685,-0.76597 4.74899,0l8.80861,5.05538c1.30214,0.76597 2.3745,2.60429 2.3745,4.13623v10.11077c0,1.53194 -1.07235,3.37025 -2.3745,4.13623l-8.80861,5.05538c-0.61278,0.38299 -1.53194,0.53617 -2.3745,0.53617zM178.94331,162.89727c-0.76597,0 -1.53194,0.15319 -2.06812,0.45957l-8.80861,5.05538c-1.14895,0.61278 -2.06812,2.2979 -2.06812,3.60004v10.11077c0,1.30214 0.91916,2.91068 2.06812,3.60004l8.80861,5.05538c1.07235,0.61278 3.06387,0.61278 4.13623,0l8.80861,-5.05538c1.14895,-0.61278 2.06812,-2.2979 2.06812,-3.60004v-10.11077c0,-1.30214 -0.91916,-2.91068 -2.06812,-3.60004l-8.80861,-5.05538c-0.53617,-0.30639 -1.30214,-0.45957 -2.06812,-0.45957z" fill="#dfded0"/><path d="M178.94331,175.6889c-0.68938,0 -1.37874,-0.15319 -1.9149,-0.45957l-8.80861,-5.05538c-0.38299,-0.22979 -0.61278,-0.45957 -0.61278,-0.68938c0,-0.22979 0.22979,-0.53617 0.61278,-0.68938l8.80861,-5.05538c0.45957,-0.30639 1.14895,-0.45957 1.9149,-0.45957c0.76597,0 1.37874,0.15319 1.9149,0.45957l8.80861,5.05538c0.38299,0.22979 0.61278,0.45957 0.61278,0.68938c0,0.22979 -0.22979,0.53617 -0.61278,0.68938l-8.80861,5.05538c-0.53617,0.30639 -1.22555,0.45957 -1.9149,0.45957zM177.56457,190.77846c-0.22979,0 -0.45957,-0.0766 -0.68938,-0.22979l-8.80861,-5.05538c-0.99576,-0.61278 -1.9149,-2.06812 -1.9149,-3.29367v-10.11077c0,-0.30639 0.0766,-0.91916 0.61278,-0.91916c0.22979,0 0.45957,0.0766 0.68938,0.22979l8.80861,5.05538c0.99576,0.61278 1.9149,2.06812 1.9149,3.29367v10.03417c0,0.30639 -0.0766,0.61278 -0.22979,0.76597c-0.0766,0.15319 -0.15319,0.22979 -0.38299,0.22979zM180.16886,190.77846c-0.53617,0 -0.61278,-0.68938 -0.61278,-0.91916v-10.11077c0,-1.22555 0.84255,-2.68089 1.9149,-3.29367l8.80861,-5.05538c0.22979,-0.15319 0.45957,-0.22979 0.68938,-0.22979c0.53617,0 0.61278,0.68938 0.61278,0.91916v10.11077c0,1.22555 -0.84255,2.68089 -1.9149,3.29367l-8.80861,5.05538c-0.30639,0.15319 -0.53617,0.22979 -0.68938,0.22979z" fill="#ffffff"/><path d="M178.94331,170.40374c-0.84255,0 -1.53194,-0.38299 -1.53194,-0.91916c0,-0.53617 0.68938,-0.91916 1.53194,-0.91916c0.84255,0 1.53194,0.38299 1.53194,0.91916c0,0.53617 -0.76597,0.91916 -1.53194,0.91916zM168.14317,183.73159c-0.45957,0 -0.91916,-0.61278 -0.91916,-1.30214c0,-0.68938 0.38299,-1.30214 0.91916,-1.30214c0.53617,0 0.91916,0.61278 0.91916,1.30214c0,0.68938 -0.45957,1.30214 -0.91916,1.30214zM189.43707,183.73159c-0.45957,0 -0.91916,-0.61278 -0.91916,-1.30214c0,-0.68938 0.38299,-1.30214 0.91916,-1.30214c0.45957,0 0.91916,0.61278 0.91916,1.30214c-0.0766,0.68938 -0.45957,1.30214 -0.91916,1.30214zM168.14317,176.07188c-0.45957,0 -0.91916,-0.61278 -0.91916,-1.30214c0,-0.68938 0.38299,-1.30214 0.91916,-1.30214c0.53617,0 0.91916,0.61278 0.91916,1.30214c0,0.68938 -0.45957,1.30214 -0.91916,1.30214zM175.64965,181.05069c-0.45957,0 -0.91916,-0.61278 -0.91916,-1.30214c0,-0.68938 0.38299,-1.30214 0.91916,-1.30214c0.53617,0 0.91916,0.61278 0.91916,1.30214c0,0.68938 -0.38299,1.30214 -0.91916,1.30214zM182.08379,181.05069c-0.45957,0 -0.91916,-0.61278 -0.91916,-1.30214c0,-0.68938 0.38299,-1.30214 0.91916,-1.30214c0.53617,0 0.91916,0.61278 0.91916,1.30214c0,0.68938 -0.38299,1.30214 -0.91916,1.30214zM175.64965,188.09759c-0.45957,0 -0.91916,-0.61278 -0.91916,-1.30214c0,-0.68938 0.38299,-1.30214 0.91916,-1.30214c0.53617,0 0.91916,0.61278 0.91916,1.30214c0,0.68938 -0.38299,1.30214 -0.91916,1.30214z" fill="#c30d23"/></g><g stroke="none" stroke-width="1" stroke-linecap="butt"><path d="M207.74764,183.12712c1.30214,0.76597 2.3745,2.60429 2.3745,4.13623v10.11077c0,1.53194 -1.07235,3.37025 -2.3745,4.13623l-8.80861,5.05538c-0.61278,0.30639 -1.45535,0.53617 -2.3745,0.53617c-0.91916,0 -1.76173,-0.15319 -2.3745,-0.53617l-8.80861,-5.05538c-1.30214,-0.76597 -2.3745,-2.60429 -2.3745,-4.13623v-10.11077c0,-1.53194 1.07235,-3.37025 2.3745,-4.13623l8.80861,-5.05538c1.30214,-0.76597 3.44685,-0.76597 4.74899,0z" fill="#dfded0"/><path d="M207.59444,182.13138c1.22555,0.68938 2.2213,2.45109 2.2213,3.82984v10.11077c0,1.37874 -0.99576,3.14047 -2.2213,3.82984l-8.80861,5.05538c-1.22555,0.68938 -3.21707,0.68938 -4.44261,0l-8.80861,-5.05538c-1.22555,-0.68938 -2.2213,-2.45109 -2.2213,-3.82984v-10.11077c0,-1.37874 0.99576,-3.14047 2.2213,-3.82984l8.80861,-5.05538c1.22555,-0.68938 3.21707,-0.68938 4.44261,0c0,0 8.73203,5.05538 8.80861,5.05538z" fill="#dfded0"/><path d="M196.56452,205.87631c-0.91916,0 -1.76173,-0.22979 -2.3745,-0.53617l-8.80861,-5.05538c-1.30214,-0.76597 -2.3745,-2.60429 -2.3745,-4.13623v-10.11077c0,-1.53194 1.07235,-3.37025 2.3745,-4.13623l8.80861,-5.05538c1.30214,-0.76597 3.44685,-0.76597 4.74899,0l8.80861,5.05538c1.30214,0.76597 2.3745,2.60429 2.3745,4.13623v10.11077c0,1.53194 -1.07235,3.37025 -2.3745,4.13623l-8.80861,5.05538c-0.61278,0.38299 -1.53194,0.53617 -2.3745,0.53617zM196.56452,176.84618c-0.76597,0 -1.53194,0.15319 -2.06812,0.45957l-8.80861,5.05538c-1.14895,0.61278 -2.06812,2.2979 -2.06812,3.60004v10.11077c0,1.30214 0.91916,2.91068 2.06812,3.60004l8.80861,5.05538c1.07235,0.61278 3.06387,0.61278 4.13623,0l8.80861,-5.05538c1.14895,-0.61278 2.06812,-2.2979 2.06812,-3.60004v-10.11077c0,-1.30214 -0.91916,-2.91068 -2.06812,-3.60004l-8.80861,-5.05538c-0.53617,-0.30639 -1.30214,-0.45957 -2.06812,-0.45957z" fill="#dfded0"/><path d="M196.56452,189.63783c-0.68938,0 -1.37874,-0.15319 -1.9149,-0.45957l-8.80861,-5.05538c-0.38299,-0.22979 -0.61278,-0.45957 -0.61278,-0.68938c0,-0.22979 0.22979,-0.53617 0.61278,-0.68938l8.80861,-5.05538c0.45957,-0.30639 1.14895,-0.45957 1.9149,-0.45957c0.76597,0 1.37874,0.15319 1.9149,0.45957l8.80861,5.05538c0.38299,0.22979 0.61278,0.45957 0.61278,0.68938c0,0.22979 -0.22979,0.53617 -0.61278,0.68938l-8.80861,5.05538c-0.53617,0.30639 -1.22555,0.45957 -1.9149,0.45957zM195.18576,204.72737c-0.22979,0 -0.45957,-0.0766 -0.68938,-0.22979l-8.80861,-5.05538c-0.99576,-0.61278 -1.9149,-2.06812 -1.9149,-3.29367v-10.11077c0,-0.30639 0.0766,-0.91916 0.61278,-0.91916c0.22979,0 0.45957,0.0766 0.68938,0.22979l8.80861,5.05538c0.99576,0.61278 1.9149,2.06812 1.9149,3.29367v10.03417c0,0.30639 -0.0766,0.61278 -0.22979,0.76597c-0.0766,0.15319 -0.15319,0.22979 -0.38299,0.22979zM197.79003,204.72737c-0.53617,0 -0.61278,-0.68938 -0.61278,-0.91916v-10.11077c0,-1.22555 0.84255,-2.68089 1.9149,-3.29367l8.80861,-5.05538c0.22979,-0.15319 0.45957,-0.22979 0.68938,-0.22979c0.53617,0 0.61278,0.68938 0.61278,0.91916v10.11077c0,1.22555 -0.84255,2.68089 -1.9149,3.29367l-8.80861,5.05538c-0.30639,0.15319 -0.53617,0.22979 -0.68938,0.22979z" fill="#ffffff"/><path d="M196.56452,184.35268c-0.84255,0 -1.53194,-0.38299 -1.53194,-0.91916c0,-0.53617 0.68938,-0.91916 1.53194,-0.91916c0.84255,0 1.53194,0.38299 1.53194,0.91916c0,0.53617 -0.76597,0.91916 -1.53194,0.91916zM185.76437,197.68052c-0.45957,0 -0.91916,-0.61278 -0.91916,-1.30214c0,-0.68938 0.38299,-1.30214 0.91916,-1.30214c0.53617,0 0.91916,0.61278 0.91916,1.30214c0,0.68938 -0.45957,1.30214 -0.91916,1.30214zM207.05826,197.68052c-0.45957,0 -0.91916,-0.61278 -0.91916,-1.30214c0,-0.68938 0.38299,-1.30214 0.91916,-1.30214c0.45957,0 0.91916,0.61278 0.91916,1.30214c-0.0766,0.68938 -0.45957,1.30214 -0.91916,1.30214zM185.76437,190.02081c-0.45957,0 -0.91916,-0.61278 -0.91916,-1.30214c0,-0.68938 0.38299,-1.30214 0.91916,-1.30214c0.53617,0 0.91916,0.61278 0.91916,1.30214c0,0.68938 -0.45957,1.30214 -0.91916,1.30214zM193.27087,194.99961c-0.45957,0 -0.91916,-0.61278 -0.91916,-1.30214c0,-0.68938 0.38299,-1.30214 0.91916,-1.30214c0.53617,0 0.91916,0.61278 0.91916,1.30214c0,0.68938 -0.38299,1.30214 -0.91916,1.30214zM199.70497,194.99961c-0.45957,0 -0.91916,-0.61278 -0.91916,-1.30214c0,-0.68938 0.38299,-1.30214 0.91916,-1.30214c0.53617,0 0.91916,0.61278 0.91916,1.30214c0,0.68938 -0.38299,1.30214 -0.91916,1.30214zM193.27087,202.04651c-0.45957,0 -0.91916,-0.61278 -0.91916,-1.30214c0,-0.68938 0.38299,-1.30214 0.91916,-1.30214c0.53617,0 0.91916,0.61278 0.91916,1.30214c0,0.68938 -0.38299,1.30214 -0.91916,1.30214z" fill="#c30d23"/></g><g data-paper-data="{&quot;index&quot;:null}" stroke-width="0.5"><path d="M175.52497,208.33582c0,0 1.33245,-13.4036 1.33245,-16.53019c0,-0.1394 -1.25389,-1.5823 -2.17445,-1.01467c-0.01685,0.01039 -1.18256,2.02015 -1.18256,2.02015c0,0 -2.08433,0.45373 -1.97795,-0.3563c0.12085,-0.92017 1.49598,-3.22451 2.00831,-3.71581c0.49748,-0.47706 3.3433,-0.11119 4.022,0.75076c0.30144,0.38282 0.97195,0.88499 1.17675,1.7869c0.30443,1.34064 0.06635,3.27264 -0.00964,4.64918c-0.18639,3.3763 -0.93085,12.4502 -0.93085,12.4502z" fill="#825738" stroke="#723700" stroke-linecap="butt"/><path d="M173.02607,188.49887c0.7823,0.16567 1.28219,0.93414 1.11653,1.71645c-0.16567,0.7823 -0.93414,1.28219 -1.71645,1.11653c-0.7823,-0.16567 -1.28219,-0.93414 -1.11653,-1.71645c0.16567,-0.7823 0.93414,-1.28219 1.71645,-1.11653z" fill="#ffce91" stroke="#723700" stroke-linecap="butt"/><path d="M159.69502,196.91352l2.01097,-8.64719l8.92872,-0.08043l2.29251,8.6874z" fill="#c78556" stroke="#723700" stroke-linecap="butt"/><path d="M157.49155,180.13399c0,-3.65682 0.24347,-6.41789 2.75828,-8.25784c1.41459,-1.03497 4.52028,-2.0879 6.32656,-2.0879c2.45511,0 5.32937,1.10903 6.96433,2.91118c1.70635,1.88083 2.12051,4.51662 2.12051,7.43455c0,5.71379 -4.06742,10.34573 -9.08485,10.34573c-5.01742,0 -9.08485,-4.63194 -9.08485,-10.34573z" fill="#ffce91" stroke="#723700" stroke-linecap="butt"/><path d="M170.96105,174.63138c-0.35197,-0.83986 -0.33026,-1.64939 0.0485,-1.80813c0.37877,-0.15873 0.97114,0.39343 1.32312,1.23329c0.35197,0.83986 0.33026,1.64938 -0.0485,1.80812c-0.37877,0.15873 -0.97114,-0.39343 -1.32311,-1.23329z" fill="#ffdaad" stroke="none" stroke-linecap="butt"/><path d="M175.55235,181.14293c0,0 -4.26076,-0.62718 -4.61734,-0.74646c-0.56144,-0.18782 -1.0446,-1.21052 -0.98087,-1.66252c0.06226,-0.44152 0.69529,-1.21019 1.17665,-1.23178c2.97493,-0.13345 6.50501,0.86395 6.50501,0.86395l-2.33927,0.78906l2.99319,0.9603l-2.24274,0.32849l1.1301,1.41101z" fill="#dfdfdf" stroke="#723700" stroke-linecap="butt"/><path d="M167.87241,180.49712c-0.456,0.15254 -4.83197,0.71005 -4.83197,0.71005l-1.60937,0.74846l1.32938,-1.41101l-2.24274,-0.32849l3.03304,-1.63785l-2.37913,-0.1115c0,0 3.53008,-0.9974 6.505,-0.86395c0.48136,0.02159 1.11439,0.79026 1.17665,1.23178c0.06373,0.45201 -0.41943,1.47471 -0.98087,1.66252z" data-paper-data="{&quot;index&quot;:null}" fill="#dfdfdf" stroke="#723700" stroke-linecap="butt"/><path d="M170.91623,196.91351l-1.68922,-7.31994" fill="none" stroke="#723700" stroke-linecap="round"/><path d="M156.52344,182.43893c-0.36819,-0.91134 -0.07814,-1.8879 0.64784,-2.1812c0.58588,-0.2367 1.27664,0.04392 1.71494,0.64005c-0.11473,0.02455 -0.17971,0.13214 -0.17971,0.13214c-0.408,0.68794 -0.26097,1.47617 0.27765,2.05268l0.05945,0.03365c-0.13428,0.19722 -0.31609,0.35169 -0.539,0.44175c-0.72598,0.2933 -1.61298,-0.20771 -1.98118,-1.11905z" fill="#ffce91" stroke="#723700" stroke-linecap="butt"/><path d="M159.37178,177.60113c0,0 -1.16573,-0.26896 -1.52507,-0.35186c-0.19642,-0.04532 -0.47424,0.04337 -0.47424,0.04337l0.47156,-2.92522c0,0 0.24752,0.1542 0.4473,0.2003c0.36027,0.08312 1.51488,0.34951 1.51488,0.34951l-0.43443,2.68391z" fill="#dfdfdf" stroke="#723700" stroke-linecap="butt"/><path d="M158.70963,196.91352c-0.98846,0 -1.78977,-0.80131 -1.78977,-1.78977c0,-0.98846 0.80131,-1.78976 1.78977,-1.78976c0.98846,0 1.78977,0.8013 1.78977,1.78976c0,0.98846 -0.80131,1.78977 -1.78977,1.78977z" fill="#ffce91" stroke="#723700" stroke-linecap="butt"/><path d="M157.60361,193.49487l1.649,-5.22852l2.45339,0.12066l-1.32724,5.51007z" fill="#c78556" stroke="#723700" stroke-linecap="butt"/><path d="M177.94806,184.62798l-2.65455,-0.14292l2.7255,3.78294l-3.41131,-1.39639l0.61094,3.47929l-2.92937,-1.37647l-3.12647,2.80608l-3.44604,-2.28783l-2.30549,1.00855l-2.13454,-2.35264c0,0 -2.01844,0.12217 -2.43048,0.08065c-0.0636,-0.00641 1.87149,-3.38259 1.87149,-3.38259l-2.0445,0.38754c0,0 -0.94867,-2.84221 -0.32357,-3.95752c0.27999,-0.49957 2.41894,0.23146 2.43547,0.19285c0.06915,-0.16156 3.09561,0.99064 3.09561,0.99064l2.03565,-0.76341l2.3903,0.9774l2.83473,-1.22683l2.74005,1.51229l1.71426,-1.29637z" data-paper-data="{&quot;index&quot;:null}" fill="#dfdfdf" stroke="#723700" stroke-linecap="butt"/><path d="M166.61278,202.50402c0,0 -1.25673,-1.40518 -0.90306,-2.51399c0.21137,-0.66268 -3.03845,-2.87542 -3.03845,-2.87542l8.04389,0.08044l-0.24132,5.34918z" fill="#825738" stroke="#723700" stroke-linecap="butt"/><path d="M165.84859,199.56803l1.36746,-1.40768" fill="none" stroke="#723700" stroke-linecap="round"/><path d="M163.49541,202.3502l-3.84061,-0.08752l-0.36198,-5.02743l3.90129,-0.04022l1.97075,2.33273z" fill="#825738" stroke="#723700" stroke-linecap="butt"/><path d="M166.41169,207.89344l0.12066,-5.63073l3.98172,0.12066c0,0 -0.38738,3.95224 -0.37393,4.94771c0.00562,0.41576 0.45436,1.00477 0.45436,1.00477z" fill="#727272" stroke="#723700" stroke-linecap="butt"/><path d="M159.49392,207.93365l0.12066,-5.63073l3.98172,0.12066c0,0 -0.46815,3.75524 -0.49582,4.74441c-0.01244,0.44464 0.33493,1.00698 0.33493,1.00698z" fill="#727272" stroke="#723700" stroke-linecap="butt"/><path d="M166.77364,204.27369l3.37844,0.2011" fill="none" stroke="#723700" stroke-linecap="round"/><path d="M159.8559,203.99215l3.61975,0.08044" fill="none" stroke="#723700" stroke-linecap="round"/></g><g stroke-width="0.5"><path d="M204.32135,172.46987l0.26733,1.17922l0.28176,0.75611c0,0 -0.12679,0.60236 -0.36226,0.89788c-0.23547,0.29552 -0.42957,0.48507 -0.80501,0.56708c-0.37544,0.082 -0.61572,0.01059 -0.92576,-0.18903c-0.31004,-0.19962 -0.32201,-0.61434 -0.32201,-0.61434l0.28176,-0.3308l-0.44276,-1.13416z" data-paper-data="{&quot;index&quot;:null}" fill="#fed497" stroke="#000000" stroke-linecap="round"/><path d="M191.11309,173.78095l-0.44276,1.13416l0.28176,0.3308l-0.32201,0.61434c0,0 -0.56551,0.26772 -0.92576,0.18903c-0.36025,-0.07869 -0.56554,-0.26653 -0.80501,-0.56708c-0.23948,-0.30055 -0.34389,-0.52047 -0.36226,-0.89788c-0.01837,-0.3774 0.28176,-0.75611 0.28176,-0.75611l0.26733,-1.17922z" fill="#fed497" stroke="#000000" stroke-linecap="round"/><path d="M193.45162,184.53593c0,0 -0.34425,-2.49008 -0.34425,-3.85115c0,-1.25373 0.11012,-4.30942 0.11012,-4.30942l2.45593,-0.1377c0,0 0.01457,3.23268 0.01457,4.53356c0,1.32239 0.15071,3.7647 0.15071,3.7647z" data-paper-data="{&quot;index&quot;:null}" fill="#cfac7a" stroke="#000000" stroke-linecap="butt"/><path d="M193.045,184.20514c0,-0.58978 0.09595,-3.30393 0.09595,-3.30393h2.58191c0,0 0.2409,3.13856 0.0011,3.35648c-0.49042,0.44569 -2.67896,0.23047 -2.67896,-0.05255z" data-paper-data="{&quot;index&quot;:null}" fill="#a56637" stroke="#000000" stroke-linecap="butt"/><path d="M198.02006,184.63159c0,0 -0.34413,-2.83381 -0.34413,-4.08755c0,-1.36108 -0.16541,-4.00418 -0.16541,-4.00418l2.31822,0.1377c0,0 0.38484,3.60924 0.38484,4.89886c0,1.33261 -0.04633,2.95921 -0.04633,2.95921z" data-paper-data="{&quot;index&quot;:null}" fill="#cfac7a" stroke="#000000" stroke-linecap="butt"/><path d="M189.71756,169.39571c0,0 0.85316,-2.83565 1.62385,-3.6212c0.813,-0.82868 3.13399,-1.2284 3.13399,-1.2284l4.29267,0.08255l3.18711,0.80532l2.95666,7.77357l-3.07693,0.74675l-1.56329,-4.48268l-0.63677,-0.79794l1.79742,6.04198l0.80295,3.41014v1.07317l-11.22698,-0.12382l0.32152,-1.93633l2.15502,-7.96982c0,0 -0.84235,1.70219 -1.20619,2.57343c-0.27599,0.66088 -0.78706,2.19956 -0.78706,2.19956l-2.59948,-1.35705z" data-paper-data="{&quot;index&quot;:null}" fill="#a56ad4" stroke="#a56ad4" stroke-linecap="round"/><path d="M194.42334,164.68857l4.28579,-0.03727c0,0 2.82267,0.35511 3.70657,1.27505c0.77692,0.8086 1.31744,3.9538 1.31744,3.9538l-2.79758,0.59368l-1.22022,-1.79761l1.9942,6.70582l-9.89322,-0.19159l1.56349,-5.91795l-0.79839,1.04825l-2.50356,-1.74221l1.24758,-2.89174z" data-paper-data="{&quot;index&quot;:null}" fill="#ad89d4" stroke="#ad89d4" stroke-linecap="round"/><path d="M204.479,156.59023c-0.51638,5.63313 -2.86384,5.75144 -6.36949,6.41574c-0.16435,-0.03945 0.35074,0.62909 0.20387,1.55424c-0.71836,0.06562 -1.22093,0.89112 -1.70377,0.81838c-0.27985,-0.04216 -1.08463,-0.92034 -1.50253,-0.93277c0.04913,-1.30572 -0.11779,-0.79867 0.11767,-1.23057c-1.68753,-0.27138 -3.90922,-0.46164 -5.02735,-1.46694c-1.28492,-1.15526 -1.34492,-3.2228 -1.34492,-4.98595c0,-3.72207 0.75291,-6.302 7.81327,-6.7394c8.09907,-0.50176 8.15303,2.86075 7.81326,6.56728z" data-paper-data="{&quot;index&quot;:null}" fill="#fed497" stroke="#000000" stroke-linecap="butt"/><path d="M208.18367,162.20652c-0.63466,0.19756 -5.39567,2.18441 -9.14585,0.71902c0.87433,-0.12365 1.50337,-0.59441 2.1226,-0.9486c2.11885,-1.21194 2.3947,-3.33809 2.43853,-5.58284c0.05121,-2.62323 -1.07636,-4.3435 -2.79506,-5.07091c-0.76693,0.493 -0.75359,0.08159 -1.26879,0.80337c-0.02547,0.01595 -0.24157,-0.25676 -0.59114,-0.90493c-0.54693,0.33828 -0.58328,0.10886 -1.61542,0.94307c-0.72166,-0.67628 -1.05584,-0.81197 -1.28858,-0.08815c-0.71966,-0.77606 -1.11749,-0.84172 -1.52673,-0.90778c-0.68866,1.55812 -1.38305,0.55008 -2.23748,0.63023c-0.85443,0.08014 -0.1831,0.87835 -1.06599,-0.32038c-0.95433,0.48997 -1.11073,0.3422 -1.41716,1.43688c-0.33508,1.19702 0.19376,3.6089 0.21621,4.79372c0.02588,1.36537 -0.57488,1.59854 0.16297,2.75767c0.97507,1.53178 2.82103,2.33828 4.78499,2.63139c-2.21968,1.5484 -7.42908,0.60463 -9.81115,-1.5377c-1.46002,-1.31307 1.72914,-2.23357 1.72914,-4.1292c0,-2.81294 0.87277,-7.7477 3.45743,-10.67941c1.1876,-1.34706 4.31224,-2.65896 5.92784,-2.65896c2.29633,0 5.31589,1.51959 6.93742,2.62382c2.00224,1.36349 2.94751,8.61882 2.94751,10.88719c0,0 2.67338,4.40494 2.03872,4.6025z" data-paper-data="{&quot;index&quot;:null}" fill="#4f412e" stroke="#000000" stroke-linecap="butt"/><path d="M192.21945,173.22401c0.12722,-0.38917 0.39147,-1.26166 0.52889,-2.15649c0.04783,-0.31146 0.04903,-1.08654 0.17043,-1.52204c0.10001,-0.35878 0.38995,-0.58617 0.4136,-0.75786c-0.58421,0.64476 -0.59479,1.78259 -0.84673,2.54058c-0.27095,0.81515 -0.76812,1.26872 -0.98761,2.50321c-0.03191,-0.04106 -2.98891,-1.37119 -2.98891,-1.37119c0,0 1.90485,-6.15292 2.97025,-6.86266c0.97376,-0.64869 1.26246,-0.47654 3.12234,-1.13796c0.51275,-0.05435 1.33077,0.95664 1.93138,0.96213c0.80104,0.00733 1.41464,-0.97683 2.32665,-0.96213c3.67686,1.09414 3.25377,0.29852 3.9009,2.02968c0.71424,1.9107 2.11613,6.61352 2.11613,6.61352l-3.0469,0.5778c0,0 -0.70419,-1.59796 -1.21011,-2.97166c-0.31747,-0.86202 -0.34209,-1.59993 -0.73451,-1.91074c-0.01684,-0.01333 -0.04192,-0.01022 -0.06325,-0.01518c0.3631,0.73363 0.34804,1.08879 0.43611,1.36315c0.18714,0.58291 0.16375,0.58696 0.47033,1.57645c0.24036,0.77577 1.06343,3.87162 1.26451,4.75804c0.36223,1.59681 0.51034,1.63634 0.40548,2.41388c-0.09362,0.69419 -0.84784,0.04041 -1.04368,0.05191c-0.4457,0.02616 -0.84497,0.15303 -1.06234,0.15679c-0.51483,0.0089 -0.74539,-0.15205 -0.97709,-0.16508c-0.71385,-0.04013 -0.89893,0.2673 -1.09349,0.2582c-0.62788,-0.02937 -1.10556,-0.25965 -1.32378,-0.27695c-0.7819,-0.06197 -1.12612,0.19478 -1.32565,0.19559c-0.42085,0.00171 -0.71662,-0.18385 -0.81686,-0.19254c-0.94949,-0.08235 -0.78631,0.20031 -1.39097,0.19115c-0.87633,-0.01329 -0.72593,-0.21614 -1.22235,-0.21353c-0.27217,0.00143 -0.75668,0.21274 -0.94786,0.23597c-0.35042,0.04258 -0.52346,0.17061 0.07487,-2.19792c0.20658,-0.81773 0.47664,-2.26539 0.95023,-3.71412z" data-paper-data="{&quot;index&quot;:null}" fill="none" stroke="#000000" stroke-linecap="butt"/><path d="M197.43361,169.91855c0.94204,0.28056 0.86961,1.14462 0.36106,2.07496c-0.39925,0.7304 -1.36536,1.23575 -1.36536,1.23575c0,0 -1.00105,-0.63175 -1.33869,-1.35914c-0.46289,-0.99723 -0.24196,-1.66106 0.51785,-1.99531c0.89286,-0.02841 0.8922,0.89723 0.8922,0.89723c0,0 0.11032,-0.81067 0.93293,-0.8535z" data-paper-data="{&quot;index&quot;:null}" fill="#ff6b6b" stroke="#000000" stroke-linecap="butt"/><path d="M191.79291,153.2589c0,0 0.59384,-0.46286 0.9607,-0.53444c0.32821,-0.06404 1.13744,0.12505 1.13744,0.12505" data-paper-data="{&quot;index&quot;:null}" fill="none" stroke="#000000" stroke-linecap="round"/><path d="M199.08022,152.94761c0,0 0.70915,-0.35813 1.08468,-0.34311c0.33596,0.01344 1.06304,0.429 1.06304,0.429" data-paper-data="{&quot;index&quot;:null}" fill="none" stroke="#000000" stroke-linecap="round"/><path d="M191.76644,148.04993c-0.19132,0.36669 -0.56936,0.54763 -0.84438,0.40415c-0.27502,-0.14349 -0.34287,-0.55707 -0.15155,-0.92376c0.19132,-0.36669 0.56936,-0.54763 0.84438,-0.40415c0.27502,0.14349 0.34287,0.55707 0.15155,0.92376z" data-paper-data="{&quot;index&quot;:null}" fill="#6e5b41" stroke="none" stroke-linecap="butt"/><path d="M193.87421,147.26343c-0.19132,0.36669 -0.56936,0.54763 -0.84438,0.40415c-0.27502,-0.14349 -0.34287,-0.55707 -0.15155,-0.92376c0.19132,-0.36669 0.56936,-0.54763 0.84438,-0.40415c0.27502,0.14349 0.34287,0.55707 0.15155,0.92376z" data-paper-data="{&quot;index&quot;:null}" fill="#6e5b41" stroke="none" stroke-linecap="butt"/><path d="M191.06474,152.60208h0.60245" data-paper-data="{&quot;index&quot;:null}" fill="none" stroke="none" stroke-linecap="round"/><path d="M197.92399,159.89573c0,0 -0.77421,0.38381 -1.15142,0.38381c-0.40913,0 -1.21538,-0.38381 -1.21538,-0.38381" fill="none" stroke="#000000" stroke-linecap="round"/><path d="M193.4683,155.83465v1.53522" fill="none" stroke="#000000" stroke-linecap="round"/><path d="M199.67318,157.24193v-1.21538" fill="none" stroke="#000000" stroke-linecap="round"/><path d="M197.65068,184.30109c0,-0.58978 0.09595,-3.30393 0.09595,-3.30393l2.43798,-0.04798c0,0 0.28887,3.18654 0.04908,3.40446c-0.49042,0.44569 -2.58301,0.23047 -2.58301,-0.05255z" data-paper-data="{&quot;index&quot;:null}" fill="#a56637" stroke="#000000" stroke-linecap="butt"/></g><text transform="translate(248.69546,187.43803) scale(0.14186,0.14186)" font-size="128" xml:space="preserve" fill="#ffffff" fill-rule="nonzero" stroke="none" stroke-width="1" stroke-linecap="butt" stroke-linejoin="miter" stroke-miterlimit="10" stroke-dasharray="" stroke-dashoffset="0" font-family="Sans Serif" font-weight="400" text-anchor="start" style="mix-blend-mode: normal"><tspan x="0" dy="0">成就</tspan></text></g></g></svg>