<svg version="1.1" xmlns="http://www.w3.org/2000/svg" xmlns:xlink="http://www.w3.org/1999/xlink" width="75.54474" height="81.44234" viewBox="0,0,75.54474,81.44234"><defs><linearGradient x1="215.36902" y1="158.37511" x2="215.36902" y2="172.08763" gradientUnits="userSpaceOnUse" id="color-1"><stop offset="0" stop-color="#0a0a0a" stop-opacity="0"/><stop offset="1" stop-color="#0a0a0a"/></linearGradient><linearGradient x1="227.13722" y1="156.42136" x2="227.13722" y2="171.3528" gradientUnits="userSpaceOnUse" id="color-2"><stop offset="0" stop-color="#0a0a0a" stop-opacity="0"/><stop offset="1" stop-color="#0a0a0a"/></linearGradient><linearGradient x1="238.69594" y1="157.81956" x2="238.69594" y2="171.53211" gradientUnits="userSpaceOnUse" id="color-3"><stop offset="0" stop-color="#0a0a0a" stop-opacity="0"/><stop offset="1" stop-color="#0a0a0a"/></linearGradient><linearGradient x1="251.65294" y1="157.06588" x2="251.65294" y2="170.7784" gradientUnits="userSpaceOnUse" id="color-4"><stop offset="0" stop-color="#0a0a0a" stop-opacity="0"/><stop offset="1" stop-color="#0a0a0a"/></linearGradient><linearGradient x1="265.27279" y1="157.25464" x2="265.27279" y2="172.49079" gradientUnits="userSpaceOnUse" id="color-5"><stop offset="0" stop-color="#0a0a0a" stop-opacity="0"/><stop offset="1" stop-color="#0a0a0a"/></linearGradient></defs><g transform="translate(-202.22763,-140.45529)"><g data-paper-data="{&quot;isPaintingLayer&quot;:true}" fill-rule="nonzero" stroke-linejoin="miter" stroke-miterlimit="10" stroke-dasharray="" stroke-dashoffset="0" style="mix-blend-mode: normal"><path d="M271.54378,189.85609c-0.04072,0.29006 3.02587,-0.39241 4.19051,0.9056c1.83391,2.04397 1.31836,3.82295 0.81785,5.11851c-0.06786,0.17564 -0.13799,0.14306 -0.21026,0.30875c-2.78856,6.39372 -8.74222,5.48683 -9.06781,6.0955c-1.20025,2.24375 -0.39588,5.52051 -5.77215,9.82961c-5.52517,4.42846 -8.98657,7.62629 -13.39059,8.24397c-0.46703,0.06553 -7.13089,0.78961 -7.96062,0.78961c-2.11826,0 -5.37874,-0.26298 -7.79841,-0.8172c-3.36519,-0.77076 -6.44085,-3.03709 -12.17074,-8.24848c-4.78802,-4.35473 -6.21058,-9.04718 -7.44239,-10.94941c-0.12776,-0.19728 -4.53802,-0.19663 -6.09208,-1.11989c-3.44982,-2.04952 -4.71665,-7.03617 -2.71909,-9.54989c2.59687,-3.26785 5.48381,0.1945 5.30427,-1.66314c-0.22584,-2.33684 -2.63509,-4.56403 -2.63509,-7.14804c0,-20.85316 11.9177,-36.94954 33.53613,-36.94954c21.61846,0 33.53203,16.77139 33.53203,37.62458c0,0 -1.91717,6.07282 -2.12164,7.52943z" fill="#ffce91" stroke="#000000" stroke-width="1.5" stroke-linecap="butt"/><path d="M246.07125,207.58407c0,0 -3.39544,1.68325 -5.04975,1.68325c-1.79433,0 -5.3303,-1.68325 -5.3303,-1.68325" fill="none" stroke="#000000" stroke-width="1.5" stroke-linecap="round"/><path d="M242.70011,178.89825c-3.27292,0.26514 -10.92512,1.72674 -10.92512,1.72674c0,0 -3.59199,0.19391 -5.72816,-0.56616c-1.71501,-0.61023 -3.66707,-1.65217 -6.46067,-1.50623c-4.18154,0.21843 -7.65721,1.63971 -10.35858,3.10877c-6.75405,3.6729 -6.68034,-12.08059 -0.64814,-22.2251c3.49801,-4.96841 13.41538,-18.60767 30.40003,-18.223c16.98462,0.38465 25.4746,5.0642 33.30023,17.51173c7.16578,11.39797 2.25923,23.01842 1.53408,23.30004c-3.22097,1.25092 -5.91586,-1.22229 -8.69364,-0.41041c0,0 -8.01874,-1.44432 -11.02139,-1.78916c-3.28104,-0.37678 -5.43385,0.14806 -5.43385,0.14806c0,0 -3.51093,-1.27408 -5.9648,-1.0753z" fill="#1f1f1f" stroke="#000000" stroke-width="1.5" stroke-linecap="butt"/><path d="M221.49782,187.15585c0,0 2.43897,-1.12522 4.0945,-1.44824c1.48112,-0.28899 5.13296,0.56429 5.13296,0.56429" data-paper-data="{&quot;index&quot;:null}" fill="none" stroke="#000000" stroke-width="1.5" stroke-linecap="round"/><path d="M249.00562,187.33004c0,0 3.20021,-1.61615 4.89489,-1.54838c1.51612,0.06064 4.79724,1.93596 4.79724,1.93596" fill="none" stroke="#000000" stroke-width="1.5" stroke-linecap="round"/><path d="M219.90956,159.76813c-0.81717,1.95291 -2.3354,3.17801 -3.39103,2.73629c-1.05562,-0.4417 -1.24893,-2.38296 -0.43176,-4.33585c0.81717,-1.95291 2.33539,-3.178 3.39101,-2.7363c1.05562,0.44173 1.24895,2.38296 0.43178,4.3359z" fill="#393939" stroke="#000000" stroke-width="0" stroke-linecap="butt"/><path d="M225.18815,154.66359c-0.42115,1.09395 -1.44779,1.71691 -2.29309,1.39151c-0.8453,-0.32543 -1.18915,-1.47601 -0.76801,-2.56994c0.42115,-1.09395 1.44778,-1.71689 2.29308,-1.39149c0.8453,0.32543 1.18915,1.47601 0.76803,2.56994z" fill="#393939" stroke="none" stroke-width="0" stroke-linecap="butt"/><path d="M271.71094,195.20532c0,0 -0.27887,1.3152 -0.78111,1.84329c-0.37853,0.39805 -1.96757,1.04703 -1.96757,1.04703" fill="none" stroke="#d5ac79" stroke-width="1" stroke-linecap="round"/><path d="M209.48146,196.97394c0,0 -1.58905,-0.64898 -1.96757,-1.04703c-0.50223,-0.52809 -0.78111,-1.84329 -0.78111,-1.84329" data-paper-data="{&quot;index&quot;:null}" fill="none" stroke="#d5ac79" stroke-width="1" stroke-linecap="round"/><path d="M212.32177,180.24816c0,0 0.04162,-4.97425 1.43731,-7.49727c1.22209,-2.20917 4.65716,-6.21528 4.65716,-6.21528" fill="none" stroke="url(#color-1)" stroke-width="1.5" stroke-linecap="round"/><path d="M229.57501,164.58181c0,0 -0.99728,6.13917 -2.21935,8.34834c-1.39568,2.52301 -2.65619,6.58309 -2.65619,6.58309" fill="none" stroke="url(#color-2)" stroke-width="1.5" stroke-linecap="round"/><path d="M236.46765,179.69258c0,0 -0.56782,-3.1459 0.82789,-5.66891c1.22211,-2.20918 3.74296,-8.04364 3.74296,-8.04364" fill="none" stroke="url(#color-3)" stroke-width="1.5" stroke-linecap="round"/><path d="M248.6057,178.93888c0,0 0.65107,-3.75531 2.04678,-6.27832c1.22211,-2.20917 4.04769,-7.43419 4.04769,-7.43419" fill="none" stroke="url(#color-4)" stroke-width="1.5" stroke-linecap="round"/><path d="M266.81077,165.4151c0,0 0.83107,6.13917 -0.39102,8.34834c-1.3957,2.52301 -2.96092,6.88782 -2.96092,6.88782" fill="none" stroke="url(#color-5)" stroke-width="1.5" stroke-linecap="round"/><path d="M226.83145,199.60534v-6.12201" fill="none" stroke="#000000" stroke-width="1.5" stroke-linecap="round"/><path d="M252.41127,193.93351v6.12201" fill="none" stroke="#000000" stroke-width="1.5" stroke-linecap="round"/></g></g></svg>