<svg version="1.1" xmlns="http://www.w3.org/2000/svg" xmlns:xlink="http://www.w3.org/1999/xlink" width="118.16061" height="154.98958" viewBox="0,0,118.16061,154.98958"><g transform="translate(-186.34135,-97.82769)"><g data-paper-data="{&quot;isPaintingLayer&quot;:true}" fill-rule="nonzero" stroke-linejoin="miter" stroke-miterlimit="10" stroke-dasharray="" stroke-dashoffset="0" style="mix-blend-mode: normal"><text transform="translate(201.64775,247.45023) scale(0.14186,0.14186)" font-size="128" xml:space="preserve" fill="#ffffff" fill-rule="nonzero" stroke="none" stroke-width="1" stroke-linecap="butt" stroke-linejoin="miter" stroke-miterlimit="10" stroke-dasharray="" stroke-dashoffset="0" font-family="Sans Serif" font-weight="400" text-anchor="start" style="mix-blend-mode: normal"><tspan x="0" dy="0">经典游戏</tspan></text><g stroke="none" stroke-width="1" stroke-linecap="butt"><path d="M229.96097,164.78775c2.23065,1.31215 4.06768,4.46132 4.06768,7.08564v17.32043c0,2.62431 -1.83701,5.77347 -4.06768,7.08564l-15.08974,8.6602c-1.04973,0.52486 -2.49311,0.9185 -4.06768,0.9185c-1.57459,0 -3.01796,-0.26242 -4.06768,-0.9185l-15.08974,-8.6602c-2.23065,-1.31215 -4.06768,-4.46132 -4.06768,-7.08564v-17.32043c0,-2.62431 1.83701,-5.77347 4.06768,-7.08564l15.08974,-8.6602c2.23065,-1.31215 5.90469,-1.31215 8.13534,0z" fill="#dfded0"/><path d="M229.69855,163.08199c2.09945,1.18095 3.80524,4.19888 3.80524,6.56077v17.32043c0,2.36187 -1.70581,5.37983 -3.80524,6.56077l-15.08974,8.6602c-2.09945,1.18095 -5.51105,1.18095 -7.61048,0l-15.08974,-8.6602c-2.09945,-1.18095 -3.80524,-4.19888 -3.80524,-6.56077v-17.32043c0,-2.36187 1.70581,-5.37983 3.80524,-6.56077l15.08974,-8.6602c2.09945,-1.18095 5.51105,-1.18095 7.61048,0c0,0 14.95856,8.6602 15.08974,8.6602z" fill="#dfded0"/><path d="M210.80353,203.75868c-1.57459,0 -3.01796,-0.39364 -4.06768,-0.9185l-15.08974,-8.6602c-2.23065,-1.31215 -4.06768,-4.46132 -4.06768,-7.08564v-17.32043c0,-2.62431 1.83701,-5.77347 4.06768,-7.08564l15.08974,-8.6602c2.23065,-1.31215 5.90469,-1.31215 8.13534,0l15.08974,8.6602c2.23065,1.31215 4.06768,4.46132 4.06768,7.08564v17.32043c0,2.62431 -1.83701,5.77347 -4.06768,7.08564l-15.08974,8.6602c-1.04973,0.65609 -2.62431,0.9185 -4.06768,0.9185zM210.80353,154.02814c-1.31215,0 -2.62431,0.26242 -3.54282,0.78728l-15.08974,8.6602c-1.96823,1.04973 -3.54282,3.93646 -3.54282,6.16711v17.32043c0,2.23065 1.57459,4.98619 3.54282,6.16711l15.08974,8.6602c1.83701,1.04973 5.24861,1.04973 7.08564,0l15.08974,-8.6602c1.96823,-1.04973 3.54282,-3.93646 3.54282,-6.16711v-17.32043c0,-2.23065 -1.57459,-4.98619 -3.54282,-6.16711l-15.08974,-8.6602c-0.9185,-0.52486 -2.23065,-0.78728 -3.54282,-0.78728z" fill="#dfded0"/><path d="M210.80353,175.94105c-1.18095,0 -2.36187,-0.26242 -3.28036,-0.78728l-15.08974,-8.6602c-0.65609,-0.39364 -1.04973,-0.78728 -1.04973,-1.18095c0,-0.39364 0.39364,-0.9185 1.04973,-1.18095l15.08974,-8.6602c0.78728,-0.52486 1.96823,-0.78728 3.28036,-0.78728c1.31215,0 2.36187,0.26242 3.28036,0.78728l15.08974,8.6602c0.65609,0.39364 1.04973,0.78728 1.04973,1.18095c0,0.39364 -0.39364,0.9185 -1.04973,1.18095l-15.08974,8.6602c-0.9185,0.52486 -2.09945,0.78728 -3.28036,0.78728zM208.44166,201.79047c-0.39364,0 -0.78728,-0.13122 -1.18095,-0.39364l-15.08974,-8.6602c-1.70581,-1.04973 -3.28036,-3.54282 -3.28036,-5.64227v-17.32043c0,-0.52486 0.13122,-1.57459 1.04973,-1.57459c0.39364,0 0.78728,0.13122 1.18095,0.39364l15.08974,8.6602c1.70581,1.04973 3.28036,3.54282 3.28036,5.64227v17.18921c0,0.52486 -0.13122,1.04973 -0.39364,1.31215c-0.13122,0.26242 -0.26242,0.39364 -0.65609,0.39364zM212.90298,201.79047c-0.9185,0 -1.04973,-1.18095 -1.04973,-1.57459v-17.32043c0,-2.09945 1.44335,-4.59255 3.28036,-5.64227l15.08974,-8.6602c0.39364,-0.26242 0.78728,-0.39364 1.18095,-0.39364c0.9185,0 1.04973,1.18095 1.04973,1.57459v17.32043c0,2.09945 -1.44335,4.59255 -3.28036,5.64227l-15.08974,8.6602c-0.52486,0.26242 -0.9185,0.39364 -1.18095,0.39364z" fill="#ffffff"/><path d="M210.80353,166.88723c-1.44335,0 -2.62431,-0.65609 -2.62431,-1.57459c0,-0.9185 1.18095,-1.57459 2.62431,-1.57459c1.44335,0 2.62431,0.65609 2.62431,1.57459c0,0.9185 -1.31215,1.57459 -2.62431,1.57459zM192.30217,189.71871c-0.78728,0 -1.57459,-1.04973 -1.57459,-2.23065c0,-1.18095 0.65609,-2.23065 1.57459,-2.23065c0.9185,0 1.57459,1.04973 1.57459,2.23065c0,1.18095 -0.78728,2.23065 -1.57459,2.23065zM228.78004,189.71871c-0.78728,0 -1.57459,-1.04973 -1.57459,-2.23065c0,-1.18095 0.65609,-2.23065 1.57459,-2.23065c0.78728,0 1.57459,1.04973 1.57459,2.23065c-0.13122,1.18095 -0.78728,2.23065 -1.57459,2.23065zM192.30217,176.59715c-0.78728,0 -1.57459,-1.04973 -1.57459,-2.23065c0,-1.18095 0.65609,-2.23065 1.57459,-2.23065c0.9185,0 1.57459,1.04973 1.57459,2.23065c0,1.18095 -0.78728,2.23065 -1.57459,2.23065zM205.16128,185.12614c-0.78728,0 -1.57459,-1.04973 -1.57459,-2.23065c0,-1.18095 0.65609,-2.23065 1.57459,-2.23065c0.9185,0 1.57459,1.04973 1.57459,2.23065c0,1.18095 -0.65609,2.23065 -1.57459,2.23065zM216.18336,185.12614c-0.78728,0 -1.57459,-1.04973 -1.57459,-2.23065c0,-1.18095 0.65609,-2.23065 1.57459,-2.23065c0.9185,0 1.57459,1.04973 1.57459,2.23065c0,1.18095 -0.65609,2.23065 -1.57459,2.23065zM205.16128,197.19793c-0.78728,0 -1.57459,-1.04973 -1.57459,-2.23065c0,-1.18095 0.65609,-2.23065 1.57459,-2.23065c0.9185,0 1.57459,1.04973 1.57459,2.23065c0,1.18095 -0.65609,2.23065 -1.57459,2.23065z" fill="#c30d23"/></g><g stroke="none" stroke-width="1" stroke-linecap="butt"><path d="M229.2943,137.78775c2.23065,1.31215 4.06768,4.46132 4.06768,7.08564v17.32043c0,2.62431 -1.83701,5.77347 -4.06768,7.08564l-15.08974,8.6602c-1.04973,0.52486 -2.49311,0.9185 -4.06768,0.9185c-1.57459,0 -3.01796,-0.26242 -4.06768,-0.9185l-15.08974,-8.6602c-2.23065,-1.31215 -4.06768,-4.46132 -4.06768,-7.08564v-17.32043c0,-2.62431 1.83701,-5.77347 4.06768,-7.08564l15.08974,-8.6602c2.23065,-1.31215 5.90469,-1.31215 8.13534,0z" fill="#dfded0"/><path d="M229.03188,136.08199c2.09945,1.18095 3.80524,4.19888 3.80524,6.56077v17.32043c0,2.36187 -1.70581,5.37983 -3.80524,6.56077l-15.08974,8.6602c-2.09945,1.18095 -5.51105,1.18095 -7.61048,0l-15.08974,-8.6602c-2.09945,-1.18095 -3.80524,-4.19888 -3.80524,-6.56077v-17.32043c0,-2.36187 1.70581,-5.37983 3.80524,-6.56077l15.08974,-8.6602c2.09945,-1.18095 5.51105,-1.18095 7.61048,0c0,0 14.95856,8.6602 15.08974,8.6602z" fill="#dfded0"/><path d="M210.13686,176.75868c-1.57459,0 -3.01796,-0.39364 -4.06768,-0.9185l-15.08974,-8.6602c-2.23065,-1.31215 -4.06768,-4.46132 -4.06768,-7.08564v-17.32043c0,-2.62431 1.83701,-5.77347 4.06768,-7.08564l15.08974,-8.6602c2.23065,-1.31215 5.90469,-1.31215 8.13534,0l15.08974,8.6602c2.23065,1.31215 4.06768,4.46132 4.06768,7.08564v17.32043c0,2.62431 -1.83701,5.77347 -4.06768,7.08564l-15.08974,8.6602c-1.04973,0.65609 -2.62431,0.9185 -4.06768,0.9185zM210.13686,127.02814c-1.31215,0 -2.62431,0.26242 -3.54282,0.78728l-15.08974,8.6602c-1.96823,1.04973 -3.54282,3.93646 -3.54282,6.16711v17.32043c0,2.23065 1.57459,4.98619 3.54282,6.16711l15.08974,8.6602c1.83701,1.04973 5.24861,1.04973 7.08564,0l15.08974,-8.6602c1.96823,-1.04973 3.54282,-3.93646 3.54282,-6.16711v-17.32043c0,-2.23065 -1.57459,-4.98619 -3.54282,-6.16711l-15.08974,-8.6602c-0.9185,-0.52486 -2.23065,-0.78728 -3.54282,-0.78728z" fill="#dfded0"/><path d="M210.13686,148.94105c-1.18095,0 -2.36187,-0.26242 -3.28036,-0.78728l-15.08974,-8.6602c-0.65609,-0.39364 -1.04973,-0.78728 -1.04973,-1.18095c0,-0.39364 0.39364,-0.9185 1.04973,-1.18095l15.08974,-8.6602c0.78728,-0.52486 1.96823,-0.78728 3.28036,-0.78728c1.31215,0 2.36187,0.26242 3.28036,0.78728l15.08974,8.6602c0.65609,0.39364 1.04973,0.78728 1.04973,1.18095c0,0.39364 -0.39364,0.9185 -1.04973,1.18095l-15.08974,8.6602c-0.9185,0.52486 -2.09945,0.78728 -3.28036,0.78728zM207.775,174.79047c-0.39364,0 -0.78728,-0.13122 -1.18095,-0.39364l-15.08974,-8.6602c-1.70581,-1.04973 -3.28036,-3.54282 -3.28036,-5.64227v-17.32043c0,-0.52486 0.13122,-1.57459 1.04973,-1.57459c0.39364,0 0.78728,0.13122 1.18095,0.39364l15.08974,8.6602c1.70581,1.04973 3.28036,3.54282 3.28036,5.64227v17.18921c0,0.52486 -0.13122,1.04973 -0.39364,1.31215c-0.13122,0.26242 -0.26242,0.39364 -0.65609,0.39364zM212.2363,174.79047c-0.9185,0 -1.04973,-1.18095 -1.04973,-1.57459v-17.32043c0,-2.09945 1.44335,-4.59255 3.28036,-5.64227l15.08974,-8.6602c0.39364,-0.26242 0.78728,-0.39364 1.18095,-0.39364c0.9185,0 1.04973,1.18095 1.04973,1.57459v17.32043c0,2.09945 -1.44335,4.59255 -3.28036,5.64227l-15.08974,8.6602c-0.52486,0.26242 -0.9185,0.39364 -1.18095,0.39364z" fill="#ffffff"/><path d="M210.13686,139.88723c-1.44335,0 -2.62431,-0.65609 -2.62431,-1.57459c0,-0.9185 1.18095,-1.57459 2.62431,-1.57459c1.44335,0 2.62431,0.65609 2.62431,1.57459c0,0.9185 -1.31215,1.57459 -2.62431,1.57459zM191.6355,162.71871c-0.78728,0 -1.57459,-1.04973 -1.57459,-2.23065c0,-1.18095 0.65609,-2.23065 1.57459,-2.23065c0.9185,0 1.57459,1.04973 1.57459,2.23065c0,1.18095 -0.78728,2.23065 -1.57459,2.23065zM228.11337,162.71871c-0.78728,0 -1.57459,-1.04973 -1.57459,-2.23065c0,-1.18095 0.65609,-2.23065 1.57459,-2.23065c0.78728,0 1.57459,1.04973 1.57459,2.23065c-0.13122,1.18095 -0.78728,2.23065 -1.57459,2.23065zM191.6355,149.59715c-0.78728,0 -1.57459,-1.04973 -1.57459,-2.23065c0,-1.18095 0.65609,-2.23065 1.57459,-2.23065c0.9185,0 1.57459,1.04973 1.57459,2.23065c0,1.18095 -0.78728,2.23065 -1.57459,2.23065zM204.49461,158.12614c-0.78728,0 -1.57459,-1.04973 -1.57459,-2.23065c0,-1.18095 0.65609,-2.23065 1.57459,-2.23065c0.9185,0 1.57459,1.04973 1.57459,2.23065c0,1.18095 -0.65609,2.23065 -1.57459,2.23065zM215.51669,158.12614c-0.78728,0 -1.57459,-1.04973 -1.57459,-2.23065c0,-1.18095 0.65609,-2.23065 1.57459,-2.23065c0.9185,0 1.57459,1.04973 1.57459,2.23065c0,1.18095 -0.65609,2.23065 -1.57459,2.23065zM204.49461,170.19793c-0.78728,0 -1.57459,-1.04973 -1.57459,-2.23065c0,-1.18095 0.65609,-2.23065 1.57459,-2.23065c0.9185,0 1.57459,1.04973 1.57459,2.23065c0,1.18095 -0.65609,2.23065 -1.57459,2.23065z" fill="#c30d23"/></g><g stroke="none" stroke-width="1" stroke-linecap="butt"><path d="M228.72389,109.57147c2.23065,1.31215 4.06768,4.46132 4.06768,7.08564v17.32043c0,2.62431 -1.83701,5.77347 -4.06768,7.08564l-15.08974,8.6602c-1.04973,0.52486 -2.49311,0.9185 -4.06768,0.9185c-1.57459,0 -3.01796,-0.26242 -4.06768,-0.9185l-15.08974,-8.6602c-2.23065,-1.31215 -4.06768,-4.46132 -4.06768,-7.08564v-17.32043c0,-2.62431 1.83701,-5.77347 4.06768,-7.08564l15.08974,-8.6602c2.23065,-1.31215 5.90469,-1.31215 8.13534,0z" fill="#dfded0"/><path d="M228.46147,107.86564c2.09945,1.18095 3.80524,4.19888 3.80524,6.56077v17.32043c0,2.36187 -1.70581,5.37983 -3.80524,6.56077l-15.08974,8.6602c-2.09945,1.18095 -5.51105,1.18095 -7.61048,0l-15.08974,-8.6602c-2.09945,-1.18095 -3.80524,-4.19888 -3.80524,-6.56077v-17.32043c0,-2.36187 1.70581,-5.37983 3.80524,-6.56077l15.08974,-8.6602c2.09945,-1.18095 5.51105,-1.18095 7.61048,0c0,0 14.95856,8.6602 15.08974,8.6602z" fill="#dfded0"/><path d="M209.56645,148.54241c-1.57459,0 -3.01796,-0.39364 -4.06768,-0.9185l-15.08974,-8.6602c-2.23065,-1.31215 -4.06768,-4.46132 -4.06768,-7.08564v-17.32043c0,-2.62431 1.83701,-5.77347 4.06768,-7.08564l15.08974,-8.6602c2.23065,-1.31215 5.90469,-1.31215 8.13534,0l15.08974,8.6602c2.23065,1.31215 4.06768,4.46132 4.06768,7.08564v17.32043c0,2.62431 -1.83701,5.77347 -4.06768,7.08564l-15.08974,8.6602c-1.04973,0.65609 -2.62431,0.9185 -4.06768,0.9185zM209.56645,98.81181c-1.31215,0 -2.62431,0.26242 -3.54282,0.78728l-15.08974,8.6602c-1.96823,1.04973 -3.54282,3.93646 -3.54282,6.16711v17.32043c0,2.23065 1.57459,4.98619 3.54282,6.16711l15.08974,8.6602c1.83701,1.04973 5.24861,1.04973 7.08564,0l15.08974,-8.6602c1.96823,-1.04973 3.54282,-3.93646 3.54282,-6.16711v-17.32043c0,-2.23065 -1.57459,-4.98619 -3.54282,-6.16711l-15.08974,-8.6602c-0.9185,-0.52486 -2.23065,-0.78728 -3.54282,-0.78728z" fill="#dfded0"/><path d="M209.56645,120.72477c-1.18095,0 -2.36187,-0.26242 -3.28036,-0.78728l-15.08974,-8.6602c-0.65609,-0.39364 -1.04973,-0.78728 -1.04973,-1.18095c0,-0.39364 0.39364,-0.9185 1.04973,-1.18095l15.08974,-8.6602c0.78728,-0.52486 1.96823,-0.78728 3.28036,-0.78728c1.31215,0 2.36187,0.26242 3.28036,0.78728l15.08974,8.6602c0.65609,0.39364 1.04973,0.78728 1.04973,1.18095c0,0.39364 -0.39364,0.9185 -1.04973,1.18095l-15.08974,8.6602c-0.9185,0.52486 -2.09945,0.78728 -3.28036,0.78728zM207.20459,146.5742c-0.39364,0 -0.78728,-0.13122 -1.18095,-0.39364l-15.08974,-8.6602c-1.70581,-1.04973 -3.28036,-3.54282 -3.28036,-5.64227v-17.32043c0,-0.52486 0.13122,-1.57459 1.04973,-1.57459c0.39364,0 0.78728,0.13122 1.18095,0.39364l15.08974,8.6602c1.70581,1.04973 3.28036,3.54282 3.28036,5.64227v17.18921c0,0.52486 -0.13122,1.04973 -0.39364,1.31215c-0.13122,0.26242 -0.26242,0.39364 -0.65609,0.39364zM211.6659,146.5742c-0.9185,0 -1.04973,-1.18095 -1.04973,-1.57459v-17.32043c0,-2.09945 1.44335,-4.59255 3.28036,-5.64227l15.08974,-8.6602c0.39364,-0.26242 0.78728,-0.39364 1.18095,-0.39364c0.9185,0 1.04973,1.18095 1.04973,1.57459v17.32043c0,2.09945 -1.44335,4.59255 -3.28036,5.64227l-15.08974,8.6602c-0.52486,0.26242 -0.9185,0.39364 -1.18095,0.39364z" fill="#ffffff"/><path d="M209.56645,111.6709c-1.44335,0 -2.62431,-0.65609 -2.62431,-1.57459c0,-0.9185 1.18095,-1.57459 2.62431,-1.57459c1.44335,0 2.62431,0.65609 2.62431,1.57459c0,0.9185 -1.31215,1.57459 -2.62431,1.57459zM191.06509,134.50238c-0.78728,0 -1.57459,-1.04973 -1.57459,-2.23065c0,-1.18095 0.65609,-2.23065 1.57459,-2.23065c0.9185,0 1.57459,1.04973 1.57459,2.23065c0,1.18095 -0.78728,2.23065 -1.57459,2.23065zM227.54296,134.50238c-0.78728,0 -1.57459,-1.04973 -1.57459,-2.23065c0,-1.18095 0.65609,-2.23065 1.57459,-2.23065c0.78728,0 1.57459,1.04973 1.57459,2.23065c-0.13122,1.18095 -0.78728,2.23065 -1.57459,2.23065zM191.06509,121.38085c-0.78728,0 -1.57459,-1.04973 -1.57459,-2.23065c0,-1.18095 0.65609,-2.23065 1.57459,-2.23065c0.9185,0 1.57459,1.04973 1.57459,2.23065c0,1.18095 -0.78728,2.23065 -1.57459,2.23065zM203.9242,129.90985c-0.78728,0 -1.57459,-1.04973 -1.57459,-2.23065c0,-1.18095 0.65609,-2.23065 1.57459,-2.23065c0.9185,0 1.57459,1.04973 1.57459,2.23065c0,1.18095 -0.65609,2.23065 -1.57459,2.23065zM214.94628,129.90985c-0.78728,0 -1.57459,-1.04973 -1.57459,-2.23065c0,-1.18095 0.65609,-2.23065 1.57459,-2.23065c0.9185,0 1.57459,1.04973 1.57459,2.23065c0,1.18095 -0.65609,2.23065 -1.57459,2.23065zM203.9242,141.98162c-0.78728,0 -1.57459,-1.04973 -1.57459,-2.23065c0,-1.18095 0.65609,-2.23065 1.57459,-2.23065c0.9185,0 1.57459,1.04973 1.57459,2.23065c0,1.18095 -0.65609,2.23065 -1.57459,2.23065z" fill="#c30d23"/></g><g stroke="none" stroke-width="1" stroke-linecap="butt"><path d="M261.38674,171.77293c1.85864,1.80083 2.90188,5.29419 2.2835,7.84461l-4.08133,16.83271c-0.61839,2.55041 -3.14572,5.17803 -5.62278,5.92762l-16.70549,4.86064c-1.14384,0.26272 -2.63934,0.30517 -4.16957,-0.06585c-1.53025,-0.37103 -2.87114,-0.96617 -3.7367,-1.85113l-12.62417,-11.97204c-1.85864,-1.80083 -2.90189,-5.29419 -2.28351,-7.84461l4.08133,-16.83271c0.61839,-2.55041 3.14572,-5.17802 5.62277,-5.92762l16.7055,-4.86064c2.47703,-0.74958 6.04761,0.11616 7.90626,1.91699z" fill="#dfded0"/><path d="M261.53365,170.05335c1.76205,1.6424 2.70868,4.9773 2.15213,7.27268l-4.08133,16.83271c-0.55654,2.29537 -2.92546,4.82639 -5.24404,5.47937l-16.70549,4.86064c-2.31861,0.65299 -5.63415,-0.15091 -7.39618,-1.79331l-12.62417,-11.97203c-1.76206,-1.6424 -2.70868,-4.97731 -2.15213,-7.27268l4.08133,-16.83271c0.55654,-2.29537 2.92547,-4.82639 5.24405,-5.47938l16.70549,-4.86064c2.31861,-0.65299 5.63414,0.15091 7.39618,1.79331c0,0 12.49669,11.94113 12.62417,11.97204z" fill="#dfded0"/><path d="M233.58576,205.13229c-1.53025,-0.37103 -2.84023,-1.0937 -3.73671,-1.85113l-12.62417,-11.97203c-1.85864,-1.80083 -2.90189,-5.29419 -2.2835,-7.84461l4.08133,-16.83271c0.61839,-2.55041 3.14572,-5.17802 5.62278,-5.92762l16.70549,-4.86065c2.47703,-0.74958 6.04762,0.11616 7.90626,1.91699l12.62417,11.97204c1.85865,1.80083 2.90189,5.29419 2.28351,7.84461l-4.08133,16.83271c-0.61839,2.55041 -3.14573,5.17803 -5.62278,5.92763l-16.70549,4.86064c-1.17477,0.39026 -2.76685,0.27425 -4.16957,-0.06585zM245.30411,156.80208c-1.2752,-0.30919 -2.61225,-0.36335 -3.62857,-0.0697l-16.70549,4.86064c-2.16016,0.55639 -4.37063,2.99079 -4.89626,5.15864l-4.08133,16.83271c-0.52563,2.16784 0.35532,5.21681 1.98986,6.82827l12.62417,11.97204c1.53793,1.45304 4.85346,2.25694 6.88612,1.66964l16.7055,-4.86065c2.16016,-0.55639 4.37063,-2.99079 4.89625,-5.15863l4.08133,-16.83271c0.52562,-2.16784 -0.35532,-5.21681 -1.98986,-6.82827l-12.62417,-11.97203c-0.76896,-0.72652 -1.98233,-1.29074 -3.25755,-1.59993z" fill="#dfded0"/><path d="M240.14062,178.09797c-1.14769,-0.27828 -2.23353,-0.81158 -3.00248,-1.53808l-12.62417,-11.97204c-0.54486,-0.53716 -0.83466,-1.01247 -0.74189,-1.39505c0.09275,-0.38255 0.59898,-0.79988 1.29845,-0.90034l16.70549,-4.86064c0.88878,-0.32457 2.09832,-0.30133 3.3735,0.00786c1.2752,0.30919 2.23353,0.81158 3.00248,1.53809l12.62417,11.97203c0.54486,0.53716 0.83466,1.01247 0.74189,1.39506c-0.09275,0.38255 -0.59898,0.79988 -1.29845,0.90034l-16.70549,4.86064c-1.01631,0.29365 -2.22584,0.27041 -3.3735,-0.00786zM231.75419,202.66297c-0.38255,-0.09276 -0.73418,-0.31304 -1.05494,-0.66083l-12.62417,-11.97204c-1.41042,-1.42212 -2.35318,-4.21603 -1.85847,-6.25636l4.08133,-16.83271c0.12368,-0.51008 0.49855,-1.49933 1.3912,-1.28289c0.38255,0.09276 0.73419,0.31303 1.05494,0.66083l12.62417,11.97204c1.41042,1.42212 2.35318,4.21604 1.85847,6.25637l-4.05041,16.70518c-0.12368,0.51008 -0.37488,0.98926 -0.69174,1.18245c-0.18936,0.22411 -0.34779,0.32072 -0.73037,0.22796zM236.08987,203.71421c-0.89263,-0.21643 -0.74189,-1.39505 -0.64914,-1.7776l4.08133,-16.83271c0.49471,-2.04033 2.48488,-4.12312 4.51752,-4.71042l16.70549,-4.86064c0.44439,-0.16227 0.85786,-0.19705 1.24045,-0.10428c0.89263,0.21643 0.74189,1.39505 0.64914,1.77761l-4.08133,16.83271c-0.49471,2.04033 -2.48488,4.12312 -4.51751,4.71042l-16.70549,4.86064c-0.57192,0.13135 -0.98539,0.16613 -1.24045,0.10428z" fill="#ffffff"/><path d="M242.27403,169.29908c-1.4027,-0.3401 -2.39581,-1.256 -2.17938,-2.14863c0.21643,-0.89264 1.51873,-1.25198 2.92145,-0.91187c1.4027,0.3401 2.39581,1.256 2.17938,2.14863c-0.21643,0.89264 -1.64623,1.22106 -2.92144,0.91187zM218.91371,187.12805c-0.76511,-0.18551 -1.2829,-1.3912 -1.00463,-2.53887c0.27827,-1.14769 1.16324,-2.01324 2.05587,-1.79681c0.89263,0.21643 1.2829,1.39121 1.00463,2.53887c-0.27827,1.14769 -1.29073,1.98233 -2.05588,1.79681zM254.36441,195.72358c-0.76511,-0.18551 -1.2829,-1.39121 -1.00463,-2.53887c0.27827,-1.14769 1.16324,-2.01324 2.05588,-1.79681c0.76511,0.18551 1.2829,1.3912 1.00463,2.53886c-0.4058,1.11677 -1.29073,1.98233 -2.05588,1.79681zM222.00564,174.37596c-0.76511,-0.18551 -1.2829,-1.39121 -1.00463,-2.53887c0.27827,-1.14769 1.16324,-2.01324 2.05588,-1.79681c0.89263,0.21643 1.2829,1.39121 1.00463,2.53887c-0.27827,1.14769 -1.29073,1.98233 -2.05587,1.79681zM232.4929,185.69488c-0.76511,-0.18551 -1.2829,-1.3912 -1.00463,-2.53886c0.27827,-1.14769 1.16324,-2.01324 2.05588,-1.79681c0.89263,0.21643 1.2829,1.3912 1.00463,2.53887c-0.27827,1.14769 -1.16324,2.01324 -2.05588,1.79681zM243.20462,188.29209c-0.76511,-0.18551 -1.2829,-1.39121 -1.00463,-2.53887c0.27827,-1.14769 1.16324,-2.01324 2.05588,-1.79681c0.89263,0.21643 1.2829,1.3912 1.00463,2.53886c-0.27827,1.14769 -1.16324,2.01324 -2.05588,1.79681zM229.64834,197.42677c-0.76511,-0.18551 -1.2829,-1.39121 -1.00463,-2.53887c0.27827,-1.14769 1.16324,-2.01324 2.05588,-1.79681c0.89263,0.21643 1.2829,1.3912 1.00463,2.53887c-0.27827,1.14769 -1.16324,2.01324 -2.05588,1.79681z" fill="#c30d23"/></g><g><path d="M281.43251,200.45104c0,0.91755 -0.96153,1.66138 -2.14764,1.66138c-1.1861,0 -3.84953,-0.17653 -3.84953,-1.09408c0,-0.91755 2.66343,-2.22867 3.84953,-2.22867c1.1861,0 2.14764,0.74382 2.14764,1.66137z" fill="#727272" stroke="#723700" stroke-width="1.5" stroke-linecap="butt"/><path d="M272.76094,200.45104c0,0.91755 -0.96153,1.66138 -2.14764,1.66138c-1.1861,0 -3.84953,-0.17653 -3.84953,-1.09408c0,-0.91755 2.66343,-2.22866 3.84953,-2.22866c1.1861,0 2.14764,0.74382 2.14764,1.66137z" fill="#727272" stroke="#723700" stroke-width="1.5" stroke-linecap="butt"/><path d="M259.20963,170.96295c-1.86632,0.58273 -3.85166,-0.45783 -4.43439,-2.32415c-0.58273,-1.86632 0.45783,-3.85165 2.32415,-4.43438c1.86632,-0.58273 3.85166,0.45783 4.43439,2.32415c0.58273,1.86632 -0.45783,3.85167 -2.32415,4.4344z" fill="#eca956" stroke="#723700" stroke-width="1.5" stroke-linecap="butt"/><path d="M260.13705,170.14476c0.55672,-0.24842 -0.10192,-2.78224 0.26001,-3.24653c0.38908,-0.49914 -0.62126,-2.15033 -0.62126,-2.15033l16.29272,-4.11673l0.70566,4.90726c0,0 -16.93285,4.73829 -16.63713,4.60633z" fill="#e8c0aa" stroke="#723700" stroke-width="1.5" stroke-linecap="butt"/><path d="M253.8048,181.8362c0,-1.95518 1.58499,-3.54016 3.54016,-3.54016c1.95518,0 3.54016,1.58498 3.54016,3.54016c0,1.95518 -1.58498,3.54016 -3.54016,3.54016c-1.95518,0 -3.54016,-1.58498 -3.54016,-3.54016z" fill="#eca956" stroke="#723700" stroke-width="1.5" stroke-linecap="butt"/><path d="M279.71845,164.29648l1.16848,3.4508l-20.29698,14.25612c0,0 -2.14743,-0.90847 -2.15827,-1.17816c-0.00767,-0.19065 -1.60596,-2.51708 -1.0759,-2.52652c0.11395,-0.00203 22.36267,-14.00224 22.36267,-14.00224z" fill="#e8c0aa" stroke="#723700" stroke-width="1.5" stroke-linecap="butt"/><path d="M267.06931,182.85918l3.31028,-16.70321h10.66023l2.53781,16.53356z" fill="#bb4b4f" stroke="#723700" stroke-width="1.5" stroke-linecap="butt"/><path d="M265.04627,198.53709c-0.9631,-0.67699 -1.47805,-0.71628 -1.27286,-2.47684c0.41091,-3.52556 3.23063,-13.47151 3.23063,-13.47151l16.53108,0.08101c0,0 2.43944,9.91646 2.80482,13.31538c0.20874,1.9418 -0.16611,1.65176 -1.6424,2.46315c-0.99806,0.54855 -2.15268,0.55131 -4.02668,0.74237c-3.49704,0.35652 -9.3717,0.54605 -12.50311,0.27593c-2.01737,-0.17402 -2.19486,-0.27815 -3.12148,-0.9295z" fill="#bb4b4f" stroke="#723700" stroke-width="1.5" stroke-linecap="butt"/><path d="M273.01608,182.49342l2.16648,-13.95968" fill="none" stroke="#723700" stroke-width="1.5" stroke-linecap="round"/><path d="M269.07674,192.31827c-1.02827,-1.89128 1.25615,-9.61006 1.25615,-9.61006h10.47485c0,0 1.39163,8.48589 0.94365,9.37806c-1.41241,2.81287 -4.75759,3.37099 -6.51105,3.37099c-1.73802,0 -5.13532,-1.2477 -6.16359,-3.13899z" fill="#e8c0aa" stroke="#723700" stroke-width="1.5" stroke-linecap="butt"/><path d="M293.29127,153.88757c0,4.70201 -2.311,8.4248 -5.8557,10.68825c-3.07552,1.96386 -7.2743,4.43432 -11.50366,4.43432c-3.16932,0 -7.60325,-1.83238 -10.00856,-2.94355c-4.50396,-2.08068 -5.60027,-6.4545 -5.60027,-12.17901c0,-8.78165 7.38017,-15.90058 16.48409,-15.90058c9.10391,0 16.48409,7.11893 16.48409,15.90058z" fill="#ffce91" stroke="#723700" stroke-width="1.5" stroke-linecap="butt"/><path d="M258.7189,159.57873c-0.81733,-1.48135 -0.46966,-3.23964 0.77656,-3.92724c1.24622,-0.6876 1.97883,0.50193 2.79617,1.98328c0.81734,1.48135 1.40989,3.17982 0.16367,3.86742c-1.24622,0.6876 -2.91906,-0.44212 -3.7364,-1.92347z" fill="#ffce91" stroke="#723700" stroke-width="1.5" stroke-linecap="butt"/><path d="M290.66709,156.66825c0.46399,-1.62701 1.94973,-2.62953 3.31848,-2.23918c1.36875,0.39034 2.1022,2.02573 1.63821,3.65274c-0.46399,1.62701 -1.94974,2.62953 -3.31849,2.23918c-1.36875,-0.39034 -2.1022,-2.02573 -1.63821,-3.65274z" fill="#ffce91" stroke="#723700" stroke-width="1.5" stroke-linecap="butt"/><path d="M297.55995,148.2392c0.55356,2.52126 1.66378,3.88585 1.66378,3.88585c0,0 -5.84434,0.84073 -5.92926,1.2914c-1.41834,7.52673 -5.02385,6.99047 -5.02385,6.99047c0,0 2.15577,-14.33103 -0.08978,-13.67473c-1.02613,0.2999 -8.16043,-3.00142 -8.16043,-3.00142c0,0 -1.80291,5.73808 -3.55862,6.08089c-1.97885,0.38638 -6.77069,-6.87319 -6.77069,-6.87319c0,0 -0.76256,3.31189 -2.73871,5.14341c-1.37771,1.27688 -4.03957,0.74548 -5.14536,1.20567c-0.44867,0.18672 -0.16298,2.2692 0.42751,4.86806c0.202,0.88907 0.86903,1.83857 0.97243,2.79328c0.24766,2.28663 0.67413,4.15754 0.67413,4.15754c0,0 -2.88331,-4.16038 -3.89463,-3.90472c-0.85007,0.21489 -2.10478,1.7793 -3.13104,2.20874c-1.96632,0.82283 -3.61347,0.59631 -3.61347,0.59631c0,0 1.37337,-2.43237 1.75291,-4.88083c0.16711,-1.07803 0.15847,-2.93084 0.34779,-4.26312c0.71008,-4.99681 1.6633,-10.29598 1.6633,-10.29598c0,0 -3.00272,-0.53939 -4.06878,-1.19138c-0.97955,-0.59908 -2.47905,-2.57527 -2.47905,-2.57527c0,0 2.88366,-0.23606 5.91919,-1.75829c4.04538,-2.02864 7.06277,-4.80886 10.0167,-5.83357c0.41095,-0.14256 -0.89614,-1.23769 -0.89614,-1.23769c0,0 10.02902,-1.92887 12.64039,-1.92887c6.08058,0 12.29051,3.63614 15.58602,8.87803c3.01763,4.79989 3.35597,11.13466 3.83564,13.31939z" fill="#e08989" stroke="#723700" stroke-width="1.5" stroke-linecap="butt"/><path d="M261.73928,158.47512c0,0 -1.86815,-2.37738 -2.17366,-3.3341c-0.31034,-0.97185 -0.16038,-3.91111 -0.16038,-3.91111" fill="none" stroke="#723700" stroke-width="1.5" stroke-linecap="round"/><path d="M262.6632,155.38738c0,0 -0.92914,-3.19497 -0.86588,-4.27855c0.02201,-0.37706 0.52549,-6.85672 0.52549,-6.85672" fill="none" stroke="#723700" stroke-width="1.5" stroke-linecap="round"/><path d="M288.65356,143.01216l0.43765,7.82874" fill="none" stroke="#723700" stroke-width="1.5" stroke-linecap="round"/><path d="M293.97807,148.62842c0,0 -0.24897,3.58832 -0.3763,4.05218c-0.29644,1.07991 -0.74208,2.53661 -0.74208,2.53661" fill="none" stroke="#723700" stroke-width="1.5" stroke-linecap="round"/><path d="M260.97477,141.426c-0.11106,0.71938 -0.62347,1.25889 -1.1445,1.20505c-0.52103,-0.05384 -0.85337,-0.68067 -0.74231,-1.40005c0.11106,-0.71938 0.62347,-1.25889 1.1445,-1.20504c0.52103,0.05384 0.85337,0.68067 0.74231,1.40004z" fill="#e0a1a1" stroke="none" stroke-width="0" stroke-linecap="butt"/><path d="M262.55989,139.67521c0,0.40283 -0.19593,0.72938 -0.43763,0.72938c-0.2417,0 -0.43763,-0.32655 -0.43763,-0.72938c0,-0.40283 0.19593,-0.72938 0.43763,-0.72938c0.2417,0 0.43763,0.32655 0.43763,0.72938z" fill="#e0a1a1" stroke="none" stroke-width="0" stroke-linecap="butt"/><path d="M288.91499,136.41731c0,0.42968 -0.28302,0.77801 -0.63214,0.77801c-0.34912,0 -0.63214,-0.34832 -0.63214,-0.77801c0,-0.42968 0.28302,-0.77801 0.63214,-0.77801c0.34912,0 0.63214,0.34832 0.63214,0.77801z" fill="#e0a1a1" stroke="#825738" stroke-width="0" stroke-linecap="butt"/><path d="M297.25809,130.70322c0.77968,1.12787 2.28159,2.26798 3.09148,3.44668c1.15288,1.67788 2.86389,3.23432 2.86389,3.23432c0,0 -1.96007,1.05499 -3.2117,1.11089c-0.98412,0.04395 -1.11473,11.30372 -1.11473,11.30372c0,0 -2.54058,-3.71126 -4.02227,-8.47473c-1.10307,-3.54626 -0.63273,-6.60709 -3.77823,-9.01633c-5.33866,-3.26375 -2.95568,-3.37839 -7.31918,-5.25559c-1.75591,-0.7554 1.16953,-4.49059 3.88951,-4.96006c3.54706,-0.61222 5.12598,-0.14974 7.26107,2.67581c0,0 0.0395,2.60721 2.34016,5.93529z" fill="#e06767" stroke="#723700" stroke-width="1.5" stroke-linecap="butt"/><path d="M299.61262,136.22284l0.19451,4.47356" fill="none" stroke="#723700" stroke-width="1.5" stroke-linecap="round"/><path d="M264.06729,151.2968c0,0 1.12853,-0.87962 1.82571,-1.01565c0.62372,-0.1217 2.16159,0.23764 2.16159,0.23764" fill="none" stroke="#723700" stroke-width="1.5" stroke-linecap="round"/><path d="M278.66677,150.47491c0,0 1.34766,-0.68059 2.06132,-0.65205c0.63846,0.02554 2.0202,0.81527 2.0202,0.81527" fill="none" stroke="#723700" stroke-width="1.5" stroke-linecap="round"/><path d="M266.377,158.59063v-2.77166" fill="none" stroke="#723700" stroke-width="1.5" stroke-linecap="round"/><path d="M279.98195,155.96485v2.52854" fill="none" stroke="#723700" stroke-width="1.5" stroke-linecap="round"/><path d="M275.14933,161.97775c0,0 -1.36992,1.30303 -1.82658,1.30303c-0.67298,0 -1.82034,-1.30303 -1.82034,-1.30303" fill="none" stroke="#723700" stroke-width="1.5" stroke-linecap="round"/></g></g></g></svg>