<svg version="1.1" xmlns="http://www.w3.org/2000/svg" xmlns:xlink="http://www.w3.org/1999/xlink" width="61.94611" height="76.97199" viewBox="0,0,61.94611,76.97199"><defs><linearGradient x1="240.00003" y1="142.26403" x2="240.00003" y2="217.73602" gradientUnits="userSpaceOnUse" id="color-1"><stop offset="0" stop-color="#ffbd2d"/><stop offset="1" stop-color="#ffd878"/></linearGradient></defs><g transform="translate(-209.02697,-141.51402)"><g data-paper-data="{&quot;isPaintingLayer&quot;:true}" fill-rule="nonzero" stroke-linecap="butt" stroke-linejoin="miter" stroke-miterlimit="10" stroke-dasharray="" stroke-dashoffset="0" style="mix-blend-mode: normal"><path d="M270.22307,149.02737v61.9466c0,3.72889 -3.03179,6.76205 -6.76332,6.76205h-46.92073c-3.7276,0 -6.76204,-3.03313 -6.76204,-6.76205v-61.94789c0,-3.72889 3.03445,-6.76205 6.76205,-6.76205h46.92074c3.73154,0 6.76332,3.03447 6.76332,6.76334z" fill="url(#color-1)" stroke="#ffbe31" stroke-width="1.5"/><text transform="translate(222.94574,207.92458) scale(0.27778,0.27778)" font-size="40" xml:space="preserve" fill="#c2774e" fill-rule="nonzero" stroke="none" stroke-width="1" stroke-linecap="butt" stroke-linejoin="miter" stroke-miterlimit="10" stroke-dasharray="" stroke-dashoffset="0" font-family="Sans Serif" font-weight="normal" text-anchor="start" style="mix-blend-mode: normal"><tspan x="0" dy="0">抢夺卡</tspan></text><g stroke="#a0783c" stroke-width="0"><path d="M249.73502,171.11082c1.227,0.989 5.133,-2.133 6.509,-1.555c-0.507,1.995 -26.9491,18.356 -27.4451,17.095c-0.793,-2.014 -3.734,-7.923 -3.734,-7.923l12.45611,-8.653c0,0 14.337,-8.855 14.647,-7.953c0.311,0.902 -5.874,5.126 -4.885,5.786c0.991,0.659 7.357,-3.721 8.018,-2.59c0.659,1.13 -6.792,4.804 -5.566,5.793" fill="#e6b56c"/><path d="M243.54446,163.58414c0.998,0.08 -2.606,5.623 -1.677,5.903c3.035,0.917 4.154,3.436 1.118,4.866c-2.249,1.058 -4.664,-0.012 -4.428,-2.744c0.236,-2.732 3.988,-8.104 4.987,-8.025" fill="#a0783c"/></g></g></g></svg>