<svg version="1.1" xmlns="http://www.w3.org/2000/svg" xmlns:xlink="http://www.w3.org/1999/xlink" width="141.46993" height="46.66087" viewBox="0,0,141.46993,46.66087"><defs><linearGradient x1="186.77893" y1="160.35614" x2="186.77893" y2="204.53261" gradientUnits="userSpaceOnUse" id="color-1"><stop offset="0" stop-color="#5c5c5c" stop-opacity="0"/><stop offset="1" stop-color="#5c5c5c"/></linearGradient></defs><g transform="translate(-163.61844,-157.87174)"><g data-paper-data="{&quot;isPaintingLayer&quot;:true}" fill-rule="nonzero" stroke-linejoin="miter" stroke-miterlimit="10" stroke-dasharray="" stroke-dashoffset="0" style="mix-blend-mode: normal"><text transform="translate(232.24326,186.45718) scale(0.14186,0.14186)" font-size="128" xml:space="preserve" fill="#ffffff" fill-rule="nonzero" stroke="none" stroke-width="1" stroke-linecap="butt" stroke-linejoin="miter" stroke-miterlimit="10" stroke-dasharray="" stroke-dashoffset="0" font-family="Sans Serif" font-weight="400" text-anchor="start" style="mix-blend-mode: normal"><tspan x="0" dy="0">热斗模式</tspan></text><g><path d="M209.93941,182.44437c0,12.19899 -10.36931,22.08824 -23.16048,22.08824c-12.79117,0 -23.16048,-9.88924 -23.16048,-22.08824c0,-12.19899 10.36931,-22.08824 23.16048,-22.08824c12.79117,0 23.16048,9.88924 23.16048,22.08824z" fill="url(#color-1)" stroke="none" stroke-width="NaN" stroke-linecap="butt"/><g><path d="M185.21159,169.08686c0,0 -0.72301,-2.53429 -0.27275,-3.8295c0.52917,-1.52228 3.24949,-4.73343 3.24949,-4.73343" fill="none" stroke="#ffc87b" stroke-width="1.5" stroke-linecap="round"/><path d="M169.13591,189.22683c-1.6344,-9.51803 4.77803,-18.55076 14.3225,-20.17518c9.54447,-1.62442 18.60673,4.77464 20.24112,14.29267c1.6344,9.51803 -4.77802,18.55076 -14.32248,20.17518c-9.54447,1.62442 -18.60673,-4.77464 -20.24112,-14.29267z" fill="#252525" stroke="none" stroke-width="0" stroke-linecap="butt"/><path d="M179.00884,183.49165c-0.06597,2.36601 -1.17744,4.25409 -2.48249,4.21717c-1.30504,-0.03692 -2.30952,-1.98484 -2.24353,-4.35085c0.06597,-2.36601 1.17744,-4.25409 2.48249,-4.21717c1.30504,0.03692 2.30952,1.98483 2.24353,4.35084z" fill="#3d3d3d" stroke="none" stroke-width="0" stroke-linecap="butt"/></g><path d="M185.7128,160.23068c0,-1.30281 1.05613,-2.35894 2.35894,-2.35894c1.30281,0 2.35894,1.05613 2.35894,2.35894c0,1.30281 -1.05613,2.35894 -2.35894,2.35894c-1.30281,0 -2.35894,-1.05613 -2.35894,-2.35894z" fill="#ff0000" stroke="none" stroke-width="0" stroke-linecap="butt"/></g></g></g></svg>