<svg version="1.1" xmlns="http://www.w3.org/2000/svg" xmlns:xlink="http://www.w3.org/1999/xlink" width="61.94611" height="76.97199" viewBox="0,0,61.94611,76.97199"><g transform="translate(-209.02695,-141.51401)"><g data-paper-data="{&quot;isPaintingLayer&quot;:true}" fill-rule="nonzero" stroke-linecap="butt" stroke-linejoin="miter" stroke-miterlimit="10" stroke-dasharray="" stroke-dashoffset="0" style="mix-blend-mode: normal"><path d="M270.22305,149.02736v61.9466c0,3.72889 -3.03179,6.76205 -6.76332,6.76205h-46.92073c-3.7276,0 -6.76204,-3.03313 -6.76204,-6.76205v-61.94789c0,-3.72889 3.03445,-6.76205 6.76205,-6.76205h46.92074c3.73154,0 6.76332,3.03447 6.76332,6.76334z" fill="#99ffb2" stroke="#89e4a0" stroke-width="1.5"/><text transform="translate(222.9457,207.92457) scale(0.27778,0.27778)" font-size="40" xml:space="preserve" fill="#327f49" fill-rule="nonzero" stroke="none" stroke-width="1" stroke-linecap="butt" stroke-linejoin="miter" stroke-miterlimit="10" stroke-dasharray="" stroke-dashoffset="0" font-family="Sans Serif" font-weight="normal" text-anchor="start" style="mix-blend-mode: normal"><tspan x="0" dy="0">升级卡</tspan></text><g stroke="none" stroke-width="0"><g fill="#ffb261"><path d="M240.77779,181.7778v-16.8889h7.33334v16.8889z"/><path d="M234.94448,168.8438l9.29861,-10.44443l9.59029,10.44443z"/></g><g fill="#ff8e30"><path d="M232.33333,187.7778v-16.8889h7.33333v16.8889z"/><path d="M226.50002,174.84381l9.2986,-10.44444l9.59028,10.44444z"/></g></g></g></g></svg>