<svg version="1.1" xmlns="http://www.w3.org/2000/svg" xmlns:xlink="http://www.w3.org/1999/xlink" width="471.32361" height="53.06723" viewBox="0,0,471.32361,53.06723"><g transform="translate(-5.76836,-6.76639)"><g data-paper-data="{&quot;isPaintingLayer&quot;:true}" fill-rule="nonzero" stroke-width="1.5" stroke-linecap="butt" stroke-linejoin="miter" stroke-miterlimit="10" stroke-dasharray="" stroke-dashoffset="0" style="mix-blend-mode: normal"><path d="M114.97558,58.69929h-105.09687c-1.85305,0 -3.36035,-1.50664 -3.36035,-3.36099v-44.34274c0,-1.85239 1.50729,-3.36035 3.36035,-3.36035h105.09752c1.85305,0 3.36035,1.50796 3.36035,3.36035v44.34274c0,1.85435 -1.50796,3.36099 -3.36099,3.36099z" fill="#ff6262" stroke="#cf5050"/><path d="M234.10127,59.08362h-105.09687c-1.85305,0 -3.36035,-1.50664 -3.36035,-3.36099v-44.34274c0,-1.85239 1.50729,-3.36035 3.36035,-3.36035h105.09752c1.85305,0 3.36035,1.50796 3.36035,3.36035v44.34274c0,1.85435 -1.50796,3.36099 -3.36099,3.36099z" fill="#61b3ff" stroke="#5094d3"/><path d="M353.85527,58.84646h-105.09687c-1.85305,0 -3.36035,-1.50664 -3.36035,-3.36099v-44.34274c0,-1.85239 1.50729,-3.36035 3.36035,-3.36035h105.09752c1.85305,0 3.36035,1.50796 3.36035,3.36035v44.34274c0,1.85435 -1.50796,3.36099 -3.36099,3.36099z" fill="#ffa861" stroke="#d68d51"/><path d="M472.98097,58.58047h-105.09687c-1.85305,0 -3.36035,-1.50664 -3.36035,-3.36099v-44.34274c0,-1.85239 1.50729,-3.36035 3.36035,-3.36035h105.09752c1.85305,0 3.36035,1.50796 3.36035,3.36035v44.34274c0,1.85435 -1.50796,3.36099 -3.36099,3.36099z" fill="#71d250" stroke="#5dad42"/></g></g></svg>