<svg version="1.1" xmlns="http://www.w3.org/2000/svg" xmlns:xlink="http://www.w3.org/1999/xlink" width="130.12797" height="61.61564" viewBox="0,0,130.12797,61.61564"><g transform="translate(-156.4869,-144.76282)"><g data-paper-data="{&quot;isPaintingLayer&quot;:true}" fill-rule="nonzero" stroke-linejoin="miter" stroke-miterlimit="10" stroke-dasharray="" stroke-dashoffset="0" style="mix-blend-mode: normal"><text transform="translate(250.08592,186.45718) scale(0.14186,0.14186)" font-size="128" xml:space="preserve" fill="#ffffff" fill-rule="nonzero" stroke="none" stroke-width="1" stroke-linecap="butt" stroke-linejoin="miter" stroke-miterlimit="10" stroke-dasharray="" stroke-dashoffset="0" font-family="Sans Serif" font-weight="400" text-anchor="start" style="mix-blend-mode: normal"><tspan x="0" dy="0">游戏</tspan></text><g><g stroke="none" stroke-width="1" stroke-linecap="butt"><path d="M181.00578,182.40149c1.25386,0.73757 2.28647,2.50774 2.28647,3.98288v9.73592c0,1.47514 -1.0326,3.2453 -2.28647,3.98289l-8.48203,4.86795c-0.59006,0.29503 -1.4014,0.51629 -2.28647,0.51629c-0.88509,0 -1.69642,-0.14751 -2.28647,-0.51629l-8.48203,-4.86795c-1.25386,-0.73757 -2.28647,-2.50774 -2.28647,-3.98289v-9.73592c0,-1.47514 1.0326,-3.2453 2.28647,-3.98288l8.48203,-4.86795c1.25386,-0.73757 3.31907,-0.73757 4.57293,0z" fill="#dfded0"/><path d="M180.85827,181.44268c1.18012,0.66382 2.13894,2.36021 2.13894,3.68785v9.73592c0,1.32762 -0.95884,3.02403 -2.13894,3.68785l-8.48204,4.86795c-1.18012,0.66382 -3.09779,0.66382 -4.2779,0l-8.48204,-4.86795c-1.18012,-0.66382 -2.13895,-2.36021 -2.13895,-3.68785v-9.73592c0,-1.32762 0.95884,-3.02403 2.13895,-3.68785l8.48204,-4.86796c1.18012,-0.66382 3.09779,-0.66382 4.2779,0c0,0 8.40831,4.86796 8.48204,4.86796z" fill="#dfded0"/><path d="M170.23725,204.3073c-0.88509,0 -1.69642,-0.22127 -2.28647,-0.5163l-8.48203,-4.86795c-1.25386,-0.73757 -2.28647,-2.50774 -2.28647,-3.98289v-9.73592c0,-1.47514 1.0326,-3.24531 2.28647,-3.98289l8.48203,-4.86795c1.25386,-0.73757 3.31907,-0.73757 4.57292,0l8.48204,4.86795c1.25386,0.73757 2.28647,2.50774 2.28647,3.98289v9.73592c0,1.47514 -1.03259,3.2453 -2.28647,3.98289l-8.48204,4.86795c-0.59006,0.36879 -1.47514,0.5163 -2.28647,0.5163zM170.23725,176.35345c-0.73757,0 -1.47514,0.14751 -1.99144,0.44253l-8.48204,4.86795c-1.10636,0.59006 -1.99144,2.21271 -1.99144,3.46657v9.73592c0,1.25386 0.88509,2.80277 1.99144,3.46657l8.48204,4.86795c1.0326,0.59006 2.95028,0.59006 3.98288,0l8.48204,-4.86795c1.10636,-0.59006 1.99144,-2.21271 1.99144,-3.46657v-9.73592c0,-1.25386 -0.88509,-2.80276 -1.99144,-3.46657l-8.48204,-4.86795c-0.5163,-0.29502 -1.25386,-0.44253 -1.99144,-0.44253z" fill="#dfded0"/><path d="M170.23725,188.67083c-0.66382,0 -1.32762,-0.14751 -1.84391,-0.44253l-8.48204,-4.86795c-0.36879,-0.22127 -0.59006,-0.44254 -0.59006,-0.66382c0,-0.22127 0.22127,-0.51629 0.59006,-0.66382l8.48204,-4.86795c0.44254,-0.29502 1.10636,-0.44253 1.84391,-0.44253c0.73757,0 1.32762,0.14751 1.84391,0.44253l8.48203,4.86795c0.36879,0.22127 0.59006,0.44254 0.59006,0.66382c0,0.22127 -0.22127,0.51629 -0.59006,0.66382l-8.48203,4.86795c-0.5163,0.29503 -1.18012,0.44253 -1.84391,0.44253zM168.90962,203.20094c-0.22127,0 -0.44253,-0.07376 -0.66381,-0.22127l-8.48204,-4.86795c-0.95884,-0.59006 -1.84391,-1.99144 -1.84391,-3.17155v-9.73592c0,-0.29502 0.07376,-0.88508 0.59006,-0.88508c0.22127,0 0.44253,0.07376 0.66382,0.22127l8.48203,4.86795c0.95884,0.59006 1.84391,1.99144 1.84391,3.17156v9.66216c0,0.29503 -0.07376,0.59006 -0.22127,0.73757c-0.07376,0.14751 -0.14751,0.22127 -0.36879,0.22127zM171.41738,203.20094c-0.5163,0 -0.59006,-0.66381 -0.59006,-0.88509v-9.73592c0,-1.18012 0.81131,-2.5815 1.84391,-3.17156l8.48203,-4.86795c0.22127,-0.14751 0.44253,-0.22127 0.66382,-0.22127c0.5163,0 0.59006,0.66381 0.59006,0.88508v9.73592c0,1.18012 -0.81131,2.5815 -1.84391,3.17155l-8.48203,4.86795c-0.29503,0.14751 -0.5163,0.22127 -0.66382,0.22127z" fill="#ffffff"/><path d="M170.23725,183.58162c-0.81131,0 -1.47514,-0.3688 -1.47514,-0.88509c0,-0.51629 0.66382,-0.88508 1.47514,-0.88508c0.81131,0 1.47514,0.36879 1.47514,0.88508c0,0.51629 -0.73757,0.88509 -1.47514,0.88509zM159.83753,196.41531c-0.44254,0 -0.88509,-0.59006 -0.88509,-1.25386c0,-0.66382 0.36879,-1.25387 0.88509,-1.25387c0.5163,0 0.88509,0.59006 0.88509,1.25387c0,0.66382 -0.44254,1.25386 -0.88509,1.25386zM180.34194,196.41531c-0.44254,0 -0.88509,-0.59006 -0.88509,-1.25386c0,-0.66382 0.3688,-1.25387 0.88509,-1.25387c0.44254,0 0.88508,0.59006 0.88508,1.25387c-0.07376,0.66382 -0.44253,1.25386 -0.88508,1.25386zM159.83753,189.03959c-0.44254,0 -0.88509,-0.59006 -0.88509,-1.25387c0,-0.66382 0.36879,-1.25386 0.88509,-1.25386c0.5163,0 0.88509,0.59006 0.88509,1.25386c0,0.66382 -0.44254,1.25387 -0.88509,1.25387zM167.06569,193.83382c-0.44254,0 -0.88509,-0.59006 -0.88509,-1.25386c0,-0.66382 0.36879,-1.25386 0.88509,-1.25386c0.5163,0 0.88509,0.59006 0.88509,1.25386c0,0.66382 -0.36879,1.25386 -0.88509,1.25386zM173.2613,193.83382c-0.44254,0 -0.88509,-0.59006 -0.88509,-1.25386c0,-0.66382 0.36879,-1.25386 0.88509,-1.25386c0.5163,0 0.88509,0.59006 0.88509,1.25386c0,0.66382 -0.36879,1.25386 -0.88509,1.25386zM167.06569,200.61946c-0.44254,0 -0.88509,-0.59006 -0.88509,-1.25386c0,-0.66382 0.36879,-1.25387 0.88509,-1.25387c0.5163,0 0.88509,0.59006 0.88509,1.25387c0,0.66382 -0.36879,1.25386 -0.88509,1.25386z" fill="#c30d23"/></g><g stroke="none" stroke-width="1" stroke-linecap="butt"><path d="M180.63104,167.22462c1.25386,0.73757 2.28647,2.50773 2.28647,3.98288v9.73593c0,1.47514 -1.03259,3.2453 -2.28647,3.98288l-8.48203,4.86795c-0.59006,0.29503 -1.4014,0.51629 -2.28647,0.51629c-0.88509,0 -1.69641,-0.1475 -2.28647,-0.51629l-8.48204,-4.86795c-1.25386,-0.73757 -2.28647,-2.50773 -2.28647,-3.98288v-9.73593c0,-1.47514 1.0326,-3.2453 2.28647,-3.98288l8.48204,-4.86795c1.25386,-0.73757 3.31907,-0.73757 4.57292,0z" fill="#dfded0"/><path d="M180.48353,166.2658c1.18012,0.66382 2.13895,2.36021 2.13895,3.68785v9.73592c0,1.32762 -0.95884,3.02403 -2.13895,3.68785l-8.48204,4.86796c-1.18012,0.66382 -3.09779,0.66382 -4.2779,0l-8.48204,-4.86796c-1.18012,-0.66382 -2.13895,-2.36021 -2.13895,-3.68785v-9.73592c0,-1.32762 0.95884,-3.02403 2.13895,-3.68785l8.48204,-4.86795c1.18012,-0.66382 3.09779,-0.66382 4.2779,0c0,0 8.4083,4.86795 8.48204,4.86795z" fill="#dfded0"/><path d="M169.86252,189.13039c-0.88509,0 -1.69642,-0.22127 -2.28647,-0.5163l-8.48203,-4.86795c-1.25386,-0.73757 -2.28647,-2.50774 -2.28647,-3.98288v-9.73592c0,-1.47514 1.03259,-3.24531 2.28647,-3.98289l8.48203,-4.86795c1.25386,-0.73757 3.31907,-0.73757 4.57292,0l8.48204,4.86795c1.25386,0.73757 2.28646,2.50774 2.28646,3.98289v9.73592c0,1.47514 -1.03259,3.24531 -2.28646,3.98288l-8.48204,4.86795c-0.59006,0.36879 -1.47514,0.5163 -2.28646,0.5163zM169.86252,161.17658c-0.73757,0 -1.47514,0.14751 -1.99144,0.44254l-8.48204,4.86795c-1.10636,0.59006 -1.99144,2.21272 -1.99144,3.46658v9.73592c0,1.25386 0.88509,2.80277 1.99144,3.46657l8.48204,4.86796c1.0326,0.59006 2.95028,0.59006 3.98288,0l8.48204,-4.86796c1.10636,-0.59006 1.99144,-2.21271 1.99144,-3.46657v-9.73592c0,-1.25386 -0.88509,-2.80277 -1.99144,-3.46658l-8.48204,-4.86795c-0.5163,-0.29502 -1.25386,-0.44254 -1.99144,-0.44254z" fill="#dfded0"/><path d="M169.86252,173.49396c-0.66382,0 -1.32762,-0.14751 -1.84391,-0.44254l-8.48204,-4.86795c-0.36879,-0.22127 -0.59006,-0.44254 -0.59006,-0.66382c0,-0.22127 0.22127,-0.51629 0.59006,-0.66382l8.48204,-4.86795c0.44254,-0.29502 1.10636,-0.44254 1.84391,-0.44254c0.73757,0 1.32762,0.14751 1.84391,0.44254l8.48204,4.86795c0.36879,0.22127 0.59006,0.44254 0.59006,0.66382c0,0.22127 -0.22127,0.51629 -0.59006,0.66382l-8.48204,4.86795c-0.5163,0.29502 -1.18012,0.44254 -1.84391,0.44254zM168.53489,188.02409c-0.22127,0 -0.44253,-0.07376 -0.66382,-0.22127l-8.48204,-4.86795c-0.95884,-0.59006 -1.84391,-1.99144 -1.84391,-3.17155v-9.73592c0,-0.29502 0.07376,-0.88509 0.59006,-0.88509c0.22127,0 0.44254,0.07376 0.66382,0.22127l8.48204,4.86795c0.95884,0.59006 1.84391,1.99144 1.84391,3.17155v9.66216c0,0.29503 -0.07376,0.59006 -0.22127,0.73757c-0.07376,0.14751 -0.1475,0.22127 -0.36879,0.22127zM171.04263,188.02409c-0.5163,0 -0.59006,-0.66382 -0.59006,-0.88509v-9.73592c0,-1.18012 0.81131,-2.5815 1.84391,-3.17155l8.48203,-4.86795c0.22127,-0.14751 0.44253,-0.22127 0.66382,-0.22127c0.5163,0 0.59006,0.66381 0.59006,0.88509v9.73592c0,1.18012 -0.81131,2.5815 -1.84391,3.17155l-8.48203,4.86795c-0.29503,0.14751 -0.5163,0.22127 -0.66382,0.22127z" fill="#ffffff"/><path d="M169.86252,168.40476c-0.81131,0 -1.47514,-0.3688 -1.47514,-0.88509c0,-0.51629 0.66382,-0.88509 1.47514,-0.88509c0.81131,0 1.47514,0.36879 1.47514,0.88509c0,0.51629 -0.73757,0.88509 -1.47514,0.88509zM159.46278,181.23848c-0.44254,0 -0.88509,-0.59006 -0.88509,-1.25386c0,-0.66382 0.36879,-1.25387 0.88509,-1.25387c0.5163,0 0.88509,0.59006 0.88509,1.25387c0,0.66382 -0.44254,1.25386 -0.88509,1.25386zM179.96721,181.23848c-0.44254,0 -0.88509,-0.59006 -0.88509,-1.25386c0,-0.66382 0.36879,-1.25387 0.88509,-1.25387c0.44254,0 0.88509,0.59006 0.88509,1.25387c-0.07376,0.66382 -0.44254,1.25386 -0.88509,1.25386zM159.46278,173.86276c-0.44254,0 -0.88509,-0.59006 -0.88509,-1.25386c0,-0.66382 0.36879,-1.25387 0.88509,-1.25387c0.5163,0 0.88509,0.59006 0.88509,1.25387c0,0.66382 -0.44254,1.25386 -0.88509,1.25386zM166.69096,178.65696c-0.44254,0 -0.88509,-0.59006 -0.88509,-1.25386c0,-0.66382 0.36879,-1.25386 0.88509,-1.25386c0.5163,0 0.88509,0.59006 0.88509,1.25386c0,0.66382 -0.36879,1.25386 -0.88509,1.25386zM172.88656,178.65696c-0.44254,0 -0.88509,-0.59006 -0.88509,-1.25386c0,-0.66382 0.36879,-1.25386 0.88509,-1.25386c0.5163,0 0.88509,0.59006 0.88509,1.25386c0,0.66382 -0.36879,1.25386 -0.88509,1.25386zM166.69096,185.44259c-0.44254,0 -0.88509,-0.59006 -0.88509,-1.25387c0,-0.66382 0.36879,-1.25386 0.88509,-1.25386c0.5163,0 0.88509,0.59006 0.88509,1.25386c0,0.66382 -0.36879,1.25387 -0.88509,1.25387z" fill="#c30d23"/></g><g stroke="none" stroke-width="1" stroke-linecap="butt"><path d="M180.3104,151.36407c1.25386,0.73757 2.28647,2.50774 2.28647,3.98288v9.73592c0,1.47514 -1.03259,3.24531 -2.28647,3.98288l-8.48204,4.86795c-0.59006,0.29502 -1.40139,0.51629 -2.28647,0.51629c-0.88509,0 -1.69642,-0.14751 -2.28647,-0.51629l-8.48203,-4.86795c-1.25386,-0.73757 -2.28647,-2.50774 -2.28647,-3.98288v-9.73592c0,-1.47514 1.0326,-3.24531 2.28647,-3.98288l8.48203,-4.86795c1.25386,-0.73757 3.31907,-0.73757 4.57292,0z" fill="#dfded0"/><path d="M180.1629,150.40521c1.18012,0.66382 2.13894,2.36021 2.13894,3.68785v9.73592c0,1.32762 -0.95884,3.02403 -2.13894,3.68785l-8.48204,4.86795c-1.18012,0.66382 -3.0978,0.66382 -4.2779,0l-8.48203,-4.86795c-1.18012,-0.66382 -2.13895,-2.36021 -2.13895,-3.68785v-9.73592c0,-1.32762 0.95884,-3.02403 2.13895,-3.68785l8.48203,-4.86795c1.18012,-0.66382 3.0978,-0.66382 4.2779,0c0,0 8.4083,4.86795 8.48204,4.86795z" fill="#dfded0"/><path d="M169.54187,173.26988c-0.88509,0 -1.69642,-0.22127 -2.28647,-0.51629l-8.48203,-4.86795c-1.25386,-0.73757 -2.28647,-2.50774 -2.28647,-3.98289v-9.73592c0,-1.47514 1.0326,-3.24531 2.28647,-3.98289l8.48203,-4.86795c1.25386,-0.73757 3.31907,-0.73757 4.57292,0l8.48204,4.86795c1.25386,0.73757 2.28646,2.50774 2.28646,3.98289v9.73592c0,1.47514 -1.03259,3.24531 -2.28646,3.98289l-8.48204,4.86795c-0.59006,0.36879 -1.47514,0.51629 -2.28646,0.51629zM169.54187,145.316c-0.73757,0 -1.47514,0.14751 -1.99144,0.44253l-8.48204,4.86795c-1.10636,0.59006 -1.99144,2.21271 -1.99144,3.46657v9.73592c0,1.25386 0.88509,2.80277 1.99144,3.46657l8.48204,4.86795c1.0326,0.59006 2.95028,0.59006 3.98288,0l8.48203,-4.86795c1.10636,-0.59006 1.99144,-2.21271 1.99144,-3.46657v-9.73592c0,-1.25386 -0.88509,-2.80277 -1.99144,-3.46657l-8.48203,-4.86795c-0.5163,-0.29502 -1.25386,-0.44253 -1.99144,-0.44253z" fill="#dfded0"/><path d="M169.54187,157.63341c-0.66382,0 -1.32762,-0.14751 -1.84391,-0.44253l-8.48204,-4.86795c-0.36879,-0.22127 -0.59006,-0.44254 -0.59006,-0.66382c0,-0.22127 0.22127,-0.51629 0.59006,-0.66382l8.48204,-4.86795c0.44254,-0.29502 1.10636,-0.44254 1.84391,-0.44254c0.73757,0 1.32762,0.14751 1.84391,0.44254l8.48203,4.86795c0.36879,0.22127 0.59006,0.44254 0.59006,0.66382c0,0.22127 -0.22127,0.51629 -0.59006,0.66382l-8.48203,4.86795c-0.5163,0.29502 -1.18012,0.44253 -1.84391,0.44253zM168.21428,172.16354c-0.22127,0 -0.44253,-0.07375 -0.66382,-0.22126l-8.48204,-4.86796c-0.95884,-0.59006 -1.84391,-1.99144 -1.84391,-3.17155v-9.73592c0,-0.29502 0.07376,-0.88509 0.59006,-0.88509c0.22127,0 0.44254,0.07376 0.66382,0.22127l8.48203,4.86795c0.95884,0.59006 1.84391,1.99144 1.84391,3.17155v9.66216c0,0.29502 -0.07376,0.59006 -0.22127,0.73757c-0.07376,0.14751 -0.1475,0.22127 -0.36879,0.22127zM170.72201,172.16354c-0.5163,0 -0.59006,-0.66381 -0.59006,-0.88508v-9.73592c0,-1.18012 0.81131,-2.5815 1.84391,-3.17155l8.48203,-4.86795c0.22127,-0.14751 0.44253,-0.22127 0.66382,-0.22127c0.5163,0 0.59006,0.66381 0.59006,0.88509v9.73592c0,1.18012 -0.81132,2.5815 -1.84391,3.17155l-8.48204,4.86796c-0.29503,0.14751 -0.51629,0.22126 -0.66381,0.22126z" fill="#ffffff"/><path d="M169.54187,152.54417c-0.81131,0 -1.47514,-0.36879 -1.47514,-0.88509c0,-0.51629 0.66382,-0.88509 1.47514,-0.88509c0.81131,0 1.47514,0.36879 1.47514,0.88509c0,0.51629 -0.73757,0.88509 -1.47514,0.88509zM159.14215,165.3779c-0.44254,0 -0.88509,-0.59006 -0.88509,-1.25386c0,-0.66382 0.36879,-1.25387 0.88509,-1.25387c0.5163,0 0.88509,0.59006 0.88509,1.25387c0,0.66382 -0.44254,1.25386 -0.88509,1.25386zM179.6466,165.3779c-0.44254,0 -0.88509,-0.59006 -0.88509,-1.25386c0,-0.66382 0.36879,-1.25387 0.88509,-1.25387c0.44254,0 0.88509,0.59006 0.88509,1.25387c-0.07376,0.66382 -0.44254,1.25386 -0.88509,1.25386zM159.14215,158.0022c-0.44254,0 -0.88509,-0.59006 -0.88509,-1.25386c0,-0.66382 0.36879,-1.25386 0.88509,-1.25386c0.5163,0 0.88509,0.59006 0.88509,1.25386c0,0.66382 -0.44254,1.25386 -0.88509,1.25386zM166.37035,162.79641c-0.44254,0 -0.88509,-0.59006 -0.88509,-1.25386c0,-0.66382 0.36879,-1.25387 0.88509,-1.25387c0.5163,0 0.88509,0.59006 0.88509,1.25387c0,0.66382 -0.36879,1.25386 -0.88509,1.25386zM172.56593,162.79641c-0.44254,0 -0.88509,-0.59006 -0.88509,-1.25386c0,-0.66382 0.36879,-1.25387 0.88509,-1.25387c0.5163,0 0.88509,0.59006 0.88509,1.25387c0,0.66382 -0.36879,1.25386 -0.88509,1.25386zM166.37035,169.58202c-0.44254,0 -0.88509,-0.59006 -0.88509,-1.25387c0,-0.66382 0.36879,-1.25386 0.88509,-1.25386c0.5163,0 0.88509,0.59005 0.88509,1.25386c0,0.66382 -0.36879,1.25387 -0.88509,1.25387z" fill="#c30d23"/></g><g stroke="none" stroke-width="1" stroke-linecap="butt"><path d="M198.67038,186.32791c1.04476,1.01226 1.63116,2.9759 1.28357,4.40951l-2.29414,9.46177c-0.3476,1.4336 -1.76823,2.9106 -3.1606,3.33195l-9.39026,2.73219c-0.64296,0.14767 -1.48359,0.17154 -2.34374,-0.03701c-0.86016,-0.20856 -1.61389,-0.54309 -2.10043,-1.04053l-7.09612,-6.72956c-1.04476,-1.01226 -1.63117,-2.9759 -1.28357,-4.4095l2.29414,-9.46177c0.3476,-1.4336 1.76823,-2.9106 3.16059,-3.33196l9.39027,-2.73219c1.39236,-0.42135 3.3994,0.06529 4.44416,1.07755z" fill="#dfded0"/><path d="M198.75298,185.36131c0.99046,0.9232 1.52256,2.79777 1.20972,4.08802l-2.29414,9.46177c-0.31284,1.29024 -1.64441,2.71294 -2.9477,3.07998l-9.39026,2.7322c-1.30331,0.36705 -3.16699,-0.08483 -4.15744,-1.00804l-7.09612,-6.72955c-0.99046,-0.9232 -1.52256,-2.79778 -1.20972,-4.08802l2.29414,-9.46177c0.31284,-1.29024 1.64443,-2.71294 2.94772,-3.07999l9.39026,-2.73219c1.30331,-0.36705 3.16698,0.08482 4.15743,1.00803c0,0 7.02447,6.71219 7.09613,6.72956z" fill="#dfded0"/><path d="M183.04329,205.07942c-0.86016,-0.20856 -1.59652,-0.61478 -2.10043,-1.04053l-7.09613,-6.72956c-1.04476,-1.01226 -1.63117,-2.9759 -1.28357,-4.40951l2.29414,-9.46177c0.3476,-1.4336 1.76823,-2.9106 3.1606,-3.33196l9.39026,-2.7322c1.39236,-0.42135 3.39941,0.0653 4.44416,1.07756l7.09612,6.72955c1.04476,1.01226 1.63117,2.9759 1.28357,4.4095l-2.29414,9.46177c-0.3476,1.4336 -1.76824,2.9106 -3.1606,3.33196l-9.39026,2.73219c-0.66035,0.21937 -1.55527,0.15416 -2.34375,-0.03701zM189.63024,177.91269c-0.7168,-0.1738 -1.46836,-0.20423 -2.03964,-0.03918l-9.39026,2.7322c-1.21424,0.31275 -2.45676,1.68115 -2.75222,2.8997l-2.29414,9.46177c-0.29546,1.21855 0.19973,2.9324 1.11851,3.83821l7.09612,6.72956c0.86448,0.81676 2.72817,1.26864 3.87074,0.93851l9.39027,-2.7322c1.21424,-0.31275 2.45675,-1.68114 2.75221,-2.8997l2.29415,-9.46177c0.29546,-1.21855 -0.19973,-2.93241 -1.11852,-3.83821l-7.09613,-6.72955c-0.43223,-0.40838 -1.11428,-0.72553 -1.83109,-0.89933z" fill="#dfded0"/><path d="M186.72782,189.88325c-0.64513,-0.15643 -1.25548,-0.45619 -1.68771,-0.86456l-7.09612,-6.72956c-0.30627,-0.30194 -0.46917,-0.56911 -0.41703,-0.78417c0.05214,-0.21504 0.3367,-0.44961 0.72987,-0.50608l9.39026,-2.73219c0.49959,-0.18245 1.17948,-0.16939 1.89626,0.00441c0.7168,0.1738 1.25549,0.45619 1.68772,0.86457l7.09612,6.72955c0.30627,0.30194 0.46917,0.56911 0.41703,0.78417c-0.05214,0.21504 -0.3367,0.44961 -0.72987,0.50608l-9.39026,2.7322c-0.57128,0.16506 -1.25116,0.15199 -1.89627,-0.00442zM182.01375,203.69137c-0.21504,-0.05214 -0.41269,-0.17596 -0.59298,-0.37146l-7.09613,-6.72956c-0.7928,-0.79939 -1.32274,-2.36986 -1.04466,-3.51674l2.29414,-9.46177c0.06952,-0.28672 0.28024,-0.84278 0.782,-0.72112c0.21504,0.05214 0.41269,0.17596 0.59298,0.37146l7.09613,6.72956c0.7928,0.79938 1.32274,2.36987 1.04466,3.51675l-2.27676,9.39008c-0.06952,0.28672 -0.21072,0.55606 -0.38883,0.66466c-0.10644,0.12598 -0.19549,0.18028 -0.41055,0.12814zM184.45087,204.28226c-0.50176,-0.12165 -0.41702,-0.78416 -0.36488,-0.9992l2.29414,-9.46177c0.27808,-1.14688 1.39677,-2.31763 2.53933,-2.64776l9.39026,-2.73219c0.2498,-0.09122 0.48221,-0.11076 0.69726,-0.05862c0.50176,0.12166 0.41702,0.78417 0.36489,0.99921l-2.29414,9.46177c-0.27808,1.14688 -1.39677,2.31763 -2.53932,2.64776l-9.39026,2.7322c-0.32148,0.07384 -0.55389,0.09338 -0.69726,0.05862z" fill="#ffffff"/><path d="M187.927,184.93735c-0.78846,-0.19117 -1.3467,-0.70601 -1.22504,-1.20776c0.12165,-0.50176 0.85368,-0.70374 1.64216,-0.51256c0.78846,0.19117 1.3467,0.706 1.22505,1.20776c-0.12165,0.50176 -0.92535,0.68637 -1.64216,0.51257zM174.79604,194.9591c-0.43007,-0.10428 -0.72112,-0.78201 -0.5647,-1.42712c0.15641,-0.64513 0.65386,-1.13166 1.15561,-1.01c0.50176,0.12165 0.72113,0.78201 0.56471,1.42712c-0.15641,0.64513 -0.72553,1.11428 -1.15563,1.01zM194.72309,199.79072c-0.43007,-0.10427 -0.72112,-0.78201 -0.56471,-1.42712c0.15641,-0.64513 0.65386,-1.13165 1.15562,-1.00999c0.43007,0.10427 0.72112,0.782 0.56471,1.4271c-0.22811,0.62775 -0.72553,1.11428 -1.15562,1.01zM176.53404,187.79109c-0.43007,-0.10428 -0.72112,-0.78201 -0.56471,-1.42712c0.15641,-0.64512 0.65386,-1.13165 1.15562,-1.01c0.50176,0.12165 0.72113,0.78201 0.56471,1.42711c-0.15641,0.64513 -0.72553,1.11428 -1.15562,1.01zM182.42896,194.15349c-0.43007,-0.10428 -0.72113,-0.78201 -0.56471,-1.42711c0.15641,-0.64513 0.65387,-1.13165 1.15563,-1.01c0.50176,0.12166 0.72112,0.78201 0.56471,1.42712c-0.15641,0.64513 -0.65386,1.13165 -1.15562,1.01zM188.4501,195.61344c-0.43007,-0.10428 -0.72112,-0.78201 -0.56471,-1.42712c0.15641,-0.64513 0.65386,-1.13165 1.15562,-1.01c0.50176,0.12166 0.72112,0.78201 0.56471,1.42711c-0.15641,0.64513 -0.65386,1.13165 -1.15562,1.01zM180.83003,200.74805c-0.43007,-0.10428 -0.72112,-0.78201 -0.56471,-1.42712c0.15641,-0.64513 0.65386,-1.13165 1.15562,-1.01c0.50176,0.12166 0.72112,0.78201 0.56471,1.42712c-0.15641,0.64513 -0.65386,1.13165 -1.15562,1.01z" fill="#c30d23"/></g><path d="M209.93824,202.44805c0,0.51576 -0.54048,0.93387 -1.2072,0.93387c-0.66672,0 -2.16384,-0.09922 -2.16384,-0.61498c0,-0.51576 1.49713,-1.25275 2.16384,-1.25275c0.66672,0 1.2072,0.4181 1.2072,0.93386z" fill="#727272" stroke="#723700" stroke-width="0.5" stroke-linecap="butt"/><path d="M205.06389,202.44805c0,0.51576 -0.54048,0.93387 -1.2072,0.93387c-0.66672,0 -2.16384,-0.09922 -2.16384,-0.61498c0,-0.51576 1.49713,-1.25275 2.16384,-1.25275c0.66672,0 1.2072,0.41811 1.2072,0.93387z" fill="#727272" stroke="#723700" stroke-width="0.5" stroke-linecap="butt"/><path d="M197.44661,185.87261c-1.04907,0.32755 -2.16504,-0.25735 -2.4926,-1.30642c-0.32756,-1.04907 0.25735,-2.16504 1.30642,-2.49259c1.04907,-0.32756 2.16504,0.25735 2.4926,1.30642c0.32756,1.04907 -0.25735,2.16504 -1.30642,2.4926z" fill="#eca956" stroke="#723700" stroke-width="0.5" stroke-linecap="butt"/><path d="M197.96791,185.41269c0.31293,-0.13964 -0.0573,-1.56391 0.14615,-1.82489c0.2187,-0.28057 -0.34921,-1.20871 -0.34921,-1.20871l9.15824,-2.31404l0.39666,2.7584c0,0 -9.51806,2.66342 -9.35183,2.58924z" fill="#e8c0aa" stroke="#723700" stroke-width="0.5" stroke-linecap="butt"/><path d="M194.40854,191.98453c0,-1.09902 0.89094,-1.98995 1.98995,-1.98995c1.09902,0 1.98994,0.89093 1.98994,1.98995c0,1.09902 -0.89092,1.98995 -1.98994,1.98995c-1.09902,0 -1.98995,-0.89093 -1.98995,-1.98995z" fill="#eca956" stroke="#723700" stroke-width="0.5" stroke-linecap="butt"/><path d="M208.97477,182.12534l0.65681,1.93972l-11.40906,8.01345c0,0 -1.20708,-0.51065 -1.21318,-0.66225c-0.00431,-0.10717 -0.90272,-1.41487 -0.60477,-1.42017c0.06405,-0.00114 12.5702,-7.87075 12.5702,-7.87075z" fill="#e8c0aa" stroke="#723700" stroke-width="0.5" stroke-linecap="butt"/><path d="M201.86459,192.55955l1.86073,-9.38898h5.99218l1.42652,9.29362z" fill="#bb4b4f" stroke="#723700" stroke-width="0.5" stroke-linecap="butt"/><path d="M200.72741,201.37221c-0.54136,-0.38054 -0.83082,-0.40263 -0.71548,-1.39225c0.23098,-1.98174 1.81595,-7.57242 1.81595,-7.57242l9.29223,0.04554c0,0 1.37122,5.5741 1.5766,7.48466c0.11734,1.0915 -0.09337,0.92847 -0.9232,1.38455c-0.56101,0.30835 -1.21004,0.3099 -2.26342,0.41729c-1.96571,0.2004 -5.26789,0.30694 -7.02808,0.1551c-1.13398,-0.09782 -1.23374,-0.15635 -1.7546,-0.52248z" fill="#bb4b4f" stroke="#723700" stroke-width="0.5" stroke-linecap="butt"/><path d="M206.42511,184.50714l-1.21779,7.84682" fill="none" stroke="#723700" stroke-width="0.5" stroke-linecap="round"/><path d="M202.99297,197.87654c-0.57799,-1.0631 0.70609,-5.40188 0.70609,-5.40188h5.88798c0,0 0.78224,4.76997 0.53043,5.27146c-0.79393,1.58113 -2.67427,1.89486 -3.6599,1.89486c-0.97695,0 -2.8866,-0.70134 -3.46459,-1.76444z" fill="#e8c0aa" stroke="#723700" stroke-width="0.5" stroke-linecap="butt"/><path d="M216.60414,176.27443c0,2.64303 -1.29903,4.73563 -3.29153,6.00793c-1.72877,1.1039 -4.08893,2.49256 -6.46628,2.49256c-1.7815,0 -4.27384,-1.02999 -5.62588,-1.65459c-2.5317,-1.16957 -3.14794,-3.62811 -3.14794,-6.84589c0,-4.93622 4.14844,-8.93781 9.26581,-8.93781c5.11737,0 9.26581,4.00159 9.26581,8.93782z" fill="#ffce91" stroke="#723700" stroke-width="0.5" stroke-linecap="butt"/><path d="M197.17079,179.47348c-0.45943,-0.83267 -0.264,-1.82102 0.43651,-2.20753c0.70051,-0.3865 1.11232,0.28214 1.57175,1.11481c0.45943,0.83267 0.79251,1.7874 0.092,2.1739c-0.70051,0.3865 -1.64082,-0.24852 -2.10025,-1.08119z" fill="#ffce91" stroke="#723700" stroke-width="0.5" stroke-linecap="butt"/><path d="M215.12907,177.83747c0.26081,-0.91455 1.09596,-1.47807 1.86534,-1.25865c0.76938,0.21941 1.18165,1.13867 0.92084,2.05322c-0.26081,0.91455 -1.09596,1.47808 -1.86534,1.25866c-0.76938,-0.21941 -1.18166,-1.13868 -0.92085,-2.05323z" fill="#ffce91" stroke="#723700" stroke-width="0.5" stroke-linecap="butt"/><path d="M219.00359,173.09946c0.31116,1.41721 0.93522,2.18426 0.93522,2.18426c0,0 -3.28514,0.47258 -3.33288,0.7259c-0.79726,4.23082 -2.82394,3.92939 -2.82394,3.92939c0,0 1.21177,-8.05556 -0.05047,-7.68665c-0.5768,0.16858 -4.58703,-1.68712 -4.58703,-1.68712c0,0 -1.01343,3.22541 -2.00033,3.41811c-1.11232,0.21719 -3.80584,-3.86346 -3.80584,-3.86346c0,0 -0.42864,1.86163 -1.53945,2.89114c-0.77442,0.71774 -2.27067,0.41904 -2.89224,0.67772c-0.2522,0.10496 -0.09161,1.27553 0.24031,2.73636c0.11354,0.49975 0.48849,1.03347 0.54661,1.57012c0.13921,1.28533 0.37894,2.33698 0.37894,2.33698c0,0 -1.62073,-2.33858 -2.1892,-2.19487c-0.47783,0.12079 -1.18311,1.00016 -1.75997,1.24155c-1.10528,0.46252 -2.03116,0.33519 -2.03116,0.33519c0,0 0.77198,-1.36725 0.98532,-2.74354c0.09393,-0.60596 0.08907,-1.64745 0.19549,-2.39633c0.39914,-2.80874 0.93496,-5.78744 0.93496,-5.78744c0,0 -1.68785,-0.30319 -2.28709,-0.66968c-0.55061,-0.33674 -1.39348,-1.44758 -1.39348,-1.44758c0,0 1.62092,-0.13269 3.32721,-0.98834c2.27393,-1.14031 3.97003,-2.70309 5.63045,-3.27909c0.231,-0.08013 -0.50372,-0.69571 -0.50372,-0.69571c0,0 5.63737,-1.08423 7.10524,-1.08423c3.41793,0 6.90858,2.0439 8.761,4.9904c1.69623,2.69805 1.88641,6.25886 2.15604,7.48691z" fill="#e08989" stroke="#723700" stroke-width="0.5" stroke-linecap="butt"/><path d="M198.86857,178.85312c0,0 -1.0501,-1.33634 -1.22183,-1.87412c-0.17444,-0.54628 -0.09015,-2.19846 -0.09015,-2.19846" fill="none" stroke="#723700" stroke-width="0.5" stroke-linecap="round"/><path d="M199.38791,177.11748c0,0 -0.52228,-1.79592 -0.48672,-2.405c0.01237,-0.21195 0.29538,-3.8542 0.29538,-3.8542" fill="none" stroke="#723700" stroke-width="0.5" stroke-linecap="round"/><path d="M214.24325,174.56188l-0.24601,-4.40059" fill="none" stroke="#723700" stroke-width="0.5" stroke-linecap="round"/><path d="M216.99019,173.31823c0,0 -0.13995,2.01702 -0.21152,2.27775c-0.16663,0.60702 -0.41712,1.42585 -0.41712,1.42585" fill="none" stroke="#723700" stroke-width="0.5" stroke-linecap="round"/><path d="M198.4388,169.2697c-0.06243,0.40437 -0.35046,0.70763 -0.64333,0.67736c-0.29287,-0.03026 -0.47969,-0.3826 -0.41726,-0.78697c0.06243,-0.40437 0.35046,-0.70763 0.64333,-0.67736c0.29287,0.03026 0.47968,0.38261 0.41725,0.78697z" fill="#e0a1a1" stroke="none" stroke-width="0.5" stroke-linecap="butt"/><path d="M199.32983,168.28558c0,0.22643 -0.11014,0.40999 -0.246,0.40999c-0.13586,0 -0.24599,-0.18355 -0.24599,-0.40999c0,-0.22643 0.11014,-0.40999 0.24599,-0.40999c0.13586,0 0.246,0.18356 0.246,0.40999z" fill="#e0a1a1" stroke="none" stroke-width="0.5" stroke-linecap="butt"/><path d="M214.1442,166.45429c0,0.24152 -0.15909,0.43733 -0.35533,0.43733c-0.19624,0 -0.35533,-0.1958 -0.35533,-0.43733c0,-0.24152 0.15909,-0.43733 0.35533,-0.43733c0.19624,0 0.35533,0.1958 0.35533,0.43733z" fill="#e0a1a1" stroke="#825738" stroke-width="0" stroke-linecap="butt"/><path d="M218.83388,163.24237c0.43827,0.63398 1.28249,1.27484 1.73774,1.9374c0.64804,0.94315 1.60981,1.81803 1.60981,1.81803c0,0 -1.10177,0.59302 -1.80532,0.62444c-0.55318,0.0247 -0.6266,6.35389 -0.6266,6.35389c0,0 -1.42808,-2.08612 -2.26094,-4.76369c-0.62005,-1.99338 -0.35566,-3.71389 -2.12376,-5.06814c-3.0009,-1.83458 -1.66141,-1.89902 -4.11415,-2.9542c-0.98701,-0.42462 0.65739,-2.52419 2.18631,-2.78808c1.99383,-0.34413 2.88135,-0.08417 4.0815,1.50409c0,0 0.02221,1.46553 1.31542,3.33626z" fill="#e06767" stroke="#723700" stroke-width="0.5" stroke-linecap="butt"/><path d="M200.17715,174.81814c0,0 0.63436,-0.49444 1.02625,-0.5709c0.35059,-0.06841 1.21504,0.13358 1.21504,0.13358" fill="none" stroke="#723700" stroke-width="0.5" stroke-linecap="round"/><path d="M208.38361,174.35615c0,0 0.75752,-0.38256 1.15868,-0.36652c0.35888,0.01435 1.13557,0.45826 1.13557,0.45826" fill="none" stroke="#723700" stroke-width="0.5" stroke-linecap="round"/><path d="M201.47543,178.91805v-1.55797" fill="none" stroke="#723700" stroke-width="0.5" stroke-linecap="round"/><path d="M209.12288,178.8634v-1.42131" fill="none" stroke="#723700" stroke-width="0.5" stroke-linecap="round"/><path d="M206.40644,180.82198c0,0 -0.77004,0.73244 -1.02673,0.73244c-0.37829,0 -1.02323,-0.73244 -1.02323,-0.73244" fill="none" stroke="#723700" stroke-width="0.5" stroke-linecap="round"/></g></g></g></svg>