<svg version="1.1" xmlns="http://www.w3.org/2000/svg" xmlns:xlink="http://www.w3.org/1999/xlink" width="61.94611" height="76.97199" viewBox="0,0,61.94611,76.97199"><g transform="translate(-209.02703,-141.51406)"><g data-paper-data="{&quot;isPaintingLayer&quot;:true}" fill-rule="nonzero" stroke-linecap="butt" stroke-linejoin="miter" stroke-miterlimit="10" stroke-dasharray="" stroke-dashoffset="0" style="mix-blend-mode: normal"><path d="M270.22313,149.0274v61.9466c0,3.72889 -3.03179,6.76205 -6.76332,6.76205h-46.92073c-3.7276,0 -6.76204,-3.03313 -6.76204,-6.76205v-61.94789c0,-3.72889 3.03445,-6.76205 6.76205,-6.76205h46.92074c3.73154,0 6.76332,3.03447 6.76332,6.76334z" fill="#ff6666" stroke="#d25454" stroke-width="1.5"/><g stroke="none" stroke-width="1"><path d="M246.22211,190.45564c-0.00039,0.74179 -0.60164,1.34304 -1.34343,1.34343h-8.18175c-0.74179,-0.00039 -1.34304,-0.60164 -1.34343,-1.34343v-30.09713c0.00039,-0.74179 0.60164,-1.34304 1.34343,-1.34343h8.18175c0.74179,0.00039 1.34304,0.60164 1.34343,1.34343z" fill="#e7004c"/><path d="M234.46977,191.79907c-0.74138,0 -1.34343,-0.56232 -1.34343,-1.25488v-30.27424c0,-0.69256 0.60205,-1.25488 1.34343,-1.25488h4.97462c0.74138,0 1.34343,0.56232 1.34343,1.25488v30.27424c0,0.69256 -0.60205,1.25488 -1.34343,1.25488z" fill="#d0003f"/><path d="M235.35352,164.3603h10.86861v4.27617h-10.86861zM235.35352,183.02526h10.86861v4.27617h-10.86861z" fill="#2e436c"/><path d="M250.05286,159.28234c0,2.9992 -2.4351,5.4343 -5.4343,5.4343c-2.9992,0 -5.4343,-2.4351 -5.4343,-5.4343c0,-2.9992 2.4351,-5.4343 5.4343,-5.4343c2.9992,0 5.4343,2.4351 5.4343,5.4343zM240.77657,159.28234c0,2.12045 1.72152,3.84196 3.84196,3.84196c2.12045,0 3.84196,-1.72152 3.84196,-3.84196c0,-2.12045 -1.72152,-3.84196 -3.84196,-3.84196c-2.12045,0 -3.84196,1.72152 -3.84196,3.84196z" fill="#2d456d"/><path d="M244.61856,155.44038c-0.70821,-0.00093 -1.40277,0.19486 -2.00624,0.56552c-0.19866,-0.40998 -0.31002,-0.8702 -0.31002,-1.35608c0,-0.098 0.00446,-0.19474 0.01336,-0.29042c0.69933,-0.32802 1.47991,-0.51136 2.3029,-0.51136c1.49025,0 2.84116,0.60116 3.82326,1.57399c-0.14074,0.54969 -0.42894,1.0505 -0.8335,1.44838c-0.7045,-0.87198 -1.78245,-1.43002 -2.98976,-1.43002z" fill="#ffce71"/><path d="M235.70985,153.84804c2.9992,0 5.4343,2.4351 5.4343,5.4343c0,2.9992 -2.4351,5.4343 -5.4343,5.4343c-2.9992,0 -5.4343,-2.4351 -5.4343,-5.4343c0,-2.9992 2.4351,-5.4343 5.4343,-5.4343zM235.70985,155.44038c-2.12045,0 -3.84196,1.72152 -3.84196,3.84196c0,2.12045 1.72152,3.84196 3.84196,3.84196c2.12045,0 3.84196,-1.72152 3.84196,-3.84196c0,-2.12045 -1.72152,-3.84196 -3.84196,-3.84196z" fill="#ffba5a"/><path d="M232.72011,156.8704c-0.40456,-0.39787 -0.69276,-0.89868 -0.8335,-1.44838c0.98209,-0.97283 2.33301,-1.57399 3.82325,-1.57399c0.82299,0 1.60357,0.18334 2.3029,0.51136c0.00891,0.09568 0.01336,0.19243 0.01336,0.29042c0,0.48588 -0.11136,0.9461 -0.31002,1.35608c-0.60347,-0.37067 -1.29802,-0.56645 -2.00624,-0.56552c-1.20731,0 -2.28526,0.55804 -2.98976,1.43002z" fill="#ffce71"/><path d="M253.52725,190.45564c-0.00039,0.74179 -0.60164,1.34304 -1.34343,1.34343h-8.18175c-0.74179,-0.00039 -1.34304,-0.60164 -1.34343,-1.34343v-30.09713c0.00039,-0.74179 0.60164,-1.34304 1.34343,-1.34343h8.18175c0.74179,0.00039 1.34304,0.60164 1.34343,1.34343z" fill="#e7004c"/><path d="M241.7749,191.79907c-0.74138,0 -1.34343,-0.56232 -1.34343,-1.25488v-30.27424c0,-0.69256 0.60205,-1.25488 1.34343,-1.25488h4.97462c0.74138,0 1.34343,0.56232 1.34343,1.25488v30.27424c0,0.69256 -0.60205,1.25488 -1.34343,1.25488z" fill="#d0003f"/><path d="M242.65863,164.3603h10.86861v4.27617h-10.86861zM242.65863,183.02526h10.86861v4.27617h-10.86861z" fill="#2e436c"/><path d="M226.5339,160.35851c0.00039,-0.74179 0.60164,-1.34304 1.34343,-1.34343h8.18175c0.74179,0.00039 1.34304,0.60164 1.34343,1.34343v30.09713c-0.00039,0.74179 -0.60164,1.34304 -1.34343,1.34343h-8.18175c-0.74179,-0.00039 -1.34304,-0.60164 -1.34343,-1.34343z" fill="#eb004b"/><path d="M233.31164,191.79907c-0.74138,0 -1.34343,-0.56232 -1.34343,-1.25488v-30.27424c0,-0.69256 0.60205,-1.25488 1.34343,-1.25488h4.97462c0.74138,0 1.34343,0.56232 1.34343,1.25488v30.27424c0,0.69256 -0.60205,1.25488 -1.34343,1.25488z" fill="#d0003f"/><path d="M226.5339,164.3603h10.86861v4.27617h-10.86861zM226.5339,183.02526h10.86861v4.27617h-10.86861z" fill="#2e436c"/><path d="M245.6876,191.52469c-0.00039,0.74179 -0.60164,1.34304 -1.34343,1.34343h-8.18175c-0.74179,-0.00039 -1.34304,-0.60164 -1.34343,-1.34343v-32.41339c0.00039,-0.74179 0.60164,-1.34304 1.34343,-1.34343h8.18175c0.74179,0.00039 1.34304,0.60164 1.34343,1.34343z" fill="#fb174c"/><path d="M236.1624,192.86812c-0.74179,-0.00039 -1.34304,-0.60164 -1.34343,-1.34343v-32.41339c0.00039,-0.74179 0.60164,-1.34304 1.34343,-1.34343h4.97462c0.74179,0.00039 1.34304,0.60164 1.34343,1.34343v32.41339c-0.00039,0.74179 -0.60164,1.34304 -1.34343,1.34343z" fill="#ff4363"/><path d="M234.81899,164.3603h10.86861v4.27617h-10.86861zM234.81899,183.02526h10.86861v4.27617h-10.86861z" fill="#2e436c"/></g><text transform="translate(223.53352,207.92461) scale(0.27778,0.27778)" font-size="40" xml:space="preserve" fill="#933b3b" fill-rule="nonzero" stroke="none" stroke-width="1" stroke-linecap="butt" stroke-linejoin="miter" stroke-miterlimit="10" stroke-dasharray="" stroke-dashoffset="0" font-family="Sans Serif" font-weight="normal" text-anchor="start" style="mix-blend-mode: normal"><tspan x="0" dy="0">大炸弹</tspan></text></g></g></svg>