<svg version="1.1" xmlns="http://www.w3.org/2000/svg" xmlns:xlink="http://www.w3.org/1999/xlink" width="61.94611" height="76.97199" viewBox="0,0,61.94611,76.97199"><g transform="translate(-209.02697,-141.51402)"><g data-paper-data="{&quot;isPaintingLayer&quot;:true}" fill-rule="nonzero" stroke-linecap="butt" stroke-linejoin="miter" stroke-miterlimit="10" stroke-dasharray="" stroke-dashoffset="0" style="mix-blend-mode: normal"><path d="M270.22306,149.02736v61.9466c0,3.72889 -3.03179,6.76205 -6.76332,6.76205h-46.92073c-3.7276,0 -6.76204,-3.03313 -6.76204,-6.76205v-61.94789c0,-3.72889 3.03445,-6.76205 6.76205,-6.76205h46.92074c3.73154,0 6.76332,3.03447 6.76332,6.76334z" fill="#99ffb2" stroke="#89e4a0" stroke-width="1.5"/><text transform="translate(222.9457,207.92457) scale(0.27778,0.27778)" font-size="40" xml:space="preserve" fill="#327f49" fill-rule="nonzero" stroke="none" stroke-width="1" stroke-linecap="butt" stroke-linejoin="miter" stroke-miterlimit="10" stroke-dasharray="" stroke-dashoffset="0" font-family="Sans Serif" font-weight="normal" text-anchor="start" style="mix-blend-mode: normal"><tspan x="0" dy="0">传送卡</tspan></text><path d="M238.97681,166.23505c-0.67356,0 -1.34711,-0.67356 -1.34711,-1.34711c0,-0.67356 0.67356,-1.34711 1.34711,-1.34711h5.16394v-4.26586c0,-0.67356 0.67356,-1.34711 1.34711,-1.34711c0.44904,0 0.67356,0.22452 0.89808,0.44904l9.87884,9.87884c0.44904,0.44904 0.44904,1.34711 0,1.79615l-9.87884,9.87884c-0.44904,0.44904 -1.34711,0.44904 -1.79615,0c-0.22452,-0.22452 -0.44904,-0.67356 -0.44904,-0.89808v-4.04134h-10.5524c-0.67356,0 -1.34711,-0.67356 -1.34711,-1.34711v-2.46971l-6.73557,6.73557l6.73557,6.73557v-2.46971c0,-0.67356 0.67356,-1.34711 1.34711,-1.34711h6.51105c0.67356,0 1.34711,0.67356 1.34711,1.34711c0,0.67356 -0.67356,1.34711 -1.34711,1.34711h-5.16394v4.26586c0,0.44904 -0.22452,0.67356 -0.44904,0.89808c-0.44904,0.44904 -1.34711,0.44904 -1.79615,0l-10.10336,-9.87884c-0.44904,-0.44904 -0.44904,-1.34711 0,-1.79615l10.10336,-10.10336c0.22452,0 0.44904,-0.22452 0.89808,-0.22452c0.67356,0 1.34711,0.67356 1.34711,1.34711v4.26586h10.5524c0.67356,0 1.34711,0.67356 1.34711,1.34711v2.46971l6.73557,-6.73557l-6.73557,-6.73557v2.46971c0,0.67356 -0.67356,1.34711 -1.34711,1.34711h-6.51105z" fill="#4fca73" stroke="none" stroke-width="1"/></g></g></svg>