<svg version="1.1" xmlns="http://www.w3.org/2000/svg" xmlns:xlink="http://www.w3.org/1999/xlink" width="61.94611" height="76.97199" viewBox="0,0,61.94611,76.97199"><g transform="translate(-209.02696,-141.51402)"><g data-paper-data="{&quot;isPaintingLayer&quot;:true}" fill-rule="nonzero" stroke-linecap="butt" stroke-linejoin="miter" stroke-miterlimit="10" stroke-dasharray="" stroke-dashoffset="0" style="mix-blend-mode: normal"><path d="M270.22306,149.02737v61.9466c0,3.72889 -3.03179,6.76205 -6.76332,6.76205h-46.92073c-3.7276,0 -6.76204,-3.03313 -6.76204,-6.76205v-61.94789c0,-3.72889 3.03445,-6.76205 6.76205,-6.76205h46.92074c3.73154,0 6.76332,3.03447 6.76332,6.76334z" fill="#99ffb2" stroke="#89e4a0" stroke-width="1.5"/><text transform="translate(222.94571,207.92458) scale(0.27778,0.27778)" font-size="40" xml:space="preserve" fill="#327f49" fill-rule="nonzero" stroke="none" stroke-width="1" stroke-linecap="butt" stroke-linejoin="miter" stroke-miterlimit="10" stroke-dasharray="" stroke-dashoffset="0" font-family="Sans Serif" font-weight="normal" text-anchor="start" style="mix-blend-mode: normal"><tspan x="0" dy="0">免费卡</tspan></text><g><path d="M225.41319,173.62049c0,-7.79335 6.31777,-14.11113 14.11111,-14.11113c7.79335,0 14.11112,6.31776 14.11112,14.11113c0,7.79335 -6.31777,14.11112 -14.11112,14.11112c-7.79335,0 -14.11111,-6.31777 -14.11111,-14.11112z" fill="#ffa500" stroke="#f0893e" stroke-width="1.5"/><text transform="translate(230.34308,176.75478) scale(0.2357,0.2357)" font-size="40" xml:space="preserve" fill="#ffff00" fill-rule="nonzero" stroke="none" stroke-width="1" stroke-linecap="butt" stroke-linejoin="miter" stroke-miterlimit="10" stroke-dasharray="" stroke-dashoffset="0" font-family="Sans Serif" font-weight="normal" text-anchor="start" style="mix-blend-mode: normal"><tspan x="0" dy="0">Free</tspan></text></g></g></g></svg>